<?xml version="1.0" encoding="utf-8"?>
<!-- Generator: Adobe Illustrator 18.1.0, SVG Export Plug-In . SVG Version: 6.00 Build 0)  -->
<svg version="1.1" xmlns="http://www.w3.org/2000/svg" xmlns:xlink="http://www.w3.org/1999/xlink" x="0px" y="0px"
	 viewBox="0 0 1000 1000" style="enable-background:new 0 0 1000 1000;" xml:space="preserve">
<style type="text/css">
	.st0{fill:none;stroke:#ED1C24;stroke-miterlimit:10;}
</style>
<g id="Guides">
</g>
<g id="Metrics">
	<line class="st0" x1="0" y1="900" x2="1000" y2="900"/>
	<line class="st0" x1="0" y1="97.4" x2="1000" y2="97.4"/>
</g>
<g id="Art">
	<g>
		<path d="M746.2,558.9c2.8,3.1,3.2,5.8,2.6,8.8c-0.6,2.8-0.7,5.4,2.5,7c0.9,0.4,1.5,1.9,1.8,3c0.7,2.3,1,4.7,1.6,7
			c0.7,2.7,2.1,3.5,4.1,1.7c3.6-3.4,7.4-6.9,10-11c3.8-6.2,9.2-9.5,16-11.4c1.5-0.4,2.8-2,4-3.3c1.4-1.6,2.3-3.7,3.9-5.1
			c1.5-1.4,2.8-0.7,3.2,1.4c0.1,0.7,0.2,1.6,0,2.3c-2.5,6.7-0.1,13.4,0.1,20.1c0.1,2.7,1,5.3,1.7,7.9c0.2,0.9,0.9,2.1,1.6,2.3
			c5.8,1.9,9.9,7.3,16.5,7.4c1.7,0,3.5,0.2,5.1-0.2c6.8-1.8,13.6-3,20.7-1.3c1.3,0.3,2.8,0.8,3.8,1.7c2.4,2.1,4.7,1.5,7.2,0.4
			c2.1-0.9,4.2-1.6,6.4-2c1-0.2,2.7,0.1,3,0.8c0.4,0.7,0,2.4-0.6,3.1c-5.5,5.9-9.1,12.6-9.8,20.8c-0.3,3.2-1.7,5.8-4.6,7.6
			c-0.3,0.2-0.5,0.4-0.7,0.7c-4.5,4.2-4.7,7.9-0.2,12.2c3.6,3.4,7.8,6.3,11.3,9.9c3.7,3.7,7.2,7.6,10.1,12c1.6,2.5,2.2,6,2.2,9
			c0,3.6,1.7,4.7,4.7,5.2c1.7,0.3,3.5,0.7,4.8,1.7c1.6,1.1,1.5,2.8-0.6,3.4c-2.8,0.8-5.7,1.2-8.6,2c-1.9,0.5-4,1-5.4,2.2
			c-5.4,4.3-11.2,3.3-17.1,1.9c-3.1-0.7-6.2-1.5-9.3-1.7c-5.8-0.4-7.9,2.8-5.9,8.3c2.1,5.6,4.1,11.3,6.1,16.9
			c1.4,4.1,2.2,8.2,0.5,12.5c-0.4,1,0.8,2.6,1.5,3.9c0.8,1.5,2.2,2.7,2.7,4.3c0.9,2.7-0.5,4.1-3.3,3.1c-1.8-0.7-3.4-1.9-5-3.1
			c-2-1.5-3.9-2.2-6.3-1.1c-2.6,1.1-5.1,0.7-7.3-1.3c-4.2-4.1-8.5-8.1-12.6-12.3c-8.1-8.2-17.4-13.8-28.7-17.2
			c-8.3-2.6-15.1-1.1-21.7,2.7c-3.9,2.2-7.2,6-9.8,9.8c-6.3,9.1-12,18.7-18.1,28c-7.8,11.9-15.5,24-23.6,35.7
			c-2.8,4.1-6.7,7.4-10.3,10.9c-4.3,4.3-8.8,8.3-13.1,12.6c-8.3,8.3-16.7,16.6-24.8,25.1c-10.5,11-21.4,21.8-30.9,33.6
			c-6.2,7.7-14.2,12.4-21.7,18.1c-11.1,8.5-24.6,11.8-36.9,17.9c-5.6,2.8-12.3,2.9-18.9,1.8c-6.6-1.1-13.4-0.5-20.2-0.9
			c-4.4-0.2-8.8-1-13.3-1.3c-5.3-0.4-10.6-0.4-15.9-0.7c-1.4-0.1-2.9-0.3-4.3-0.5c-2.4-0.3-4.7-0.9-7.1-1
			c-18.6-0.7-34.7-7.6-48.8-19.5c-3.1-2.6-6.7-4.6-9.4-7.5c-9.9-10.7-19.9-21.4-29.3-32.5c-6.2-7.4-11.1-15.9-17.5-23.1
			c-6.8-7.6-10.3-16.9-14.3-25.8c-7.5-16.5-16.7-31.7-30.3-43.9c-6.6-5.9-13-12-19.8-17.6c-8-6.6-16.1-13.3-24.7-19.1
			c-6.9-4.6-14.6-8-22-11.9c-0.8-0.4-1.9-0.5-2.9-0.6c-6.2-0.3-10.1-5.3-15.4-7.4c-8.6-3.3-14.1-10.4-19.9-17
			c-9.9-11.5-18.8-23.7-25.8-37.2c-3.3-6.4-7.4-12.3-11.1-18.5c-1.6-2.6-3.6-5.2-4.3-8c-1.3-5.5-5.3-8.1-9.6-10.6
			c-7.9-4.6-13.7-11.4-19.8-17.9c-2.1-2.2-3.2-5.2-5.1-7.6c-4.9-6.4-13-8-20.2-4.5c-5.4,2.6-10.8,6.1-17.3,5.2
			c-2.5-0.3-5.5-0.8-7.3-2.4c-3.9-3.5-7.6-2-11.6-0.8c-0.5,0.2-1,0.7-1.4,0.7c-1.3,0-2.6-0.2-3.9-0.4c0.4-1.2,0.4-2.8,1.2-3.5
			c2.3-2,4.9-3.6,7.3-5.5c0.9-0.7,2-1.9,2-2.7c-0.6-6.2,2.8-11.1,5-16.3c1-2.3,2.4-4.4,3.6-6.6c1.8-3.4,1.3-7.1-1.7-9.4
			c-5.2-4.1-9.2-9.1-12.8-14.6c-0.8-1.2-2.1-2.1-3.1-3.1c-0.8-0.8-1.8-1.4-2.2-2.3c-0.4-1.1-0.7-2.6-0.2-3.6
			c0.3-0.6,2.2-0.8,3.2-0.5c4.3,1.6,7.9,1.3,11.9-1.6c4.9-3.5,10.6-6,17-5.5c1.9,0.1,3.9-0.6,5.7-1.3c0.8-0.3,1.7-1.4,2-2.2
			c1.4-5.2,2-10.6,4-15.5c1.3-3.4,4.4-6.1,6.6-9.1c0.8-1.1,1.8-2.4,1.9-3.6c0.2-2.1-0.5-4.4-0.4-6.5c0.1-1.3,1.2-2.4,1.9-3.7
			c1.1,0.8,2.4,1.5,3.2,2.5c1.2,1.8,2.1,3.8,3.1,5.7c1.4,2.5,3.5,3.1,6.3,3.8c3.4,0.8,6.5,3.2,9.5,5.2c2.8,1.9,5.2,4.2,8,6.2
			c3.7,2.6,10.1,3.4,13.9-1.4c1.2-1.5,3.4-2.2,5.1-3.1c4.7-2.4,7.3-6.7,10-10.9c1.1-1.8,2.7-3.3,4.4-2.1c1.3,0.9,2.5,3.4,2.2,4.8
			c-0.9,4.3-0.8,8.1,0.8,12.3c2,5.4,2.9,11.1,4.4,16.7c0.3,1,0.7,2.1,1.1,3.1c2.4,4.9,4.1,5.3,8.8,2.7c3.2-1.8,6.8-2.9,10-4.6
			c1.3-0.7,2.4-2,3.3-3.2c0.6-0.7,0.5-2.1,1.1-2.7c1.1-0.9,2.5-1.8,3.8-1.9c0.6-0.1,1.9,1.5,2.1,2.4c0.5,3.3,0.7,6.6,1,10
			c0.1,0.6,0.1,1.3,0.4,1.8c6.2,9.2,6.3,18.9,2.3,29c-1.1,2.7-2.5,5.3-3.4,8.1c-0.3,1.1-0.1,3,0.6,3.6c6.1,4.9,12.4,9.6,18.7,14.2
			c3.5,2.6,7.3,4.7,10.6,7.5c3.5,3,7.1,2.8,11,1.3c3.6-1.3,7-3.2,10.7-3.9c4.7-0.9,9.5-0.9,14.3-1.2c0.7,0,1.3,0,2-0.1
			c3.3-0.3,3.6-1,2.4-4.1c-1.7-4.7-3.8-9.3-4.6-14.2c-2-13,0.4-24.9,9.6-34.9c3.5-3.8,6.8-7.7,9.6-12c1.2-1.9,1.8-4.9,1.4-7.1
			c-1-5.2-2.5-10.4-4.5-15.2c-2.3-5.5-5.3-10.7-8-16.1c-4-7.8-4.8-16.2-4.7-24.8c0.2-10.3,0-20.6-2.7-30.5
			c-3.2-11.5-7.1-22.7-14.1-32.7c-5.5-7.7-10.6-16-11.7-25.9c-0.1-0.6-0.2-1.4-0.5-1.9c-1.6-2.4-1.7-5,0.1-7c2.1-2.3,5.2-2.5,8-1.3
			c9.3,4,19.2,6.4,27.5,12.6c6.3,4.7,14.1,6.5,21.8,7c9.4,0.5,16.3,5,23.1,10.7c8.5,7.1,18.6,11.2,29.7,13.4
			c7.4,1.5,14.6,4.2,21.9,6.3c1,0.3,2.4,0.5,3.3,0.1c5.1-2.4,10-5.4,15.3-7.3c6.7-2.4,13.7-4.3,20.7-5.7c7.2-1.4,14.5-1.4,21.8,0.3
			c5,1.1,6.5-0.4,7.9-5.2c4-13.5,2.3-27,0.8-40.6c-2-18.5-4.7-37-6.1-55.6c-0.8-11-3.4-21.7-4.8-32.6c-0.8-6.6-0.4-13.3-0.4-19.9
			c-0.1-12.7-0.4-25.5-0.1-38.2c0.2-10.4,0.5-21,1.9-31.3c0.8-5.9,3.3-11.7,5.8-17.2c2.3-5.3,5.4-10.2,8.3-15.2
			c0.9-1.6,2.3-2.9,3.6-4.2c3.8-3.7,5.7-3.6,9.1,0.5c4.4,5.3,7.9,11,9,17.9c1.7,10.4,3,20.9,5,31.3c1.4,7.1,3.1,14.3,5.6,21.1
			c3.6,9.9,4.5,20,4,30.5c-0.2,4.5,0.9,9,1,13.6c0.2,9.2-0.2,18.4,0,27.6c0.3,19,0.7,37.9,3.4,56.8c2.5,17.2,4.3,34.6,6,51.9
			c0.7,7,0.6,14.2,0.9,21.2c0.2,4.8,1,5.8,5.7,6.9c12.1,2.8,24.5,2.6,36.7,3.1c8.4,0.3,16.9-2.6,25.4-4.2c5.3-1,10.6-2.4,16-3
			c11-1.2,21.7-3.5,32.3-6.5c10-2.8,20.2-3.4,30.5-2.3c2.7,0.3,5.5-0.2,8.1,0.3c3.4,0.7,6.7,1.9,9.8,3.3c0.9,0.4,1.5,2.3,1.7,3.6
			c1,7.2-1.7,14-3.2,20.8c-2.9,13.3-9.1,25.4-13.6,38.1c-3.1,8.7-5.4,17.7-8.4,26.5c-1.1,3.3-3.1,6.4-4.6,9.6
			c-2.9,6.2-6.1,12.3-8.4,18.7c-3,8.7-5.6,17.6-7.8,26.6c-3.5,14.4-8.4,28.3-15.1,41.6c-4.4,8.8-9.4,17.2-15.7,24.7
			c-1.3,1.6-1.4,3-0.4,4.7c2.2,3.6,4.8,6.6,9.3,7.5c13,2.5,24.4,9.1,35.8,15.4c1.2,0.7,2.1,2.1,3,3.3c1.6,2,2.9,4.1,4.5,6
			c2.4,2.7,3.2,2.5,5.7,0c1.1-1.1,2.8-1.7,4.2-2.4c0.5-0.3,1-0.4,1.5-0.7c7.1-4.7,15.3-8.1,20.1-15.6c3.1-4.7,5.4-9.9,8-14.8
			c2.9-5.6,5.4-11.5,11.1-15.1c0.7-0.4,1.1-1.3,1.6-2C742,565.8,744,562.6,746.2,558.9z M386.3,607.1c-2.7-3-4.8-5.3-6.9-7.7
			c-1.1-1.2-2.1-1.4-3.6-0.3c-6.1,4.7-12.3,9.4-18.6,13.8c-3.1,2.1-6.6,3.7-10,5.3c-1.9,0.9-4.2-1.1-3.6-3.2
			c0.4-1.4,1.6-2.7,2.7-3.8c6.9-7.2,13.9-14.3,20.8-21.6c0.5-0.5,0.6-2.3,0.2-2.7c-6.7-5.9-13.4-11.8-20.4-17.3
			c-5.2-4.1-10.8-7.7-16.3-11.3c-1.3-0.9-3.1-1.2-4.8-1.3c-2.5-0.2-5,0.1-7.4,0.2c-2.8,0.1-5.7,0-8.4,0.4c-1.3,0.2-3,1.2-3.5,2.3
			c-0.8,1.8-0.8,4-0.9,6c-0.4,6.5-0.1,13.1-1.2,19.5c-0.9,5.9,1.2,10.9,3,16.1c1.9,5.4,4.7,10.5,5.9,16.1c1.9,8.5,2.7,17.2,4,25.8
			c1.1,7.1-2.3,14.6-8.6,18.3c-5.2,3.1-10.5,6.1-15.8,9c-3.1,1.7-6.2,3.7-9.6,4.7c-4.2,1.3-8.7,1.8-13.1,2.7
			c-1.2,0.3-2.3,1.1-3.9,1.8c1,1,1.4,1.5,1.9,1.8c4,2.1,8.1,4.3,12.2,6.2c4.7,2.2,9.8,3.8,14.2,6.4c4.9,2.9,9.3,6.8,13.9,10.3
			c4.5,3.4,8.9,7,13.4,10.4c3.4,2.5,7.2,4.5,10.4,7.3c5.6,4.9,10.8,10.2,16,15.4c1.9,1.9,3.6,4.1,5,6.4c4.4,7.8,8.5,15.7,12.8,23.5
			c2.2,4,4.9,7.6,7.1,11.6c4.5,8.4,8.3,17.2,13.5,25.1c7.3,11.2,15.4,21.9,23.8,32.3c5.1,6.4,11.2,12.1,17.2,17.8
			c2.8,2.6,6.4,4.2,9.5,6.6c2.7,2.2,4.5,5.1,8.3,6.4c4.9,1.8,9.6,4.6,13.8,7.8c6.4,4.8,13.2,8.6,21,9.9c4.9,0.8,9.7,2.4,14.9,1.1
			c3.1-0.8,6.6,0,9.9,0.3c1.7,0.1,3.3,1,5,1c3.9,0,7.8-0.8,11.7-0.5c12.4,1,24.7,2.4,37.1,3.4c2.4,0.2,5-0.2,7.3-1
			c4.6-1.7,8.9-4.2,13.4-6c10.6-4.3,20.7-9.7,30-16.4c3.8-2.7,7.4-5.7,11-8.7c1.4-1.2,2.2-3.2,3.5-4.6c3.4-3.6,7-7.1,10.5-10.7
			c10.1-10.5,20.4-20.9,30.1-31.7c8.1-9,17.9-16.2,25.2-26.1c7.5-10.1,16.6-19.1,24.2-29.2c8.9-11.9,16.8-24.6,23.9-37.8
			c4.8-8.9,10.5-17.5,20.9-21.1c0.7-0.2,1.1-1,1.8-1.3c2.3-1.2,4.8-3.2,7.1-3.1c5.5,0.2,11,1.3,16.4,2.5c3.2,0.7,6.6,1.7,9.4,3.5
			c9.8,6.4,18.8,13.7,26.2,23c2.1,2.6,5.2,2.7,8,0.7c0.6-0.4,1.6-0.7,2.3-0.5c2.8,1,3.4-0.8,3.4-2.8c0-2.6-0.1-5.3-0.9-7.8
			c-1.7-5.6-3.8-11.1-5.7-16.6c-2.2-6.5-0.1-14.8,9.6-14c3,0.2,6,0.9,9,1.4c5,0.8,9.7,0.7,14.2-2.1c5-3.1,6.8-8.7,4-13.8
			c-4-7.5-10-13-16.9-17.8c-3.4-2.4-6.5-5.5-9.1-8.8c-2.7-3.4-1.5-7.9,1.5-12.4c2.9-4.3,5.6-8.8,7.6-13.6c2.8-6.8-1.1-13.5-8.5-14
			c-4.6-0.3-9.4,0.9-14,2c-4.8,1.2-9.4,2.8-14.2,0.2c-4.1-2.2-8.2-4.6-12.5-6.4c-6.1-2.6-7.1-7.7-7.2-13.4c-0.1-2.1,0.4-4.1,0.5-6.2
			c0.2-4.3-4-7.4-7.7-5.2c-3.3,2-6.4,4.5-8.9,7.4c-3.4,3.9-6.2,8.3-9.3,12.5c-2.1,2.8-4.7,4.7-8.3,4c-4.1-0.8-7-2.9-7.9-7.2
			c-0.3-1.7-1.2-3.3-1.4-5c-0.5-3.4-3.3-3.7-5.6-4c-1.2-0.2-3.2,1.2-4,2.5c-2.5,3.7-4.8,7.5-6.8,11.5c-4.7,9.5-9.7,18.5-18.8,24.7
			c-10.6,7.2-21.2,14.4-31.6,22c-9.1,6.7-18.1,13.6-24.8,22.9c-4.4,6.2-10.2,11.7-10.1,20c0.1,4.9,0,9.8,0.9,14.6
			c3,16.5,9,31.8,18.2,45.9c4.4,6.7,4.9,6.9,12.5,5.8c2-0.3,4.9,0.4,6.1,1.8c1.7,2,0.2,4.6-1.6,6.4c-1.7,1.6-3.8,2.9-5.5,4.6
			c-2.8,2.9-5.4,3.8-8.6,1.3c-3.7-2.9-7.2-6.2-10.3-9.9c-4.6-5.6-8.8-11.5-13.1-17.3c-4.7-6.4-9-13.1-14.1-19.1
			c-4.5-5.3-5.5-11.1-4.8-17.6c0.3-2.5,0.4-5.1,1.2-7.4c1.4-4.3,1.2-9.5,5.4-12.3c6.8-4.6,10.3-12.2,16.2-17.6
			c3.4-3.1,6.1-7.2,9.5-10.3c8-7.2,16.2-14.2,24.4-21.2c1.6-1.4,2.1-2.9,1.4-4.9c-2.6-6.9-6.6-12.6-13.5-15.6
			c-4.1-1.8-8.3-3.1-12.5-4.5c-4.3-1.5-8.5-3.5-12.9-4c-6-0.7-9.9-3.8-12.8-8.4c-1.6-2.5-2.8-2.9-5.4-1.1
			c-6.1,4.4-12.2,8.8-18.7,12.6c-8.6,5-17.6,9.3-26.2,14.2c-4.3,2.5-8,5.8-12.3,8.9c1.2,1.1,1.8,1.8,2.6,2.4
			c6.3,5.6,12.7,10.9,18.7,16.7c6.7,6.6,13.1,13.6,19.5,20.5c0.4,0.5,0.8,1.5,0.6,2c-0.2,0.5-1.3,1.1-1.8,0.9
			c-1.6-0.6-3.2-1.3-4.6-2.3c-1-0.7-1.7-2-2.7-2.8c-8.6-6.9-17.1-13.8-25.9-20.5c-4.7-3.6-9.9-6.8-14.8-10.2c-2.1-1.5-3.5-0.9-5,0.9
			c-1.9,2.3-4.3,4.4-6.1,6.8c-0.6,0.8-0.9,2.7-0.4,3.3c8.4,11.3,17,22.4,25.4,33.6c0.8,1,1.4,2.4,1.4,3.7c0,0.5-1.8,1.1-2.9,1.5
			c-2.3,0.9-4.2,0.4-5.7-1.7c-0.7-1-2.1-1.6-3-2.5c-4-4.1-8.2-8-11.9-12.3c-4.2-4.7-8-9.8-11.9-14.7c-1.7-2.1-3.2-2.5-5.1,0
			c-7.3,9.2-17.9,13.2-28.7,15.8c-9,2.2-18.6,2.2-27.9,2.7c-5.6,0.3-11.7,0.8-16.8-1c-7.6-2.8-15.8-4.6-22.4-10.2
			c-5-4.2-9.3-8.6-12.4-14.5c-2.8-5.3-6-10.3-9.4-15.3c-1-1.5-2.8-2.8-4.6-3.6c-4.6-2.1-9.3-3.7-13.9-5.8c-4.2-1.8-7.7-0.6-10.9,2
			c-11.7,9.2-23.3,18.6-35,27.8c-0.8,0.6-1.9,0.8-2.9,1.2c-1.2,0.5-2.4,1-3.6,1.3c-1.5,0.4-3,0.5-4.5,0.8c0-1.6-0.4-3.5,0.2-4.8
			c0.9-1.7,2.6-2.9,4-4.2c2.9-2.6,6.1-4.9,9-7.6c8.7-8.3,17.4-16.8,26.1-25.2C383.3,609.6,384.9,608.3,386.3,607.1z M301.7,340.8
			c-0.4,0.3-0.7,0.7-1.1,1c1.1,2.5,2,5.2,3.4,7.5c3.5,5.9,7.3,11.6,10.8,17.5c5,8.3,9.9,16.7,10.1,26.9c0.2,11.9,0.6,23.8,1.4,35.6
			c0.3,4.6,1,9.4,2.7,13.7c2.5,6.4,5.7,12.5,9,18.5c4.7,8.4,6.4,17.3,5.7,26.7c-0.1,0.8-0.5,1.6-1.1,2.3c-4.6,5.3-9.3,10.6-13.8,16
			c-1.1,1.4-2.1,3.2-2.4,4.9c-0.9,4.7-1.9,9.4-2.1,14.2c-0.4,13.5,4.3,25.1,15,33.6c10.1,8,20.5,15.5,30.6,23.4c2,1.6,3.3,1.4,5-0.1
			c6.6-5.8,12-12.6,16.6-20c1.5-2.3,2.8-4.7,4.4-6.9c1.3-1.8,3.2-1.8,4.5-0.4c0.6,0.7,0.7,2.7,0.2,3.6c-2,3.1-4.1,6.2-6.6,8.9
			c-8.9,9.9-17.9,19.7-26.8,29.5c-0.6,0.6-1,1.3-1.5,2c0.2,0.2,0.5,0.4,0.7,0.6c3.5-3.1,7-6.1,10.5-9.2c8.7-7.5,18.1-14.4,24.9-23.9
			c1.2-1.7,2.6-3.3,3.9-4.8c1.1-1.2,2.4-2.6,4.1-0.9c1.2,1.2,1.2,5.3,0.2,6.3c-3.6,3.5-7.1,7-10.7,10.4c-4.9,4.8-9.8,9.6-14.9,14.3
			c-1.9,1.7-2,3.3-0.1,4.9c2.1,1.8,4.4,3.5,6.7,5.3c0.8-0.7,1.6-1.2,2.3-1.9c4.6-4.8,9-9.7,13.6-14.4c2.4-2.5,4.9-5,7.7-7.1
			c0.9-0.7,2.7-0.4,4.1-0.5c-0.2,1.3,0.1,2.8-0.6,3.7c-1.5,2-3.3,3.7-5.1,5.5c-5.3,5.5-10.8,10.8-15.8,16.5
			c-3.1,3.5-5.8,7.3-9.9,9.9c-3,1.9-5.3,4.8-7.9,7.2c7-4,14-7.8,20.1-12.7c9.3-7.4,18-15.4,26.8-23.2c1.3-1.1,2.2-2.5,4.1-0.9
			c0.6,0.5,1.6,0.4,2.5,0.5c0.2,0.4,0.4,0.7,0.5,1.1c-5.2,4.2-10.5,8.3-15.7,12.5c-5.9,4.9-11.8,9.9-18.2,15.4
			c1.9,1.2,3.1,2.1,4.4,2.8c5,2.7,10.7,4.5,14.7,8.2c4.4,4,7.3,9.6,10.9,14.5c3.1,4.2,5.7,9,9.7,12.2c7.9,6.4,16.6,11.8,27.2,12.2
			c10.5,0.4,21.2,1.2,31.7,0.2c12.7-1.3,24.5-5.8,33.4-15.9c2.9-3.4,2.9-3.6-0.4-6.7c-6.2-5.9-12.4-11.9-18.4-18
			c-0.8-0.8-1.2-3.1-0.7-3.7c1.2-1.5,2.9-1.6,4.4,0.2c1.7,2,3.5,3.9,5.4,5.7c3.8,3.6,7.7,7,11.5,10.5c0.2-0.2,0.4-0.4,0.6-0.6
			c-0.9-1.3-1.9-2.6-2.8-4c-3.6-5.3-7.3-10.6-10.8-16c-0.9-1.4-2-3.2,0.1-4.6c2.2-1.5,3.3,0.3,4.5,1.8c5.6,7.6,11.3,15.2,16.9,22.8
			c1.5,2,2.8,2.6,4.7,0.6c1.8-1.9,3.7-3.7,5.3-5.7c0.5-0.6,0.6-2,0.2-2.5c-3.7-4.4-7.6-8.5-13.2-10.8c-5.2-2.1-10.2-4.8-15.1-7.5
			c-1.2-0.7-1.6-2.7-2.4-4.1c1.5-0.3,3.1-0.8,4.6-0.8c0.9,0,1.9,0.5,2.7,1c9.6,5,18.7,10.6,26.6,18.2c3.2,3.1,7.3,5.2,11,7.8
			c-3.1-3.8-6.6-7.2-10.4-10.2c-3.4-2.7-7.3-4.7-10.6-7.5c-4.1-3.5-8.5-6.4-13.6-8.3c-1.7-0.6-3.4-1.7-4.6-3
			c-0.7-0.8-0.7-2.7-0.2-3.7c0.3-0.6,2.5-1.2,3.2-0.7c6.7,4.2,13.4,8.5,19.9,13.1c3.8,2.7,7.2,6,10.9,8.9c0.7,0.6,2.1,1.2,2.8,0.9
			c3.1-1.3,6.1-2.8,9-4.4c7.5-4.2,14.9-8.5,22.4-12.6c2.7-1.5,5.6-2.4,8.2-4c6.9-4.4,13.9-8.7,20.2-13.8c4.7-3.7,8.7-8.4,12.8-13
			c6.4-7.2,9.5-16.3,13.5-24.9c2.6-5.5,5.3-11,7.2-16.8c2.1-6.7,3.2-13.8,4.8-20.7c3.4-13.8,7.3-27.4,14.3-39.9
			c1.3-2.3,2.2-4.8,3.5-7.8c-3.5-0.5-6.4-1-9.3-1.2c-5.3-0.5-7.5-2.9-6.4-8.2c0.6-3.2,1.9-6.2,2.9-9.3c0.3-1.1,0.8-2.1,1.4-3.8
			c-2,0.3-3.4,0.5-4.8,0.6c-3.7,0.3-7.3,0.7-11,0.7c-1.1,0-2.8-1.3-3-2.2c-0.2-1,0.9-2.6,1.8-3.3c2-1.4,4.2-2.9,6.6-3.6
			c8.3-2.3,14.8-8.1,22-12.3c6.3-3.7,11.2-9.6,16.6-14.6c6.9-6.5,8.8-15,9.6-24c0.1-0.8-0.1-1.7-0.3-3.2c-1.8,0.8-3.5,1.1-4.7,2
			c-2.9,2.1-5.7,4.4-8.4,6.8c-8.7,8.1-18.2,13.8-30.9,13.4c-5.2-0.2-10.9,1.4-15.7,3.5c-5.9,2.6-11.4,6.4-16.6,10.3
			c-15.4,11.7-33.1,16.5-52.1,17.4c-0.9,0-1.7,0.9-2.5,1.4c0.6,0.8,1,2,1.8,2.3c2,0.8,4.1,1.3,6.2,1.9c7.2,2,11,4.9,11.4,12.6
			c0.1,1.4,0.2,2.8,0.2,4.2c-0.1,8.4,2.1,11.2,9.8,14.7c6,2.7,11.8,6,17.6,9.2c1.5,0.8,3,2.2,3.6,3.6c2.8,6.7,6.7,13.1,6.7,20.7
			c0,0.8,0,1.8-0.4,2.5c-1.9,2.6-4,5.1-5.8,7.8c-1,1.5-2.1,3.1-2.4,4.8c-1,5.7,1.4,10.7,3.9,15.6c2.3,4.4,2.9,8.9,2,13.6
			c-1.2,6-5.1,8.7-11,7c-5.4-1.6-10.7-3.7-16-5.6c-12-4.4-21.9-12-31-20.7c-3.2-3.1-3.5-6.9-0.7-10.5c0.6-0.8,1.2-1.5,2-2.1
			c2.4-1.9,1.9-3.6-0.3-5.3c-2.6-1.9-5.2-3.9-7.9-5.7c-3.6-2.5-3.6-4.5-0.2-7.2c2.7-2.1,2.7-3.2-0.4-5c-5.4-3.1-11.1-5.6-17.3-6.5
			c-4-0.6-5-3-2.8-6.5c1.2-1.8,2.6-3.6,3.5-5.5c1.8-3.9,1.3-7.6-0.9-9.1c-2-1.3-5.8-0.5-8.4,2.7c-3.5,4.4-6.8,9-9.8,13.8
			c-2.5,4.1-4.2,8.6-6.6,12.7c-2.2,3.7-7.8,5.1-11.6,3.3c-2.5-1.2-5.1-2.8-4.8-6c0.6-7.9,1.1-16,4.7-23.2c2.6-5.3,5.7-10.3,8.5-15.4
			c0.9-1.7,1.5-3.7,2.2-5.5c-0.3-0.2-0.6-0.4-0.8-0.6c-0.8,0.6-1.7,1.2-2.3,1.9c-5.6,6.1-11.1,12.3-16.8,18.3
			c-3.2,3.4-6.7,6.5-10.3,9.5c-2.5,2.1-6,1.4-8.2-1c-1.9-2.1-1.6-5.6,0.6-8c0.8-0.8,1.2-2,1.8-3c1.3-2.4,2.6-4.8,3.8-7.2
			c3.8-7.5,10.5-12.4,16.5-17.9c4.7-4.2,8.2-9.2,8.8-15.6c0.3-2.5,0.1-5.2-0.6-7.5c-1.1-3.4-5.5-3.7-9.1-0.4
			c-3.6,3.3-7,6.9-9.7,10.9c-5.7,8.5-13.8,8.5-18.7-0.4c-1.6-2.9-2.6-6.2-4.1-9.2c-0.9-1.7-2.8-4.7-3.4-4.5c-2.2,0.6-4.2,2.3-6,3.9
			c-0.8,0.7-1.4,2.1-1.5,3.2c-0.4,4.4-1.2,8.9-0.7,13.2c1,8.1,2.6,16.1,4.4,24.1c1.6,7.2,1.2,14.3-0.5,21.4c-0.8,3.3-2.6,6-6.1,6.6
			c-3.2,0.6-5.9-1.2-7.1-4.2c-2.1-5.3-4.1-10.8-5.3-16.4c-1.8-7.8-2.9-15.8-4.4-23.7c-0.2-1-0.8-1.8-1.6-3.5
			c-5.4,8.4-5.7,17.7-9,25.9c-3.3,8.2-5.8,16.7-8.8,25.6c-0.6-0.8-1.2-1.4-1.4-2c-2.3-7.1-3.7-14.2-4.2-21.7
			c-0.4-5.1-2-10.2-3.5-15.2c-1-3.3-2.6-6.4-4-9.6c-2-4.5-3.7-9.1-6-13.4c-2.5-4.5-4.5-9-4.5-14.1c0-2.6,1.3-5.9,0.1-7.5
			c-1.2-1.7-4.8-1.5-7.2-2.5c-10.8-4.6-21.6-9.2-32.4-13.9c-3.9-1.7-7.8-3.4-11.6-5.3c-4.9-2.4-9.8-4.7-14.4-7.6
			c-2.5-1.6-4.6-4-6.2-6.5c-5.5-8.6-10-18-18.5-24.2C306,342.9,303.8,341.9,301.7,340.8z M421.8,465.1c0.3,0,0.6,0,0.9,0
			c0.4-0.8,1-1.6,1.3-2.5c1.9-5.9,3.8-11.8,5.7-17.7c1.8-5.8,4.6-11,9.3-15.1c2-1.7,4.1-1.1,5.7,0.1c1,0.8,1.4,2.6,1.7,4.1
			c0.8,3.4,1.2,6.8,2,10.2c1.1,4.6,2.3,9.2,3.5,13.9c1.4,5.5,2.6,10.9,4.1,16.4c0.2,0.7,1,1.2,1.8,2.1c2.5-5.4,2.9-10.5,1.9-15.8
			c-1.2-6.3-2.7-12.6-3.8-18.9c-0.8-4.4-0.7-9-1.8-13.2c-1.2-4.7,1.2-8.5,1.8-12.7c0.8-5.2,4.7-7,8.7-8.8c4.6-2.2,7.5-1.4,10.2,3
			c1.4,2.3,2.2,5,3.3,7.4c1.3,2.6,2.5,5.3,4.1,7.7c1.2,1.9,2.9,1.6,4.3-0.2c3.4-4.4,6.7-8.9,10.3-13.1c2.7-3.2,4.5-6.8,10.3-6.4
			c6.3,0.5,11.1,5.2,12,9.9c1.6,8.3,0.5,16.6-4.4,23.9c2.6-0.5,5.4-1.3,8.3-1.6c2.8-0.4,4.7,1.3,4.2,4c-0.9,4.6-1.8,9.2-3.6,13.5
			c-2.4,5.6-6.1,10.6-8.3,16.2c-1.9,4.9-2.6,10.3-3.8,15.5c-0.4,1.8-0.8,3.8,1.6,4.8c2.4,1,3.7-0.6,4.7-2.4
			c3.6-6.4,7.2-12.7,10.6-19.2c3.3-6.4,7.8-10.8,15.2-12c5.5-0.9,9.7,1.8,11.5,7.1c1.5,4.5-0.8,7.9-2.6,11.4c-1.5,2.9-0.5,3.9,2.1,5
			c4.3,1.8,8.6,3.8,12.6,6c6.7,3.7,7.5,6.9,3.5,13.6c0.4,0.3,1,0.6,1.5,1c0.8,0.5,1.6,1.2,2.4,1.6c7.5,4.4,8.5,9.8,2.7,16
			c-1.9,2.1-2,3.9,0.1,5.6c5.9,4.6,11.5,9.7,18,13.4c6.5,3.7,13.8,5.8,20.8,8.5c5.6,2.2,8.4-0.1,7.6-6.2c-0.2-1.8-0.8-3.6-1.5-5.3
			c-1-2.7-2.1-5.2-3.3-7.8c-3.2-7.2-2-13.8,3-19.7c4.9-5.8,4.2-17.8-1.4-23c-5.9-5.5-12.3-10.1-20.4-12.3
			c-6.3-1.7-10.4-6.3-11.2-13.1c-0.2-1.8-0.1-3.7-0.2-5.5c-0.4-7.7-2.9-10.7-10.4-12c-6.8-1.2-9.9-4.2-11.3-11.2
			c-1.2-5.9-2.1-11.8-7.2-16c-4.5-3.8-4.5-8.9-3.6-14.1c0.3-2,1.1-4,1.8-6c1.2-3.5-0.2-6-3.7-6.7c-4-0.8-8.1-1.6-12.1-2.7
			c-3.4-0.9-6.7-1.9-9.9-3.4c-9.6-4.4-19.4-8.4-29.9-10.2c-3.2-0.5-6.6-0.7-9.5-2c-8.5-3.8-17.8-5.5-26-2
			c-12.8,5.3-26.7,6.8-39.1,13.6c-5.7,3.1-11,6.4-16,10.4c-1.4,1.1-2.4,2.9-3.1,4.5c-1.6,3.7-3.1,7.4-4.4,11.2
			c-1.7,5-0.8,9.7,1.8,14.1c1,1.7,2.1,3.3,2.9,5.1c2.9,6.9,6,13.8,8.5,20.9c1.5,4.2,2.2,8.6,3.2,12.9
			C421.2,462.2,421.4,463.6,421.8,465.1z M144,484.1c0,1.5,0.1,3.1,0,4.6c-0.3,4.1-3.1,7.1-7,6.5c-8.6-1.3-15.6,3.3-23.2,5.7
			c-2.8,0.9-3.9,3.6-2.4,6.1c1.2,2.1,3.2,4.1,5.3,5.3c9.6,5.3,9.6,16.5,5.2,21.6c-4.8,5.5-6.4,12-6.7,19c-0.2,5.4,2.8,8.5,8.3,7.9
			c4.2-0.5,8.3-2.1,12.3-3.5c3.8-1.3,7.1-3.8,11.4-3.2c6.9,0.9,12,4.9,16.2,9.9c3.9,4.5,7.3,9.5,11.1,14.1c1.6,2,3.6,4,5.8,5.2
			c4.6,2.4,9.5,4.1,14.2,6.2c1.3,0.6,2.9,1.4,3.5,2.5c1,2,1.8,1.2,3.1,0.6c1.6-0.8,3.2-1.7,4.9-2c9.6-1.6,14.2-5.8,14.6-14.3
			c0.5-13.2,5.8-24,15.3-32.9c6.5-6.1,10.3-14,14.6-21.6c3.7-6.4,3.2-13.8,0.3-20.3c-2.6-5.9-5.4-9-12.7-5.4
			c-2.2,1.1-4.4,2.3-6.7,3.5c-3.2,1.7-6.7,1.9-9.2-0.6c-2.9-2.9-5.8-6.3-7.1-10c-2-5.7-3.3-11.6-6.3-16.9c-1.4-2.5-2.5-2.9-4.8-1.2
			c-2.6,1.9-5.3,3.5-7.6,5.6c-2.8,2.5-5.8,2.8-9.1,2c-6.9-1.5-12.7-5.3-17.6-10c-3.4-3.3-7.1-4.5-11.5-4.5c-2.7,0-5.9,0-6.5,3.9
			c-0.1,0.6-0.9,1.2-1.5,1.7C145.8,473.2,143.2,477.9,144,484.1z M529.6,193.8c0.3-0.1,0.6-0.2,0.8-0.2c-1.5-6.6-2.8-13.4-4.7-19.9
			c-1.5-5.4-4.3-10.6-5.4-16.1c-1.6-8.1-2.2-16.4-3.3-24.6c-1.1-8.1-3.9-15.7-7.7-22.8c-2.3-4.3-4.5-4.2-6.9,0
			c-3,5.1-5.9,10.1-8.6,15.4c-1.5,3-3.2,6.2-3.5,9.4c-1.2,12.3-2.5,24.7-2.5,37.1c0,18.3,1,36.6,1.8,54.8c0.3,6.4,1.4,12.8,2,19.1
			c1.2,11.9,2.2,23.9,3.5,35.8c1.8,16.2,4,32.4,5.8,48.7c1.1,9.7,0.4,19.4-2.5,28.8c-1.5,4.9-0.8,5.7,3.3,7
			c11.7,3.5,23.3,7.2,34.9,10.9c2.5,0.8,3.6,0.2,3.7-2.2c0.2-3,0.3-6.1,0.3-9.1c-0.1-3.8-0.3-7.6-0.7-11.4
			c-1.2-11.6-2.4-23.2-3.8-34.7c-1-8.8-2.6-17.5-3.3-26.3c-1-11.4-1.4-22.8-2-34.2c-0.3-6.3-0.6-12.6-0.7-18.9
			c-0.2-11.4-3-22.7-1.5-34.2C529.2,202.1,529.3,198,529.6,193.8z M199.5,599.5c0.4,0.8,0.8,1.9,1.3,2.9c5.3,9.8,10.2,19.8,16,29.2
			c5.8,9.3,12.4,18.1,19,26.9c5,6.7,11.1,12.6,18.4,16.8c1.3,0.8,3.7,1.3,4.8,0.7c3.3-1.9,7-4,9.3-7c7.4-9.7,14.2-19.9,21.4-29.7
			c2.1-2.9,5-5.3,7.6-7.9c5.3-5.4,6.8-3.1,3.9-11.5c-1.7-5.1-4-10.1-5.7-15.2c-2.2-6.6-3.7-13.5-6.4-19.9c-1.9-4.4-3.1-8.2-0.4-12.6
			c1.7-2.8,0.4-4.6-2.2-6.3c-6.5-4.2-12.7-8.6-19-13.1c-5.8-4.2-11.5-8.6-17.2-12.9c-1.9-1.5-3.5-1.3-5.1,0.6
			c-2.4,2.8-4.9,5.5-7.3,8.4c-2.6,3.1-5.7,6-7.3,9.5c-2.9,6-5.3,12.1-3.6,19.3c1.3,5.5-6.9,16.2-13,18.1
			C209.4,597.3,204.7,598.2,199.5,599.5z M698.2,374.9c-2-0.2-4.1-0.2-6.1-0.6c-11.3-2.3-22.3,1.2-33.4,2.3
			c-7.4,0.7-14.6,3.2-22,4.2c-8.3,1.2-16.6,2.3-24.5,5.2c-10.5,3.8-21.4,4.8-32.5,3.9c-3.3-0.3-6.5-0.2-9.8-0.2
			c-0.7,0-1.9,0.4-2.2,1c-1.3,2.3,1.5,8.8,4.3,9.8c-4.5,3.9-3,8.4-1.6,13c0.6,1.9,1.3,3.7,2,5.5c2.6,6.6,2.6,6.6,9.8,6.4
			c0.8,0,1.5,0,2.3,0c11,0.3,21.3-3,30.9-7.5c7.3-3.4,13.6-8.9,20.2-13.7c5.4-3.9,11-7.1,17.6-8.1c5.8-0.9,11.7-1.2,17.5-2.1
			C682.8,392.3,689.6,382.4,698.2,374.9z M419.2,378.7c-1.9-0.6-3-1.1-4.1-1.3c-5.1-1.1-10.3-1.8-15.3-3.3c-6.5-2-13-4.3-19.2-7.3
			c-5.4-2.6-10.8-5.7-15.2-9.8c-3.8-3.5-7.6-5.6-12.5-6.1c-10-0.9-19.3-3.7-28.2-8.6c-7.2-3.9-14.9-7.1-22.4-10.5
			c-0.9-0.4-2.2,0.2-3.4,0.4c0.8,0.8,1.6,1.8,2.5,2.4c3.1,1.7,6.9,2.7,9.3,5c4.6,4.4,8.7,9.3,12.7,14.4c3.4,4.5,6,9.6,9.5,14
			c4.7,5.9,11.4,9,18.1,11.9c8.9,3.8,18.1,7.1,26.8,11.2c6.6,3.1,13.2,6.2,20.5,7.4c1.9,0.3,3,0.2,3.7-1.9c1.6-4.8,4.5-8.6,8.8-11.4
			C413.6,383.3,415.9,381.2,419.2,378.7z M698.4,412.2c-9.8,7.7-19.1,15-28.7,22.5c1,0.3,1.5,0.5,2.2,0.6c5,0.7,5.5,2.4,2.7,6.6
			c-2.2,3.3-3.8,7.1-5.6,10.7c-1,2.2,0,3.6,2.2,4c2,0.4,4.1,0.5,6.2,0.8c5.6,0.6,5.8,0.5,7.5-4.9c0.3-0.8,0.4-1.7,0.7-2.5
			c1.1-4.1,2-8.3,3.4-12.3c2.7-7.4,5.7-14.8,8.5-22.1C697.8,414.7,698,413.8,698.4,412.2z M506.1,448c-1.9,2.1-3.5,3.5-4.7,5.2
			c-1.3,1.7-2.3,3.7-3.4,5.5c0.3,0.2,0.5,0.3,0.8,0.5C501.9,456.2,505.9,453.9,506.1,448z M329.2,551.7c0.4-0.2,0.7-0.5,1.1-0.7
			c-0.9-1.5-1.7-3-2.6-4.5c-0.8-1.4-1.8-2.7-2.7-4.1c-0.2,0.1-0.5,0.3-0.7,0.4C326,545.8,327.6,548.8,329.2,551.7z"/>
		<path d="M454.3,605.4c-4.1-6.5-7.3-12.8-11.7-17.9c-2.7-3.1-5.9-5.9-8.1-9.5c-1.4-2.3-0.4-3.8,0.6-5.7c1-2,2.6-2.3,4.4-1.7
			c2.5,0.8,5,1.6,7.2,3c4.6,2.9,9.5,3.3,14.4,1.7c5.9-1.9,11.9-2.7,18-1.8c1.1,0.2,2.5,1.4,3,2.4c0.4,0.9-0.2,2.6-0.9,3.4
			c-1.5,1.5-3.7,2.4-5.1,4c-3,3.5-5.5,7.5-8.6,10.9c-2.5,2.8-5.5,5-8.3,7.6c-0.5,0.5-1.4,1.3-1.2,1.5c0.6,1.2,1.3,2.8,2.3,3.3
			c6.4,2.5,12.8,4.8,19.3,7c5.6,1.9,10.7,8.5,10.8,14.4c0.1,3.6-4.8,9.4-9.2,10.9c-7.5,2.5-15,1.9-22.5,0.1
			c-8.1-1.9-14.8-6.2-21.3-11c-3.5-2.6-3-6.9,0.6-9.4c1.8-1.2,3-3.1,4.5-4.7C445.6,610.2,448.2,605.8,454.3,605.4z M469.6,579.9
			c-8.2,0.7-15.6,1.3-23.6,2c1.3,0.7,2.4,1.7,3.6,1.9c4.3,0.6,4.3,1.1,3.5,5.2c-0.4,1.9,1,4.4,2,6.3c0.2,0.4,3.3,0.1,3.9-0.8
			C462.7,590,465.9,585.1,469.6,579.9z M444.5,619.3c-0.1,0.4-0.2,0.8-0.3,1.3c2.2,0.7,4.5,1.6,6.8,2.2c4.1,1,8.3,2,12.5,2.6
			c4.3,0.6,8.8,0.7,13.1,0.9c2.4,0.1,4.8,0,7.3,0c-0.9-4.5-5.7-8.4-8.2-6.9c-4.1,2.6-8.3,1.8-12.6,1.5
			C456.9,620.4,450.7,619.8,444.5,619.3z"/>
		<path d="M529.3,549.4c-8.7-0.1-17.3-0.7-25.5-4.5c-2.3-1.1-5.3-0.9-8-1c-3.9-0.1-5.2-2-3.3-5.4c3.7-6.8,7.7-13.6,13.9-18.3
			c3.9-3,8.4-5.3,12.8-7.7c8.8-5,18.2-4.6,27.6-2.3c2.7,0.7,5.6,1.5,7.8,3.1c4,2.8,6.3,6.7,5.9,12c-0.9,14-15.3,24.5-27.9,24.2
			C531.5,549.4,530.4,549.4,529.3,549.4z M535.5,543.6c8.8-0.4,17.6-8.4,19.2-17.6c0.6-3.6-0.6-6.1-3.5-7.7
			c-1.9-1.1-4.1-1.9-6.3-2.5c-1.1-0.3-3.2-0.2-3.6,0.4c-0.5,1-0.3,2.7,0.3,3.9c2.1,4.6,2.6,9.3,0.1,13.8
			C539.9,537.3,537.6,540.4,535.5,543.6z M514,522.5c2.4,1.4,3.8,2.3,5.2,3.2c0.9-1.4,1.9-2.8,2.5-4.4c0.1-0.3-1.4-1.9-1.8-1.8
			C518.1,520.1,516.5,521.1,514,522.5z M506.3,539.9c0.2-0.2,0.4-0.5,0.6-0.7c-1.1-2-2.2-4.1-3.6-6.6c-1.3,1.8-2.3,3.2-3.7,5
			C502.3,538.5,504.3,539.2,506.3,539.9z"/>
		<path d="M383.3,502.4c0.3-4.4,2.6-7.7,6.9-8.6c6.4-1.3,12.8-3,19.2-3.2c9-0.3,17.9,4.5,22,14.1c3.2,7.5,3.5,15.4,3.9,23.4
			c0.2,3.5,1.3,7,1.8,10.5c0.3,2.3,1,4.8,0.5,7c-1.2,4.8-3.8,9.1-8,11.9c-1.1,0.7-3,0.2-4.5,0.2c0.1-1.3-0.2-2.8,0.4-3.9
			c1.6-3.3,3.8-6.3,5.3-9.6c0.5-1.2,0.3-3.5-0.5-4.4c-1.4-1.5-3.6-3-5.5-3.1c-2.9-0.2-5.8,0.8-8.7,1.4c-16,3.1-25.1-4.6-29.4-18.5
			C385,514.2,384.4,508.2,383.3,502.4z M410.6,533.8c5.5-1.4,10.9-2.7,16.4-4.1c1.8-0.5,3-1.5,2.8-3.7c-0.3-3.6-0.2-7.2-0.8-10.7
			c-1.4-9.6-7.6-16.6-16.2-18.2c-7.4-1.3-14.5-0.5-21.3,2.8c-0.8,0.4-1.8,1.5-1.8,2.3c0.2,8.4,0.9,16.7,6,24
			C399.4,531.4,403.8,534.4,410.6,533.8z"/>
		<path d="M359.8,503.1c3.2-1.2,5.6-2.1,7.9-3c0.7-0.3,1.4-0.6,2.1-0.8c3.4-1,8.5,0.4,9.8,2.9c1.8,3.6-1.2,5.8-3.1,7.8
			c-1.4,1.5-3.6,2.7-5.6,2.9c-4,0.4-6,2.7-7.4,6c-0.7,1.6-1,3.4-1.8,4.9c-1.6,2.8-3.2,5.6-5.3,8.1c-2.4,2.8-5.4,3-8.9,1.6
			c-7.4-2.8-10.2-7.2-8.9-14.9c1.5-8.8,4.8-16.9,9.5-24.5c1.8-2.8,3.6-4.2,6.7-3.7c2.6,0.5,5.3,4.9,5.2,8
			C359.8,499.7,359.8,501.1,359.8,503.1z M352.7,498.5c-0.8,0.4-1.2,0.4-1.3,0.7c-3.6,5.8-6.6,12-6.5,18.9c0.1,3,1.3,6.1,2.7,8.8
			c1.1,2.1,3.5,2.3,5.1,0c1.6-2.4,3.4-4.9,4.3-7.6c2.1-6.3,5.8-10.6,12.6-11.8c0.8-0.1,1.5-0.7,2.2-1.1c-0.2-0.4-0.3-0.8-0.5-1.2
			c-3.3,1.2-6.7,2.2-9.9,3.5c-4.4,1.7-7.9-0.4-8.2-5.2C353,501.9,352.9,500.3,352.7,498.5z"/>
		<path d="M425.1,513.2c-0.5,2.2-0.9,5.6-2,8.8c-1.5,4.5-8.9,6.7-13,4.4c-2.1-1.2-4.3-2-6.5-2.9c-4.9-1.9-6.8-5.8-7-10.8
			c-0.2-3.8,3.1-8.9,7-10.2c3.7-1.2,7.6-1.8,11.4-2.6c0.2,0,0.4,0,0.6,0C418.5,500.8,425.1,509.2,425.1,513.2z M407.3,509.1
			c-1.5,1.6-2.6,2.6-3.5,3.8c-0.1,0.1,1.6,1.8,1.8,1.7c1.3-0.8,2.5-1.8,3.5-2.9C409.2,511.5,408.2,510.4,407.3,509.1z"/>
	</g>
</g>
</svg>
