<?xml version="1.0" encoding="utf-8"?>
<!-- Generator: Adobe Illustrator 18.1.0, SVG Export Plug-In . SVG Version: 6.00 Build 0)  -->
<svg version="1.1" xmlns="http://www.w3.org/2000/svg" xmlns:xlink="http://www.w3.org/1999/xlink" x="0px" y="0px"
	 viewBox="0 0 1000 1000" style="enable-background:new 0 0 1000 1000;" xml:space="preserve">
<style type="text/css">
	.st0{fill:none;stroke:#ED1C24;stroke-miterlimit:10;}
</style>
<g id="Guides">
</g>
<g id="Metrics">
	<line class="st0" x1="0" y1="900" x2="1000" y2="900"/>
	<line class="st0" x1="-10.2" y1="99.3" x2="989.8" y2="99.3"/>
</g>
<g id="Art">
	<g>
		<path d="M847,844.4c-2.1-1.5-4.3-3.4-5.6-5.6c-2.1-3.9-3.4-8.2-5.3-12.2c-2.4-5.4-5.1-10.7-7.5-16.2c-0.9-1.9-1.4-3.9-2-5.9
			c3.1-0.6,1.5,4.3,4.6,3.7c-0.7-3.8-2.2-6.5-5.9-7.8c0.2-0.2,0.4-0.4,0.7-0.6c0.6,0.2,1.2,0.5,1.9,0.7c0.1-0.3,0.3-0.6,0.4-0.9
			c-1.1-0.5-2.1-1.1-3.8-1.9c-0.2-0.7-0.7-2.3-1.1-3.8c-0.4-1.8-0.3-3.8-1.1-5.3c-5-9-10.9-17.5-14.4-27.2c-1.9-5.5-3.2-11.3-4.6-17
			c-1.1-4.4-0.9-9.4-3-13.3c-4.6-8.8-10.2-17.1-15.5-25.6c-1.7-2.7-4.2-4.9-5.3-7.7c-4.1-10.4-7.7-21-11.4-31.6
			c-0.9-2.6-1.9-5.4-2.1-8.1c-0.3-4.1,0.2-8.3,0.2-12.5c0-1.6-0.8-3.3-1.3-5.5c0.2-1.1,0.7-2.6,0.6-4.1c-0.5-6.2-1-12.3-1.9-18.4
			c-0.4-3.2-1.1-6.5-2.4-9.4c-3.7-8.4-8.3-16.3-14.2-23.6c-4.4-5.5-5.5-12.6-6.6-19.5c-0.3-2.2-1.4-4.4-1.1-6.5
			c0.4-2.5,0.8-5.1,1.7-7.7c1.9-5.7,2.6-11.9,3.6-17.9c0.8-5,1.2-10.1,1.9-15.2c0.5-3.8,1.8-7.5,1.8-11.3c0-13-0.7-25.9-0.6-38.9
			c0.1-8.1,0.9-16.3,1.8-24.3c0.9-7.5,2.7-14.9,3.4-22.5c0.4-4.5-0.6-9.2-1.3-13.8c-1.6-9.9-3.5-19.8-5.3-29.8
			c-1-5.3-2.9-10.3-2.8-15.9c0.1-6.1-0.4-12.5-2-18.4c-2.6-9.9-3.8-19.6-0.9-29.5c0.4-1.5,0.7-3.2,0.6-4.8c-0.3-4.4-1-8.8-1.2-13.2
			c-0.2-3.2,0.1-6.5,0.3-9.7c0.2-2.4,0.1-5,0.9-7.3c1.7-5,3.8-9.9,5.8-14.9c1.9-4.7,4-9.4,5.5-14.2c1.8-5.7,3.7-11.4,4.3-17.2
			c0.7-6.2-0.3-12.6-0.2-18.8c0.1-8-0.5-16.4,2.8-23.9c3-6.9,3.8-14,4.2-21.3c0.4-7.2-2.4-13.5-6-19.3c-3.3-5.3-10.4-5.7-16.6-4.7
			c-1.3,0.2-2.7,0.4-4.1,0.4c-6.1,0.1-12.1-0.2-18.2,0.2c-2.3,0.2-4.6,1.8-6.9,2.7c-1.6,0.6-3.3,0.8-4.7,1.6
			c-4.5,2.7-9.1,5.6-13.4,8.6c-2.6,1.8-4.8,4.3-7.4,6.1c-5.5,3.9-11.4,7.2-16.6,11.3c-7.7,6-15,12.6-22.6,18.7
			c-4.6,3.7-10.1,6.3-14,10.5c-3.7,4-8.6,5.4-13,7.3c-5.8,2.4-12.4,0.3-18.7,0.1c-4.3-0.2-8.6,0-12.8-0.2c-4.5-0.2-9.5,0.7-13.2-1.1
			c-5.4-2.7-10.4-6.1-16.6-6.9c-3.3-0.4-6.6-1.4-9.9-1.9c-1-0.2-2.1,0.2-3.1,0.5c-1.1,0.3-2.2,0.8-3.3,1.2c-5.6,2.3-11.4,4.3-16.8,7
			c-4.7,2.2-8.9,3.2-13.4-0.1c-1.6-1.2-3.3-2.2-5.1-3c-5.5-2.5-11.1-5.7-17.4-4c-7,1.8-13.8,4.4-20.8,6.6c-1.5,0.5-3.1,0.8-4.7,0.7
			c-3.7-0.2-5.4-3.1-7.4-5.6c-3.3-4.1-6.3-8.7-10.2-12.1c-6.5-5.6-13.8-10.4-20.6-15.7c-5.6-4.4-10.8-9-14.4-15.5
			c-2.5-4.5-5.6-9-9.2-12.6c-5.2-5.1-9.6-10.5-13.2-16.9c-1.4-2.5-3.8-4.6-5.8-6.8c-0.8-0.9-1.8-1.8-2.7-2.7c-2.2-2.7-3.9-6.2-6.7-8
			c-10.5-6.9-21.7-6.2-32.7-1c-2.1,1-3.3,3.7-4.9,5.7c-0.5,0.6-0.7,1.3-1,2c-2.2,4.2-4.9,8.3-6.4,12.8c-3.2,9.5-6,19.3-8.7,29
			c-2,7.1-3.8,14.3-5.3,21.5c-0.5,2.3-0.1,4.8,0.3,7.1c0.5,2.9,1.8,5.6,2.3,8.4c0.7,3.7,0.9,7.5,1.6,11.2c1.2,6.6,2.8,13.1,3.9,19.7
			c0.7,4.2,1.1,8.6,1.5,12.9c0.4,4.3,0.5,8.6,0.7,12.9c0.1,1.5,0.5,3,0.4,4.5c-0.5,4.2-0.9,8.5-1.8,12.6c-1.6,7.1-3.5,14.1-5.7,21
			c-1.3,4.3-3,8.5-5.8,12.4c-5.1,6.9-9.6,14.2-14.2,21.4c-4.3,6.6-8.4,13.4-12.7,20.1c-5.2,8.2-5.8,17.9-8,27
			c-0.7,3-0.1,6.3-0.3,9.5c-0.2,4.7-1.4,9.6-0.7,14.2c0.7,4.5,2,8.6-0.8,11.7c1.1,2.3,2.4,3.9,2.5,5.6c1.1,11.2,2.3,22.5,2.8,33.8
			c0.4,9.5-1.4,18.7-4.5,27.9c-1.8,5.3-4.7,10.1-4.6,16.3c0.1,9.8-1.6,19.7-3,29.5c-1,7-2,14.2-4.4,20.7c-2.6,7.1-2.8,14.3-3,21.4
			c-0.3,9.1-2.8,17.5-5.9,25.8c-1.5,4.1-3.2,8.1-4.8,12.1c-1.9,4.5-3.9,8.9-5.7,13.4c-2,4.8-4.3,9.6-5.7,14.6
			c-1.5,5-2.3,10.3-3.2,15.5c-1.6,8.5-7.4,15.7-7.3,24.7c0,0.1-0.1,0.2-0.1,0.3c-0.7,2.6-1.3,5.2-2.2,7.7c-0.8,2.2-2,4.3-3.2,6.3
			c-1.7,3.1-3.6,6.1-5.2,9.2c-1.8,3.5-2.6,7.8-5.1,10.4c-5,5.1-6.1,12.1-9.8,17.8c-2.3,3.6-3.4,7.9-5.2,11.8
			c-3.2,6.8-6.7,13.4-9.9,20.2c-1.2,2.5-1.6,5.3-2.6,7.9c-2.1,5.1-4.4,10.1-6.5,15.1c-0.4,0.9-0.8,1.8-1.1,2.7
			c-1.3,3-2.6,6.1-4.1,9.1c-2.8,5.4-5.6,10.7-8.5,16c-2.5,4.6-4.7,9.3-7.5,13.6c-5.9,9.3-11.9,18.4-18.2,27.5
			c-3.1,4.6-4.7,10.3-9.9,13.4c-0.5,0.3-0.9,1-1,1.6c-0.9,4.4,2,9.1,6.3,10.6c1,0.3,2.1,0.6,3,1.2c7.5,4.6,16,5.3,24.3,4.7
			c11.1-0.8,22.2-2.8,33.3-4.2c5.7-0.7,11.2-2.4,17.1-1.3c14.5,2.6,29.1,4.8,43.7,7.3c3.6,0.6,7.2,1.6,10.8,2.1
			c4.9,0.7,9.9,1.7,14.8,1.6c8-0.1,16.1-1,24.1-1.5c1.3-0.1,2.6-0.4,3.9-0.5c3.2-0.3,6.5-1,9.7-0.6c5.6,0.8,11.2,2.2,16.7,3.7
			c5.1,1.5,10,3.4,14.9,5.3c1.6,0.6,2.9,2,4.4,2.4c7.2,1.4,14.5,2.4,21.7,3.9c13.7,2.9,27.1,0.9,39.8-3.6c10.1-3.5,20.2-3,30.2-2.5
			c8.6,0.4,17.2,2.4,24.8,7c0.5,0.3,1.2,0.5,1.9,0.5c5.6,0.2,11.2,0.3,16.8,0.7c9.8,0.7,18.7-3,27.9-5.5c3.8-1,7.5-2.3,11.3-3.1
			c7-1.5,14-2.9,21.1-3.9c5.1-0.7,10.4-1.2,15.5-0.9c5.7,0.4,11.2,1.9,16.9,2.6c8.8,1.2,17.6,3,26.4,3.2c8.2,0.2,16.6-0.7,24.6-2.3
			c8.5-1.7,16.6-5,25.1-7c3.9-0.9,8.2-0.5,12.2,0.1c3.8,0.6,7.3,2.4,11.1,3.3c11.2,2.7,22,1.1,32.9-2.4c7.9-2.6,16-4.9,24.2-5.9
			c6.6-0.8,13.4,0.8,20.4,1.3c-1.1,3-0.8,4.3,1.9,3.4c0.6-0.2,1.2-0.5,1.8-0.5c3.2,0,6.4,0.6,9.5,0c6.3-1.2,12.5-2.8,18.6-4.8
			c4.5-1.5,8.6-3.9,12.9-5.8c4.5-2,8.8-4.5,13.5-5.5c7.5-1.7,14.8-3.5,21.7-7.3c4-2.2,6.4-5,8.6-8.7
			C850.3,847.5,849.5,846.2,847,844.4z M509.3,216.4c0-0.3,1.8-1.1,2.4-0.8c5.3,2.8,11.9,1.5,16.9,5.7c6.3,5.2,12.9,10.2,15.6,18.3
			c2.7,7.9,0.9,15.4-3,22.6c-3.2,6-4.4,12.5-1.9,19.1c2.3,6.1,5.3,11.9,7.9,17.8c1,2.2,1.5,4.6,2.8,6.6c2.7,4.3,5.9,8.3,8.4,12.8
			c5.1,9.2,7.9,19.1,7,29.7c-0.7,8.7-1.5,17.3-2.6,26c-0.6,4.3-2,8.5-3,12.7c-1.1,4.3-8.9,6.6-11.7,2.5c-2.6-3.8-5.6-7.4-8-11.3
			c-4.9-8.3-10.5-15.7-19.5-19.8c-1.1-0.5-2.2-0.9-3.6-1.4c1.6-5.5,6.4-6.2,10.6-7.9c5.8-2.4,11.7-4.7,17.3-7.6
			c3.4-1.8,6.3-4.5,5.4-9.1c-0.8-4.2-3.4-7.2-8.5-7.7c-5-0.5-10.2-0.5-15.1,0.3c-5.9,0.9-11.4-0.5-16.4-2.7
			c-6.3-2.8-12.8-3.3-19.4-3.3c-4.7,0-9.5,0.6-14.2,0.8c-3.5,0.2-4.5,2.6-4.9,5.4c-1.1,7.3,1.4,12,8.2,15.3c3.1,1.5,6.3,2.8,9.5,4.3
			c0.7,0.3,1.5,0.8,1.7,1.4c1.6,3.6,3.1,7.3,4.4,11.1c0.3,0.9,0.1,2.5-0.5,3.3c-4,5.3-7.3,11.3-12.6,15.7c-7.3,6.1-16.6,7.4-25,1.8
			c-5.5-3.6-11.5-6.9-14.8-13c-2.5-4.7-5.7-9.2-4.4-15.1c0.2-0.7-1-1.8-1.3-2.3c0.7-2.3,1.4-4.3,1.8-6.3c1.4-7.5,2.7-14.9,6.5-21.8
			c2.1-3.8,5.7-5.6,8.7-8.1c4.7-4,9.7-7.6,12.5-13.7c1.6-3.5,5.3-6.3,8.6-8.6c5.5-3.7,9.3-8,10.7-14.8c0.9-4.4,3.4-8.4,8.4-10.1
			c3.9-1.4,7.9-2.9,11.1-5.2c4.8-3.5,9-7.9,8.3-14.6c-0.5-5.2-1.6-10.1-3.6-15.1C508.4,225.4,509.3,220.7,509.3,216.4z M531.2,506
			c-0.2,0.3-0.3,0.6-0.5,0.8c-2.3,1.9-4.5,4-6.9,5.7c-5.1,3.7-10.1,2.3-15.3,0c-2-0.9-4.5-1-6.8-0.8c-2.7,0.3-5.2,1.7-7.9,1.9
			c-3.3,0.2-6.9,0.3-9.8-0.9c-6.1-2.4-12-5.7-17.9-8.7c-1-0.5-1.9-1.3-3.5-2.5c3-0.4,4.9-0.8,6.9-0.9c3.9-0.2,7.5-0.1,11.1,2.3
			c4.5,3,10,3.1,15.4,2.8c2.5-0.1,5,0.2,7.4,0.2c1.3,0,2.6,0,3.8-0.3c3.6-1.1,7.1-2.3,10.7-3.5c0.6-0.2,1.4-0.7,1.7-1.3
			c1.7-3.7,3.1-7.6,5-11.3c1-2,2.8-3.6,4.2-5.4c1.2,1.7,2.9,3.3,3.4,5.2c1.2,4.8,1.9,9.7,2.9,14.8c-2.5,0-4.3,0-6.2,0
			c0,0.3-0.1,0.5-0.1,0.8C529.6,505.2,530.4,505.6,531.2,506z M386.9,428.3c-2.8,3.3-4.9,6-7.3,8.5c-3.8,3.8-7.7,7.7-11.9,11
			c-1.6,1.3-4.2,1.4-5.4,3.6c-0.7,1.3-1.4,2.5-2.5,4.2c-4.7,0.3-6.3,6.1-10.6,8.5c0.3-6.6,4-13.2,9.9-17.5c0,0.9,0,1.6,0,1.6
			c8.6-8.9,17.4-17.9,26.2-27.1c4.3-4.5,8.6-9.1,12.7-13.8c0.9-1.1,1.7-3.4,1.2-4.3c-0.8-1.3-2.8-2.3-4.4-2.6c-4-0.9-8.2-1-12-2.3
			c-4.2-1.4-4.6-2.7-3.5-7c0.5-2,1.2-4,1.9-5.9c1-2.5,0.4-4.2-2-5.4c-4-2.1-8-2.8-12.3-1.1c-8.2,3.1-16.4,6.4-24.8,9.3
			c-2.4,0.8-5.2,0.3-7.7,0.5c-2.3,0.2-3.8,1.3-4.4,3.7c-0.3,1.1-1.3,2.5-2.3,3c-4.5,2-9.3,3.7-13.8,5.6c-1.3,0.6-2.4,1.7-3.5,2.9
			c-4.1,0.2-4.1,0.2-2.4-3.5c0.3-0.8,0.4-1.7,0.6-2.8c-0.8,0.1-1.5,0-2,0.3c-2,1.3-3.9,2.7-5.8,4.2c-1.3,1-2.5,2-4.3,0.5
			c-0.5-0.4-1.9,0-2.7,0.4c-3.4,1.3-6.9,2.7-10.3,4.1c-1.9-5-1.4-7,2.4-8.8c7.7-3.7,15.3-7.7,23.2-10.6c6.5-2.3,13.5-3,20.2-4.7
			c10.5-2.6,21-5.4,31.5-8.2c3.1-0.8,6.2-1.9,9.3-2.7c2.2-0.6,4.1-1.2,3.1-4.2c-0.2-0.6,0-1.5,0.2-2.2c2-6.8,4.5-13.4,5.9-20.3
			c0.9-4.6,0.7-9.5,0.4-14.2c-0.3-4.7-0.8-9.3,0.9-13.8c1.3-3.4,4.3-4.5,6.9-6.1c0.3-0.2,0.8,0,1.2,0.1c3.5,1.1,6.9,2.4,10.4,3.3
			c2.1,0.5,4.3,0.5,6.4,0.8c0.8,0.1,1.6-0.2,2.3,0.1c7.5,3.2,14.3-0.7,21.4-2c4.5-0.9,9-2,13.9-2.8c-6.4,7.9-8.2,17-7.9,26.6
			c-0.5,0.9-1.5,1.8-1.5,2.7c0.1,6-1.3,12.3,1.8,18c1.5,2.7,1.9,5.9,3.4,8.4c1.7,2.8,4.3,5.1,6.9,7.2c5.3,4.3,10.6,8.4,16.2,12.2
			c1.6,1.1,4.1,1.4,6.2,1.3c8.5-0.1,14.8-4.3,20-10.7c2.9-3.6,6-7.2,9.1-10.6c0.6-0.7,2.1-1.5,2.6-1.2c1.3,0.7,3,1.8,3.3,3
			c1.2,5-0.1,9.3-4.4,12.7c-6.2,4.8-12,10.1-18.3,14.7c-6.1,4.6-12.4,8.8-18.8,12.9c-5.9,3.7-11.8,7.4-18.1,10.1
			c-5.5,2.4-11.6,1.7-17-1.2c-3.4-1.8-6.4-4.4-9.6-6.6c-5.1-3.6-8.4-3.4-13.1,0.8c-4.4,4-8.9,7.8-13.4,11.7c-2.5,2.2-4.9,4.5-7.5,7
			C384.3,429.2,385.1,428.9,386.9,428.3z M402,307.7c-5.9-0.1-10.3-1.9-13.8-5.2c-4.6-4.5-6.6-9.8-4.5-16.5c2.3-7.1,3.1-14.6,7.4-21
			c0.3-0.4,0.6-0.9,2.3-2.5c0.3,0.9,0.8,1.8,0.9,2.8c0.5,4.3,1.6,8.7,1.3,13C395.1,288.4,395.1,298.2,402,307.7z M428.7,279.9
			c1-3.5,3.5-3.7,5.8-3.7c2.4,0,4.6,0.7,4.8,4.1C435.8,282,432.5,280,428.7,279.9z M490.3,502.4c-0.1,0.4-0.3,0.8-0.4,1.1
			c-3.7,1.1-6.4-0.1-7.6-4.3C485,500.3,487.7,501.3,490.3,502.4z M474.2,494c-3.4-0.4-4.2-2.2-4.3-4.7
			C471.2,490.7,472.4,492,474.2,494z M463,478.1c1.2,3.1,2.3,5.8,3.4,8.6c0.7,1.8,1.5,3.6,1.9,5.5c0.2,0.7-0.9,2.3-1,2.3
			c-3.4-0.9-6.7-2-10.1-3.1c-0.3-0.1-0.4-0.7-0.5-1.1C455.8,486.9,458.9,480.4,463,478.1z M505.1,359.6c-4.1-2.8-7.8-5.9-6.8-11.8
			c0.2-1.3-0.9-3-1.7-4.4c-0.7-1.3-1.8-2.4-2.7-3.7c1.6-0.2,3.3,0.1,4.3-0.6c1.7-1.2,2-3.4,0.4-4.8c-3.3-3-6.8-5.8-10.5-8.2
			c-1-0.7-3.4-0.3-4.6,0.5c-1.6,1-1.8,2.8-0.1,4.5c2.6,2.5,5,5.1,7.6,7.7c-3.9-2.1-9.4-1.2-12.1-5.7c-1.2-2-1.9-4.5-2.5-6.8
			c-0.1-0.5,1.2-2,1.9-2c3.9-0.1,7.8,0.1,11.6,0.1c1.5,0,3-0.2,4.5,0c3.2,0.4,6.6,0.4,9.4,1.7c5.8,2.7,11.6,4,17.9,3.9
			c1,0,2,0.3,2.4,0.4c-1.5,1.9-3.3,3.6-4.5,5.6c-0.7,1.3-0.6,3.1-0.9,4.7c1.5,0.2,3,0.7,4.4,0.5c1.2-0.2,2.3-1.2,3.4-1.7
			c2.5-1.2,5.1-2.1,7.5-3.4c0.9-0.5,1.6-1.7,1.9-2.7c0.3-0.9-0.1-2.1-0.2-3c0.5-0.3,0.6-0.4,0.8-0.5c4.3-0.8,7.5,0.4,8.1,2.9
			c0.5,1.9-2.3,5.4-5.4,6.7c-7.3,2.9-14.6,5.7-21.8,8.7c-1.4,0.6-2.7,2.1-3.6,3.4c-1.5,2.1-2.9,4.4-3.9,6.8
			C509,361.1,507.2,361.1,505.1,359.6z M461.7,256.9c5.7,2.6,10.8,11.6,10.7,17.6c-0.2,8.7-4,14.1-9.8,16.4
			C465.4,279.4,464.6,268.3,461.7,256.9z M283.2,369.3c1.3-3.6,1.5-7.6,2.6-11.3c3.1-10.6,9.2-19.5,15.7-28.3
			c5.7-7.8,10.4-16.3,15.3-24.6c2.6-4.5,4.7-9.3,7.2-13.9c4.4-7.9,5-16.6,5.7-25.2c0.5-6.1,1.3-12.2,0.8-18.2
			c-0.7-9.4-1-18.8-4.4-27.9c-2.7-7.3-3.8-15.1-5.5-22.7c-0.5-2.3-1.2-4.6-1.5-7c-0.2-1.4,0-2.8,0-4.2c0.2-0.2,0.5-0.3,0.7-0.5
			c-0.6-0.7-1.3-1.4-2.2-2.3c2.7-1.9,2.2-4.7,2.6-7.5c0.6-4.5,2.3-8.8,3.5-13.2c0.7-2.4,1.4-4.8,2.4-7.1c1.2-3,2.6-5.8,3.8-8.8
			c2-5.4,3.8-10.8,5.9-16.2c1.1-2.9,2.1-6.1,4-8.5c2.7-3.6,5.7-7.1,11.2-6.8c2.1,0.1,4.3-1.5,6.4-1.4c9.1,0.4,15.6,5.2,21.5,11.9
			c4.3,4.8,6,10.9,10.2,15.5c2.7,3,5.2,6.1,7.7,9.3c3.7,4.7,7.2,9.5,10.9,14.1c3.4,4.2,6.6,8.7,10.7,12.2c8.8,7.4,18.2,13.9,27,21.2
			c2.7,2.3,4.6,5.8,6.2,9c2.6,5,6.5,8.1,11.7,9.6c1.1,0.3,2.6,0,3.7-0.5c2.1-0.9,4.1-2.1,6-3.3c6-3.7,12.7-5.3,19.5-5.2
			c3.1,0.1,6.4,1.8,9.3,3.3c1,0.5,1.8,2.5,1.8,3.9c0.1,3.1-0.4,6.2-0.5,9.3c0,0.9,0.1,2,0.5,2.8c2.7,5.6,3.8,11.5,4,17.7
			c0.1,4.8-3,9.6-7.7,10.6c-5.8,1.2-10.3,4.4-14.9,7.8c-1,0.8-2.1,1.4-3.5,2.3c-2.2-3.8-3.8-7.7-6.4-10.8
			c-5.6-6.7-11.9-12.4-20.3-15.7c-4.7-1.8-9-2.1-13.8-1.4c-3.8,0.5-7.8,0.2-11.7,0.3c-13.3,0.4-24.9,5.3-34.4,14.4
			c-3.8,3.6-6.3,8.7-8.7,13.5c-2.5,4.9-4.5,10.1-6,15.4c-1.4,5.2-3.4,10.5-1.6,16c0.8,2.5,2,4.8,3.3,7.1c1,1.9,1.2,3.3-0.8,4.7
			c-4.4,3.2-6.8,7.5-6.5,13.1c0.2,5.3,0.7,10.6,0.4,15.9c-0.2,4.7-1.2,9.4-2.1,14.1c-0.5,2.9-1.7,5.6-2.3,8.4
			c-0.9,4.8-3.6,7.6-8.2,8.9c-3.2,0.9-6.2,2.4-9.4,3.5c-3.4,1.1-6.8,2.3-10.3,3c-9.9,1.9-20,3-29.7,5.6c-7.4,2-14.2,5.9-21.3,8.9
			c-2.2,0.9-4.4,1.8-6.7,2.4c-0.6,0.1-2.1-0.9-2.1-1.5C282.5,383.7,280.7,376.5,283.2,369.3z M833.3,858.5
			c-6.1,1.8-12.3,3.5-18.4,5.5c-4,1.3-8,2.9-11.7,5c-8.4,4.7-17.2,7.7-26.7,8.7c-5.3,0.6-10.4-0.6-15.4-2.1
			c-7.8-2.4-15.7-3.8-23.8-1.7c-5.7,1.5-11.3,3.7-17,5.4c-3.4,1-6.9,1.8-10.3,2.5c-3.6,0.7-7.3,0.9-10.9,1.6
			c-6.4,1.1-12.4-1.1-18.1-3.2c-7.9-2.9-15.5-3.4-23.6-1.3c-3.4,0.9-6.6,2.3-10.4,2.6c-4.8,0.5-9.3,3.2-14.1,4.7
			c-3.2,1-6.5,2.1-9.8,2.3c-7.5,0.4-15,0.4-22.4,0.4c-1.5,0-3-0.5-4.4-1c-8.1-3.1-16.2-6-24.8-6.5c-7.4-0.5-15-0.3-22.3,1.8
			c-1.5,0.4-3.2,0.3-4.8,0.7c-5.4,1.3-10.7,2.7-16,4.2c-0.8,0.2-1.4,1-2.2,1.5c-3-2.6-6.1-0.6-9.3,0.2c-7.2,1.9-14.4,4.9-21.7,5.3
			c-7.4,0.4-15-1.6-22.5-2.9c-7.6-1.3-15.1-3.4-22.7-4.4c-5-0.7-10.2,0-15.2,0.1c-1.5,0-3.1,0.4-4.5,0.1c-4.6-1.2-8.7,0.3-13,1.7
			c-3.8,1.2-7.8,1.7-11.7,2.3c-4.8,0.8-9.8,0.8-14.4,2.2c-4.8,1.6-9.2,0.3-13.7-0.4c-8.7-1.4-16.8-5-25.2-7.4
			c-7.4-2.1-14.7-4.8-22.2-6.5c-7-1.5-14.2-2-21.3-3c-1.6-0.2-3.3-0.5-4.9-0.3c-1.3,0.2-2.6,1-3.8,1.6c-0.9,0.5-1.7,1.7-2.5,1.7
			c-5.3,0.2-10.6-0.3-15.8,0.4c-9.1,1.1-17.6-1.6-26.3-3.5c-2.7-0.6-5.6-0.8-8.3-1.2c-7.2-1.1-14.4-2.2-21.5-3.4
			c-3.9-0.7-7.8-2.1-11.7-2.2c-5.5-0.2-11,0.6-16.4,0.8c-6.1,0.3-11.8,2.8-18.1,2.6c-4.7-0.2-9.4,1.6-14.1,1.5
			c-6.7-0.1-13.4-1-20.1-1.5c-0.3,0-0.7-0.1-0.9-0.3c-2.3-1.5-4.8-2.7-6.7-4.6c-2.2-2.1-2-5-0.4-7.5c4.5-6.8,8.9-13.6,13.5-20.4
			c3.3-4.9,7.1-9.5,9.8-14.6c4.1-7.8,7.3-16,11.1-23.8c2.5-5,5.4-9.8,8.2-14.6c6.5-11,13.7-21.6,17.6-34c3.5-11.2,7.9-22.1,12.2-33
			c1.5-3.7,3.9-7,5.9-10.5c4.7-8.3,9.5-16.5,14-24.9c1.7-3.2,3.1-6.7,4.1-10.3c3-11.3,5.7-22.7,8.7-34c1-3.7,2.6-7.3,3.9-10.9
			c0.8-2.5,1.3-5,2.2-7.5c1.3-3.4,2.9-6.8,4.2-10.2c2.4-6,4.7-12.1,7-18.1c1-2.5,2.3-5,2.8-7.6c1.5-8,2.7-16,4-24.1
			c1.2-7.3,2.2-14.5,3.6-21.7c1-5.4,3-10.7,3.7-16.1c0.9-6.2,0.9-12.5,1.5-18.7c0.3-3.1,1.3-6.1,2.2-10c2.6,2.2,4.7,3.6,6.5,5.4
			c5.1,5.3,10.5,10.3,12.5,17.9c0.8,3.2-0.2,5.7-2,7.8c-3.8,4.4-2.6,9.1-0.9,13.5c1.5,3.7,4,7.3,6.8,10.3c1.7,1.8,4.4,2.5,4.5,5.5
			c0,0.9,0.3,2.1-0.1,2.8c-1.6,2.7-2.7,5.4-5.7,7.4c-5.9,3.9-11.3,8.8-16.5,13.7c-3.7,3.4-3.8,7.2-0.9,11.4c4,5.7,8.2,11.3,9,18.5
			c0.1,1.1-0.2,2.8-1,3.5c-5,4.1-10.4,7.9-15.4,11.9c-3.5,2.8-6.8,5.8-9.9,9c-1.1,1.2-1.7,3.3-1.9,5c-0.8,8.4,1.7,16.2,5.2,23.8
			c2.7,5.8,4.6,11.9,7,17.8c0.5,1.3,0.9,2.8,1.9,3.7c3.6,3.7,5.2,8.6,7.5,13c2.2,4.2,1.3,7.9-0.5,11.8c-1.6,3.5-2.7,7.2-4.1,10.8
			c-0.1,0.4-0.3,0.8-0.6,1.1c-4.2,4-5.1,9.5-6.3,14.7c-0.3,1.3,0.6,3.5,1.7,4.5c5.3,4.4,11,7.5,18.3,8.3c7.4,0.9,14.7,3.5,21.9,5.7
			c3.6,1.1,5,5.2,4.7,10.5c-0.4,5.7-0.3,11.4,2,16.7c0.8,1.8,2.2,3.4,3.3,5.1c-0.4,0.4-1.1,1.2-1.9,2c1.1,0.8,2.2,2,3.4,2.2
			c8.7,1.2,17.5,2.1,26.2,3.4c3.8,0.6,7.6,1.9,11.3,3.1c2.7,0.8,2,3.1,1.6,5c-0.6,3.3-1.6,6.6-2.2,9.9c-0.9,5.6,1.1,8.2,6.8,7.7
			c5.1-0.4,10.2-1.9,15.3-2.8c0.4-0.1,0.9-0.4,1.3-0.3c2.1,0.6,4.7,0.8,6.1,2.2c0.8,0.8-0.2,3.8-1.1,5.5c-2,4.2-4.5,8.2-6.5,12.4
			c-1.4,3.1,0.3,5.5,3.6,6.4c3.8,1,7.3,0.2,10.4-1.4c5-2.6,10.3-0.9,15.4-1.5c0.6-0.1,2.1,1.9,2.1,2.9c-0.3,5.4-0.9,10.8-1.5,16.2
			c-0.1,1.2-0.4,2.4-0.4,3.5c0,4.2,2.3,5.6,6.5,5c8.6-1.4,15.4-6.1,22-11.2c2.7-2.1,5.7-4,8.7-5.7c3.2-1.8,4.4-1.2,5.1,2.3
			c0.4,2.1,0.4,4.3,0.5,6.4c0.1,1.2,0,2.4,0,3.6c0.2,4.7,2.9,6.9,7.4,5.8c5.8-1.4,10.4-4.8,13.5-10c4.3-7.1,10.5-12.2,17.3-16.7
			c2.1-1.4,3.3-0.8,3.8,1.4c1.1,4.7,2,9.5,3,14.3c0.1,0.3,0.1,0.7,0.1,1c1.4,7.1,4.8,8.5,11.1,4.8c5.1-3,8.8-7.3,12.5-11.7
			c2-2.4,4.4-4.6,6.9-6.4c3-2.1,3.9-1.7,5.6,1.4c0.7,1.2,1.1,2.6,1.8,3.8c1.9,3,3.7,6.1,5.9,8.9c2.3,2.8,4.5,3,7.4,0.8
			c4.1-3,7.9-6.4,11.8-9.6c0.8-0.6,1.4-1.3,2.3-1.9c2.9-1.8,4.3-1.3,5.4,1.9c1.4,4.1,2.4,8.4,4,12.4c1.6,4.1,6.2,5.2,9.3,2.1
			c2.5-2.5,4.3-5.7,6.6-8.5c1.7-2,3.4-4,5.5-5.5c4.4-3,8.2-1.6,10,3.5c1,2.9,2.1,5.7,3.1,8.6c1.1,2.9,2.8,2.9,5.1,1.3
			c3.4-2.3,5.7-5.1,6.7-9.3c0.6-2.6,1.9-5.1,3.3-7.4c0.4-0.7,2.3-1.3,3-0.9c4.6,2.7,9,6,13.7,8.5c4.3,2.2,8.9,3.8,13.5,5.2
			c0.9,0.3,2.8-1.4,3.6-2.6c3.8-6.4,3.7-6.4,10.5-3.2c2.7,1.3,5.3,3,8.1,4.1c1.3,0.5,3.7,0.5,4.4-0.3c0.8-0.9,0.5-3.1,0.2-4.6
			c-0.8-3.4-2.1-6.6-3.1-9.9c-0.3-1-0.2-2.1-0.4-3.8c1.8,0.8,2.9,1.1,4,1.7c4.8,2.3,9.5,4.8,14.3,7c1.1,0.5,3.7,0.5,3.8,0.1
			c0.5-1.6,0.9-3.5,0.3-5c-3.3-8.6-7.1-16.9-10.2-25.5c-1.4-3.8,0.1-5.2,4.1-5.8c5.8-0.8,10.8,1.1,15.7,3.6
			c3.3,1.7,6.7,3.1,10.2,4.4c2.2,0.8,3.7-0.4,4-2.6c0.2-1.4-0.1-3.1-0.7-4.5c-3.6-9.1-7.7-18-13.5-25.9c-0.7-1-1-2.4-1.6-3.6
			c-1.3-2.8,0.3-4.2,2.6-4.2c4.2,0,8.6,0,12.5,1.2c6.3,1.8,12.2,5.2,18.5,6.6c5.5,1.2,11.4,0.8,17.1,0.9c0.7,0,1.9-1.4,2-2.2
			c0.1-1-0.5-2.3-1.2-3.1c-4.8-5.7-10-11.1-14.5-17c-2.7-3.4-4.6-7.5-6.7-11.4c-0.5-0.9-0.4-2-0.8-3.7c2.5,0.4,4.5,0.6,6.5,0.9
			c5.1,0.8,10.2,1.7,15.3,2.4c1.2,0.1,3.3-0.5,3.6-1.2c0.4-1.4,0.1-3.2-0.5-4.6c-0.9-2-2.3-3.7-3.5-5.5c-5.1-7.4-8.7-15.8-16.3-21.4
			c-5-3.7-9.6-8.1-14.1-12.4c-1.7-1.6-2.7-3.8-4-5.8c0.2-0.3,0.4-0.6,0.6-0.9c2.7,0.7,5.5,1.5,8.2,2.2c4,1,8,2.2,12,3
			c0.8,0.2,2.2-0.4,2.8-1.1c1.8-1.9,1.9-6.8,0.7-9.2c-4.7-9.5-12.2-16.9-19.1-24.7c-4-4.6-9.3-8.1-14-12.2c-1.1-1-1.9-2.3-3.3-4
			c1.6-0.2,2.5-0.4,3.4-0.3c2,0,3.9,0.3,5.9,0.2c1.9-0.1,4.9,1,5.2-1.8c0.2-1.7-1.3-4.2-2.8-5.4c-4.4-3.6-9.2-6.8-13.8-10.2
			c-4.9-3.6-9.9-7-14.7-10.7c-0.9-0.7-1.3-2-2-3c1.2-0.5,2.3-1.2,3.5-1.4c3.7-0.6,7.4-0.8,11.1-1.6c1.4-0.3,2.6-1.9,3.7-3.1
			c1.4-1.7,1.6-3.5-0.1-5.3c-4.5-4.7-8.8-9.6-13.5-14c-3.4-3.2-3.8-5.3-0.8-8.9c0.4-0.4,0.8-0.8,1.1-1.2c6-6.5,5.2-13.2-2.2-18.4
			c-7.7-5.4-15.5-10.8-23.2-16.4c-1.3-0.9-2.1-2.4-3.2-3.7c5-3.8,9.9-1.8,14.6-1.4c7.1,0.7,14.1,1.9,21.2,2.8
			c6.6,0.9,13.1,1.8,19.7,2.6c1.1,0.1,2.3,0.5,3.2,0.1c1-0.4,1.8-1.4,2.7-2.2c-1.1-1.2-2.3-3.4-3.3-3.3c-7.1,0.8-13.9-0.2-20.8-2
			c-9.1-2.3-18.6-3.1-27.9-4.5c-4.3-0.6-8.6-1.3-13-1.3c-1.7,0-3.7,1.3-5.1,2.6c-1.5,1.4-0.4,2.8,0.4,4.6c3.6,8,10.9,11.7,17.7,16.1
			c5.9,3.9,12.2,7.6,16.5,13.6c1.5,2.1,1.1,3.6,0,5.2c-1.1,1.7-2.5,3.3-3.8,4.9c-3.9,4.8-3.2,9.7,1.6,13.6c4.5,3.7,8.6,7.8,13,11.8
			c-3.5,4.2-7.7,4.3-11.8,4.4c-2.7,0.1-6.9,2.5-7.9,5.1c-0.9,2.3,0.4,5.8,3.3,7.5c4.7,2.7,9.6,5,14.3,7.7c2.1,1.2,3.9,2.9,5.7,4.6
			c1.8,1.7,3.4,3.7,5.2,5.8c-1.6,0.4-3,0.7-4.4,1.1c-4.9,1.6-6.4,7.4-2.5,10.7c4.9,4.2,10.2,7.9,15.3,11.9c0.3,0.2,0.5,0.4,0.7,0.6
			c5.4,6.4,10.8,12.8,16.1,19.3c1.6,2,0.4,4.1-0.9,5.6c-0.6,0.7-2.5,0.9-3.5,0.6c-6.2-2-12.3-4.1-18.4-6.3c-2.3-0.8-3.1-0.6-3.2,2.1
			c-0.2,5,1.7,9,4.9,12.7c5.8,6.7,12.9,11.9,19.9,17.2c0.7,0.5,1.5,1,2,1.7c2.1,2.8,3.8,6,6.3,8.4c3.7,3.4,4.2,7.9,5.4,12.7
			c-3.9,0.2-7.5-0.7-11-2c-2.7-1-5.5-1.6-8,0.3c-3.3,2.6-3.9,5.9-1.8,9.9c3.6,6.6,7.6,12.9,13.1,18.1c2.3,2.2,3.9,5.1,6.1,8
			c-5.5,2.2-9.5-0.3-13.5-1.9c-9.5-3.6-19.1-7-29.3-5.5c-6.8,1-9.3,6.1-6,11.6c2.7,4.4,6.2,8.4,8.8,12.9c2.3,3.9,3.8,8.3,5.7,12.5
			c-0.2,0.2-0.5,0.4-0.7,0.7c-1.1-0.3-2.2-0.5-3.2-0.8c-0.8-0.3-1.5-0.9-2.3-1.1c-5.3-1-10.7-2.2-16.1-2.8
			c-9.4-1.1-12.4,5.7-10,12.6c2.1,5.9,4.8,11.6,7.2,17.4c0.4,0.9,0.7,1.7,1,2.6c-0.2,0.3-0.4,0.5-0.6,0.8c-2.3-1-4.5-2.1-6.8-3.1
			c-2.4-1.2-4.8-2.8-7.3-3.5c-1.6-0.4-4-0.1-5.3,0.9c-1,0.7-1.4,3-1.3,4.5c0.3,3.5,1.1,7,1.7,10.5c-0.3,0.3-0.6,0.5-0.8,0.8
			c-1.7-0.9-3.4-1.8-5-2.7c-0.9-0.5-1.7-1.4-2.7-1.8c-4.6-2.3-6.1-1.9-9,2.3c-0.6,0.9-1.3,1.8-1.8,2.7c-0.9,2-2.3,2-4.3,1.7
			c-5.3-0.9-9.4-3.9-13.3-7.2c-4.7-3.9-10-5.6-16-5.2c-0.7,0-1.7,0.9-1.8,1.6c-1.1,4.3-1.9,8.7-3.1,12.9c-0.3,1-1.3,2.1-2.3,2.4
			c-0.5,0.2-1.7-1.1-2.3-2c-0.6-0.9-0.8-2-1.1-3.1c-1.9-7-7.4-9.4-13.9-6.5c-5.3,2.4-8.8,6.6-12.4,10.8c-1,1.1-2,2.2-3.1,3.4
			c-4.3-3.4-4.6-8.4-5.8-12.7c-1.3-4.8-5-7-9.5-5.1c-3.9,1.7-6.9,4.5-9.3,8c-1,1.5-2.1,2.9-4.3,1.8c-0.4-0.2-1.2-0.2-1.5,0
			c-3.7,2.5-5.5-0.2-7.1-2.7c-1.3-2-2.3-4.2-3.2-6.4c-2.3-5.2-6.3-7.1-11.1-3.8c-3.7,2.5-6.2,6.4-9.4,9.6c-2.9,2.9-5.9,5.7-9,8.3
			c-1.5,1.2-2.8,0.5-3.4-1.5c-0.5-1.6-1.2-3.2-1.8-4.8c-0.3,0.1-0.6,0.2-1,0.4c0.2,0.9,0.3,1.7,0.5,2.7c-4.6-2.3-1.8-5.7-1.3-9
			c-1,0.2-1.5,0.3-2.7,0.6c0.3-1.3,0.5-2.4,0.7-3.5c0.8-3.6-1.2-6.3-4.9-6.8c-6-0.8-10.1,2.2-13.6,6.5c-4.3,5.4-8.3,11.2-12.9,16.3
			c-1.9,2.1-5.1,3.2-7.8,4.4c-0.4,0.2-2.1-1-2.3-1.8c-0.9-4.5-1.5-9.1-2.3-14.3c-0.7-0.6-1.9-2-3.5-2.8c-3.5-1.7-6.5,0.1-9.3,2.1
			c-6,4.1-11.9,8.3-17.9,12.3c-1.8,1.2-3.9,1.8-6,2.5c-2,0.6-3.6,0-3.3-2.5c0.5-5,1.2-9.9,1.7-14.8c0.4-3.4,0.6-6.8,0.9-10.5
			c-9.7,1.2-19.1-0.4-27.9,3.8c-1.2,0.6-3-0.3-4.6-0.5c0.3-1.8,0.2-3.9,1.1-5.4c1.6-2.7,3.8-5,5.6-7.6c2.2-3.1,2.2-6.6,1.1-10
			c-0.3-0.9-1.7-1.6-2.8-1.9c-6-1.8-12-1.3-17.8,0.9c-0.7,0.3-1.4,0.6-2.1,0.8c-5.3,1.3-6.6,0-5.9-5.3c0.4-3.3,1-6.7,1.4-10
			c0.4-2.8-2.5-6.8-6.8-8.1c-4.1-1.2-8.4-1.8-12.7-2.2c-3.5-0.3-7,0.2-10.5-0.1c-1.8-0.1-3.6-0.7-5.2-1.6
			c-8.8-4.9-12.2-12.6-11.5-22.4c0.2-3.5,1.8-7.4-1.3-10.3c-4.2-4.1-8.7-7.9-14.9-8.9c-6.5-1-13-2.2-19.4-3.8
			c-3-0.7-5.9-2.3-8.5-3.9c-0.8-0.5-1.3-2.6-1-3.7c0.9-3.4,2.2-6.6,3.4-9.9c2.5-6.3,5.6-12.5,7.5-19c0.9-3.1,0.3-7-0.9-10.1
			c-1.7-4.5-4.7-8.5-7-12.8c-2.3-4.4-4.7-8.8-6.5-13.5c-2.7-7.2-5-14.6-7.4-21.9c-1.7-5.1,0.2-10.6,4.9-14.2
			c7.4-5.7,14.8-11.5,22.2-17.2c2.4-1.8,3.2-3.5,1.6-6.6c-2-3.7-2.9-7.9-4.7-11.7c-1.2-2.6-3.1-5-4.9-7.3c-2.5-3.2-2.7-4.2-0.1-7.4
			c1.3-1.6,2.9-3,4.4-4.3c5.6-4.7,11.4-9.3,17-14.1c3.1-2.7,3.3-6.3,1.8-10.1c-2.4-6-6.3-10.8-10.9-15.3c-3.2-3.1-3.2-5.3-0.6-8.9
			c2-2.7,3.9-5.5,5.9-8.2c1.1-1.6,1.3-3.2-0.5-4.6c-4.2-3.1-6.3-7.6-8.3-12.3c-0.5-1.1-1.4-2.2-2.4-3.1c-3.6-3.4-7.2-6.8-10.9-10.1
			c-1.4-1.3-4.3-1.2-3.9-4.1c0.3-2.3,0.6-4.7,1.2-7c1.1-4.2,2.2-8.5,3.9-12.5c2.8-6.6,0.9-13.4,1.1-20c0.2-7.3-0.1-14.6-0.5-21.9
			c-0.2-4.2-1-8.4-1.7-12.6c-0.4-2.4,0.3-3.6,2.9-4.1c3.4-0.7,6.7-1.9,10.1-2.6c4.9-1,9.8-2.2,14.7-2.6c7.6-0.6,14.2-4,21.1-6.5
			c8.7-3.1,17.2-6.8,25.8-10.2c3.8-1.5,7.7-3,11.5-4.4c0.8-0.3,1.7-0.4,2.6-0.3c1.9,0.1,3,0.8,2.3,3.1c-0.8,2.5-1.1,5.1-1.5,7.7
			c-0.6,3.7,1.7,7,5.4,8c3.7,1,7.5,1.9,11.8,3c-0.9,1.6-1.3,2.8-2.1,3.7c-4,4.9-7.8,9.9-12.2,14.4c-6.1,6.2-12.7,11.9-18.8,18.1
			c-4.1,4.2-8.3,8.6-11.4,13.6c-2,3.2-2.3,7.6-3.3,11.5c-0.3,1.2-0.5,2.4-1.1,3.4c-1.2,1.8-0.8,3.4,0.8,4.2c1,0.5,3,0.3,4-0.4
			c4.2-3.2,8.4-6.6,12.3-10.2c7.2-6.5,14.4-12.9,21.2-19.7c5.2-5.1,9.6-11,14.7-16.1c5.1-5.1,10.6-9.9,16.1-14.6
			c0.7-0.6,2.7-0.3,3.7,0.3c2.3,1.4,4.5,3.1,6.3,5c3,3,6.6,4,10.6,4.3c1.3,0.1,2.6,0.9,4,1.4c-2.1,4.4-4.9,8.3-5.6,12.5
			c-0.9,5.2-0.7,10.8,0.3,16c0.9,4.8,3.3,9.3,5,14c1.5,4.1,2.4,8.6,4.5,12.3c2.4,4.2,5.8,7.9,8.8,11.8c0.4,0.6,1.3,0.9,1.5,1.5
			c3.9,11.5,13,16.8,23.7,20.5c3.2,1.1,6.1,3.1,9.3,4.6c4.9,2.2,10.6,2.9,15,0.8c5.8-2.7,10.5-0.5,15.2,1.3
			c7.3,2.8,13.1,0.5,18.8-3.7c1.6-1.2,3.2-2.4,4.5-3.8c4.5-5.1,10.5-7,16.8-8.6c7.8-2,14.3-6.6,19.8-12.1c3.6-3.6,5.1-9.2,4.4-14.6
			c-1.3-10-3.3-19.9-8.9-28.7c-2.6-4.2-3.7-9.3-6-13.7c-3.6-6.8-7.6-13.1-14-18.1c-9.5-7.5-18.5-15.8-26.9-24.6
			c-5.7-5.9-9-13.6-8.6-22.2c0.1-2,0.9-5.1,2.2-5.5c2.1-0.8,5.4-0.8,7.3,0.4c6,3.6,10.3,8.9,13.4,15.2c2.2,4.3,4.4,8.5,7.2,12.4
			c1.6,2.3,4.4,3.7,6.8,5.7c-1.3,2.5,0.4,3.9,2.3,5.9c2.5,2.4,4.5,5.6,6.2,8.7c2.1,4,5.2,6,9.5,5.4c4.2-0.5,6.8,1.5,9.5,4.3
			c2.1,2.2,4.8,3.9,7.5,5.4c2.1,1.1,4.3,0.3,5.7-1.8c1.5-2.3,3-2.4,5-0.7c7.6,6.5,15.1,13,22.8,19.3c6.2,5.1,12.5,10.1,18.8,15.1
			c5.7,4.5,11.5,9,17.1,13.6c9,7.4,17.8,14.9,26.7,22.4c0.9,0.8,1.9,1.6,2.9,2c1.1,0.4,2.4,0.2,3.6,0.3c0.1-1.4,0.6-3.1,0.1-4.3
			c-0.6-1.4-2.2-2.3-3.4-3.4c-6.3-5.3-12.5-10.8-19.1-15.8c-9.8-7.4-15.4-18.4-23.9-27c-6.2-6.2-11.6-13.2-17.3-19.9
			c-0.3-0.4-0.6-0.9-1-1.6c4.3,0,6.2,3.3,8.8,5.3c8.4,6.6,16.4,13.6,24.9,20.1c8.1,6.2,16.5,11.9,24.7,18c3.1,2.3,5.7,5.2,8.8,7.6
			c6.1,4.7,12.3,9.3,18.4,14c2,1.5,3.8,3.2,5.7,4.9c3.1,2.8,5.4,2.2,6.6-1.9c1-3.2,0.6-5.7-2-8.3c-2.2-2.2-3.4-5.5-5.3-8
			c-2.2-2.9-4.6-5.8-7.2-8.3c-3.8-3.7-8-7-11.9-10.5c-3-2.7-5.8-5.8-9-8.3c-2.9-2.3-6.4-4-9.4-6.3c-12.4-9.6-24.6-19.3-36.9-29
			c-2-1.6-2.6-3.2,0.4-4.5c1-0.4,1.7-1.3,2.7-1.9c5.6-3.6,5.8-4.5,2.6-10.5c-1.3-2.4-2.6-4.8-3.7-7.2c-1.1-2.3-0.6-4,2.1-5.2
			c6.6-3,6.7-3.1,3.9-9.9c-1.3-3-2.9-5.8-4.8-8.5c-1.4-2-0.7-3,1.2-3.7c1.2-0.5,2.5-0.8,3.7-1.1c3.8-0.7,4.9-2.5,3.4-6
			c-1.2-3-2.8-5.9-4.3-8.8c-1.5-2.9-1-4.1,2.3-4.8c6.1-1.4,6.3-1.9,7-7.9c0.7-5.9-0.2-11.6-1.2-17.4c-1-6-2.5-12.1,0.2-18.2
			c0.2-0.4,0.1-1.1-0.1-1.6c-0.6-2.8-1.3-5.6-1.8-8c-1.1-1-2.3-1.8-3-2.8c-7.1-11.3-16.8-19.5-29-24.8c-2.3-1-4.5-2.3-6.7-3.3
			c-9.8-4.4-19-2.7-27.6,3.2c-3.8,2.6-6.8,6.1-9.9,9.6c-5.9,6.5-8.8,14.5-13,21.8c-3.5,6-0.1,11.6,2.4,17
			c4.3,8.9,12.8,12.4,21.1,16.4c9.6,4.5,19.7,5.6,29.9,6.1c5.7,0.3,11.5-2.1,17.2-3.3c0.3-0.1,0.7-0.4,0.9-0.3
			c5.1,1.3,7.7-1.8,10.2-5.3c1.6-2.2,2.9-1.4,3.5,1c0.2,0.7,0.5,1.4,0.7,2.2c1.4,6,0.5,7.9-5,10.5c-0.9,0.4-1.7,0.9-2.6,1.3
			c-4.1,1.9-4.3,3.1-2.3,7.1c1.4,2.7,2.5,5.6,3.6,8.4c0.7,1.7,0,2.8-1.6,3.7c-2.2,1.2-4.3,2.5-6.1,4.2c-1.4,1.3-1.7,2.9-0.1,4.9
			c2.1,2.7,3.8,5.7,5.6,8.7c1.2,2,0.6,3.3-1.6,4.4c-7.5,3.4-8,5.3-3.8,12.6c1.3,2.3,2.5,4.5,3.8,6.8c1.3,2.3,0.9,4.1-1.6,5.4
			c-2,1.1-3.9,2.3-5.8,3.6c-3,2-2.7,3.7-0.2,6.1c6.5,6.4,14.5,10.6,21.9,15.8c5.7,4,10.4,9.3,16,13.3c8.8,6.2,16.6,13.6,24.1,21.2
			c3.1,3.2,6,6.6,8.9,10c0.7,0.8,0.7,2.1,1.1,3.6c-1.1-0.1-1.9,0.1-2.3-0.2c-8.3-6.5-16.5-13.1-24.9-19.4
			c-6.1-4.6-12.6-8.7-18.8-13.3c-5-3.7-9.7-7.6-14.5-11.5c-5.6-4.5-11-9.2-16.7-13.6c-2.4-1.9-5.3-3-8.5-1.3
			c-2.8,1.4-3.7,3.2-1.8,5.7c2.3,3,5.3,5.4,7.8,8.2c2.2,2.5,4.3,5.2,6.4,7.7c4.9,5.7,9.7,11.3,14.6,17c-0.2,0.2-0.4,0.4-0.6,0.7
			c-1.7-1.5-3.4-2.9-5.2-4.4c-3.1-2.5-6.1-5.2-9.3-7.5c-4.1-3-8.8-5.3-12.4-8.8c-6.9-6.7-15.2-11.9-20.6-20.1
			c-2.6-3.9-5.2-3.7-7.8,0.2c-2.4,3.6-3.7,3.6-6.9,0.6c-2.4-2.3-4.9-4.7-7.7-6.5c-1.5-1-3.6-1.6-5.4-1.3c-2.5,0.3-4.2-0.2-5.6-2.2
			c-2.2-3.3-4.4-6.5-6.5-9.7c-1-1.6-0.6-2.6,1.2-3.2c4.8-1.7,6.8-5.3,7.4-10.2c0.4-3.1,1.6-6.1,2.1-9.2c1.8-11.6,4.6-23.2,3.2-35
			c-0.9-8-3.3-15.9-5.6-23.8c-0.7-2.4-3.5-4-4.9-6.3c-2.6-4.4-5-9.1-7.3-13.6c-1.7-3.3-3.5-6.5-4.8-9.9c-1.7-4.2-3.2-8.5-4.4-12.9
			c-1-3.9,0.5-7.4,1.9-11c2.3-5.8,4.7-11.8,5.5-17.9c0.4-3.4-2.3-7.2-3.5-10.9c-2.1-6-7.1-9.5-11.6-13.4c-2.4-2-4.7-4.1-7.6-6.6
			c5.1-2.1,9.8-4,14.4-5.9c6.4-2.7,12.7-2.2,19.1,0.1c0.3,0.1,0.7,0.1,0.9,0.3c1.9,1.6,3.8,4.6,5.5,4.5c2.7-0.2,4.3,0.8,6.5,1.6
			c3.2,1.2,7,0.6,10.5,0.7c2.6,0.1,5.1,0.1,7.7,0.2c0.4,0,0.9,0.4,1.3,0.3c7-2.5,13.9,2.2,20.8,0.3c4.6-1.3,9.1-2.8,13.4-4.7
			c9.4-4.1,16.9-11,24.6-17.5c4.9-4.1,9.9-8.2,14.8-12.3c3.6-3,7-6.3,10.8-9.1c2.3-1.7,5.2-2.6,7.6-4.2c5.7-3.9,11.3-8,16.9-12
			c0.7-0.5,1.5-0.8,2.3-1.2c3.5-1.8,6.9-3.8,10.4-5.3c7.5-3.2,15.3-2,22.8-0.6c5,1,10.2,1.8,14.5,5.4c3.6,3,4.2,7.2,4.1,10.9
			c-0.2,6.3-1.9,12.5-2.7,18.9c-0.8,6.3-3.6,12.2-2.4,18.9c0.8,4.2,1.2,8.9,0.1,12.9c-1.2,4.5-0.4,8.2,0.4,12.4
			c0.6,3.6-0.6,7.8-1.8,11.5c-3.3,10.2-6.4,20.6-10.7,30.4c-3.1,7.1-4.9,14.1-4.8,21.7c0.1,4.8,1,9.6,0.9,14.4
			c-0.1,3.6-1.4,7.2-2.1,10.9c-1.1,5.7-0.3,11.2,1.6,16.5c0.2,0.5,0.7,1.1,0.5,1.5c-2,4.7,1.7,8.5,1.9,12.9c0.2,4,1.3,7.9,1.7,11.8
			c1.2,11.9,3.7,23.6,6.9,35.1c1.1,4.1,0.6,8.7,0.8,13.1c0,0.4,0,0.9,0,1.3c0.4,8.2,0.4,16.3-1.5,24.5c-1.6,7.1-1.9,14.7-2,22
			c-0.2,13.4,0.4,26.7,0,40.1c-0.3,9.5-1.7,19-2.8,28.5c-0.2,2-1.2,4-1.6,6c-0.2,1,0.1,2,0.2,3.5c-0.4,2.1-0.9,4.9-1.6,7.5
			c-0.3,1.3-1.5,2.5-1.5,3.8c-0.1,5.2,0.1,10.4,0.3,15.6c0,0.4,0.3,0.9,0.2,1.3c-1.2,7.4,1.6,14,4.8,20.2c3.1,6,7.3,11.5,11.2,17.4
			c0.4-0.5,0.7-1,1-1.4c0.7,3.1,1.3,6.1,2,9.2c0.7,2.9,1.5,5.7,2,8.6c0.9,5.8,1.3,11.7,2.3,17.5c1.6,8.9,1.2,17.8,2.3,26.7
			c0.5,4,2.2,7.9,3.2,11.9c0.5,2,1,4,1.1,6.1c0.1,2.9,0.7,5.4,3,7.6c1.7,1.7,2.2,4.4,3.4,6.5c4.8,8.2,9.7,16.4,14.7,24.5
			c4.9,8,9.1,16.2,10.5,25.8c1.3,8.5,3.2,16.9,5.2,25.2c0.8,3.1,2.4,6.1,4,8.9c2.3,4,5.1,7.8,7.4,11.8c2.6,4.5,5,9.1,7.3,13.8
			c2.2,4.4,3.9,9.2,6.5,13.4c5.6,8.8,6.9,18.7,9,28.5c0.6,2.7,0.8,5.6,4.8,5.5C840.4,855.4,837.2,857.3,833.3,858.5z M644.2,311.9
			c0.5,1.6,1.1,3.1-1.2,3.8c-2.1-3.2-2-16,1.2-21c0.7,1.4,1.7,2.7,1.9,4.2c0.6,3.3,1.3,6.8-2.4,9.2
			C643.2,308.5,643.8,310.7,644.2,311.9z M609.7,295.1c-4.5-3.4-8.9-2.1-13.4,0.1c-0.7,0.3-1.8-0.3-2.9-0.5
			c2.7-5.4,9.2-8.3,13.5-6.3C609.6,289.5,610.7,291.8,609.7,295.1z M574.8,309.6c-0.5,0.2-1.1,0.4-1.6,0.6
			c-2.2-4.5-4.7-8.9-6.4-13.6c-0.6-1.6,1.1-4.1,1.8-6.1c0.3,0.1,0.6,0.1,1,0.2C571.4,297,573.1,303.3,574.8,309.6z"/>
		<path d="M838.1,826.4c-0.1,0.3,1.5,1,2.3,1.5c0.1-0.9,0.5-1.9,0.2-2.5c-1.8-3.8-3.7-7.6-5.7-11.3c-0.5-1-1.3-1.9-1.9-2.8
			c-0.3,0.1-0.6,0.2-0.8,0.4c0.3,1.1,0.5,2.1,0.8,3.2C834.2,818.9,839.2,821.3,838.1,826.4z"/>
		<path d="M843.4,840.2c0.5-0.1,0.9-0.2,1.4-0.4c-0.8-3.6-1.6-7.2-2.5-10.8c-0.7,0.2-1.4,0.3-2,0.5
			C841.3,833.1,842.3,836.7,843.4,840.2z"/>
		<path d="M734.5,230.4c0.3-3.3,0.6-6.7,0.5-10c-0.1-5.4-1.2-10.9-0.7-16.2c0.7-7.4,2.7-14.7,3.6-22.2c0.5-4.8,0.1-9.7-0.3-14.5
			c-0.2-2.4-2.4-3.4-4.3-2.4c-6.9,3.6-11.8,9.4-16.5,15.4c-4.5,5.8-9.3,11.1-16.2,14.2c-2.9,1.3-5.5,3.3-8.2,5.2
			c-2.5,1.8-4.8,3.7-7.1,5.7c-4.9,4.1-10.2,8.1-11.5,14.9c-0.9,4.7-1.5,9.4-2.3,14.1c0.1,0,0.2,0,0.3,0.1c0.1,1.6,0.2,3.3,0.2,4.9
			c0.3,9.5,3.8,17.5,11.3,23.6c3.1,2.5,5.8,5.1,9.4,7.2c3.7,2.1,7.2,4,11.4,3c3.2-0.7,6.4-1.7,9.3-3.2c2.2-1.1,3.8-3.3,5.6-4.9
			c7.3-6.3,12.2-14.1,13.9-23.6C733.8,237.9,734.1,234.1,734.5,230.4z M733,179.7c-0.6,5.9-1.2,11.8-1.9,17.6
			c-0.1,1.1-1.1,2.1-1.1,3.2c-0.1,1.1,0.5,2.3,0.9,3.5c-2.6,1.3-2.1,3.7-1.7,5.8c1.5,7.1,1.1,14.3,0.8,21.5
			c-0.3,6.7-1.1,13.2-4.3,18.8c-4,7-9.5,13.2-17.3,16.2c-7.1,2.8-13.5,0.6-19.1-4.4c-4.7-4.2-8.8-8.8-11-14.7
			c-0.3-0.9-0.8-1.8-0.9-2.8c-0.5-8.3-0.6-16.5,1.6-24.6c1.2-4.4,4.2-7.4,8-9.9c2.3-1.5,4.4-3.2,6.3-5.1c4.1-4,9.4-6.4,13.9-9.8
			c5.1-3.8,9.4-8.6,14-13c2.9-2.8,5.4-5.9,8.3-8.8c1.7-1.7,3.2-1.4,3.5,1.2C733.1,176.3,733.2,178,733,179.7z"/>
	</g>
</g>
</svg>
