<?xml version="1.0" encoding="utf-8"?>
<!-- Generator: Adobe Illustrator 18.1.0, SVG Export Plug-In . SVG Version: 6.00 Build 0)  -->
<svg version="1.1" xmlns="http://www.w3.org/2000/svg" xmlns:xlink="http://www.w3.org/1999/xlink" x="0px" y="0px"
	 viewBox="0 0 1000 1000" style="enable-background:new 0 0 1000 1000;" xml:space="preserve">
<style type="text/css">
	.st0{fill:none;stroke:#ED1C24;stroke-miterlimit:10;}
</style>
<g id="Guides">
</g>
<g id="Metrics">
	<line class="st0" x1="0" y1="900" x2="1000" y2="900"/>
	<line class="st0" x1="0" y1="100" x2="1000" y2="100"/>
</g>
<g id="Art">
	<g>
		<path d="M776.6,157.5c-0.4-8.4-0.9-17-4.4-24.9c-1.2-2.8-2-6-5.4-7.3c-1.1-0.4-2.2-0.8-3.2-1.4c-5.4-3.5-11.4-5.4-17.7-6.1
			c-5-0.6-10-0.9-14.9-1.4c-7.4-0.7-14.9-1.4-22.3-2.2c-2.8-0.3-5.5-1-8.3-1.2c-10.2-0.9-20.4-1.6-30.6-2.5
			c-5.9-0.5-11.7-1.2-17.6-1.8c-5.5-0.6-11-1.3-16.5-1.8c-4.8-0.4-9.7-0.2-14.3-2.1c-1.8-0.7-3.7-1.4-5.6-1.5
			c-7.3-0.2-14.5-0.3-21.8-0.1c-3.1,0.1-6.2,1-9.3,1.2c-5.6,0.4-11.2,0.4-16.7,0.8c-2,0.1-4.3,0-5.7,2.1c0,0,0,0,0,0
			c-0.4-0.6-0.7-1.1-1-1.6c-0.2,0.2-0.5,0.5-0.7,0.7c0,0.5-0.1,0.9-0.1,1c-1.6-0.5-3.1-1.3-4.7-1.4c-5.5-0.6-11.2-0.3-16.6-1.5
			c-6.4-1.4-12.7-3-19.3-3c-5.1,0-10.2,0.3-15.2,0.3c-4.7,0-9.5-0.2-14.2-0.5c-2.2-0.1-4.4-1-6.7-1.1c-6.5-0.3-13-0.5-19.5-0.6
			c-1.4,0-2.9,0-4.3,0.2c-2.2,0.3-4.4,1-6.6,1.2c-6.4,0.6-12.8,1-19.2,1.5c-0.4,0-0.9,0.4-1.3,0.6c-0.9,0.3-1.8,0.5-2.7,0.7
			c-1,0.3-2.2,0.4-3.1,0.9c-2,1.2-4.6,1-6.1-0.7c-0.9,0.7-2,2.2-2.7,2c-2.2-0.6-4,0.5-6,0.6c-2.7,0.1-5.4,0.7-8.1,0.7
			c-2.9,0-5.7-0.6-8.6-0.6c-11.5,0.2-23,0.5-34.4,1c-6.9,0.3-13.7,0.9-20.5,1.5c-4.7,0.4-9.3,1-14,1.5c-4.3,0.5-8.5,0.9-12.8,1.5
			c-6.6,0.9-13.1,1.9-19.6,3c-6.6,1.1-13.2,2.2-19.8,3.3c-2.9,0.5-5.9,1-8.8,1.2c-5.9,0.5-11.9,0.5-17.8,1.2
			c-5.4,0.7-10.7,2.4-16.2,3.3c-3.6,0.6-7.3,0-10.9,0.6c-4.1,0.7-8.2-0.3-12.5,0.9c-7.5,2-15.5,2.4-23,4.4c-7.7,2-15.7,2.7-23.1,6.3
			c-5.2,2.5-10.8,4.5-14.8,8.9c-1.1,1.2-2.6,2.4-1.3,4.6c-0.7,0.2-1.5,0.1-1.6,0.4c-1.4,3-2.8,6.1-4.1,9.1c-0.1,0.2,0.3,0.6,0.3,0.9
			c0,0.3,0,0.7-0.1,1c-0.8,2.9-2.2,5.8-2.2,8.7c0,5.3,0.8,10.7,1.6,15.9c0.9,5.9,2.1,11.7,3.4,17.5c1.2,5.7,2.8,11.3,4.1,16.9
			c2,8.5,3.9,16.9,6,25.4c1.3,5.4,2.8,10.8,4.3,16.1c1.1,4,2.4,8,3.6,12c0.7,2.4,1.4,4.9,1.8,7.4c0.7,4.1,1.2,8.3,1.9,12.4
			c0.8,4.1,1.9,8.1,2.6,12.2c0.8,4.3,1.3,8.7,2.1,13c0.8,4.6,2,9.1,2.7,13.8c1.1,7.8,2.1,15.7,5,23.1c0.2,0.6-0.1,1.4-0.1,2.1
			c-0.1,2.2-2.2,5.1,1.8,6.1c0.2,0,0.3,0.6,0.3,0.9c0.5,2.5,1.1,5,1.4,7.5c0.5,5.4,1,10.7,1.2,16.1c0.1,2.9,2.3,6.2-1.1,8.6
			c2.2,2.9,2.3,5.7,0.3,6.6c1.7,1.8,1.7,7.6,0.4,8.9c0.1,1.2,0.1,2,0.1,2.8c0,0.8,0.1,1.5,0.2,2.3c0.1,0.8,0.4,1.6,0.5,2.4
			c0.2,3.1,0.3,6.2,0.6,9.3c0.2,1.8,0.8,3.6,1,5.5c0.3,2.7,0.3,5.5,0.7,8.2c0.4,3,1.2,6,1.6,9c0.6,4.3,0.9,8.6,1.4,12.9
			c1.1,9.5,2.1,19.1,3.6,28.6c1.2,7.9,1.3,15.9,0.7,23.8c-0.5,7.4-1.2,14.8-1.9,22.1c-1.2,12.7-1.5,25.3-0.9,38
			c0.3,6,0.4,11.9,0.4,17.9c0,6,0.4,11.8,2.8,17.5c3.3,7.9,7.5,15,13.4,21.2c5.1,5.3,12.2,6.5,19,7.9c5.2,1.1,10.6,1.8,16,2.2
			c8.3,0.5,16.6,0.7,24.9,0.8c6.3,0.1,12.7,0,19.3,0c-0.3,1.3-0.5,2.1-0.8,3c-2.7,8-1.6,15.6,2.5,22.9c3.3,5.8,6.8,11.4,10,17.2
			c3.7,6.9,7,14,10.5,21c0.1,0.1,0.1,0.3,0.1,0.5c0.1,4.2,0.1,8.4,0.2,12.7c0,2.1,0,4.1-0.1,6.2c0,2.1-0.2,4.2-0.2,6.2
			c0,2,0.6,4,0.4,6c-0.2,3.4-1.1,6.8-1.2,10.2c-0.2,4.8-0.2,9.7,0.1,14.5c0.6,8.6,1.5,17-0.3,25.7c-1.8,8.5-2.1,17.2-2.9,25.8
			c-0.3,2.7-0.4,5.5-0.5,8.2c-0.2,3.3-0.3,6.5-0.3,9.8c0,2.4,0.5,4.8,0.5,7.3c-0.1,6.7,1.6,13.3,4.5,19.1
			c3.4,6.8,7.9,13.1,12.6,19.2c3.3,4.2,7.1,8.5,11.5,11.3c9,5.6,18.9,7.1,29.2,3.3c4-1.4,7-3.6,9.3-7.1c1.2-1.8,2.9-3.4,4.8-4.4
			c2.3-1.1,3.7-2.8,4.8-4.8c0.2-0.3,0.3-0.5,0.5-0.8c2.3-3.6,4.6-7.1,6.8-10.7c1.7-2.9,3.1-6,4.8-8.9c3.4-5.6,6.9-11,10.3-16.6
			c0.6-0.9,1-2.1,1-3.2c-0.1-4.1-0.3-8.2-0.5-12.3c-0.5-9.5-1.2-19-1.5-28.6c-0.2-5.9,0.1-11.8,0.3-17.7c0.1-3,0.1-6.1,1-8.9
			c1.4-4.4,3.6-8.7,5.3-13c0.6-1.5,1.4-1.4,2.6-0.8c4,1.8,8,4.1,12.3,5c5.2,1.2,10.7,1.3,16,1.9c9,1,17.9-0.3,26.7-1.1
			c5.7-0.5,11.5-1.3,17.2-1.7c4.3-0.3,8.7-0.4,13.1-0.1c7.6,0.6,15.1,1.6,22.6,2.4c2.9,0.3,5.8,0.3,8.6,1c4.9,1.3,9.8,0.7,14.6,0.2
			c6.5-0.7,8-1.5,11.5,4.9c0.2,0.4,0.6,0.7,0.9,1.1c3.2,4,6.5,8,9.7,12.1c3.9,4.9,7.3,10.3,11.5,14.9c4.9,5.3,10.9,9.1,18.3,10
			c3.8,0.4,7.5,1.2,11.3,1.6c2,0.2,4.1,0.4,5.9-0.1c5.4-1.6,10.7-4,15.6-6.7c5.4-2.9,10.1-7.2,14.6-11.4c3.1-2.9,5.6-6.4,7.8-10
			c1.8-3.1,4.2-5.8,5-9.6c1.2-6.2,3.2-12.2,4.5-18.3c0.7-3.3,1-6.7,1-10.1c0.1-4.4-0.3-8.9-0.5-13.3c-0.1-2.1,0.4-3.6,2.9-4.2
			c-2.3-0.9-2.5-1.2-1.7-2.9c0.6-1.1,1.3-2.3,2.3-3.1c5.4-4,9.4-9.3,13-14.8c2.1-3.3,2.9-7.2,5.4-10.4c2.1-2.6,3.4-5.8,4.6-9
			c1.6-4.2,2.4-8.8,4.3-12.9c2-4.6,2.8-9.4,3.7-14.2c0.2-0.9,0.9-2,1.7-2.5c2.4-1.3,5.1-2.1,7.4-3.5c3.8-2.4,7.5-5,11.2-7.6
			c3.9-2.9,4.7-7.6,5.5-11.8c1.4-6.8,2.2-13.8,2.4-20.8c0.3-11.3,1.1-22.6-0.3-33.9c-0.7-5.6-0.9-11.3-1.3-16.9
			c-0.3-4.1-0.7-8.2-0.9-12.3c-0.2-3.2-0.1-6.4-0.4-9.7c-0.6-7.2-1.5-14.5-1.9-21.7c-0.5-9.7-0.4-19.4-0.8-29.1
			c-0.4-9-1.8-18-1.9-27c-0.2-15.3,0.2-30.5,0.4-45.8c0-6.2,0-12.5,1.1-18.7c0.7-3.9,0.6-7.9,1.3-11.8c0.8-4.9,2.2-9.8,3-14.7
			c2-11.9,3.8-23.9,5.7-35.9c0.9-5.5,1.3-11.2,3.2-16.4c2.9-7.9,3.2-16.2,5.5-24.1c2-7,3.9-14,6-21c1.5-4.9,3.5-9.6,5.1-14.4
			c3.5-10.4,6.6-21,10.3-31.3c3-8.5,8.6-15.8,11-24.7c1.2-4.4,4.2-8.3,6.3-12.5c0.8-1.7,1.6-3.4,2-5.2
			C776.8,176.1,777,166.7,776.6,157.5z M759.5,126.7c12.7,9.2,10.9,11.4,12.7,19.7c-2.8-4.8-5.5-10-8.8-14.7
			c-3.5-5-9.5-6.5-14.6-9.3C752.6,123.2,756.3,124.4,759.5,126.7z M562.2,107.2C562.1,107.2,561.9,107.2,562.2,107.2L562.2,107.2z
			 M558,113.1c5.7-1,10.8,0.9,16.2,1.5c10.4,1,20.8,2.9,31.1,4.4c3.8,0.6,7.7,1.1,11.5,1.7c1.6,0.3,3.1,0.7,4.7,1.1
			c2.5,0.5,5.1,1,7.6,1.6c1.9,0.4,3.7,1.2,5.5,1.4c2.3,0.3,4.8,0.8,7,0.5c7.5-1,14.7,1.2,22.1,1.6c5.7,0.3,11.4,0.2,17.1,0.5
			c3,0.1,5.9,0.8,8.8,1.1c5.3,0.7,10.6,1.4,16,2c4.2,0.4,8.5,0.6,12.7,0.8c1.5,0.1,3-0.2,5-0.3c3.4,1.8,7.6,1.8,11.9,1.2
			c0.6-0.1,1.4,0.1,2,0.4c1.4,0.6,2.6,1.7,4.1,2.1c10.8,2.7,15.7,10.8,18,20.6c2.2,9.5,2.2,19.4-0.6,28.8c-1.3,4.4-2.9,8.9-7.2,11.9
			c-2,1.4-2.9,4.4-4.2,6.7c-3.3,6.4-6.9,12.6-9.5,19.3c-3.2,8.2-5.5,16.8-8.1,25.2c-0.1,0.5-0.3,1-0.3,1.4
			c0.8,6.9-1.7,13.3-2.9,19.8c-1.4,7.5-4.2,14.7-6.3,22c-0.6,2.1-1.1,4.2-1.6,6.3c-1.8,7.6-3.4,15.2-5.4,22.8
			c-1.5,5.6-3.1,11.2-5.2,16.6c-2.7,7.4-4.3,15-5.7,22.7c-1,5.7-2.6,11.4-3.2,17.1c-0.7,7.3-0.7,14.6-0.8,22
			c-0.1,11.1-0.1,22.1,0,33.2c0,5.3,0.3,10.5,0.3,15.8c-0.1,10.8-0.2,21.7-0.3,32.5c-0.1,5.3-0.1,10.5-0.1,15.8
			c-0.1,8.5-0.4,17-0.2,25.5c0.2,6.4,1,12.7,1.5,19.1c0.4,5.7,0.9,11.4,1.2,17.1c0.3,5.2,0.4,10.4,0.5,15.7
			c0.1,4.6-0.1,9.2-0.2,13.8c-0.1,7.8,0,15.7-0.3,23.5c-0.2,4.7-0.8,9.5-1.5,14.2c-0.5,3.3-1.4,6.6-2,9.8c-0.3,1.3-0.8,2-2.2,2.5
			c-1.5,0.5-2.9,1.5-4.3,2.4c0.1,0.3,0.2,0.5,0.3,0.8c1-0.2,2-0.4,3-0.6c0.2,0.2,0.3,0.4,0.5,0.5c-0.8,0.8-1.6,2.2-2.5,2.3
			c-1.2,0-2.5-0.9-3.9-1.6c0,0.2-0.1,0.7-0.2,1.2c-1.4,0.4-2.8,1.1-4.3,1.2c-5.9,0.4-11.8,0.5-17.6,0.8c-7.3,0.3-14.6-0.2-21.6-2.2
			c-5.9-1.7-11.9-2.7-18-2.8c-5.6-0.1-10.9-1.5-16.4-2.3c-2.7-0.4-5.6,0.3-8.4,0c-7.1-0.6-14.2-1.6-21.4-2
			c-8.3-0.4-16.3-2.5-24.8-1.7c-4.9,0.4-10-1.1-15-1.1c-8.1-0.1-16.3,0.5-24.4,0.6c-6.5,0.1-12.9-0.3-19.4-0.2
			c-9.1,0-18.1,0.2-27.2,0.4c-4.8,0.1-9.7-0.2-14.5,0.3c-11.4,1.1-22.2-2-33.3-3.4c-7-0.9-14-1.5-21-2.1c-5.3-0.4-10.6-0.7-15.9-0.8
			c-4.7-0.2-9.4-0.1-14.1-0.2c-5.7,0-11.5,0-17.2-0.1c-11.4-0.2-22.9,0.2-34.2-0.8c-10.8-1-21.5,0.3-32.2,0
			c-9.3-0.3-18.6,0.2-27.9,0.4c-4.6,0.1-9.2-0.1-13.7,0.6c-5.9,0.9-11.7,1.2-17.6,1.2c-5.6,0-10.2-1.9-12.6-7.2
			c-1.3-3-2.2-6.3-2.7-9.5c-1.6-10.9-3.1-21.9-4.2-32.9c-0.5-4.9-0.2-9.8-0.2-14.8c-0.1-9.1,0-18.3-0.3-27.4
			c-0.3-8.1-0.9-16.3-1.5-24.4c-0.6-9.3-1.2-18.5-2-27.8c-0.8-8.3-2.1-16.6-3.1-25c-0.3-3-0.4-6-0.6-8.9
			c-0.7-10.2-1.6-20.5-2.2-30.7c-0.3-5.7-0.2-11.5-0.3-17.2c-0.1-6.3-0.2-12.6-0.3-18.9c0-4.1,0.3-8.3-0.1-12.4
			c-0.6-5.1-1.7-10.2-2.6-15.3c-1-5.6-2-11.3-3-16.9c-1.5-8.9-3.1-17.8-4.4-26.8c-0.8-5.3-1.2-10.6-1.9-15.9
			c-0.4-3.3-0.9-6.6-1.7-9.8c-1.9-7.2-3.7-14.4-6-21.5c-3.1-9.5-6-19-10.9-27.9c-3.5-6.2-5.5-13.2-6.8-20.3c-1-5.6-2.9-11-3.8-16.5
			c-0.9-5.2-1.8-10.5-0.6-15.9c0.4-2.1-0.3-4.5-0.8-6.7c-1.8-7.7,0.3-14.2,5.5-20.1c4.6-5.1,10.5-5.8,16.6-6.7
			c5.3-0.7,10.4-2,15.6-3c0.1,0,0.2-0.1,0.2-0.1c6.1,0.6,11.5-2.1,17.3-3.1c3.8-0.6,7.5-2.1,11.3-2.7c4.4-0.7,8.9-0.6,13.3-1.2
			c4.9-0.6,9.7-1.6,14.6-2.4c2.8-0.5,5.6-1,8.3-1.6c4.6-1,9.3-2.1,13.9-3c4.4-0.9,8.9-1.8,13.3-2.5c6.7-1,13.4-2.1,20.1-2.6
			c6.4-0.5,12.9-0.4,19.3-0.7c3.2-0.1,6.4-0.5,9.6-0.9c6.9-0.7,13.8-1.5,20.7-2.3c1.9-0.2,3.8-1,5.7-1.1c5.9-0.5,11.9-0.6,17.9-1.2
			c5-0.5,9.9-0.5,14.9-0.3c3,0.1,6.1-0.7,9.1-1c1.5-0.1,3,0.3,4.5,0.2c2.7-0.2,5.3-0.5,8-0.9c2.4-0.3,4.7-0.9,7.1-1.2
			c4.2-0.5,8.3-1,12.5-1.4c0.6-0.1,1.5,0.3,1.8,0.7c1.1,1.5,2.3,1.7,3.8,0.9c7.1-3.7,14.5-4.6,22.4-2.8c2.3,0.5,4.8,0.1,7.2,0.2
			c5.5,0.4,11,0.8,16.5,1.3c2.6,0.2,5.2,0.8,7.7,0.7c7.4-0.1,14.7-0.6,22-0.8c1.8-0.1,3.7,0.3,5.5,0.1c4.3-0.6,8.5-1.5,12.7-2.3
			c3.1-0.5,6.2-1.1,9.3-1.3C548.6,113.2,553.4,113.9,558,113.1z M655.5,728.2C655.4,728.2,655.4,728.2,655.5,728.2
			c-0.7,9.7-0.8,19.4-2,29c-1,7.7-2.4,15.7-7.3,22.1c-4.5,5.9-8.6,12.3-15.4,16.1c-1.3,0.7-2.3,1.7-3.4,2.7c-3.9,3.5-9,4.5-13.7,6.4
			c-3.8,1.5-7.3,1.6-11,0.7c-0.9-0.2-1.8-0.2-2.6-0.4c-5-1.1-10.3-0.7-14.9-3.8c-6.2-4.2-11.8-8.9-15.5-15.6c-1.7-3-4.1-5.7-6.2-8.5
			c-3.1-4.3-6.2-8.4-9.1-12.8c-1.9-3-0.1-6.3,3.4-7c2.6-0.6,5.2-1.3,7.7-2.1c6.3-2,12.6-3.9,18.8-6.3c2.9-1.1,5.5-3,8.1-4.8
			c3.7-2.6,7.6-4.4,12.2-5c3.7-0.5,7.4-1.6,11.1-2.2c3.7-0.6,7.6-0.5,11.3-1.4c4.9-1.2,9.9-2.1,14.2-5c0.5-0.3,1-0.5,1.5-0.7
			c3.6-0.9,7.2-1.6,9.8-4.7c0.5-0.6,1.7-0.6,2.5-0.9c0.1,0.8,0.3,1.7,0.4,2.5C655.5,727,655.5,727.6,655.5,728.2z M687.9,661.3
			c-0.3,3.5-1.1,7-1.8,10.4c-0.7,3.4-1.6,6.7-2.6,10c-0.4,1.3-1.3,2.5-2.1,3.7c-2,3.2-4.2,6.3-6.1,9.6c-1.3,2.1-2.5,4.4-3.5,6.6
			c-2.7,5.8-6.9,10.1-12.1,13.6c-4.8,3.3-9.7,6.7-14.8,9.6c-5.8,3.3-12.2,4.9-18.7,6.1c-5.2,1-10.3,2.2-15.4,3.3
			c-1.7,0.3-3.5,0.3-5.2,0.6c-7.1,1.3-13.6,4.5-20.2,7.2c-2.6,1-4.8,3.1-7.4,4.5c-2.2,1.1-4.6,1.9-7,2.6c-4.8,1.4-9.7,2.6-14.5,4
			c-1.5,0.5-3.1,1.3-4.1,2.4c-3.1,3.2-6.8,3.5-10.9,3.4c-3.8-0.1-7.7,0.5-11.5,0.8c0,0.3,0,0.6,0,0.9c2.6,0,5.2,0,7.7,0
			c0,0.2,0,0.5,0.1,0.7c-1,0.2-2,0.4-3,0.4c-2.7,0.1-5.3,0-8,0c-0.4,0-0.9-0.1-1.2-0.3c-4.8-3.2-10.2-2.9-15.6-2.9
			c-1.5,0-3.1-0.4-4.7-0.4c-2.2-1.6-9.3-2.4-12.2-1c-0.5,0.2-1.1,0.6-1.5,0.5c-5.2-2.3-10.4-0.7-15.5,0.3c-6.5,1.2-13,2.6-19.7,2.8
			c-5,0.1-10-0.3-15-0.4c-1.6,0-3.1,0.3-4.7,0.2c-2.5-0.2-5-0.5-7.4-1.1c-5.2-1.2-10.8-1.1-15.3-4.6c-1-0.8-2.1-1.6-3.1-2.4
			c-2.9-2.4-6-1.5-7,2.1c-0.3,1.1-0.8,2.1-1.3,3.1c-2.8,6.1-4.8,12.3-4.8,19.1c0,5.3-0.3,10.7-0.3,16c-0.1,8.3-1.4,16.6,0.2,24.9
			c0.6,3.3,0.8,6.8,1.4,10.1c1.6,8.9-1.4,16.2-7.8,22.2c-3.7,3.4-6.1,7.5-7.3,12.3c-1.7,6.5-4.6,12.2-9.6,16.8
			c-3.3,3.1-6.3,6.8-10,9.3c-5.7,3.8-12.2,4.7-19.1,3.6c-8.5-1.4-15.1-5.7-20.5-12.3c-3.4-4.1-7.3-7.9-10.4-12.2
			c-2.2-3.1-3.8-6.8-5.1-10.4c-1.6-4.6-2.7-9.3-3.7-14c-0.5-2.7-0.4-5.6-0.3-8.4c0.2-5.3,0.4-10.6,0.8-15.9c0.2-2.7,0.8-5.4,1.2-8.2
			c0.1-0.4,0.2-0.9,0.1-1.2c-2.2-5.3,0.5-10,1.9-14.9c1.5-5.3,1.9-10.8,1.4-16.3c-0.7-8.2-2.4-16.3-1.3-24.6c0.3-2.1,0-4.3,0.2-6.5
			c0.5-4.9,1.4-9.8,1.5-14.6c0.2-7.4-0.3-14.8-0.3-22.2c0-5.5-3-9.8-5.4-14.3c-5.3-9.6-10.9-19-16.3-28.6c-3.7-6.6-4-13.6-1.8-20.6
			c0.2-0.6,1.4-1.2,2.2-1.2c5-0.1,10,0,14.9,0c5.9,0,11.8-0.3,17.7-0.2c7.5,0.1,15,0.7,22.5,0.9c8.6,0.3,17.1,0.4,25.7,0.5
			c11.3,0.2,22.6,0.3,33.9,0.4c6.3,0.1,12.6,0.3,18.8,0.2c5.3-0.1,10.7-0.7,16-0.9c4.2-0.2,8.4,0.1,12.6-0.2
			c4.7-0.3,9.3-1.2,13.9-1.8c8.7-1.1,17.3-2.6,26.1-2c7.5,0.5,15.1,0.6,22.7,1c8.2,0.5,16.4,1.4,24.6,1.8c7.1,0.3,14.2,0,21.3,0.2
			c4.3,0.1,8.7,0.7,13,1c4,0.3,8,0.6,12,0.7c10.4,0.3,20.8,0.9,31,3.4c6.7,1.6,13.3,3.5,20,4.9c5.8,1.2,11.8,1.8,17.7,2.7
			c3.7,0.5,7.3,1.4,11,1.3c6.5-0.1,13-0.9,19.5-1.4C687.4,658.1,688.2,658.5,687.9,661.3z M771,180.2c-1.7,8.2-5.9,15.3-9.1,22.9
			c-1.2,2.9-2.3,5.8-3.7,8.7c-0.9,1.9-2.3,3.6-3.3,5.6c-1.3,2.5-2.5,5-3.5,7.6c-2.2,6-4.2,12-6.2,18.1c-2.1,6.5-3.8,13.1-5.9,19.5
			c-1.2,3.6-3,7-4.2,10.6c-2,5.9-4,11.8-5.4,17.8c-1.8,7.9-3.1,15.9-4.7,23.8c-1.1,5.7-2.7,11.3-3.4,17.1
			c-1.3,9.9-4.5,19.4-6.3,29.2c-1.6,9-2.8,18-3.2,27.1c-0.3,8.1-1.5,16.1-2.1,24.1c-0.4,6.1-0.5,12.2-0.8,18.2
			c-0.1,2.7-0.5,5.3-0.4,8c0.1,6.8,0.4,13.5,0.7,20.3c0.3,6.7,0.5,13.4,0.9,20.1c0.5,9.1,1.1,18.2,1.6,27.3c0.3,4.7,0.4,9.4,0.6,14
			c0.1,3.1,0.3,6.3,0.3,9.4c0.1,4.4,0,8.8,0.1,13.2c0,0.7,0.2,1.5,0.5,2.1c0.4,0.9,1.1,1.7-0.2,2.4c-0.2,0.1-0.2,0.6-0.2,0.9
			c0.4,5.7,1.1,11.5,1.3,17.2c0.1,4.2-0.5,8.4-0.6,12.6c-0.1,4.7,0.2,9.3,0.3,14c0,4.8-0.1,9.5-0.2,14.3c-0.1,2.9-0.3,5.8-0.4,8.7
			c0,0.7,0.3,1.3,0.8,2c0.8-3.8,1.7-7.6,2.5-11.4c0.1,0,0.2,0,0.3,0c0.1,1.8,0.4,3.5,0.3,5.3c-0.6,6.3-1.7,12.5-2,18.7
			c-0.2,3.1-1.3,5.5-2.6,8.1c-1.2,2.4-3,4.3-5.5,5.5c-0.8-2-0.1-4.5,1.4-5.3c0.5-0.3,1.2-0.6,1.2-1c0.4-1.9,0.6-3.8,0.3-5.9
			c-0.4,0.6-0.9,1.1-1,1.7c-1.1,5.1-4.2,9.1-7.1,13.1c-1.6,2.2-4.1,3.9-6.6,5c-3.7,1.6-7.6,2.7-11.6,3.4c-4.3,0.8-8.8,0.6-13.1,1.4
			c-10.8,2-21-2.1-31.4-3.2c-3.6-0.4-7.1-2.2-10.7-2.9c-7.2-1.5-14.3-3.1-21.6-4c-7.9-0.9-15.9-0.8-23.9-1.3
			c-4.1-0.2-8.2-0.7-12.3-1.2c-4.9-0.5-9.8-1.1-14.6-1.5c-3.1-0.3-6.2,0-9.2-0.7c-6.8-1.5-13.5-0.2-20.3,0.2
			c-4.3,0.2-8.7-0.4-13-0.7c-5.2-0.3-10.5-0.6-15.7-1.1c-2.7-0.2-5.4-0.8-8.2-1c-7.9-0.5-15.8-1.5-23.7-0.3
			c-2.7,0.4-5.5,0.8-8.2,1.2c-0.2,0-0.6,0.1-0.6,0.3c-1.7,3.7-5.3,2.9-8.2,3c-3.9,0.1-7.9-0.5-11.8-0.8c-0.3,0-0.7-0.1-0.9,0.1
			c-4,2.3-8.5,1.5-12.8,1.8c-0.5,0-1-0.5-1.3-1.2c-1-0.3-1.9-0.8-2.9-0.9c-1.9-0.1-3.9-0.2-5.8,0c-2.4,0.2-4.8,0.8-7.2,1
			c-2.6,0.2-5.2,0.2-7.8,0.2c-4.9,0-9.9,0-14.8-0.1c-0.4,0-0.8-0.2-1.2-0.2c-10,1.3-20.1,0.7-30.2,0.6c-5.2-0.1-10.5-0.8-15.7-1.3
			c-0.2,0-0.4,0-0.5-0.1c-2.7-3.4-5.8-0.5-8.7-0.5c-6.2,0.1-12.4,0.2-18.6,0.4c-5.7,0.1-11.3,0.4-16.9,0.4c-2.6,0-5.3-0.5-7.9-0.5
			c-9.5-0.2-19-0.1-28.5-0.6c-6.4-0.3-12.8-1.2-19.3-1.8c-1.3-0.1-2.6-0.3-3.9-0.4c-7.6-0.1-15-1.9-21.7-5.3
			c-2.8-1.5-4.9-4.7-6.8-7.4c-7.1-9.9-9.7-21.4-10.5-33.3c-0.7-9.5-0.6-19.1-0.8-28.6c-0.1-4.8-0.2-9.5-0.1-14.3
			c0-1.3,0.5-2.7,0.8-4c0.4-2.1,1.1-4.2,1.2-6.3c0.4-7.5,0.7-15,0.8-22.5c0.2-9.5,0-19-1.4-28.5c-1.2-8.6-1.4-17.4-2.2-26
			c-0.3-3.2-0.8-6.4-1.3-9.6c-1.8-12.7-4.4-25.3-4.2-38.2c0.2-8.6,0-17.3-0.4-25.9c-0.2-4.9-1.3-9.8-2-14.6
			c-0.3-2.4-0.4-4.9-1.1-7.2c-1.9-7-4.2-13.9-6.2-20.8c-0.5-1.8-0.6-3.6-0.8-5.5c-0.8-5.7-1.1-11.6-2.6-17.2
			c-1.8-6.7-1.8-13.5-2.7-20.3c-0.9-7.1-2.9-14.1-4.4-21.1c-0.3-1.2-0.7-2.3-0.9-3.5c-1.7-11.1-5.2-21.7-8.7-32.2
			c-0.9-2.6-1.4-5.3-2.1-7.9c-1.7-6.5-3.5-12.9-5-19.4c-0.8-3.3-1-6.7-1.7-10c-1.4-7-2.9-14.1-4.4-21.1c-1.8-8.5-2-17-0.8-25.5
			c0.3-2.5,1.8-5.1,3.3-7.2c2-2.9,5.2-5.2,6.9-8.3c3.6-6.7,10.6-7,16.4-9.2c5.3-2,11-3.3,16.6-4.5c7.6-1.7,15.2-3.2,22.9-4.4
			c4.2-0.7,8.5-0.7,12.8-0.8c6-0.1,11.8-1,17.6-2.5c2.7-0.7,5.6-1.1,8.3-0.8c6.1,0.7,11.9-0.1,17.8-1.3c7.2-1.5,14.4-2.9,21.7-4.1
			c6.9-1.1,14-1.1,20.8-2.7c7.5-1.8,15.1-2.1,22.7-3.2c6.5-0.9,13.1-1.9,19.7-2.3c7.2-0.5,14.4-0.5,21.5-0.6
			c6.7-0.1,13.5-0.1,20.2-0.2c2.8,0,5.8,0.5,8.4-0.3c4-1.2,7.7,0.3,11.6-0.1c3.7-0.3,7.3-0.4,11-0.6c2.4-0.1,4.9,0.1,7.2-0.4
			c4.2-0.8,8.4-1.8,12.4-3.2c4.7-1.6,9.5-2.1,14.5-1.9c5.1,0.2,10.2-0.2,15.3-0.1c6.8,0.2,13.6,0.8,20.3,1
			c6.3,0.1,12.6-0.3,18.9-0.3c6.8,0,13.7-0.2,20.4,1.8c4.7,1.4,9.6,2.2,15,3.4c-2.3,0.4-3.9,0.8-5.6,1c-4.9,0.8-9.9,1.6-14.8,2.2
			c-3,0.4-6,0.3-8.9,0.7c-10.4,1.5-20.9,0.7-31.3,0.3c-10-0.4-19.9-1.8-29.8-2.7c-2.5-0.2-5.2-0.1-7.7,0.3
			c-10.4,1.5-20.7,3.3-31.2,4.6c-10.5,1.3-21.2,1.2-31.8,1.6c-8.2,0.3-16.5,0.6-24.7,1.4c-6,0.6-11.9,1.9-17.9,2.7
			c-2.3,0.3-4.7,0.1-7,0.2c-5.4,0.2-10.8,0.3-16.2,0.6c-4.6,0.3-9.2,0.6-13.7,1.2c-10.4,1.5-20.9,1.6-31.1,4.7
			c-7.9,2.4-16.2,3.5-24.4,5c-7.6,1.4-15.3,2.7-23,3.6c-9.7,1.1-19.1,3.4-28.7,5.4c-8.2,1.8-16.5,2.6-24.9,3.6
			c-7.5,0.8-13.8,4.2-18.7,9.4c-4.2,4.3-5.4,10.4-4.9,16.4c0.7,8.8,1.5,17.7,2.7,26.5c0.7,5.1,2.5,10,3.7,15c1.1,4.5,2,9.1,3.2,13.7
			c1.9,7.5,5.2,14.4,8.5,21.3c1.4,2.9,2.8,5.9,3.8,8.9c2.6,7.9,5.1,15.8,7.2,23.8c1.2,4.5,1.6,9.2,2.4,13.8
			c0.8,4.6,1.7,9.2,2.5,13.8c0.7,4.5,1.1,9.2,1.8,13.7c1.4,8.3,3.2,16.5,4.6,24.8c1.2,7,2.3,14,2.8,21c0.6,9.4,0.6,18.9,0.9,28.3
			c0.3,8.9,0.8,17.7,1.3,26.6c0.4,7.9,0.7,15.8,1.5,23.7c0.7,7.1,0.4,14.3,2,21.4c1.1,4.7,0.4,9.8,0.7,14.7
			c0.3,5.1,0.9,10.1,1.5,15.2c0.4,3.8,1,7.5,1.4,11.3c0.6,5.3,1.3,10.5,1.6,15.8c0.3,5.4,0.2,10.8,0.2,16.2
			c0.1,10.2,0,20.3,0.2,30.5c0.2,7.9,0.6,15.8,1.3,23.6c0.3,3.3,1.3,6.6,2,9.9c0.8,3.7,1.5,7.4,2.5,11c1,3.7,2.1,7.5,3.8,11
			c1,2.2,3.7,3.4,6.1,3.3c7.8-0.1,15.5-0.4,23.2-0.9c6-0.4,12-1.7,18-1.9c7.2-0.2,14.5,0.6,21.7,0.5c7,0,14-0.7,21-0.9
			c2.1-0.1,4.2,0.4,6.3,0.5c5.1,0.2,10.2,0.2,15.3,0.4c13.1,0.5,26.1,1.1,39.2,1.4c6.9,0.2,13.9,0,20.8,0.1c3.7,0.1,7.3,0.5,11,0.7
			c2.7,0.1,5.5-0.2,8.2,0c2,0.2,4,0.9,6.1,1.4c8.4,2,17.1,1.5,25.6,2.4c3.7,0.4,7.4,1.4,11.1,2.1c0.1,0,0.2,0,0.2,0.1
			c2.9,3.6,6.8,0.7,10.2,1.7c1.1,0.3,2.6-1.1,4-1.4c11.1-2,22.3-2.2,33.5-1.9c5,0.1,10-0.6,15-0.6c9.1,0,18.3,0.2,27.4,0.5
			c7.4,0.2,14.9,0.4,22.3,0.9c8.5,0.7,17.1,1.1,25.5,2.8c6,1.2,11.8,1.6,17.8,1.3c1.4-0.1,2.9,0.1,4.3,0.2
			c5.9,0.6,11.8,0.9,17.6,1.8c4.1,0.6,8.1,2.2,12.3,2.6c9.6,0.9,19.2,1.5,28.8,1.8c5.2,0.2,10.4-0.7,15.6-0.9
			c4-0.1,8.1,0.1,12.1,0.3c1.4,0.1,2.5-0.1,3.1-1.7c0.1-0.4,1.1-0.4,1.7-0.6c1.3-5.6,3.1-11.2,3.7-16.9c1.1-11,1.8-22.1,2.2-33.1
			c0.3-8.6-0.2-17.3-0.5-25.9c-0.2-5.3-0.6-10.6-0.9-15.9c-0.3-5.6-0.7-11.3-1-16.9c-0.5-10-1.2-20-1.3-30
			c-0.1-9.5,0.5-18.9,0.5-28.4c0.1-14.5,0.1-28.9,0.2-43.4c0-7.3,0-14.7,0.1-22c0.1-6.7,0.3-13.4,0.4-20.1c0.1-5.9-0.4-12,0.6-17.8
			c1.3-8.4,3.7-16.7,5.7-25c1.4-6.1,2.9-12.1,4.5-18.1c1.3-4.8,3-9.4,4.2-14.2c1.7-6.7,2.9-13.6,4.8-20.3c1.3-4.8,3.5-9.4,4.9-14.2
			c1.7-5.9,3-11.9,4.5-17.9c0.5-1.9,1.1-3.7,1.3-5.6c0.3-2.7,0-5.5,0.5-8.1c0.9-5,2-9.9,3.4-14.8c1.7-5.6,3.6-11,5.8-16.4
			c2.7-6.6,6-12.9,10.8-18.3c4.7-5.2,7.5-11.4,9.3-17.9c1.9-6.7,1.5-13.7,1.3-20.7c-0.2-6.6-2.1-12.5-5.1-18.2
			c-2.2-4.2-5.7-6.8-9.7-9.3c-4.2-2.7-8.6-3.8-13.3-4.9c-3-0.7-5.9-2-8.9-3c-1-0.3-2-0.3-3.1-0.5c-0.1,0.2-0.1,0.4-0.2,0.6
			c1.4,0.5,2.8,0.9,4.6,1.5c-5.2,0-9.9,0.2-14.7-0.1c-6.7-0.4-13.3-1.2-20-2c-4.5-0.5-8.9-1.4-13.4-2.1c-0.5-0.1-1,0-1.4,0
			c-5.1,0-10.2,0.3-15.3,0.1c-3.7-0.2-7.3-0.9-11-1.4c-0.3,0-0.6-0.1-1-0.1c-6.3,0.7-12.5-0.8-18.7-1.6c-7.3-0.9-14.6-2.3-21.9-3.6
			c-2.9-0.5-5.6-1.6-8.5-2.2c-3.5-0.7-7.1-1.2-10.7-1.7c-2.1-0.3-4.3-0.7-6.5-0.8c-0.9-0.1-1.9,0.4-2.3,0.4
			c-8.3-2-16.1-3.7-24.3-2.4c0-0.3,0-0.6,0-0.9c2.3-0.2,4.5-0.3,6.8-0.6c5.6-0.6,11.2-1.2,16.8-1.9c4.4-0.5,8.8-1.8,13.1-1.6
			c8,0.4,16,0.3,23.9,3.1c4,1.4,8.8,1,13.2,1.2c8,0.5,16,1,23.9,2.9c4.9,1.2,9.8,1.7,14.9,1c1.4-0.2,2.9,0.3,4.3,0.4
			c4.1,0.3,8.2,0.5,12.2,0.9c2.3,0.2,4.6,0.9,6.9,1.2c5.9,0.8,11.8,1.4,17.7,2.2c6.7,0.8,13.3,1.7,19.9,2.5c3.2,0.4,6.4,0.8,9.5,1.5
			c1.2,0.3,2.3,1.3,3.5,2.1c2.7,1.8,5.4,3.4,8.7,4.4c4.8,1.3,7.3,5.5,9.5,9.7c2,3.9,4.2,7.8,6.2,11.7c0.2,0.4,0.2,1,0.2,1.6
			c0,0.6-0.2,1.3,0,1.9C773.3,162.4,772.9,171.2,771,180.2z"/>
		<path d="M543,141.8c0.5,1.4,1,2.8,1.6,4.3c-0.3,0.2-0.6,0.3-0.9,0.5c-1.8-1.1-3.4-2.6-5.3-3.2c-5-1.8-10-3.7-15.2-4.8
			c-5.7-1.2-11.7-2.2-17.5-2c-7.2,0.4-14.4,2-21.7,0.5c-3.4-0.7-6.8-1.3-10.2-1.9c-2.4-0.4-4.8-1.1-7.2-1.2
			c-5.7-0.3-11.5-0.1-17.2-0.4c-6.2-0.3-12.4-1.1-18.5,1c-1.8,0.6-3.6,1.4-5.4,1.9c-4.4,1.2-8.9,2.2-13.3,3.4
			c-2.5,0.7-4.8,1.9-7.3,2.3c-2.5,0.4-4.4,2-6.7,2.6c-6.2,1.8-12.2,4.6-18.3,6.7c-5.8,2.1-11.8,3.7-17.6,5.8
			c-6.9,2.6-14,3.7-21.2,4.8c-7.1,1.1-14.3,1.6-20.9,4.8c-7.6,3.7-15.4,7-23.1,10.6c-11.2,5.1-18.7,13.5-22.6,25.1
			c-1.4,4.1-2.7,8.3-4.4,12.3c-2.7,6.4-6.1,12.4-8.4,18.9c-3.1,8.4-5.4,17-8.1,25.5c-1.7,5.4-3.4,10.7-5,16.1c-0.9,3-1.8,6-2.6,9
			c-1,4.1-1.8,8.3-2.9,12.4c-0.8,3.2-2,6.3-2.9,9.4c-0.4,1.5-0.5,3.2-1,4.7c-1.2,4.2-3,8.3-3.8,12.5c-1.4,6.7-1.9,13.6-3.3,20.3
			c-1.3,6.4-1.7,12.7-2.1,19.2c-0.7,10.5-1.5,20.9-2.3,31.4c-0.2,2.7-0.4,5.3-0.2,8c0.4,5.5,0.9,10.9,1.8,16.3
			c0.6,3.6,1.8,7.1,3.1,10.5c1.3,3.6,3,7,4.4,10.5c1.5,3.8,2,7.9,4.1,11.6c1.6,2.8,2.2,6.2,3.6,9.2c3.5,6.9,6.8,13.9,10.9,20.4
			c5.4,8.8,11.3,17.2,17.2,25.7c1.8,2.5,4.4,4.4,6.7,6.5c0.9,0.9,2.1,1.5,2.9,2.4c2.4,3,5.2,5.3,8.8,6.6c0.3,0.1,0.6,0.3,0.9,0.5
			c9.4,7,20.3,11.3,30.9,16c8.2,3.6,16.8,6.2,25.3,9.3c0.9,0.3,2.3-0.1,2.7,0.4c1.8,2.7,5,2.4,7.5,3.3c6.1,2.3,12.4,4.3,18.7,6.1
			c2.6,0.7,5.2,2.7,8.1,0.7c0.2-0.2,0.8,0,1.1,0.1c1.2,0.3,2.3,0.5,3.5,0.8c0.8,0.2,1.7,0.4,2.5,0.6c2,0.6,4.1,1.9,6,1.7
			c5-0.5,8.9,1.8,13.1,3.6c-0.8,1.6-0.5,2.6,1.1,2.8c2.8,0.4,5.7,0.3,8.6,0.4c0.7,0,1.4-0.3,2.1-0.2c4.9,0.6,9.8,1.4,14.7,2
			c1.4,0.2,3.3,1.2,4.1-1.2c0.1-0.2,1.1-0.3,1.3-0.1c2.5,2.5,5.7,1.8,8.7,2.2c4.7,0.5,9.4,1.3,14.1,1.6c3.8,0.3,7.6-0.1,11.3,0
			c4.4,0.1,8.7,0.3,13.1,0.5c1.2,0.1,2.4,0.6,3.5,0.5c2.2-0.3,4.4-1.2,6.7-1.5c5.6-0.8,11.4-0.6,16.8-2.1c7-1.9,13.6-5.1,20.3-7.7
			c7.5-2.9,15-6,22.7-8.6c4-1.3,7.5-4.3,11.9-4.4c0.3,0,0.6-0.2,0.9-0.4c5.2-3.6,10.6-7.1,15.7-10.9c5.7-4.1,11.2-8.5,16.8-12.7
			c3.1-2.4,6.6-4.5,9.3-7.3c5.2-5.3,10.1-10.9,15-16.5c2.2-2.5,4-5.3,6.1-7.8c5.1-6,10.4-11.8,13.1-19.5c1.4-4.1,3.8-8,4.8-12.1
			c2.1-8.6,3.3-17.5,5.5-26.1c2.7-10.8,3.2-21.7,4.2-32.7c0.8-9.2,2.3-18.2,4.5-27.1c2.4-9.8,2.8-19.4,0-29.2
			c-1-3.7-1.1-7.6-1.6-11.5c-0.3-2.5-0.4-4.9-0.9-7.4c-0.5-2.3-1.4-4.5-1.9-6.8c-1.4-6.6-2.5-13.2-3.9-19.7
			c-1.2-5.5-2.7-11-4.2-16.4c-1.7-6.1-3.4-12.1-5.3-18.2c-1-3.2-2.4-6.2-3.5-9.4c-1.7-5-3.3-10-5.1-14.9c-2-5.3-4.1-10.4-6.3-15.6
			c-1.1-2.5-2.3-5-3.9-7.2c-1.5-2.1-3.6-3.9-5.5-5.7c-2.2-2.1-4.5-4.2-6.7-6.3c-0.5-0.5-1-1.1-1.5-1.6c-3.1-3-5.9-6.2-9.3-8.8
			c-4-3.2-8.5-5.9-12.8-8.8c-5-3.3-10.4-6.2-15.2-9.7c-4.6-3.4-8.7-7.5-13-11.2c-3.7-3.2-7.7-6.2-11.3-9.5c-2.9-2.6-5.6-5.6-8.5-8.3
			c-1.3-1.2-2-2.5-2.3-4.3c-0.2-1.5-1.3-2.9-2-4.4C543.2,141.7,543.1,141.7,543,141.8z M548.3,155.7c3.3,2.7,6.6,5.4,9.8,8.2
			c1.8,1.6,4.1,2.7,4.6,5.6c0.2,1,1.6,1.2,2.7,1.6c1.7,0.6,3.1,2.2,4.5,3.6c1.3,1.2,2.5,2.4,3.5,3.8c3.1,4.3,8.2,5.9,12.2,9.1
			c3.5,2.8,8,4.3,11.7,7c5.4,3.9,10.6,8.1,15.6,12.6c4.4,3.9,8.6,8.1,12.4,12.6c3.1,3.6,5.5,7.8,8.1,11.9c3.4,5.3,4.2,11.5,6.1,17.3
			c1.4,4.3,3.6,8.3,5.1,12.5c4.4,12.4,8,25.1,10.6,38.1c1.8,9.3,3.5,18.6,5.3,27.8c1.4,7.2,3,14.3,4.4,21.4
			c0.6,3.3,1.1,6.7,1.2,10.1c0,2.4-0.9,4.9-1.2,7.3c-0.3,2.4,0,4.8-0.4,7.2c-0.3,2.1-1.1,4.1-1.7,6.1c-0.2,0.5-0.5,1-0.5,1.6
			c-0.5,4.2-0.9,8.5-1.3,12.7c-0.9,9-1.6,18-2.7,27c-0.4,3.5-1.6,6.9-2.3,10.4c-0.8,4.3-1.7,8.6-2.2,12.9c-1.2,10.7-4,20.8-9,30.5
			c-2.6,4.9-5.6,9.5-8.6,14.1c-2.7,4-6,7.6-8.9,11.5c-3.4,4.6-7.7,8.3-12.2,11.7c-1.5,1.2-2.7,2.8-4,4.2c-1.2,1.3-2.3,2.5-4.4,3
			c-1.7,0.4-3,2.5-4.6,3.8c-3,2.5-6,5.1-9.2,7.5c-0.9,0.7-2.4,1-3.6,1c-4.7,0.1-9.5,0.5-14.2,0c-5-0.5-10.1-1.5-14.9-3.1
			c-5.7-1.9-11-5-16.6-7.2c-4.4-1.7-8.9-2.8-13.4-4c-7.1-1.8-14.1-0.5-21.2,0.4c-0.5,0.1-1,0.1-1.4,0c-3.9-0.9-7.7-1.7-11.5-2.8
			c-1.6-0.4-3-1.6-4.6-2.1c-8.2-2.2-13.2-7.9-17.1-14.8c-2.6-4.6-4.7-9.5-6.8-14.4c-4.1-9.5-7.8-19.2-12.1-28.7
			c-2.6-5.8-6.1-11.2-9.2-16.7c-0.6-1-1.7-1.7-2.4-2.7c-1.6-2.5-2.5-4.9-1.8-8.3c1.1-5.6,1-11.4,1.5-17.1c0.2-1.9,0.4-3.9,0.9-5.7
			c0.2-0.7,1.2-1.5,2-1.8c4.7-1.6,7.8-5.4,11.5-8.3c0.8-0.6,1-2.1,1.4-3.3c0.5-1.8,1.4-2.6,3.3-2.3c6.6,1,11.7-4.9,10.2-11.4
			c-1.2-5.2-4.7-8.4-9-10.5c-2.6-1.3-6-1.3-9-1.7c-4.3-0.6-8.7-0.7-12.9-1.5c-4.6-0.8-8.6,0.8-12.1,3.2c-3.8,2.6-7,6-7.8,11
			c-0.3,2,1.7,5.8,3.7,6.2c1.1,0.2,2.3,0.3,3.4,0.2c4-0.4,5.1,0.1,4.9,4c-0.1,3.5,1.8,6,3.5,8.2c2.2,2.8,3.2,5.1,2.7,8.7
			c-0.8,5.4-0.8,10.9-1.3,16.4c-0.3,3.2-0.8,6.4-1.5,9.6c-0.2,1.1-0.9,2.6-1.8,2.9c-4.1,1.6-6.5,5.1-9.2,8.1
			c-4.6,5.2-8.8,10.7-13.4,15.9c-3.8,4.4-7.7,8.6-11.7,12.8c-4.1,4.2-8.4,8.2-12.6,12.2c-0.3,0.3-0.7,1-1,1c-3.9-0.1-2.2,3.5-4,5.2
			c3,0.6,5.2,0.7,7-1.7c3.3-4.2,6.9-8.3,10.4-12.4c0.5-0.5,1-1,1.6-1.4c5.8-3.8,10.4-9,14.8-14.2c4.5-5.3,8.8-10.9,13.2-16.4
			c0.3-0.3,0.6-0.6,0.9-0.9c3.7-3.6,3.7-3.4,7.2,0.3c3.8,4,5.7,9.1,8.3,13.7c3.7,6.6,7.5,13.2,11.1,19.9c1.8,3.3,2.7,7.1,4.5,10.4
			c4.3,7.9,8,16.3,14.7,22.7c4.9,4.7,10.4,8.5,16.8,10.7c6,2,12.2,2,18.4,0.8c7-1.4,13.9-0.2,20.9,1.2c9.2,1.9,17.3,6.5,26.1,9.3
			c4.8,1.5,9.9,2.3,14.9,3.1c3.6,0.6,7.3,0.7,10.9,1.1c0.1,0.2,0.2,0.5,0.3,0.7c-1.1,1-2,2.2-3.3,2.9c-6.2,3.6-12.4,7.2-18.8,10.5
			c-3.3,1.7-7,3-10.5,4.3c-6.6,2.5-13.3,5-20,7.5c-3.5,1.3-7,2.8-10.5,4.1c-7.2,2.7-14.4,5.2-22.3,4.1c-0.3,0-0.5,0.1-0.8,0.2
			c-1.7,0.1-3.5,0.5-5.2,0.3c-2.5-0.2-4.9-1-7.4-1.2c-4.7-0.4-9.5-0.6-14.2-0.7c-2.6-0.1-5.3,0.4-7.9,0.4c-1.9,0-3.7-0.3-5.2,1.2
			c-0.2,0.2-0.4,0.3-0.7,0.3c-4.1-0.4-8.2-0.9-12.3-1.4c-6.5-0.9-12.9-2-19.4-2.7c-8.4-0.9-16.3-3.9-24.4-6c-3.7-1-7.7-1.2-11.5-1.6
			c-5.6-0.6-11-2.4-16.3-4c-6.8-2-13.5-4.4-20.4-6c-7.5-1.8-14.4-5.1-21.4-8c-6.7-2.7-13.3-5.7-19.7-9c-4.8-2.5-9.4-5.5-13.9-8.4
			c-3.9-2.6-7.5-5.5-11.3-8.1c-1.7-1.2-3.6-2.1-5.4-3.2c-0.5-0.3-0.9-0.8-1.4-1.3c-2-2.1-4.2-4.2-6.1-6.5c-3.3-3.8-6.7-7.4-9.5-11.5
			c-4.6-7-8.5-14.5-13.2-21.3c-3.8-5.4-5.8-11.5-8.2-17.5c-0.6-1.5-0.9-3.1-1.4-4.6c-1.3-4-2.2-8.3-4.2-12.1
			c-4.5-8.6-6.3-17.8-7.1-27.3c-0.5-5.5-0.6-11.2-0.4-16.7c0.3-6.4,1.3-12.7,1.8-19.1c0.3-3.9-0.1-7.9,0.3-11.8
			c0.6-7,1.3-14,2.2-20.9c0.9-6.7,2.1-13.4,3.2-20.1c0.4-2.1,0.8-4.3,1.3-6.4c1.7-6,3-12.2,6.1-17.8c0.7-1.2,0.8-2.8,1.1-4.2
			c0.8-3.3,1.6-6.7,2.4-10c0.4-1.6,1.3-2.1,2.8-2c4.1,0.3,6.7-1.7,8.5-5.2c0.7-1.4,1.2-2.9,2.2-4.1c0.9-1.1,2-2.2,3.3-2.6
			c6.1-1.8,9.7-5.5,10.2-12c0-0.5,0.2-1,0.2-1.4c0.6-5.3,3-9.2,8.5-10.5c3.5-0.8,5.1-3.3,6-6.3c1.2-4.1,2.1-8.4,3.3-12.6
			c0.8-2.7,2-5.3,3.2-7.8c0.8-1.7,3.2-2.2,5.3-1.6c3.9,1.1,7.7,2.2,11.7,2.8c1.3,0.2,3.3-0.7,4.1-1.7c3.3-4.7,6-9.9,9.5-14.5
			c2.7-3.5,4.4-8.1,9.4-9.7c2.1-0.7,3.6-0.1,5.2,0.9c2.2,1.3,4.3,2.9,6.7,3.9c2.1,0.9,4.4,1.3,7.3,2c1.3-2.7,2.7-5.4,4.1-8.1
			c1.1-2.2,2.8-2.7,4.3-0.8c2.4,3.1,6,3.8,9.2,5.5c2.3,1.2,3.6,0.2,4.7-1.7c1.7-3,3.4-5.9,5.1-8.8c2-3.4,3-3.7,6.4-2.1
			c1.5,0.7,3.1,1.4,4.6,2.2c2.4,1.1,5.7,0.3,7.3-1.9c1.3-1.9,2.4-4,3.6-6c2.1-3.7,5.1-6,9.4-6.5c1.2-0.1,2.3-0.6,3.5-1
			c5.8,5.4,17.8,5.8,25.1,0.8c1.6-1.1,2.8-3.1,3.6-5c3.1-6.5,8.4-9.8,15.2-11.4c5.9-1.4,11.6-3.6,17.5-5c2.7-0.7,5.6-0.7,8.3-0.5
			c5.4,0.4,10.7,1.2,16.1,1.9c7.1,0.9,13.5,3.5,19.3,7.7c2.6,1.8,4,3.6,3.7,6.6c-0.3,2.6-0.7,5.2-1.1,7.8c-0.5,3.2-1.2,6.3-1.5,9.5
			c-0.3,2.9-0.5,5.8-0.5,8.7c0,0.9,0.3,1.9,0.8,2.6c2,2.7,4.4,5.1,6.3,7.8c2.1,2.9,0.9,6.9-2.5,8.4c-4.8,2.2-8.9,5.2-11.8,9.7
			c-2.9,4.5-3.4,9.7-3.3,14.9c0.1,3.3,2,6.2,5.7,7.1c5.2,1.3,10.2,1.4,14.9-1.9c1.2-0.9,2.7-1.5,4.2-1.7c3.2-0.3,4.1,2.4,5.2,4.6
			c0.6,1.2,1,2.7,1.9,3.6c1.1,1.1,2.5,2.5,3.9,2.6c3.8,0.3,7.7,0.1,11.5-0.2c1.4-0.1,2.9-0.9,4.1-1.7c3.3-2.1,6.6-4.3,9.9-6.5
			c5.4-3.5,12.5-1.7,16.3,3.4c2.8,3.8,3.9,8,4.7,12.3c0.6,3.3-0.3,6.9-0.6,10.3c-0.2,3.2-0.6,6.5-0.6,9.7c0,1,1.2,2.5,2.1,2.7
			c6.5,1.6,13.1,3.1,19.7-0.2c1.3-0.6,2.8-0.8,4.2-0.9c2.2-0.2,4.4-0.2,6.5-0.5c7.1-0.8,12.6,6.5,9.6,13.2
			c-2.6,5.6-6.2,10.6-10.6,14.8c-3,2.8-7.2,3.8-11.2,4c-4.2,0.3-8.4-0.3-12.6-0.2c-1.9,0.1-4.3,0.6-5.6,1.8c-4.4,4.3-9.7,3.7-15,3.3
			c-7.1-0.5-14.2-1.4-21.2-1.7c-3.1-0.1-6.4-0.1-9.1,2.4c-0.9,0.9-2.9,0.7-4.4,1c-2.2,0.4-4.4,0.7-6.5,1.2
			c-6.1,1.6-11.5,4.8-16.4,8.4c-5.8,4.2-11.6,8.7-15.4,15.2c-2.4,4.2-4.5,8.3-4.9,13.1c-0.1,0.8-0.5,1.5-0.9,2.2
			c-1.9,3.4-1.6,6.1,1.2,8.9c2.7,2.8,5.4,5.7,8.4,8.1c6,4.7,12.3,8.9,19.3,12c8.8,3.8,18.1,4.6,27.5,5.3c2.3,0.2,4.6-0.8,6.9-1.2
			c0.3-0.1,0.7-0.1,0.9,0.1c1.5,1.9,2.9,0.7,4.5,0c2.5-1.1,5.2-1.8,7.8-2.7c1-0.3,2.1-0.6,2.9-1.3c6.1-5.3,12.7-10.1,16.9-17.2
			c3.4-5.7,3.1-11.8-0.2-17.6c-2.6-4.6-5.1-9.2-8-13.6c-3.3-5.1-7.9-8.9-13.2-12c-3.2-1.9-6.3-4.2-9.8-6.6c1.1-0.1,1.6-0.2,2.2-0.1
			c8.1,0.2,16.3,0.6,24.4,0.6c1.2,0,2.8-1.3,3.6-2.5c2.1-2.9,5-3.5,8.1-3.2c5.8,0.5,11.4-0.3,16.8-2.3c3.9-1.4,6.9-4.1,10-6.9
			c3.8-3.3,5.8-7.5,7.5-11.9c3.5-9-4.1-20.4-14.8-18.4c-4.7,0.9-9.4,2.1-14.2,2.7c-3.5,0.5-7.2,0.3-10.7,0.4c-1.6,0-2.6-0.8-2.6-2.5
			c0.1-3.3,0.2-6.6,0.2-9.9c0-5,0-10-0.2-14.9c0-0.9-0.8-1.8-1.3-2.6c-0.8-1.2-1.9-2.3-2.5-3.6c-2.2-5.2-6.6-7.3-11.7-7.9
			c-2-0.2-4.3,0.6-6.3,1.3c-2.2,0.8-4.6,1.7-6.4,3.1c-5.1,4.2-11,5.5-17.4,5.4c-3.3-0.1-4.1-0.7-5.6-3.7c-3.4-6.9-8.2-9.6-15.4-5
			c-3.4,2.1-6.8,2.4-10.4,2c-2.4-0.2-3.4-2.2-3.5-4.3c0-2.7,0-5.5,0.7-8.1c1.1-4.1,2.9-8,7-10c2.2-1.1,4.6-1.8,7-2.6
			c1.6-0.5,2.4-1.4,2.5-3.1c0.1-1.4,0.6-2.8,1.2-4.2c1.3-3.2,0.9-5.3-1.5-7.7c-4-4-7.1-8.5-6.9-14.4c0.1-2.6,1.2-5.2,1.7-7.8
			c0.3-1.5,0.5-3.1,0.8-4.9c1.5-0.1,1.8-1.9,1.5-3.3c-0.9-3.3-2-6.7-3.5-9.7c-1-2-2.8-3.8-4.7-4.9c-3.6-2-7.6-3.4-11.5-5.1
			c-2.2-0.9-4.4-2-6.7-2.7c-3.5-1.1-7.1-2-10.7-2.8c-5.3-1.2-10.7-0.8-16.1,0c-2.2,0.3-3.8,1-5.5,2.4c-1.6,1.3-3.9,1.7-6,2.5
			c-4,1.5-8.1,2.7-12,4.4c-2,0.9-3.8,2.4-5.6,3.7c-2,1.5-4.1,3-6,4.7c-0.5,0.5-0.7,1.4-0.9,2.2c-1.1,4.3-4.8,7.3-9.2,7.5
			c-3.6,0.2-6.8-0.3-10.3-1.5c-4.9-1.8-10.2-3.2-15.4,0.1c-3.4,2.2-5.9,5.2-7.8,8.7c-0.5,1-1,2.2-1.8,2.8c-0.9,0.6-2.4,0.8-3.5,0.6
			c-1.6-0.3-3.1-1.7-4.5-1.6c-2.6,0.3-5.4-0.7-7.8,2.1c-2.4,2.8-4.8,5.3-6,8.8c-0.6,1.8-2.3,2.4-4,1.6c-2.1-1-4.3-2-6.1-3.5
			c-4.6-3.7-8.1-3.3-11.3,1.7c-0.4,0.6-0.7,1.3-1.1,1.9c-1.7,2.6-2.9,2.7-5.5,0.9c-2.2-1.5-4.5-3-6.9-4c-4-1.7-6.9,0.9-10.2,2.8
			c-4.9,2.8-6.2,8.1-9.2,12.2c-2.1,2.9-3.9,5.9-5.8,8.9c-0.9,1.4-1.9,1.6-3.5,1.4c-4.5-0.7-8.9-2-13.7-1.3c-3.1,0.4-5.3,1.8-6.5,4.3
			c-1.2,2.4-1.7,5.2-2.6,7.8c-1.4,3.9-2.6,7.9-4.3,11.7c-0.5,1.2-2.2,2-3.5,2.7c-3.5,1.8-7.2,3.4-9.5,6.8c-0.6,1-1.1,2.2-1.3,3.3
			c-0.5,2.6-0.7,5.3-1.1,7.9c-0.5,2.9-2.1,5.1-5.1,5.9c-0.2,0-0.3,0.1-0.5,0.2c-5.2,0.6-7.7,4.1-9.2,8.8c-0.5,1.7-1.6,2.8-3.5,2.9
			c-1.5,0.1-1.9-0.6-1.7-2c0-0.2,0.1-0.5,0.2-0.7c2-5.9,4.1-11.9,6.1-17.8c1.9-5.7,3.6-11.4,5.6-17c1.4-3.8,3.1-7.4,4.7-11.1
			c2.3-5.7,4.9-11.2,6.8-17.1c1.3-4.3,2.6-8.6,5.4-12.1c4.2-5.2,7.4-11.3,13.4-14.7c3.6-2,7.2-4.1,10.8-5.9
			c3.5-1.8,7.1-3.5,10.8-4.8c3.8-1.3,7.9-2.1,11.8-3.1c1.8-0.5,3.5-1.1,5.3-1.5c1-0.2,2,0,3-0.2c4.2-1,8.4-2,12.5-3.3
			c5.7-1.7,11.2-3.8,16.9-5.5c3.4-1,6.9-1.6,10.3-2.6c2.2-0.6,4.4-1.5,6.5-2.4c4.1-1.6,8.3-2.8,12.1-5c5.2-3,11-3.8,16.5-5.8
			c6.7-2.4,13.8-4.2,20.8-5.2c6.9-1,14-0.9,21-1.1c3.5-0.1,7-0.3,10.4,0.1c4.2,0.4,8.3,1.4,12.4,2.2c3.5,0.7,6.9,1.8,10.3,2.1
			c4.2,0.4,8.5,0.6,12.6-0.1c9.2-1.5,18.1-0.4,27.1,1.5C534.8,144.3,541.4,150.2,548.3,155.7z M439.4,380.1
			c-0.4-0.6-1.9-0.8-2.9-0.7c-2.4,0.1-4.8,0.6-7.2,0.8c-1.4,0.2-2.3-0.4-2.2-1.8c0.1-1.2,0.1-2.6,0.7-3.4c3.9-5.4,7.7-8.7,16.2-7.1
			c4.7,0.9,9.6,1.3,14.4,1.7c5.1,0.4,9.7,4.7,9.8,9.2c-0.3,1.2-0.6,2.3-1,3.4c-0.6,1.6-1.8,2.1-3.5,1.8c-2.5-0.6-5-1.1-7.6-1.5
			c-2.8-0.4-3.6,0.8-2.6,3.3c1.8,4.4,1.5,5.1-2.3,8c-1.4,1.1-2.8,2.2-4.2,3.3c-1.2,1-2.3,1.3-3.1-0.3c-1.7-3.1-3.5-6.2-4.9-9.4
			c-0.5-1.1,0.2-2.7,0.3-4.1C439.4,382.2,439.9,380.8,439.4,380.1z M534.4,371c-1.1,1.6-2.3,3.2-3.4,4.9c-0.9,1.3-1.7,2.7-3.6,2
			c-2.2-0.8-3.1-2.7-2.8-4.8c0.9-6.9,4.2-12.9,8.6-17.9c2.9-3.4,6.7-6.8,12.1-6.6c3.1,0.1,3.4,0.2,3.1,3.2c-0.1,0.7-0.2,1.4-0.2,2.2
			c0.1,2.7-1.4,4.2-3.6,5.8c-3.4,2.5-6.3,5.7-9.2,8.7C534.7,369.1,534.7,370.2,534.4,371C534.4,371.1,534.4,371.1,534.4,371z
			 M532.3,375.6c0.6-1.6,1.4-3.1,2.1-4.6c2.3-2.4,4.4-5,6.9-7.3c1.5-1.3,3.5-2.1,5.6-3.4c0.4,1.2,0.7,1.9,0.8,2.5
			c0.1,3.7,2,6.7,4.1,9.5c1,1.3,4.6,1.9,6.3,1c6-2.9,8.6-5.6,8.8-13.5c0.2-5.7-0.1-11.3-2.4-16.6c-1.4-3.4-5.8-7.9-9-6.8
			c-1.1,0.4-2.2,0.8-3.7,1.4c-0.9-0.5-2.2-1.1-3.3-1.9c-3.1-2.1-6.1-2.5-9.7-0.8c-7.2,3.4-12.3,9-16.8,15.3
			c-0.2,0.3-0.2,0.7,0.1,1.4c0.8-0.7,1.6-1.4,2.3-2.1c4.8-5,9.9-9.5,16.3-12.2c3.5-1.5,9.2,2.6,9.2,6.4c0,1.9-1.3,2.2-2.8,2.1
			c-6.1-0.4-10.8,1.9-14.3,6.9c-4.4,6.2-8,12.9-10.7,20c-0.2,0.5-1.4,1.1-1.7,1c-4.5-2.7-8.9-5.8-11.6-10.5
			c-0.7-1.1-0.6-2.7-0.7-4.1c-0.5-8.5,4.2-15,8.7-21.6c0.6-0.9,1.8-1.3,2.7-1.9c3-2.2,6-4.7,9.1-6.7c7.5-4.7,15.1-9.3,24.4-8.9
			c3.6,0.1,7.3,0.9,10.6,2.3c5.2,2.2,10.5,4.6,14.7,8.7c1.3,1.3,3.3,1.9,4.4,3.3c2.7,3.3,5.1,6.8,7.6,10.2c1.7,2.3,3.6,4.5,5.1,6.9
			c4.7,7.8,1.7,14.7-2.9,21.1c-3.4,4.7-7.3,9.2-13.3,10.8c-7.5,2-15.1,3.5-22.9,3.4c-5.2,0-10.2-1.1-14.9-3.4c-2-1-4.2-1.7-6.4-2.4
			C532.2,380.4,531.2,378.5,532.3,375.6z"/>
		<path d="M428.8,640.7c-1.3,0-2.7,0.4-4,0.7c0.1,0.4,0.1,0.8,0.2,1.1c2.6-0.3,5.3-0.5,7.9-0.8c0-0.1-0.1-0.3-0.1-0.4
			C431.5,641.1,430.2,640.7,428.8,640.7z"/>
		<path d="M388.2,320.1c-3.1-7.4-8.1-13.5-14.4-18.6c-3.5-2.8-7.1-5.3-11.6-6.3c-5.5-1.3-11-2.8-16.5-4.1c-2.7-0.6-5.4-0.8-8,0.5
			c-3.7,1.9-7.6,3.5-11.2,5.6c-3.2,1.9-6.3,4.1-9.3,6.4c-2.3,1.8-4,4.2-6.3,5.9c-3.8,2.9-6.9,6.1-9.2,10.3
			c-4.4,8.1-5.2,16.7-3.9,25.7c0.3,1.9,1.2,3.7,2,5.4c1.5,3.3,3.2,6.6,4.8,9.9c0.6,1.1,1.2,2.3,1.8,3.4c0.8,1.3,0.9,3.7,3.5,2.1
			c0.2-0.1,0.6,0,0.9,0.2c2.8,1.3,5.4,2.7,8.3,3.8c6.7,2.5,13.6,3.5,20.7,2.9c6.6-0.5,13.2-1.5,19.3-4.1c6.8-2.9,13.7-5.6,20.4-8.7
			c2.4-1.1,4.1-3.4,6.5-4.6c3.7-1.8,5.4-4.6,5.7-8.5c0.2-2.5,0.3-5,0.5-7.5c-0.2-1.9-0.2-3.9-0.6-5.8
			C390.7,329.4,390.1,324.5,388.2,320.1z M301.8,341.1c-0.1-1.1-0.3-2.3-0.2-3.4c0.4-6.4,3.2-11.2,8.7-14.6
			c3.8-2.3,7.3-4.9,11.2-7.1c4.3-2.5,9.9-1.8,13.5,1.6c0.7,0.6,1,2.1,0.8,3.1c-0.3,1.5-1.5,1.2-2.7,0.7c-7.8-3-14.7-0.4-20.4,4.5
			c-4.3,3.7-8,8.4-9.8,14.1c-0.1,0.4-0.3,0.7-0.4,1.1C302.3,341.1,302,341.1,301.8,341.1z M307.1,355.9c-0.2,0.1-0.5,0.2-0.7,0.2
			c-1-2.3-2.1-4.7-3-7c-1.4-3.5,0.1-6.4,1.3-9.6c1.7-4.2,4.6-7.4,7.6-10.5c3.6-3.8,8.5-5.6,13.6-6.2c2.3-0.3,4.7,0.8,7,1.4
			c1.4,0.4,1.9,1.3,1.6,2.8c-0.3,1.4-1.1,1.7-2.4,1.7c-4.5-0.1-9.3,0-12.3,4c-3.4,4.6-6.2,9.6-9,14.6
			C309.2,349.9,308.3,353,307.1,355.9z M317.9,365.4c-3.2-1.7-5.9-2.9-8.2-4.6c-0.8-0.6-1.1-2.4-0.9-3.5c0.7-5.3,3-10,6-14.3
			c2.2-3.1,4.6-6.3,7.5-8.8c3-2.7,7.1-2,11.2-1.8c-4.6,4.3-9.4,8.2-11.9,14.1C318.9,352.2,318,358.3,317.9,365.4z M387.7,346.9
			c-0.6,2.1-2.2,4.1-3.8,5.6c-2.4,2.2-5.2,3.8-7.8,5.7c-4.4,3.1-9.5,4.5-14.5,6.3c-4.7,1.7-9.2,3.7-14.2,4.3
			c-8.2,0.9-16.4,1.2-24.5-1.5c-1.7-0.6-2.7-1.4-2.7-3.2c0-10.8,3.5-20.1,12.3-26.9c0.2-0.1,0.4-0.2,0.7-0.3
			c0.9,2.5,1.8,4.8,2.7,7.1c0.3,0.7,0.7,1.3,1.2,1.8c3.4,4.4,6.6,5,11.2,2.1c0.4-0.3,0.8-0.8,1.1-1.3c2.9-5.8,3.3-11.8,1.6-18.1
			c-1.2-4.7-3.4-8.7-6.3-12.3c-0.5-0.7-1.8-1.4-2.5-1.1c-2.7,0.9-4.5-0.9-6.4-2c-6.1-3.7-12-2.7-17.6,0.7c-4.4,2.6-8.5,5.8-12.9,8.9
			c1.2-2.8,3.1-4.9,5.2-6.8c3-2.6,5.8-5.4,8.8-8c2.1-1.8,4.2-3.6,6.5-5.2c1.7-1.2,3.6-2.1,5.4-3.2c1.4-0.8,2.7-1.9,4.5-0.9
			c0.3,0.2,1.2,0,1.3-0.2c1.3-2.4,3.3-2.2,5.5-1.5c0.7,0.2,1.5,0.4,2.2,0.2c4.4-1.1,8.1,1,12,2.4c2.2,0.8,4.5,1,6.7,1.9
			c3.2,1.3,6.4,2.8,9.3,4.6c1.8,1.1,3.3,2.9,4.6,4.6c3.4,4.8,6.9,9.6,8.6,15.3C387.7,332.6,389.9,339.7,387.7,346.9z"/>
		<path d="M649.5,362.7c2.2,2.7,4.9,5.1,6.5,8.1c1.5,2.8,1.7,6.2,2.7,9.4c0.3,0.9,1.2,1.6,1.8,2.3c0.2-0.9,0.8-2,0.5-2.8
			c-0.8-3.3-1.6-6.6-3-9.6c-1.2-2.4-3.1-4.6-4.7-6.7c-1.4-1.9-4.1-2.7-6.4-4.1C646.8,361.3,648.6,361.6,649.5,362.7z"/>
	</g>
</g>
</svg>
