<?xml version="1.0" encoding="utf-8"?>
<!-- Generator: Adobe Illustrator 18.1.0, SVG Export Plug-In . SVG Version: 6.00 Build 0)  -->
<svg version="1.1" xmlns="http://www.w3.org/2000/svg" xmlns:xlink="http://www.w3.org/1999/xlink" x="0px" y="0px"
	 viewBox="0 0 1000 1000" style="enable-background:new 0 0 1000 1000;" xml:space="preserve">
<style type="text/css">
	.st0{fill:none;stroke:#ED1C24;stroke-miterlimit:10;}
</style>
<g id="Guides">
</g>
<g id="Metrics">
	<line class="st0" x1="0" y1="900" x2="1000" y2="900"/>
	<line class="st0" x1="0" y1="97.4" x2="1000" y2="97.4"/>
</g>
<g id="Art">
	<g>
		<path d="M284.4,448.8c0.7-1,1.2-2.5,2.1-3c5.2-3,8.5-7.7,11.5-12.5c2.1-3.4,3.5-7.4,4.8-11.2c2.3-6.6,4-13.4,6.4-19.9
			c2.9-7.8,3.7-15.9,5.2-23.9c0.8-4,2.3-7.7,3.5-11.6c1.8-6.3,6.1-10.8,10.5-15.3c4.8-4.8,10-9,16.1-12.1c7.8-4,11.4-10.7,12.2-19.2
			c0.6-6.8,1.8-13.5,4.3-19.8c2.4-6.2,6.4-11.2,12.8-13.8c2.3-0.9,5-0.7,7.3-1.5c3.6-1.3,7.4-2.6,10.5-4.8c3-2.1,5.1-5.6,8-8
			c4.9-4.2,9.9-8.5,15.3-12.2c5-3.4,10.7-5.1,16.9-5.8c6.4-0.7,12.6-2.6,19-3.6c5.7-0.9,11.5-1.2,17.2-2c3.1-0.4,6.1-1.4,9.5-2.2
			c-1.1-2.3-2.3-4.2-3-6.4c-1.2-3.5-2-7.1-3-10.7c-1.3-4.6-2.4-9.4-4-13.9c-1.5-4.3-3.9-8.3-5.5-12.5c-2.2-5.8-2.2-11.7-1.7-17.9
			c0.3-3.4,0.1-6.8,0.9-10.2c1-4.2,1.9-8.4,3.2-12.5c2.6-8.3,3-16.5,1.1-25c-1.4-6-2.3-12.2-3.4-18.2c-0.3-1.6-0.6-3.2-0.9-4.9
			c-1.1-5.4,2.1-8.6,6.1-10.8c5.4-2.9,12.7-2.2,16.2,2.6c1,1.4,2.7,2.5,4.2,3.5c5.9,3.9,10.2,9.4,14.9,14.6c2.3,2.6,4.7,5.2,7,7.7
			c2.3,2.5,5.1,2.2,8.1,1.6c7.5-1.5,15.1-3.2,22.7-4c4.5-0.5,9.2,0.5,13.8,0.6c2.5,0.1,5.1-0.4,7.6-0.4c3.4-0.1,4.8-2.7,6.6-5
			c1.4-1.8,3.1-3.2,4.6-4.9c4-4.4,7.8-9,12-13.2c4.8-4.7,10.3-8.5,16.7-10.8c5.4-2,10.1-1,13.2,3.8c3.2,5,5.6,10.2,6.9,16.1
			c1.5,7,1.7,14.1,2.5,21.2c1.2,10.3,3.1,20.5,4.8,30.7c1.5,8.9,4.1,17.7,3.6,26.8c-0.4,8.5-1.3,16.9-3.7,25
			c-1.6,5.2-2.7,10.7-6.2,15.1c-0.6,0.8-1.3,1.5-2,2.1c-4.1,3.1-8.4,6.1-12.5,9.4c-2,1.6-1.7,2.8-0.1,4.9c2.8,3.7,7,4.6,11,4.8
			c9,0.6,16.1,4.8,22.4,10.6c5.5,5.1,10.4,11,16,16c3.1,2.8,7,4.7,9,8.6c2.8,5.4,5.6,10.9,8.2,16.5c3.4,7.3,6.7,14.6,9.6,22.1
			c1.1,2.9,1.3,6.3,1.5,9.5c0.5,8.3,0.6,16.6,1.1,24.9c0.5,8.2,3,15.6,7.9,22.4c3.8,5.3,5.8,11.7,6.7,18.2c0.3,2.2,0.5,4.6,1.5,6.5
			c2.6,4.9,1.3,10.3,2.2,15.3c0.6,3.2-0.1,6.6,0.7,9.6c0.9,3.5,2.4,7.1,4.5,10.1c4.7,6.8,7.6,14.3,9.5,22.2
			c1.9,8.2,3.8,16.4,5.5,24.7c0.4,2.1,0.4,4.4,0.3,6.6c-0.1,5.4,2.9,9.9,4.6,14.7c2.1,5.8,4.5,11.7,5,17.8
			c0.9,9.2,1.1,18.6,0.2,27.7c-0.7,6.7,1,13,1.1,19.5c0.1,6.4-1.2,12.7-3.5,18.7c-0.8,2.1-1.1,4.3-1.7,6.5c-0.7,2.6-2.1,4.8-5,5.3
			c-3.2,0.6-6.4,0.6-8.5-2.4c-2.2-3.3-4.2-6.7-6.2-10.1c-1.5-2.6-3-5.3-4.2-8.1c-1.5-3.5-2.6-7.1-4-10.6c-1.5-3.5-3.2-6.8-4.8-10.2
			c-1.1-2.2-2.2-4.4-3.2-6.7c-2.4-5.7-6.2-10.4-10.4-14.7c-2.3-2.3-5.1-4.2-7.4-6.5c-1.8-1.8-3.2-4.1-4.7-6.2
			c-4.8-7.4-9.6-14.7-14.1-22.2c-3.1-5.3-6-10.7-8.3-16.3c-1.8-4.6-2.5-9.7-3.8-14.6c-2.1-8-5.9-15.1-12.9-20
			c-0.9-0.7-3.1-1-3.9-0.4c-6.2,4.9-11.7,10.4-13.6,18.3c-1.5,6.1-1.7,12.4-0.3,18.7c1.6,7.3,3.4,14.5,4.6,21.9
			c0.8,4.8,0.8,9.7,0.8,14.5c0,7.1,0.2,14.2,2,21.2c0.6,2.5,1.2,5,2.1,7.4c1,2.9,2.7,4,5.5,2.7c3.7-1.8,7.5-3.7,10.6-6.3
			c4.1-3.5,7.7-7.7,11.3-11.8c3.9-4.4,6.5-9.6,8.6-15.1c0.7-1.8,1.2-4.9,3.5-4.3c1.6,0.4,3.5,3.1,3.8,4.9c0.7,5.1,1.1,10.4,0.6,15.5
			c-0.6,5.4-2,10.8-4,15.8c-1.3,3.2-4.1,5.9-6.4,8.7c-5.3,6.5-10.7,13-16.1,19.5c-1,1.2-2.4,2.1-3.3,3.3c-2.3,3.2-4.9,6.2-6.3,9.8
			c-1,2.5-0.3,5.7-0.1,8.6c0.3,4.8,0.8,9.5,1,14.3c0.1,2.1-0.5,4.3-0.4,6.4c0.1,3,0.3,6,0.8,8.9c0.7,4.3,0.5,8.5,0.1,12.9
			c-0.8,8-0.2,15.9,2.5,23.6c1.5,4.2,3.3,8.1,5.8,11.7c4,5.7,4.4,12.3,4.6,19c0.1,5,0.5,10,0.9,15c0.1,0.7,0.6,1.5,1.1,2.2
			c5.9,7.3,12.2,14.5,17.8,22c2.9,3.9,5,8.4,6.8,12.9c1.9,4.9,1.4,10.1,0.1,15.2c-0.6,2.4-1.6,4.7-2.3,7c-0.8,2.7-3.3,3.7-5.3,5.3
			c-3.4,2.7-7.4,3.9-11.1,5.8c-7,3.6-13.3,2.3-19.6-1.3c-4.8-2.8-9.6-5.5-14.1-8.8c-3-2.2-5.6-5.1-8.2-7.8
			c-3.3-3.3-6.6-6.8-9.9-10.2c-2.6-2.7-5-5.6-7.7-8.1c-4.7-4.4-7.1-10.4-10.1-15.8c-2.8-5.1-2.8-11-2.2-16.8
			c0.8-7.4,1.4-14.8-0.5-22c-0.7-2.8-3.2-5.3-5.2-7.7c-6.6-7.9-14.9-14-22.3-21.1c-5.1-4.9-9.6-10.6-13.4-16.5
			c-2.7-4.1-3.7-9.3-5.4-14.1c-3.6-10.2-4.9-20.9-6.5-31.5c-0.5-3-1.5-5.9-2-8.9c-0.5-2.8-0.9-5.7-0.9-8.6
			c-0.1-6.6,0.3-13.2,0.2-19.9c-0.1-4.6-0.6-9.1-1-13.6c-0.3-2.9-0.9-5.7-1.1-8.6c-0.3-4.8-2-9.1-4.4-13.1c-0.7-1.1-2.2-2.4-3.3-2.3
			c-2,0-3,1.9-2.9,3.8c0.1,3.9,0.2,7.8,0.9,11.6c1.5,8,3.3,15.9,5,23.8c0.3,1.4,0.4,2.8,0.9,4.1c2.4,6.7,2.1,13.4,0.4,20.1
			c-1.3,5.1-3.2,10.1-4.4,15.2c-1.3,5.4-2.4,10.9-3.4,16.5c-0.7,4.3-1.1,8.7-1.5,13.1c-0.1,1.1-0.4,2.2-0.2,3.2
			c2.6,10.7,1.6,21.7,2.9,32.4c0.8,6.2,0.2,12.2-0.2,18.3c-0.3,5,1.1,9.4,3.1,13.9c2,4.5,3.1,9.4,4.3,14.2c2.2,9.5,2.1,19.3,1.6,29
			c-0.3,7.6-1.9,15.1-3,22.7c-0.3,2.1-0.8,4.1,1.6,5.4c0.4,0.2,0.4,1.1,0.6,1.6c-0.5,0.2-1.1,0.6-1.5,0.4c-1.5-0.7-2,0.2-2.3,1.3
			c-0.6,2.6-1.3,5.2-1.4,7.8c-0.2,5.9,0.1,11.8-0.2,17.7c-0.5,10.2,0.5,20.6-2.5,30.7c-1.5,5-3.5,10-4.5,15.2
			c-1.4,6.9-5.9,11.1-11.1,14.9c-0.2,0.1-0.5,0.3-0.6,0.4c-3.1,4.8-8.4,5.7-13.1,7.8c-1.5,0.7-3.1,1.2-4.6,1.9
			c-3.3,1.5-6.6,3.1-10.4,3.3c-3.1,0.1-6.2,1-9.3,1.7c-6.4,1.5-12.8,0.8-19.3,0.4c-0.3,0-0.7,0-1-0.2c-2.7-2.3-5.5-4.6-8.2-7
			c-0.8-0.8-1-2.1-1.8-3c-4.7-5-5.3-11.5-6.2-17.8c-1.4-9.5-0.6-18.9,1.5-28.3c1.6-6.8,3.8-13.3,7.3-19.6c3.6-6.3,6.2-13.2,6.2-20.7
			c0-3.3,0.4-6.6,0.3-9.9c-0.1-1.6-0.9-3.2-1.4-4.8c-0.1-0.5-0.5-1-0.3-1.4c1.9-3.8,0.4-7.5-0.2-11.2c-0.6-3.4-1.5-6.8-2.4-10.1
			c-0.2-0.8-0.6-1.6-1.2-2.1c-1.2-1-1.3-1.8-0.5-3.2c0.4-0.6,0.2-1.7-0.1-2.5c-1.9-5.1-4-10.1-5.8-15.1c-1.1-3.1-1.7-6.4-2.9-9.4
			c-1.1-2.9-2.7-5.6-4.2-8.3c-3.5-5.9-5.4-12.4-7-18.9c-3.6-14.3-5.6-28.8-3.3-43.6c1.3-8.3,2.8-16.5,3.2-24.9
			c0.6-11.8,1.7-23.7-0.8-35.5c-1.1-5.1-2-10.7-1.1-15.7c1.3-7.3-0.7-13.8-2.3-20.4c-0.6-2.6-1.9-5.1-2.9-7.6
			c-1.5-3.7-2.5-7.8-4.6-11.1c-2.4-3.8-5.1-7.6-10.4-8.1c-6.7-0.6-13.4-1.2-19.9-2.6c-5.6-1.2-10.9-3.7-16.4-5.5
			c-2.5-0.8-5-1.3-7.5-2c-1-0.3-2-0.8-3-1.2c-0.9-0.3-1.9-0.7-2.8-0.7c-2.3,0.1-2.6,0.8-1.8,3c2.4,6.5,4.9,12.9,3.5,20
			c-0.3,1.5-0.8,3.1-1.7,4.3c-1.9,2.2-4,4.2-6.3,6c-2.9,2.2-8,1.7-11.2-0.5c-6.5-4.6-12.2-9.9-17.2-16c-4.3-5.3-8.5-10.6-12.8-15.9
			c-0.5-0.6-1.1-1-1.5-1.6c-1-1.5-2-3-2.9-4.5c-0.5-0.8-0.7-1.7-1.2-2.4c-4.3-6.5-8.2-13.3-11.2-20.5c-2.9-6.7-3.1-13.8-4.3-20.8
			c-0.7-4.5-0.3-8.7,1.7-12.5c1.7-3.1,4.5-5.6,6.8-8.3c0.2-0.2,0.9,0,1.4,0C284.7,449,284.5,448.9,284.4,448.8z M718.8,538.2
			L718.8,538.2c2.2-2.4,4.5-4.6,6.4-7.2c1.6-2.3,2.7-5,4-7.5c0.2-0.3-0.3-1-0.5-1.5c-1-2.3-2.3-4.5-2.9-6.9
			c-1.9-7.6-3.3-15.2-5.1-22.8c-2.4-10.1-2.3-20.8-7-30.4c-1.8-3.8-3.4-7.7-5.3-11.4c-1.9-3.7-4.4-7.1-6-10.8
			c-2.4-5.4-2.4-11.3-2.9-17.1c-0.7-8.8-2.3-17.6-4.8-26.1c-0.7-2.3-1.3-4.3-3-6c-5.2-5.1-6.7-12-8.2-18.6
			c-1.2-5.5-0.5-11.4-0.5-17.1c0-8-0.7-16-3.7-23.5c-3.8-9.7-8.3-19.1-11.7-29c-3-8.6-9.1-14.4-15.6-20.1c-3.5-3.1-7.2-6.2-10.2-9.8
			c-5.4-6.4-11.6-11.3-20.3-12.1c-3.6-0.3-6.9-0.5-9.7,2.8c-2.9,3.4-6.4,6.2-10.9,7.7c-1.4,0.5-2.8,1.1-4.1,1.7
			c-8,3.2-15.3,8.4-24.3,9.2c-6.6,0.5-13.2,2-19.7,1.7c-10.5-0.5-21-1.6-31.4-3.3c-7.1-1.2-14.4-1.9-20.9-5.9
			c-6.9-4.3-13.7-8.5-18.1-15.6c-1.4-2.2-2.9-4.2-4.4-6.3c-0.4-0.5-1.2-0.9-1.8-0.9c-4.9,0.4-9.9,0.8-14.8,1.6
			c-5.7,0.9-11.4,2-17,3.5c-5.1,1.4-5.2,0.9-4.2,5.9c0.1,0.3,0,0.7,0,1c0.2,5,0.4,10.1,0.8,15.1c0.2,2.7-1.2,5.1-3.8,5.7
			c-0.9,0.2-1.7,0.5-2.4,1c-2.7,2-5.4,4.1-8.1,6.1c-1.8,1.3-3.4,0.7-3.8-1.5c-0.3-1.6-0.8-3.2-1.2-4.8c-0.7-3-1.4-6.1-1.8-9.2
			c-0.2-1.8-0.3-3.7,0.2-5.4c0.9-2.7,0.3-6.8-1.8-8.3c-2.1,1.6-4.3,3.1-6.3,4.8c-0.7,0.6-1.4,1.8-1.4,2.7c0.1,3.4,0.6,6.9,0.8,10.3
			c0.1,1.4,1.3,3.3-1.8,4.4c-0.6-4.9-1.1-9.6-1.6-14.3c-2.7,0.6-3.5,2.3-3.2,4.7c0.2,1.3,0.3,2.6-1.7,2.9c-0.3-1.1-0.6-1.9-0.9-2.9
			c-1.6,1.9-2.8,3.9-4.5,5.2c-4.5,3.8-9.2,7.8-15.3,8.3c-7.1,0.5-15.8,7.3-17.3,14.4c-0.9,4-2,8-2.8,12.1c-1.1,5.1-1.8,10.3-3,15.3
			c-0.5,1.9-1.5,3.9-2.8,5.5c-3,3.6-7,6-11.5,7.6c-3.6,1.4-6.3,3.8-8.8,6.6c-1.7,2-3.8,3.6-5.8,5.4c-0.9,0.8-2,1.3-2.7,2.2
			c-4.7,5.5-7.1,12.1-8.4,19.1c-1.1,6.2-1.9,12.5-3.6,18.5c-2.9,10.8-6.3,21.4-9.8,32.1c-1.9,5.9-5.3,11.2-9.7,15.7
			c-4.2,4.4-8.6,8.6-12.9,12.9c-2.7,2.6-4.1,5.8-4,9.6c0.1,2.9,0.2,5.8,0.5,8.7c0.6,7.6,3.6,14.3,7.1,21.6c1-1.5,1.9-2.6,2.5-3.8
			c2.7-6,7.9-8.5,13.7-9.9c2.4-0.6,3.2-1.5,3.3-3.9c0.6-13.5,2.8-26.7,8-39.2c3.4-8.3,7.2-16.5,11.3-24.6c1.9-3.7,4.7-6.9,7.2-10.3
			c2.7-3.6,5.3-7.3,8.3-10.8c3.8-4.4,7.6-9,12-12.8c6.3-5.4,13.4-9.7,21.3-12.3c5.1-1.7,10.1-3.6,15.3-5.2c1.5-0.5,3.3,0.1,4.7-0.5
			c4-1.7,8.2-1.4,12.3-1.1c0.5-1.7,0.5-1.7,1.9-0.8c0.3,0.2,1.1-0.2,1.6-0.5c0.3-0.2,0.5-0.9,0.8-1c2.2-0.4,4.5-0.9,6.7-0.8
			c4.8,0.2,9.7,0.8,14.5,1.3c3.5,0.3,6.7,1.2,9.5,3.4c0.9,0.7,2.1,1.4,3.1,1.4c2-0.1,3.5,0.5,5.3,1.4c5.3,2.6,8.5,7,11.6,11.6
			c1,1.4,2,2.9,3.2,4.1c7.1,7.3,14,14.7,18.3,24.1c0.6,1.4,1.9,2.6,2.4,4c2.5,7.2,4.8,14.4,7.1,21.7c2,6.7,2.5,13.6,2.4,20.6
			c-0.1,7.2,0,14.4,0.4,21.6c0.5,10.2,1.7,20.3,2,30.5c0.2,6.1-1.6,11.9-6.5,16.1c-1.7,1.5-3.4,3.1-5.1,4.7
			c-0.9,0.8-1.8,1.7-2.9,2.2c-4.7,2.1-9.8,1.9-14.6,1.4c-6.7-0.6-13.3-2.2-19.9-3.8c-8.6-2.1-17-1.8-25.6,0.2
			c-5.6,1.3-11.4,1.9-17.2,2.8c-2.3,0.4-4.6,0.8-7,1.1c0.3,0.8,0.3,1,0.4,1c0.5,0.4,1.1,0.8,1.6,1.1c7,3.6,10.9,9.7,13.4,16.9
			c1,2.9,1.5,5.9,1.9,8.9c1,6.4,2.3,12.8,2.7,19.2c0.8,14.6,2.5,29.2,1.2,43.9c-0.7,7-0.7,14-1.1,21.1c-0.2,3.8-0.6,7.6-0.8,11.3
			c-0.1,1,0.3,2,0.2,3c-0.4,7.2-0.9,14.4-1.1,21.6c-0.1,3.8-0.4,7.8,0.6,11.4c2.3,7.9,5.1,15.7,8.2,23.3c2.8,6.8,6.5,13.2,9.3,20
			c2.4,5.6,5.7,11.1,5,17.7c-0.1,0.5,0.3,1.3,0.8,1.7c2.1,1.8,4.3,3.6,6.6,5.1c6,4,12.6,5.2,19.6,3.9c2.2-0.4,4.3-1,6.5-1.4
			c3.2-0.6,6.6-0.8,9.7-1.7c6-1.6,11.1-5,15.1-9.6c5.3-6.2,9.5-13.2,11.9-21.1c1.8-5.8,3.9-11.5,1.5-17.7c-0.8-2.1-1.4-4.7-0.8-6.7
			c1.6-4.7,1.7-9.2,0.9-13.9c-0.5,0.6-1.1,1.2-2.2,2.4c0.1-1.3,0-1.9,0.1-2.4c0.5-1.6,1.4-3.1,1.5-4.6c0.2-3.6,0.3-7.1,0-10.7
			c-0.5-6.3-1.3-12.7-2-19c-0.1-0.6,0-1.2,0.1-1.7c0.6-5.7,1-11.5,1.8-17.2c1.1-7,2.5-13.9,4-20.9c0.8-3.8,2.5-7.5,3.1-11.4
			c0.9-5.9,1-11.8-0.3-17.8c-2.3-10.3-4.2-20.6-6.3-31c-0.9-4.5-1.5-9.1,0.4-13.5c1.5-3.6,3.7-6.8,8-6.8c3.9,0,5,3.5,6.3,6.5
			c3.5,8.2,5.1,16.7,5.2,25.5c0.1,8.2,0.7,16.4,0.9,24.6c0.1,1.9,0.3,4-0.4,5.6c-1.3,2.9-1.6,2.8,0,5.8c0.2-1.2,0.3-2.3,0.4-3.3
			c0.5,0.8,0.5,1.6,0.5,2.5c0.2,4.6,0.1,9.2,0.7,13.8c0.6,4.7,1.8,9.4,2.7,14.1c1.4,7.3,3.1,14.6,6.6,21.3c0.9,1.7,1.8,3.3,2.8,5
			c1.7,2.9,3.4,5.8,5.3,8.6c1.4,2,3.2,3.6,4.6,5.5c4.3,5.9,9.3,11.2,15,15.7c3.5,2.8,7,5.6,10.4,8.4c2.8,2.3,4.7,5.6,8.9,5.8
			c6.3,0.3,12.6,0.9,18.9,1c9.3,0.1,17.8-3.3,26.3-6.7c1.7-0.7,1.9-1.6,1.2-3.3c-1.5-3.6-2.9-7.2-3.9-11c-1-3.9-1.9-7.9-2.1-12
			c-0.3-6.8-0.1-13.6-0.1-20.4c0-4.1,0-8.3-0.1-12.4c0-4,0.1-8.1-0.3-12.1c-0.5-5.6-1.5-11.2-2-16.9c-0.3-3.3-0.1-6.7-0.4-10.1
			c-0.4-3.8-1.2-7.5-1.6-11.3c-0.7-7.4-2.7-14.4-4.7-21.5c-1.1-3.7-2-7.5-2.6-11.4c-0.7-4.7-1-9.5-1.5-14.3
			c-0.2-1.7-0.2-3.5-0.2-5.2c0-0.3,0.4-0.7,0.5-1c0.3-0.9,0.7-1.8,0.8-2.7c0.1-0.7-0.1-1.5-0.2-2.2c-0.8-3.6-0.9-7.4-2.6-10.6
			c-1.2-2.3-2.1-4.7-2.7-7c-1-3.9-1.4-8.1-1.6-12.2c-0.3-7.2,0.1-14.2,3-21c2.8-6.4,7.3-11.4,12.2-16.1c0.7-0.7,1.6-1.8,1.5-2.6
			c-0.5-4.6-1.4-9.2-2.1-13.8c-0.3-2.2-0.3-4.5-0.5-6.8c0.4,0,0.8-0.1,1.2-0.1c0.3,2.1,0.6,4.1,1,6.2c1.3,6.2,1.8,13,9.3,15.5
			c0.1,0,0.1,0.1,0.2,0.1c3.1,3.8,6.9,7.1,9.1,11.4c2.7,5.2,4,11.2,5.9,16.8c0.5,1.5,1.3,3,1.5,4.5c1.3,9.1,6.7,16.3,11.2,23.9
			c3.2,5.5,6.9,10.7,9.9,16.3c2.1,3.7,5,6.6,8.1,9.3c4.3,3.8,8.9,7.2,11.9,12.2c0.6,1.1,1.6,2,2.3,2.9c1.4-0.9,2.6-1.7,3.8-2.5
			c0.1,0.2,0.3,0.4,0.4,0.6c-1.2,1-2.4,2-3.7,3.1c1.6,3.5,3.1,7.1,4.7,10.6c0.6,1.4,1.2,2.7,1.8,4.1c1.7,3.9,3.2,7.8,5.1,11.6
			c1.3,2.7,3.1,5.1,4.3,7.7c1.7,3.5,3,7.2,4.6,10.7c2.2,5,5.1,6.6,8.9,5.5c0.7-2.7,0.9-5.5,2.1-7.7c5.1-9.8,2.4-20,1.6-30.1
			c0-0.3-0.3-0.6-0.3-0.9c-0.3-3.4-1.2-6.9-0.9-10.2c0.5-6,1.3-11.9,0.4-17.9c-0.4-2.7,0.3-5.9-2.7-8.7c-0.7,1-1.1,2.1-1.9,2.7
			C722.9,534.6,722.2,538,718.8,538.2z M389,388.8c-1.2,0.8-2.2,1.4-3.1,2.1c-2.9,2.3-6.2,4.4-8.7,7.1c-2.7,2.9-4.5,6.6-7.1,9.6
			c-4.4,5.1-7.6,10.7-9.8,17c-0.9,2.7-2,5.5-2.6,8.3c-0.9,4.2-1.6,8.5-2.3,12.7c-1.3,7.5-2.7,15-3.7,22.6
			c-0.8,6.4-1.4,12.8-1.8,19.2c-0.4,6.3,0.9,12.2,4.7,17.4c0.8,1.1,2,2.3,3.2,2.6c5.7,1.1,10.7,4.5,16.9,4.2
			c5.4-0.2,10.9,0.8,16.4,1c4.3,0.2,8.6,0.2,12.9,0.1c8.3-0.2,16.6-0.2,24.8-0.8c4.8-0.3,9.5-1.6,14.2-2.3c4.5-0.7,9-1.3,13.5-1.6
			c7.4-0.5,14.9-0.4,22.3-1.2c2.8-0.3,5.4-2.2,8-3.7c0.7-0.4,1.6-2.1,1.4-2.5c-1.3-2,0-3.3,0.7-4.8c0.3-0.6,0.7-1.2,0.7-1.8
			c0.2-4.1,0.3-8.3,0.3-12.4c0-6.3-0.7-12.7-0.1-18.9c2-18.8-1.5-36.3-11.4-52.4c-6.3-10.1-13.1-19.9-20-29.6
			c-1.6-2.3-4.1-4-6.3-5.9c-1.3-1.1-2.6-2.4-4.1-3.2c-1.6-0.9-3.7-2.2-5.1-1.8c-3,0.9-5.7,0.7-8.6,0.4c-2.3-0.3-4.7,0.3-6.9,0
			c-1.9-0.3-3.4,2.2-5.7,0.3c-0.7-0.6-2.9,0.5-4.3,0.8c0,0.2,0.1,0.3,0.1,0.5c0.8,0,1.6,0,2.4,0c0,0.1,0.1,0.2,0.1,0.4
			c-7.1,3.5-14.2,6.9-21.4,10.4c0.9-1,2-1.4,3-2c1-0.6,1.9-1.5,2.8-2.2c-8.7,3.3-16.6,8-17.7,10.1C387.5,388.5,388,388.6,389,388.8z
			 M559,188.4c0,0.3,0,0.4,0.1,0.6c0.1,0.4,0.3,0.8,0.4,1.2c3.6,8.6,4.9,17.6,3.2,26.8c-0.5,2.5,0.6,5.4-2.5,7.3
			c-3.4,2.1-6.4,4.8-9.5,7.4c-1.7,1.3-2,2.9-1.2,5.1c4.3,11.1,13.4,15.4,24.3,17c1,0.1,2.2,0,3.1-0.5c3.5-1.7,6.9-3.5,10.4-5.2
			c5-2.5,10-5.1,15.1-7.5c2.9-1.4,6.1-2.1,9-3.5c5.2-2.7,9.1-6.4,11.7-12c2.1-4.6,3.3-9.1,3.8-14c0.6-5.8,1.9-11.6,1.5-17.3
			c-0.5-8.2-1.9-16.5-3.4-24.6c-1.2-6.9-3.3-13.6-4.4-20.4c-2-12.2-3.2-24.5-5.2-36.7c-0.7-4.1-1.4-8.4-4.4-11.7
			c-1.9-2.1-4.4-3-7-2.1c-5.7,2.2-11.2,4.9-15.7,9.2c-2.5,2.4-4.9,4.9-7.2,7.5c-1.2,1.3-2.2,2.9-3.4,4.2c-3.4,3.6-6.9,7.2-10.2,10.8
			c-0.4,0.5-0.9,1.4-0.7,1.9c0.6,2.5,1.3,5,2.3,7.3c2,4.9,2.3,9.9,0,14.5c-2.8,5.6-6.3,10.9-9.9,16.1c-3.7,5.4-2.5,10.7-0.9,16.1
			c3.6-2.8,4.5-7.2,7.5-10.5c4.6-5,9.8-7.5,16.2-7.8c6.1-0.4,12,2.3,15.6,10.7c1.5,3.6-0.8,11.2-4.2,13.1c-2.2,1.2-4.6,2.3-6.9,3.4
			c-6.2,2.7-12.2,1.5-17.6-1.6C565.7,191.2,563.2,188.3,559,188.4z M463.9,186.3c-0.1,7,2,13.5,5,19.7c2.8,5.8,5.5,11.6,6.2,18.2
			c0.7,6.3,1.7,12.6,6.2,17.8c2.7,3.1,5.3,5.7,9.8,5.9c2.8,0.1,5.5,0.9,8.2,1.6c1.9,0.5,3.8,1.3,5.6,2c3.7,1.3,7.9,1,11,4
			c0.2,0.1,0.5,0.2,0.7,0.2c5.6-0.5,11.4,1.1,16.8-2.4c3.4-2.2,6.1-4.4,8-8c2.6-4.8,3-9.8,2.4-15.2c-0.6-5.5-0.9-6.3-6.4-7.3
			c-2.5-0.5-3.4-1.7-3.1-4.2c0.1-0.7,0.1-1.5,0.2-2.2c0.4-5.5,0.8-11.1,1.3-16.6c0.3-3.2,1-6.4,1.2-9.6c0.3-6.3-2.6-11.8-5.2-17.3
			c-0.4-0.8-1-1.5-1.7-2.1c-3.6-3.2-6-7.2-7.1-11.7c-1.5-6.1-2.6-12.3-3.7-18.5c-0.4-2.2-0.9-3.5-3.5-3.4c-2.1,0.1-4.8,0.4-6.3-0.7
			c-4.4-3.1-8.7-6.4-12.2-10.5c-5-5.7-9.3-12.1-15.7-16.5c-2.3-1.6-5.1-2.8-7.8-3.5c-4.5-1.2-9.1,3.1-9.3,7.1c-0.1,3.2,0.9,6,1.5,9
			c0.9,4.3,0.9,8.9,2.5,12.9c1.8,4.3-0.3,8.9,2,12.8c0.1,0.2-0.2,0.6-0.2,0.9c-0.2,1.1-0.6,2.3-0.6,3.4c0.1,6.4-2.4,12.2-4.5,18
			c-1.5,4.4-3,8.7-1.9,13.4C464,184.5,463.9,185.4,463.9,186.3z M435.3,365.5c0-0.2,0.1-0.5,0.1-0.7c-0.3-0.2-0.6-0.5-1-0.6
			c-0.6-0.2-1.3-0.4-1.9-0.6c-7.4-2.2-15-1.5-22.4-0.7c-8,0.9-16,2.9-23.7,5.3c-7.2,2.2-14.3,5.2-21.2,8.5c-3.6,1.7-6.6,4.6-9.8,7
			c-2,1.6-3.8,3.6-6,4.8c-3,1.6-5,3.9-6.8,6.7c-1.5,2.3-2.8,4.9-4.8,6.5c-4,3.2-6.6,7.4-8.5,11.7c-2.3,5.1-4.8,10-7.9,14.6
			c-0.2,0.3-0.2,0.6-0.3,0.9c-0.3,1.3-0.5,2.5-1,3.8c-1.3,3.7-2.8,7.4-4,11.1c-0.5,1.6-0.5,3.5-1.1,5.1c-2.2,6.7-4.3,13.4-4.8,20.5
			c-0.6,9.2,0.4,17.7,8,24.1c4.6,3.9,9,8.2,13.6,12.1c2.7,2.3,5.5,4.4,8.5,6.3c3.6,2.3,7.4,4.2,11.8,6.6c-1.5-4-2.8-7.2-4-10.5
			c0.6-0.1,1.4-0.3,2.5-0.5c-0.6-1.6-1.2-2.9-1.5-4.3c-0.5-2.3-2.1-4.1-2.1-6.9c-0.3-7.3,0.5-14.5,1.3-21.8c0.5-5,1-10.1,1.7-15.1
			c0.7-5.2,1.6-10.3,2.5-15.4c1.3-6.9,2.6-13.8,4-20.7c0.3-1.7,1.5-3.3,1.5-5c-0.1-4.7,2.9-8.2,4.5-12.2c0.1-0.4,0.8-0.5,1.1-0.8
			c1.1-1.1,2.6-1.9,3.2-3.2c3.5-7.2,9.3-12.2,15.6-16.7c4-2.9,8.4-5.3,12.7-7.7c5.3-3,10.7-6,16.2-8.7c4.8-2.4,10.2-2.8,15.5-2.9
			C429.6,366.2,432.4,365.7,435.3,365.5z M565.5,146.6c-0.3-2.5-0.3-5.2-1-7.6c-0.4-1.5-0.8-3.6-3.3-3.7c-2-0.1-4-0.1-6-0.4
			c-3.6-0.5-7.2-1.7-10.7-1.5c-5.9,0.3-11.8,1.5-17.7,2.3c-1.6,0.2-2.3,1.2-2.6,2.8c-0.9,4.3,0.1,8.4,1,12.5
			c1.6,7,3.9,13.6,8.9,19.1c4.7,5.2,7.2,11.6,6.9,18.6c-0.2,5.9-2.1,11.8-2.2,17.6c-0.1,9.2-1.3,10.3,8.9,10.2
			c2.2,0,4.5,0.1,6.6,0.7c4.8,1.2,5.1,1,4.5-4c0-0.2-0.1-0.5,0-0.7c1.3-4.1-0.1-8-1.2-11.9c-1.5-5.2-3.1-10.3-4.6-15.5
			c-2-6.7-1.3-12.9,3.4-18.4c0.4-0.4,0.8-0.9,1.1-1.4C561.2,159.5,566.9,154.6,565.5,146.6z M436.4,821.1c-0.9,2.3-1.8,4.3-2.4,6.4
			c-1.1,4-2.8,8-0.8,12.1c2.8,5.9,5.5,11.8,8.6,17.6c0.8,1.5,2.8,2.6,4.4,3.4c2.1,1,4.4,1.6,6.7,2c2.3,0.5,4.8,1.1,7,0.7
			c3.1-0.6,6.1-1.9,9.1-3c4.1-1.6,7.5-4.3,10.3-7.6c4.9-6,9.7-12.2,14.4-18.4c2.4-3.2,4.4-6.6,6.4-10c0.4-0.6,0.4-2,0-2.3
			c-4-3.1-7.7-6.7-12.9-8.2c-1.9-0.5-2.6-0.1-3,1.5c-0.9,3.7-2.9,6.7-5.2,9.7c-4,5.2-9,8.9-15.1,10.8c-3.2,1-7.1,1.2-10.2,0.2
			c-3.7-1.2-7.1-3.9-10.1-6.5C440.9,827.2,439,824.2,436.4,821.1z M318.7,500.6c0.2-0.1,0.4-0.2,0.6-0.3c-0.5-0.4-1-0.8-1.5-1.3
			c-1.8-1.9-3.6-3.8-5.3-5.8c-1.7-2-3.5-3.9-4.7-6.2c-1.5-3-2.1-3.7-5.4-3c-1.6,0.3-3.1,1.1-4.5,1.9c-4.2,2.1-6.6,5.8-8.4,10
			c-0.8,1.8-1.1,3.3,0,4.9c2.3,3.6,4.6,7.2,7,10.8c2.2,3.3,4.5,6.5,6.7,9.8c1,1.5,2.1,3,2.8,4.6c1.9,4,5.1,7,8.5,9.6
			c1.6,1.2,3.5,1.8,3.4,3.9c1,0.1,2-0.1,2.4,0.3c1.9,1.7,3.7,3.6,5.5,5.6c0.4,0.4,0.3,1.3,0.4,1.9c0.6,0.1,1.2,0.2,1.9,0.3
			c1.2,0.2,2.4,0.6,3.6,0.6c1,0,2-0.4,2.9-0.4c2.4-0.2,3.9-1.7,4.2-3.9c0.5-5.6-0.3-11-3.1-16c-0.5-0.9-0.7-2-1-3
			c-0.3-0.8-0.4-1.7-0.7-2.4c-0.4-1-1.1-1.9-1.4-3c-0.7-2.2-1.2-4.4-1.9-6.6c-0.3-0.9-1.2-1.7-1.8-2.5c-0.9-1.1-1.7-2.1-2.8-3.4
			c-0.8-0.4-1.9-1-2.9-1.7c-1.2-0.8-2.3-1.7-3.4-2.7C319.2,502.2,319,501.3,318.7,500.6z M516.3,726c-0.2,0-0.4,0-0.5,0
			c-0.5,1.1-1.1,2.2-1.5,3.4c-2.4,7.7-7.3,13.7-12.5,19.5c-0.8,0.9-2.1,1.4-2.8,2.3c-2.9,3.8-6.8,6.2-10.9,8.5
			c-2.8,1.6-5.6,3.1-8.4,4.7c-0.3,0.2-0.5,0.4-0.7,0.7c-1.4,2.3,0.8,7.8,3.3,8.5c8.3,2.2,16.7,4.4,25,6.6c1.8,0.5,3.7,1,5.5,1.6
			c2.5,0.8,4.2,0.1,4.5-1.9c1-6.6,2.1-13.2,2.8-19.9c0.4-4.5,0.6-9.1,0-13.6C519.2,739.5,517.6,732.8,516.3,726z M457.1,833.1
			c6.6-2.2,13.1-3,17.4-9c2.5-3.5,4.5-6.8,5-11.1c0.4-3.3,0.2-4-3.1-4.6c-5-1-10.1-1.8-15.2-2.3c-5.3-0.5-10.7-0.4-16.1-0.4
			c-0.6,0-1.4,0.7-1.7,1.3c-1,2-1.8,4.1-2.6,6.2c-0.4,1-1.2,2.3-0.8,3c1.4,2.8,2.9,5.6,4.8,7.9c2.1,2.4,4.7,4.5,7.2,6.4
			C453.6,831.6,455.4,832.2,457.1,833.1z M377.1,522.1c0,0.3,0,0.5,0,0.8c1.2,0.3,2.3,0.9,3.5,1c5.9,0.4,11.8,0.6,17.8,0.9
			c8.6,0.4,17-0.9,25.3-3.1c8.2-2.1,16.4-3.3,24.8-1.7c7,1.3,13.9,3,20.9,4c5.2,0.8,10.6,0.7,14.4-4c1.7-2.1,3.1-4.5,4.4-6.8
			c0.5-1,0.4-2.4-1.3-2.2c-2.7,0.4-5.3,1.1-8,1.6c-2.2,0.4-4.3,1-6.5,1.2c-5.4,0.6-10.8,1.1-16.3,1.5c-6.9,0.5-13.9,0.7-20.8,1.1
			c-4.7,0.2-9.4,0.6-14.1,0.8c-7.9,0.3-15.8,0.6-23.7,0.6c-5.7,0-11.4-0.5-17.1-0.8c-3.3-0.2-6.7,0-9.8-0.6
			c-5.4-1.2-10.7-2.9-16.1-4.4c-0.9-0.3-2-0.2-2.9-0.2c0.2,1,0.6,1.4,1,1.7c2.9,1.5,5.9,2.7,8.6,4.4c3,1.9,6.1,3,9.6,2.7
			c2.6-0.2,5.3-0.5,7.9-0.7c0.9,0,1.8,0.4,2.7,0.6c-0.1,0.2-0.1,0.4-0.2,0.6C379.9,521.6,378.5,521.8,377.1,522.1z M632.1,594.9
			c1.5-0.9,3-1.8,4.5-2.7c1.2-0.8,2.5-1.6,3.6-2.7c1.7-1.7,3.1-3.7,4.6-5.5c4.1-4.9,8.3-9.7,12.3-14.5c1.1-1.3,2.4-2.6,3.1-4.1
			c2.6-5.5,4.7-11.3,5.4-17.5c0.4-3.1,0.5-6.2-1.4-8.9c-2.1,3-4.2,5.8-6.1,8.6c-7.3,10.4-16.8,17.8-28.7,22.2
			c-0.5,0.2-1.2,1-1.2,1.5c0.9,6.7,1.8,13.4,2.8,20.1C631.2,592.7,631.8,594,632.1,594.9z M608.6,259.6c-2.6-2.8-2.6-2.8-5.5-0.8
			c-1.6,1.1-3.2,2.1-4.8,3c-3.3,1.9-6.7,3.7-10,5.5c-0.7,0.4-1.4,0.8-2.2,1c-5.6,1-11.3,1.7-16.9,3.1c-8.3,2.1-16.6,2-24.9,1.4
			c-5.3-0.4-10.6-1.8-15.9-2.6c-2.4-0.4-4.9-0.6-7.3-1c-3.1-0.6-6.1-1.2-9.2-2c-6.1-1.6-12.5-2.5-18-6.1c-1.6-1-3.3-1.9-4.9-2.8
			c-0.2,0.3-0.4,0.5-0.7,0.8c1,1.3,1.7,2.8,2.9,3.8c5.3,4.9,11.8,7.8,18.4,10.1c7.7,2.7,15.5,5.4,23.8,5.7c4.8,0.2,9.6,0.7,14.4,0.7
			c6.7,0.1,13.4,0.1,20.1-0.2c3.1-0.2,6.3-0.8,9.1-1.9c6.7-2.8,13.2-5.9,19.8-9C601.3,266.1,605.7,264,608.6,259.6z M622.8,757.2
			c-0.1,0.4-0.2,0.8-0.4,1.2c3.6,3.3,7.1,6.6,10.8,9.8c3.8,3.2,8.1,5.4,13.1,6.2c1.2,0.2,2.2,1,3.3,1.4c0.7,0.3,1.5,0.6,2.3,0.7
			c5.4,0.5,9.2-2.6,13-5.8c4.9-4.1,5.3-5.9,2.3-11.5c-0.8-1.5-1.8-1.9-2.8-0.5c-2.8,3.7-6.9,5.1-10.9,6.6c-1.2,0.5-2.7,0.9-3.8,0.6
			c-2.5-0.6-4.9-1.4-7.2-2.5c-1.5-0.8-2.7-2.3-4-3.6c-1.7-1.8-3.2-3.8-4.9-5.5c-0.3-0.4-1.3-0.4-1.8-0.3
			C628.8,755,625.8,756.1,622.8,757.2z M591.9,703.3c-3.6,0-4,0.5-3.4,2.7c0.6,2,1.2,4.2,0.9,6.1c-0.4,1.8-0.5,3.3,0.7,4.7
			c1.7,1.9,3.4,3.9,5.2,5.7c0.2,0.2,1,0.1,1.4,0c1.4-0.5,2.9-0.9,4.1-1.7c4-2.9,8.5-4.7,13.4-5.6c1.7-0.3,2.9-1.2,2.2-3.3
			c-0.7-1.9-1.3-3.9-1.8-5.9c-0.7-2.3-2.3-2.7-4.4-2.6c-4.5,0.3-9.1,0.4-13.6,0.4C594.8,703.8,593.1,703.5,591.9,703.3z
			 M507.8,811.1c3.1-5.2,6-10.2,6.2-16.2c0.1-3.6-0.2-4.1-3.8-4.6c-0.5-0.1-1-0.1-1.5-0.1c-7.3,0-14.6,0-21.8,0.1
			c-0.6,0-1.6,0.6-1.9,1.1c-1,2.1,0.3,4.9,2.3,6.1c3.2,1.8,6.6,3.5,9.7,5.6C500.5,805.4,503.9,808.2,507.8,811.1z M599.2,248.9
			c-0.2-0.3-0.4-0.6-0.6-0.9c-1.7,0.7-3.3,1.4-5,2.1c-8,3.6-15.8,7.6-24,10.8c-4.9,1.9-10.3,2.7-15.5,4.1c-1.1,0.3-2.1,0.9-3.2,1.4
			c0.1,0.4,0.1,0.7,0.2,1.1c1.9,0.4,3.8,1.2,5.7,1.2c10,0.2,19.8-1.2,29.3-4.6c5.5-2,10.3-5.2,14.5-9.3c0.7-0.7,1-1.6,1.5-2.5
			c-0.2-0.2-0.3-0.4-0.5-0.6c-1.2,0.4-2.4,0.8-4,1.3C598.3,251.5,598.7,250.2,599.2,248.9z M580.2,191.8c0.1,0.2,0.2,0.4,0.3,0.6
			c2.7-1.2,5.8-1.9,8.2-3.7c6.2-4.6,6.4-7.9,1.5-13.8c-1.7-2.1-4.1-3-6.8-2.9c-2.5,0.1-5.1,0.6-7.6,1.1c-4.1,0.9-6.7,3.7-8.1,7.6
			c-0.2,0.5-0.3,1.2-0.2,1.7C569,188.3,574.2,192.1,580.2,191.8z M496.4,873.3c5.2-4.2,5.4-4.5,3.7-10c-2-6.4-4.2-12.7-6.3-19.1
			c-0.2-0.6-0.5-1.1-0.9-1.9c-2.7,3.3-5.2,6.4-7.6,9.5c-0.4,0.6-0.6,1.6-0.4,2.3c2,5.9,4,11.7,6.1,17.5c0.4,1,1,1.9,1.6,3
			c0.9-1.3,1.6-2.1,2.6-3.6C495.8,872,496.1,872.6,496.4,873.3z M641.4,706.7c0.1,0,0.1,0,0.2,0c0-1.5,0-3,0-4.5
			c-0.1-4-2.8-5.6-6.5-4.2c-4.6,1.7-9.3,3.1-14,4.5c-1.8,0.5-2.4,1.2-2,2.9c0.4,1.9,0.8,3.7,1.1,5.6c0.3,1.6,1.1,2.6,2.8,2.5
			c4.2-0.2,8.4-0.4,12.6-0.6c1.9-0.1,4.7,0.6,5.5-0.4C642.1,711.2,641.4,708.6,641.4,706.7z M467.3,866.2c-4,0.3-7.4,0.6-10.8,0.8
			c-1.5,0.1-2.1,0.8-2,2.2c0.4,4.7,0.8,9.3,1.4,14c0.4,2.7,2.6,4,5.3,3.5c1.4-0.3,2.8-0.4,4.2-0.3c5.5,0.2,6.6-1,5.4-6.2
			c-0.1-0.4-0.1-0.8-0.2-1.2C469.5,874.5,468.3,870.1,467.3,866.2z M649.7,735.7c-0.8-1.3-1.2-2.5-2-3c-2.3-1.4-3.2-3.6-4.2-5.9
			c-0.3-0.7-1.1-1.6-1.8-1.8c-5.3-1.7-10.8-1.7-16.1-0.1c-0.7,0.2-1.6,1.6-1.5,2.2c0.9,3.3,2,6.5,3.2,9.7c0.2,0.6,1.4,1.2,2.1,1.2
			c4.7-0.3,9.4-0.7,14.1-1.2C645.3,736.4,647.2,736,649.7,735.7z M443,777.3c2,1.4,3.2,2.6,4.7,3.1c7.9,3,16,5.1,24.5,5.5
			c1.1,0.1,2.8-0.3,3.4-1.1c2.3-3,0.2-8.4-3.5-8.9c-8.1-1.1-16.2-1.7-24.3-0.5C446.3,775.6,445,776.5,443,777.3z M479.8,857.9
			c-2.7,1.9-5.2,3.5-7.5,5.4c-0.5,0.4-0.5,1.7-0.3,2.5c1.3,5.3,2.7,10.6,4,15.9c0.3,1.4,1,1.8,2.3,1.4c2.1-0.7,4.1-1.3,6.1-2.1
			c2.7-1.2,3.1-2.4,2.2-5.4c-0.3-0.9-0.4-1.8-0.6-2.7C484.9,867.7,482.9,862.8,479.8,857.9z M564.1,257.3
			c-6.5-2.9-11.8-7.3-16.8-13.2c-3.7,8-9.9,12.5-17.5,15.3c2.6,0.6,5.2,1.7,7.3,1.2c5-1.3,10-1.2,15-0.6
			C556.3,260.4,560.2,259.5,564.1,257.3z M488.9,252.9c0.7,0.9,1.1,1.6,1.7,2c1.7,0.9,3.7,1.4,5.3,2.5c5.2,3.3,10.9,5.5,16.9,7
			c4.3,1.1,8.7,2.2,13.1,2.5c4.1,0.4,8.4-0.6,12.5,0.6c0.7,0.2,2.2-0.4,2.3-0.8c0.2-1.4-0.7-1.8-2.1-2c-4.6-0.6-9.1-1.4-13.7-2.1
			c-4-0.6-7-3.2-10.6-4.5c-6.2-2.2-12.6-3.7-19-5.2C493.4,252.5,491.4,252.9,488.9,252.9z M619.1,726.2c-5.2,1.7-10,3.2-14.9,4.9
			c-0.5,0.2-1,1.7-0.7,2.1c2.6,3.6,5.3,7.1,8.1,10.6c0.3,0.4,1.3,0.6,1.7,0.5c3.2-1.3,6.4-2.6,9.5-4.1c0.5-0.2,0.7-1.6,0.5-2.2
			C622.2,734.1,620.7,730.4,619.1,726.2z M453.2,887.1c-1.2-6.2-2.3-12.4-3.6-18.5c-0.2-0.8-1.4-1.5-2.3-2c-1.6-0.9-3.4-1.4-4.9-2.3
			c-1.7-1.1-2.3-1-2.5,1.1c-0.1,0.7-0.1,1.5,0,2.2c0.8,4.3,1.5,8.5,2.5,12.7c0.4,1.8,1.6,3.4,2.2,5.1c0.8,2.7,1.6,3.3,4.3,2.8
			C450.3,888,451.6,887.5,453.2,887.1z M443.1,761.4c0.4,2.8,0.6,5.4,1.2,7.8c0.1,0.6,1.3,1.4,2,1.4c8.5,0.3,17,0.6,25.5,0.8
			c0.5,0,1.5-0.3,1.5-0.5c0.1-1.6,0.3-3.2,0-4.7c-0.1-0.6-1.4-1.2-2.2-1.3c-6.4-0.6-12.8-1.1-19.2-1.8
			C449.1,762.8,446.3,762,443.1,761.4z M430.3,846.8c-3.3,11.8,0,31,9.4,37.2c0.1-0.3,0.3-0.6,0.2-0.9c-0.7-4-1.2-8-2.1-11.9
			c-0.9-3.8-2.5-7.5-1.9-11.6c0.1-0.9-0.3-2-0.7-2.8C433.7,853.4,432,850.3,430.3,846.8z M638.3,752.6c2.9,4.4,6.3,6.9,10.6,8
			c2.8,0.7,11.6-3.7,13.1-6.3c0.7-1.2,0.7-2.7-1-2.8c-5.4-0.5-10.9-1-16.3-1C642.7,750.4,640.7,751.7,638.3,752.6z M644.7,793.9
			c0.3-4,0.7-7.1,0.6-10.3c0-2-0.8-3.7-3.1-4.7c-2.5-1.1-4.7-3-7.1-4.4c-1-0.6-2-0.6-2.1,0.9c-0.3,3.7-0.5,7.4-0.7,11.1
			c0,0.4,0.2,1.1,0.5,1.3C636.6,789.8,640.4,791.7,644.7,793.9z M504.2,857.9c0.3,0,0.5,0,0.8,0c0.3-0.5,0.7-0.9,0.8-1.4
			c0.5-3.5,1-7.1,1.5-10.6c0.1-1.1,0.4-2.4,0.1-3.4c-1.1-3.6-2.4-7.1-3.6-10.6c-0.7-1.8-1.6-1.5-2.7-0.3c-2.6,3.1-5,6.1-1.7,10.2
			c0.1,0.2,0.1,0.5,0.2,0.7C501,847.7,502.6,852.8,504.2,857.9z M620.5,764.1c-0.2,0.1-0.5,0.3-0.7,0.4c-0.2,2.9-0.5,5.7-0.6,8.6
			c0,1.6-0.2,3.7,0.7,4.7c2.2,2.4,4.9,4.4,7.8,6.8c0.3-1,0.5-1.4,0.5-1.8c0.1-3.6,0.2-7.3,0.3-10.9c0-0.5-0.1-1.3-0.5-1.6
			C625.6,768.1,623,766.1,620.5,764.1z M656.5,745.2c-1.5-2.9-3.5-4-6.1-3.9c-6,0.2-11.9,0.3-17.9,0.6c-0.7,0-1.4,0.7-2,1.1
			c0.3,0.5,0.7,1,1,1.5c0.3,0.5,0.8,0.8,1.1,1.3c1.8,2.9,4.2,3.3,7.5,2c2.7-1.1,5.7-1.6,8.6-2.1
			C651.2,745.4,653.7,745.4,656.5,745.2z M445,796c6-3.7,12.4-4,18.8-4c3.6,0,7.2,1,10.8,1.4c0.8,0.1,2.4-0.5,2.5-0.9
			c0.3-1.4-0.7-2.3-2.2-2.3c-1.2,0-2.3,0-3.5-0.1c-5.8-0.6-11.7-1-17.5-1.9c-2.7-0.4-5.3-1.6-8.1-2.6
			C445.5,789.1,445.3,792.2,445,796z M479.7,805.2c1-3.6,0.1-5.2-3.1-5.3c-1.2,0-2.3-0.9-3.5-1.2c-1.8-0.5-3.7-1.1-5.5-1.2
			c-2.1-0.1-4.3,0.4-6.4,0.5c-3.7,0-7.4-0.2-11,2.8c3.5,0.3,6.5,0.5,9.5,0.7c2.3,0.1,4.7-0.2,6.9,0.2
			C470.9,802.7,475.2,804,479.7,805.2z M602.3,759.4c2.7-7.2,2.9-21-3.2-22.6c-0.5,4.1-0.7,8.2-1.4,12.2
			C596.8,753.6,599.1,756.6,602.3,759.4z M650.1,793.5c3.1-1.3,6.1-2.5,8.9-3.9c0.5-0.2,0.6-1.5,0.6-2.3c0.1-1.5-0.2-3,0.1-4.5
			c0.4-2.1-0.2-2.8-2.3-2.4c-1.9,0.4-3.9,0.6-5.9,1c-0.5,0.1-1.4,0.6-1.4,1C650.1,785.8,650.1,789.4,650.1,793.5z M589.1,724.2
			c-0.3,0.2-0.6,0.4-0.9,0.6c-1.3,8.1,0.8,15.4,5.1,22.7c0.4-0.7,0.7-1,0.7-1.2c0-3.6-0.2-7.3-0.2-10.9c0-1-0.2-2.2,0.2-2.8
			c1.1-1.6,0.7-3-0.3-4.1C592.4,726.9,590.7,725.6,589.1,724.2z M613.5,770.9c2.7-6,1-15.6-3.5-18.6c-2.7,3.5-2.6,7.9-2.5,11.8
			C607.6,767.3,611.1,768.8,613.5,770.9z M485.6,806.5c5.9,4,11.7,8,17.6,12c2.3-1.9,2.5-3.2,0.3-5.2c-2-1.7-4.2-3.2-6.4-4.7
			c-1.6-1.1-3.4-1.8-4.8-3.1C490.7,804,487.2,804.2,485.6,806.5z M503.2,784.8c0-0.2,0.1-0.4,0.1-0.6c-0.6-0.3-1.2-0.6-1.9-0.8
			c-2.1-0.7-4.2-1.5-6.4-2.1c-3.4-0.9-6.8-1.6-10.3-2.3c-1.2-0.2-2.8-0.4-2.9,1.6c-0.2,2.4,1.1,4.2,3,4.2c4.1,0.1,8.3,0.3,12.4,0.3
			C499.2,785.2,501.2,785,503.2,784.8z M630.9,749.7c-1.7-2.1-2.9-4.2-4.6-5.6c-0.6-0.5-2.5,0.5-3.8,1c-0.7,0.2-1.3,0.7-2,1
			c-4.3,2.2-4.4,2.5-1.8,6.4c0.4,0.5,1.4,1,2,0.9c2.6-0.6,5.3-1.4,7.9-2.2C629.4,751,629.9,750.4,630.9,749.7z M430.2,263.1
			c0.3-4.5,0.2-4.7-3.9-3.8c-0.6,0.1-1.3,0.4-1.9,0.4c-2.1,0.2-2.4,1.4-2.2,3.3c0.7,5.1,0.7,5.1,5.7,4.5c1.9-0.2,3-1,2.4-3.1
			C430.2,263.9,430.2,263.3,430.2,263.1z M598.6,727.1c0.1,0.3,0.3,0.6,0.4,0.9c6.4-2.4,12.8-4.8,19.1-7.1c-0.9-2.9-1.1-3-3.8-1.8
			c-3,1.4-6.1,2.7-9,4.2C603.1,724.4,600.9,725.8,598.6,727.1z M669.9,773c-4.9,4-6,7.4-4,11.5C669.7,781.9,671.2,777.8,669.9,773z
			 M437,262.5c0,0,0.1,0,0.1,0c-0.1-1.1-0.1-2.2-0.5-3.1c-0.2-0.5-1.2-1.3-1.5-1.2c-0.6,0.3-1.4,1.1-1.4,1.6c0,1.5,0.4,3.1,0.8,4.6
			c0.1,0.4,1,1,1.4,1c0.4-0.1,0.8-0.8,1.1-1.4C437.1,263.5,437,263,437,262.5z M635.7,717.5c-0.1-0.2-0.2-0.5-0.3-0.5
			c-4,0.3-8,0.6-11.9,1c-0.3,0-0.6,0.8-0.8,1.3c0.5,0.3,1.1,0.8,1.6,0.7C628,719.3,631.8,718.4,635.7,717.5z M511.6,819.3
			c-3.1,1.8-3.6,3.4-2.3,7.4C510.1,824,510.8,821.9,511.6,819.3z"/>
		<path d="M608.4,353.7c0.7,1.1,1.9,2.2,2,3.5c0.9,6.7,1.6,13.5,1.9,20.5c-0.5-1.1-1.3-2.1-1.5-3.3c-1.1-6.5-2.1-13-3.1-19.4
			c0-0.3,0-0.6,0-1C608,354,608.2,353.9,608.4,353.7z"/>
		<path d="M417.1,296.2c-1.2,0.7-2.3,1.5-3.5,2.2c-0.6-2.1-1.2-3.9-1.7-5.7c-0.5-1.8-1.1-3.6-1.5-5.5c-0.1-0.5,0.5-1.2,0.7-1.8
			c0.6,0.3,1.5,0.6,1.7,1.1c0.7,1.7,1.6,3.4,1.6,5.2c0,2,0.5,3.3,2.6,3.8C417,295.7,417,296,417.1,296.2z"/>
		<path d="M618.5,405.3c0.4,1,1,2,1.3,3.1c1.8,5.9,3.6,11.8,5.3,17.7c0.2,0.7,0.4,1.4,0.5,2.1c-0.3,0.1-0.5,0.2-0.8,0.3
			c-0.8-1.6-1.8-3.1-2.3-4.7c-1.2-3.5-2.4-7-3.3-10.6C618.7,410.6,618.7,407.9,618.5,405.3L618.5,405.3z"/>
		<path d="M618.5,405.2c-0.6-1-1.5-2-1.9-3.1c-1-3.3-1.8-6.7-2.7-10.1c-0.1-0.6-0.1-1.1-0.2-1.7c-0.2-1.7-0.4-3.4-0.6-5.5
			c0.4,0.2,1.1,0.4,1.2,0.7C615.8,392.1,617.1,398.7,618.5,405.2C618.5,405.3,618.5,405.2,618.5,405.2z"/>
		<path d="M718.8,538.2c-2.7,3.2-5.8,5.9-8.7,8.8c-0.3-0.3-0.6-0.7-0.9-1C712.4,543.4,715.7,540.8,718.8,538.2L718.8,538.2z"/>
		<path d="M405.1,295.2c0.6,2.1,1.2,4.2,1.9,6.8c-3.6-1.6-2.1-4.4-3-6.4C404.4,295.5,404.8,295.3,405.1,295.2z"/>
		<path d="M617,524.3c0.2,1.6,0.5,2.9,0.5,4.2c0,0.3-1.1,1-1.4,0.8C614.9,528.6,615.3,525.5,617,524.3z"/>
		<path d="M626.3,430.1c0.1,1.3,0.2,2.5,0.2,3.8c-0.3,0.1-0.6,0.2-0.8,0.3c-0.4-1-1-2-1.2-3c-0.1-0.4,0.7-0.9,1.1-1.4
			C625.9,429.8,626.1,430,626.3,430.1z"/>
		<path d="M612.7,383.9c0-1.4,0-2.7,0-4.1c0.2,0,0.5,0,0.7-0.1c0.2,1.3,0.4,2.7,0.6,4C613.6,383.8,613.2,383.8,612.7,383.9z"/>
		<path d="M615,518.9c0.7,1.6,2.9,3.3,0,4.8C615,522,615,520.4,615,518.9z"/>
		<path d="M513.3,199.6c-7.9-0.1-16.9-4.6-19.3-11.4c-0.2-0.6-0.2-1.3-0.5-1.9c-0.4-0.8-0.8-1.6-1.4-2.1c-1.2-0.8-1.6-2.2-0.4-2.9
			c2.6-1.6,5.4-2.8,7.8-4.7c5.5-4.2,11.6-3.8,17.8-3.2c2.7,0.3,5.6,0.8,8,2c3.5,1.7,7.5,6.8,5.9,11.7c-1.5,4.7-3.6,8.9-9.2,10.1
			C519.1,197.9,516.2,198.8,513.3,199.6z M512.2,175.8c-5.2-0.2-10-0.2-12.9,5.5c-2.1,4.3-2,6.8,1.9,9.9c5.2,4,17.4,4.1,22.7,0.1
			c2.2-1.6,3-4.8,1.9-7.4c-0.4-0.8-0.9-1.6-1-2.5c-0.5-2.7-2.4-4-4.7-4.6C517.5,176.3,514.9,176.1,512.2,175.8z"/>
		<path d="M584.7,182.3c-0.6,1.4-1.4,3.3-2.4,5.1c-0.7,1.3-1.8,1.5-3.2,0.7c-2.3-1.3-3.1-3.6-3-5.9c0.1-2.6,0.5-5.4,3.4-6.7
			c1.9-0.9,3.4-0.3,4.1,1.7C584.1,178.7,584.2,180.2,584.7,182.3z"/>
		<path d="M511.2,186.8c1.1-2.5,1.8-4.7,3.1-6.7c0.4-0.6,2.1-0.8,3.1-0.5c0.6,0.2,1.3,1.4,1.3,2.3c0.1,1.9,0.1,4-0.3,5.8
			c-0.5,2.1-2,4.1-4.3,3.4C512.8,190.8,512.2,188.5,511.2,186.8z"/>
	</g>
</g>
</svg>
