<?xml version="1.0" encoding="utf-8"?>
<!-- Generator: Adobe Illustrator 18.1.0, SVG Export Plug-In . SVG Version: 6.00 Build 0)  -->
<svg version="1.1" xmlns="http://www.w3.org/2000/svg" xmlns:xlink="http://www.w3.org/1999/xlink" x="0px" y="0px"
	 viewBox="0 0 1000 1000" style="enable-background:new 0 0 1000 1000;" xml:space="preserve">
<style type="text/css">
	.st0{fill:none;stroke:#ED1C24;stroke-miterlimit:10;}
</style>
<g id="Guides">
</g>
<g id="Metrics">
	<line class="st0" x1="0" y1="900" x2="1000" y2="900"/>
	<line class="st0" x1="0" y1="100.8" x2="1000" y2="100.8"/>
</g>
<g id="Art">
	<g>
		<path d="M931.7,802.6c-0.8-0.9-1.6-2.3-1.5-3.5c0.2-5.9,0.7-11.7,0.9-17.5c0.1-3.4,0.7-7.3-0.8-10c-2.7-4.9-6.5-9.3-10.3-13.5
			c-3.3-3.7-7.2-6.9-10.7-10.4c-5.9-5.9-11.6-11.8-17.4-17.8c-5.5-5.6-11-11.2-16.4-16.8c-7-7.3-13.8-14.7-20.7-22
			c-4.6-4.9-9.4-9.6-14-14.5c-2.6-2.7-5-5.6-7.5-8.3c-0.9-1-2-1.7-3-2.6c-1.2-1.1-2.5-2.2-3.6-3.4c-2.7-3.3-5.2-6.9-8.1-10
			c-6.4-7-13.1-13.6-19.5-20.6c-5.5-6-10.9-12.2-16.1-18.4c-3.5-4.2-6.5-8.7-9.9-13.3c1.3-0.7,2-1.2,2.7-1.4
			c8.6-2.8,13.9-10.4,12.5-19.2c-0.9-5.7-1.9-11.9-4.7-16.8c-5-8.8-11.2-16.9-17.2-25.1c-8.7-11.8-19.6-21.3-31.2-30
			c-4.4-3.3-7.2-7.4-8.2-12.8c-0.8-4-1.7-8.1-3.1-11.9c-2.5-7-5.4-13.8-8.4-20.6c-1.1-2.6-2.8-5-4.8-7c-2.7-2.8-6.4-4.8-8.8-7.8
			c-5.5-6.8-13-9.2-21-10.8c-5.5-1.2-11.2-1.8-16.8-2.7c-4-0.6-4.3-1-3.8-5c0.7-5.9,1.4-11.8,1.8-17.8c0.3-4.2-0.5-8.5-0.1-12.6
			c1.1-11.1-0.6-22-3.9-32.4c-3.8-12.1-8.3-23.9-16.4-34.1c-7.2-9.1-13.9-18.6-24.4-24.2c-8.2-4.3-16.3-9.2-25-11.9
			c-8.2-2.6-14.6-7.6-20.9-12.6c-5.3-4.2-9.7-9.6-14-14.9c-6-7.2-11.5-14.8-17.3-22.2c-5-6.4-10-12.9-15.3-19.1
			c-2.3-2.8-5.5-4.8-8-7.4c-1.3-1.3-1.6-3.6-2.9-4.8c-1.7-1.5-4.1-2.3-5.9-3.7c-5-4-10.4-7.8-14.7-12.6c-5.5-6.1-11.9-10.8-19.1-14
			c-6-2.7-11.4-6.4-18-8.1c-5.6-1.4-10.8-4.5-16.9-5.4c-9.8-1.4-19.6-3.5-29.3-5.3c-2.3-0.4-4.6-0.4-6.9-0.7
			c-6.1-0.8-12.3-2.4-18.4-2.3c-7.5,0.1-15,1.3-22.4,2.6c-6.4,1.1-12.5,3.2-18.8,4.7c-7.2,1.7-14.4,3.1-21.7,4.6
			c-8.2,1.7-14.2,7.5-21.3,11.3c-1.4,0.8-2.9,1.6-4.1,2.7c-1.6,1.5-3,3.3-4.5,4.9c-1.9,2-4.2,3.6-6,5.7c-3.6,4.3-7,8.9-10.5,13.2
			c-1,1.3-2.3,3-3.6,3.2c-6,0.8-10.6,3.9-15.1,7.5c-1.3,1-2.4,2.6-3.8,3.2c-2,0.9-4.4,0.9-6.6,1.6c-6.8,2-9.8,8.1-8.9,15.1
			c0.8,6.3,5.2,10.3,7.9,15.4c3.7,7,8.9,13.3,13.3,20c0.5,0.7,0.6,1.9,0.6,2.8c-0.3,5.3-0.9,10.6-1.2,15.9
			c-0.2,3.9-0.8,7.9-0.2,11.6c2.1,11.5,4.5,23,7.1,34.4c0.6,2.8,0,4.3-1.8,6c-6.1,6-12,12.2-18.1,18.1c-8.9,8.7-18.1,17.2-27,25.8
			c-6.5,6.3-12.8,12.7-19.2,19.1c-2.5,2.6-4.9,5.3-7.5,7.8c-6.5,6.3-13.1,12.5-19.7,18.7c-4.8,4.6-9.4,9.3-14.2,13.8
			c-5.6,5.3-11.4,10.4-17,15.7c-3.7,3.5-7.4,6.9-10.6,10.7c-2.1,2.5-6.4,4-5.3,7.6c-2,1-3.9,1.5-5.2,2.6c-4.6,3.7-8.1,8.5-12.6,12.4
			c-9.1,7.9-17.5,16.6-26.1,25c-11.9,11.7-23.8,23.3-35.6,35.1c-0.7,0.7-0.9,2.8-0.4,3.8c1.7,3.7,4.3,6.5,8.8,7.2
			c1.4,0.2,2.7,1.4,4.7,2.5c-2.5,0.4-4,0.6-5.5,0.9c0,0.4,0.1,0.8,0.1,1.1c2.8,0,5.7,0.3,8.4-0.1c1.5-0.2,2.9-1.5,4.1-2.5
			c2.1-1.9,4.1-3.9,6-6c0.3-0.3-0.2-1.3-0.3-2c-0.6,0.1-1.4,0.1-1.8,0.5c-1.7,1.6-3.2,3.3-4.9,4.9c-1,1-2.3,1.8-3.4,2.7
			c-0.2-0.3-0.5-0.6-0.7-0.8c1.8-1.8,3.6-3.6,5.4-5.5c6.5-6.6,13-13.3,19.5-19.9c2.3-2.3,4.9-4.4,6.8-7c2.4-3.1,6.4-5.5,4.9-11.5
			c-1.4,1.8-2.3,3.3-3.6,4.5c-4.4,4.1-8.9,8.1-13.3,12.2c-2.1,2-4.8,3.4-5.2,6.8c-0.1,0.7-1.1,1.4-1.9,1.9c-2,1.2-4.3,2-6,3.5
			c-3.4,2.9-6.6,6.1-9.7,9.3c-1.8,1.8-3.3,0.6-4.3-0.4c-0.7-0.8-1-3-0.4-3.8c1.7-2.2,3.9-4.1,6-6c3.6-3.4,7.4-6.6,10.9-10.1
			c5.7-5.7,11.3-11.5,16.8-17.4c3.9-4.1,7.7-8.2,11.5-12.3c3-3.3,6-6.8,9-10.2c0.1-0.1,0.2-0.1,0.3-0.1c3.7-3.4,7.3-6.8,10.9-10.3
			c1.5-1.5,2.7-3.2,4.1-4.8c3.5-4,9.3-6.2,9.4-12.5c5,0.7,8.1-2.4,9.1-8.3c3.5,0.9,16-10.7,17.5-16.3c4.8,0.4,5.6-3.4,6.6-6.9
			c0.6,0.5,1,0.9,1.8,1.7c11.6-11.5,23.1-22.8,34.5-34.2c2.8-2.8,5.4-5.9,8.2-8.7c3.3-3.2,6.9-6.1,10.2-9.3
			c5.4-5.3,10.4-10.8,15.8-16.1c7.6-7.5,15.4-14.8,23.1-22.2c5.4-5.2,10.6-10.5,16-15.7c5.7-5.5,11.6-10.9,17.4-16.3
			c0.3-0.3,0.7-0.6,1.1-0.7c5.1-0.3,10,0.5,15.3,1.8c-1.7,4.2-3.4,7.6-6.9,9.4c-1.5,0.7-3.9,1-5.2,0.3c-3.2-1.8-4.9-2-7.5,0.6
			c-2.3,2.4-4.4,4.9-6.6,7.3c-6.5,7-13,14-19.7,20.8c-7.6,7.7-15.6,15.1-23.3,22.7c-4.3,4.3-8.3,9-12.6,13.4
			c-3.2,3.3-6.7,6.2-10.1,9.4c-9.2,8.8-18.4,17.5-27.3,26.5c-2.1,2.1-5.5,3.8-4.9,7.7c-1-0.2-2.2-0.7-2.5-0.3
			c-4.7,4.2-9.3,8.6-13.7,13c-2.9,2.9-5.6,6.1-8.6,9c-4.6,4.4-9.4,8.6-14,13c-2.3,2.1-3.5,4.7-2.3,8c1-0.5,2.1-0.7,2.9-1.4
			c4.4-4,8.8-8,13.1-12.2c8-7.9,15.9-16,23.9-23.9c1.4-1.4,3.5-2.1,5.1-3.3c0.7-0.5,0.9-1.6,1.5-2.3c1.7-1.8,3.2-4.6,5.2-5
			c2.9-0.6,4.4-1.8,5.5-4.2c0.2-0.6,0.2-1.7,0.4-1.7c5-0.6,4.8-5.9,7.6-8.5c3.9-3.5,7.3-7.5,10.8-11.2c1,0.6,1.7,1,3.4,2
			c-1.4-3-2.7-5.3,1.2-5.1c0.1,0,0.1-0.2,0.2-0.2c2.1-2.4,4.1-4.8,6.2-7.1c1.4-1.5,3.2-2.8,4.2-4.5c1.2-2.2,2.2-4.1,4.4-5.9
			c6-5,11.4-11,17.1-16.5c1.8-1.8,3.8-3.3,5.8-5.1c3.5-5.1,9.2-8.5,13.2-14.5c2.4,11.9,9.9,18.3,20.2,22.7c-2.7,3-4.9,5.7-7.4,8.2
			c-4,4.1-8.2,7.9-12.2,12c-5.3,5.4-10.4,11.1-15.6,16.5c-1.4,1.5-3.4,2.5-4.7,4.1c-7.7,9-15.9,17.3-24.4,25.5
			c-6.6,6.3-12.9,12.9-19.3,19.5c-5.8,6-11.5,12.2-17.2,18.3c-0.2,0.2-0.4,0.5-0.7,0.7c-3,1.5-4,4.2-4.3,7.2
			c2.9-2.9,5.8-5.8,8.6-8.8c2.5-2.7,4.5-5.7,7.1-8.2c3.2-3.1,6.8-5.8,10.1-8.9c3.3-3.1,6.4-6.4,9.5-9.7
			c10.9-11.4,21.7-22.8,32.5-34.2c2.6-2.7,5.1-5.6,7.7-8.3c3.2-3.3,6.5-6.6,9.7-9.9c4.7-4.8,9.4-9.6,14.2-14.3
			c2.9-2.8,5.8-5.9,9.2-8c3.5-2.1,5.2-4.9,5.8-8.7c-7.7,1.8-15.3-1.2-17.2-6.5c8.1-1,16.2-1.9,24-2.9c0,1.1,0,2.2,0,4.4
			c2.4-2,4-3.3,5.7-4.7c4.9-4.1,7.6-10.3,13.3-13.9c3.9-2.4,7-6.3,10.4-9.6c7.4-7.3,14.7-14.7,22-22c1.5-1.5,3.1-2.2,6.2-1.1
			c-3.1,2.9-5.8,5.2-8.3,7.7c-6.3,6.5-12.5,13-18.6,19.6c-5,5.4-9.8,10.8-14.7,16.3c-0.7,0.8-0.9,2-1.3,3.1c0.3,0.3,0.6,0.7,0.9,1
			c1.1-0.6,2.3-1.1,3.4-1.7c1.6-0.9,3.1-2.5,4.8-2.8c5.5-0.9,10.7-2.5,15.5-5.4c3.4-2.1,7-1.9,10.3,0.6c4.7,3.7,5.1,7.2,0.3,10.5
			c-3.5,2.5-6.7,5.4-10.3,7.7c-5.1,3.2-9.5,7.4-15.9,8.5c-5.5,1-10.8,1-16.3,0.2c-1.3-0.2-2.5-1.2-4.4-2.1
			c3.7-4.1,6.9-7.7,10.1-11.3c-0.9-1-1.6-1.8-2.7-3.2c0,1.6,0,2.5,0,3c-1.8,1.1-3.5,1.9-4.8,3.1c-3.3,3.1-6.3,6.5-9.5,9.8
			c-8.2,8.4-16.5,16.6-24.6,25.1c-2.3,2.4-4,5.3-6.2,8.3c-1,0.5-2.9,0.9-4,2c-7.1,7.5-14.2,15-21.1,22.7c-1.8,2-3,4.5-4.4,6.8
			c1.8-0.9,3.8-1.5,5.2-2.9c4.2-4.1,8-8.5,12.1-12.7c7-7.2,14.1-14.3,21.2-21.4c4.4-4.4,8.9-8.8,13.4-13.2c1.5,1.3,3,2.1,4,3.4
			c0.6,0.8,0.9,2.5,0.4,3.3c-1.2,2.2-2.9,4.1-4.4,6c-3.8,4.7-7.5,9.5-11.4,14.1c-3.9,4.6-7.9,9.2-12.1,13.5
			c-3.8,3.8-8,7.2-11.9,10.9c-1.9,1.8-3.9,3.8-5.3,6.1c-2.1,3.6-3.7,7.4-5.3,11.2c-2,4.7-4.5,9.3-1.6,13.5c-1,2.9-2.3,5-2.4,7.3
			c-0.2,3,0,6.3,0.9,9.1c1.2,3.9,2.9,7.9,5.1,11.3c1.3,2,3.8,3.4,6,4.5c5.6,2.8,11.1,5.9,17,7.7c5.7,1.8,11.9,1.2,17.9,0.4
			c8-1,12.1-4.5,13.9-12.2c0.7-2.9,0.7-5.9,1.3-8.9c0.6-2.8,0.3-5.7,3.9-7.7c5.3-3,9.2-3.4,13.7,0.8c1.3,1.2,2.7,2.3,3.9,3.7
			c1.6,1.7,2.7,1.5,4.1-0.8c-4-2.7-6.1-8.2-11.7-7.8c-0.6-0.8-1.1-2-1.7-2.2c-2-0.4-4.2-1-6-0.5c-2.8,0.7-4.5-0.4-6.1-2.1
			c-3.9-4-7.4-8.6-11.7-12.1c-7.6-6.2-15.3-12.5-25.2-14.9c-2.1-0.5-4-1.5-6.7-2.5c2.3-2.4,3.9-4.8,6.2-6.2
			c7.5-4.8,12.5-12,18.3-18.4c4.8-5.2,8.4-11.4,12.7-17c1.3-1.7,3.3-4.3,4.6-4.1c2.5,0.4,5.8,2,7,4.1c2.1,3.6,3,8,4,12.1
			c0.6,2.5,1.8,4.1,4.2,3.4c2.8-0.7,5.5-2.1,8.4-3.3c3.2,4.2,3.3,4.4,3.6,9.9c0.2,3.1,4.9,6.8,8,5.9c3.7-1.1,7.3-2.4,10.9-3.9
			c3.2-1.4,5.4-0.8,6.8,2.5c1,2.4,2.1,4.9,2.7,7.4c0.3,1.1-0.3,2.4-0.6,4.2c-0.4-0.3,0,0.2,0.4,0.3c5.2,0.7,9.5-1.6,13.3-4.6
			c1.7-1.3,2.9-1.8,4.1-0.3c1.4,1.8,2.5,3.9,3.5,5.9c2.1,4.7,5.8,6.1,10.7,4.5c4-1.3,6.5-4.1,9-7.1c5-6.1,5-6,9.8,0.2
			c1,1.3,3.1,2,4.8,2.1c0.9,0.1,2.2-1.6,2.8-2.8c1-2.3,1.5-4.9,2.5-7.2c2.3-5.4,2.7-5.5,7.4-2c0.5,0.4,0.8,1,1.2,1.5
			c1.5,1.6,2.9,3.4,4.6,4.7c2.9,2.1,5.2,1,6.2-2.4c0.5-1.9,1-3.9,1.7-5.7c1.6-4.6,3.1-5.5,7.9-5.3c2.8,0.1,5.5,0.4,8.3,0.4
			c4.5-0.1,6.5-2.5,6.2-7.1c-0.1-1.4,0.1-2.9,0.2-4.4c4.4,1,8.3,2,12.2,2.8c2.3,0.5,4-0.2,4.1-2.9c0.1-3.2,0-6.4,0.1-9.6
			c0-1.5-0.1-3.7,2.4-2.8c3.9,1.5,7.6,3.5,11.4,5.3c1.5,0.7,3.7,2,4.6,1.4c1.2-0.9,1.8-3,2.1-4.7c0.6-3.5,0.7-7,1.4-10.5
			c0.2-0.8,1.6-1.9,2.4-2c2.5,0,5.1,0.2,7.5,0.8c3.4,0.9,5.2-0.3,4.5-3.8c-0.8-4.1-1.8-8.2-2.9-12.3c-1.3-5,0.4-8.1,4.9-8.3
			c1-0.1,2,0.2,3,0.2c3.9-0.3,4.6-1.2,4.3-5c-0.3-4-0.5-8-1.2-11.9c-0.6-3.3,1.6-3.3,3.6-3.8c0.5-0.1,1.1,0.2,1.6,0.3
			c4.1,0.3,5.7-1.6,4.2-5.4c-1-2.6-2.3-5-3.4-7.6c-1.6-3.8-1-5.6,2.4-7.9c1.6-1,3.3-1.9,4.6-3.2c0.7-0.7,1.5-2.5,1.2-3.1
			c-2.2-3.6-4.4-7.3-7.2-10.5c-2-2.3-2.3-3.3,0.1-5.2c1-0.8,2-1.8,3-2.6c3.9-3.4,3.8-4.4,0.2-7.9c-2.8-2.6-5.3-5.5-8.2-8.4
			c1.7-1.5,2.9-2.8,4.4-3.7c2.6-1.7,3.3-3.5,0.6-5.8c-1.2-1.1-2.3-2.3-3.3-3.6c-1.7-2.3-3.3-4.6-5.3-7.5c1.7,0,2.5,0.1,3.3,0
			c2.8-0.3,3.8-2.5,2.2-4.7c-2.9-4-5.9-8-9-11.9c-2.5-3.2-2.6-3.4,0.9-5.3c3.7-1.9,3.7-3.4,0.6-6c-3.5-2.9-6.6-6.1-9.8-9.1
			c3.4-5.2,3.5-5.3,7.2-1.8c2.1,2,3.8,4.3,5.5,6.6c6.4,8.4,12.5,17,19.1,25.2c3.7,4.6,8.1,8.7,12.1,13.1c1,1,1.8,2.1,2.8,3.1
			c2.9,3.2,5.6,6.6,8.7,9.4c2.8,2.5,6,4.6,9.3,6.3c4.9,2.6,10.1,4.6,15.2,6.9c0.3,0.1,0.7-0.1,1,0c1.9,1,3.7,1.9,3,4.8
			c-0.3,1.3,0.7,3.1,1.4,4.4c1,1.9,2.5,3.5,3.4,5.4c1.4,2.7,2.5,5.5,4,8.8c-3.3,0.3-5.9,0.4-8.5,0.9c-1.4,0.3-3.9,1.2-3.9,1.9
			c0,1.7,1,3.4,1.8,5c0.5,1.1,1.2,2.1,1.7,3.2c0.5,1.1,0.5,2.4,1,3.4c2.5,4.4,5.3,8.7,7.6,13.1c0.9,1.7,1,3.9,1.5,6.3
			c-3.9-2-6.9-0.7-9.8,0c-2,0.5-2.8,2.1-2.3,4.1c0.8,3,1.8,5.9,2.6,8.9c0.7,3,1.3,6.1,1.9,9.4c-3.4,0.5-6.5,0.9-6.3,4.6
			c0.1,3.5,0.7,7,1.3,10.5c0.7,3.9,0.8,3.8-3.6,4.3c-1.3,0.2-3.1,1.6-3.4,2.8c-0.4,2,0,4.2,0.6,6.2c1.5,4.6,3.3,9,5,13.7
			c-1.9,0.7-4,2.2-6,2.1c-2.8-0.1-3.1,1.3-2.9,3.2c0.2,1.7,0.8,3.4,1.5,5.1c1.5,3.5,3.1,7,4.8,10.9c-1.7,0.4-3,0.8-4.4,1
			c-3.7,0.5-5.4,2.4-4.8,6c0.5,3.4,1.2,6.7,1.9,10c0.5,2.4,0.1,3.9-2.7,4.1c-1.9,0.1-3.7,0.5-5.5,1c-2.1,0.6-3.4,1.9-2.9,4.5
			c0.8,4,1.4,8,1.9,12.1c0.5,4.2-0.3,5.2-4.5,5.2c-3.5,0-7-0.9-10.6-1c-1.6-0.1-3.5,0.4-4.8,1.3c-0.5,0.4,0.1,2.7,0.5,4
			c0.7,2.4,1.7,4.8,2.3,7.3c0.9,3.3,1.6,6.7,2.5,10.9c-3.8-1-6.7-1.9-9.6-2.5c-1.3-0.3-3.1-0.6-3.8,0.1c-0.9,0.8-1.3,2.6-1.4,4
			c-0.1,1.6,0.3,3.3,0.6,5.5c-2-0.7-3.1-1-4.2-1.5c-2.5-1-5-2.3-7.6-3.1c-3-0.9-5,1-5.3,4.1c-0.2,2.9-0.9,5.8-1.3,8.9
			c-2.6-0.5-4.6-1-6.7-1.1c-2.3-0.1-4.5,0.1-4.7,3.3c-0.3,4-0.9,8.1-1.4,12.2c-0.9,0-1.5,0.1-2,0c-6.6-1.1-8.9,0.4-9.6,7
			c-0.5,4.6-0.1,9.4-0.1,14.5c-1.5-0.5-3-0.9-4.6-1.4c-3.8-1.4-5.9-0.1-6.3,4c-0.3,3.2-0.5,6.4-0.8,9.6c-0.2,2.1-1.1,3.1-3.3,2.2
			c-2.3-0.9-4.5-2-6.8-2.6c-4.5-1.2-6.7,0.1-8,4.5c-1,3.5-1.7,7.1-2.3,10.7c-0.7,4-1.6,4.6-5.3,2.8c-1.7-0.8-3.3-1.8-4.8-2.9
			c-2.3-1.6-6.3-0.1-6.7,2.6c-0.4,2.4-0.7,4.9-1,7.1c-4.4-2.5-8.3-5.1-12.4-7.1c-3.1-1.6-4.8-0.1-4.5,3.3c0.2,2.2,0.3,4.5,0.5,7.6
			c-3.5-2.8-6.1-5.3-9-7.2c-4.8-3.2-7.4-7.6-9.1-13c-0.9-2.8-2.6-5.8-4.8-7.7c-3.1-2.9-6.8-5.5-10.7-7.2c-4.2-1.8-6.1-5.1-7.4-8.8
			c-2-5.7-3.9-11.6-5-17.5c-1.9-10.1-7.8-17.5-15.3-24c-3.8-3.3-8.3-5.2-13.1-6.8c-6.7-2.2-13-5.4-19.3-8.6
			c-2.9-1.4-5.3-3.7-7.9-5.7c-0.4,1.5-0.4,2.9,0.3,3.8c4.1,5.5,10,8.6,16.1,11.2c1.5,0.7,3.4,1.1,4.4,2.3c1.9,2.3,4.3,2.3,6.9,2.4
			c1.2,0.1,2.4,0.2,3.5,0.5c6.3,1.6,10,6.8,14,11.2c1.9,2.1,3.1,5,4.1,7.7c1.5,4.4,2.4,9,3.7,13.4c0.4,1.3,1.2,2.4,1.4,3.7
			c0.6,3.4,0.1,7.2,3.8,9.4c0.3,0.2,0.4,0.8,0.4,1.2c-0.4,2.8,1.4,4.2,3.4,5.5c3.3,2.2,6.3,4.8,9.8,6.4c4.3,2,5.6,5.5,6.5,9.6
			c0.8,3.8,2.7,7.1,5.9,9.3c5.8,4,11.4,8.1,14.9,14.4c1.2,2.2,2.7,4.3,3.6,6.7c2.3,6.2,5.6,11.8,10.3,16.4
			c4.5,4.4,9.9,7.9,12.8,13.8c0.9,1.9,2,3.7,3.4,5.2c3,3.4,6.1,6.6,9.4,9.7c1.5,1.4,3.3,2.8,5.2,3.3c4.3,1.2,8.8,2.4,13.2,2.6
			c8.8,0.5,16.5,2.9,23.4,8.8c5.8,4.9,12.9,6.4,20.2,4.3c5.2-1.5,10.1-1.9,14.9,0.9c2.1,1.2,4.4,2.2,6.5,3.5
			c3.5,2.1,7.2,2.8,11.2,1.7c3.9-1.1,7.8-2.6,11.7-3.8c1.7-0.5,3.7-1.4,5.3-1c3.5,0.7,6.8,2.4,10.3,3.1c2.1,0.4,4.5,0.1,6.7-0.3
			c1.6-0.3,3-1.4,4.6-1.9c0.8-0.2,2,0,2.7,0.5c1.8,1.6,3.3,3.4,5.1,5c7.7,7.1,15.5,14.2,23.3,21.3c4.7,4.3,9.3,8.8,14.1,13
			c8.3,7.3,17.9,12.8,27.9,17.5c5.3,2.6,10.9,4.8,16.8,2c2.7-1.3,4.3-0.3,5.8,1.4c5.3,5.9,10.4,11.9,15.5,17.8
			c6.5,7.5,13,15,19.6,22.5c8.5,9.6,17.1,19,25.6,28.5c4.2,4.8,8.2,9.8,12.3,14.7c6.7,7.9,13.3,15.9,20.1,23.7
			c11,12.6,22.2,25,33.2,37.5c1.2,1.4,2.5,3,3,4.7c0.9,2.8,2.8,3.6,5.3,3.6c2.8-0.1,5.6-0.8,8.4-0.7c6.8,0.3,13.7,0.7,20.5,1.4
			c3.6,0.4,5.3-0.9,4.2-4.4c-0.6-2-1.4-4.1-2.6-5.7c-5-7-6.3-15.3-7.8-23.4c-0.8-4.1,1.5-5.3,5.6-4.3c8.7,2.1,17.3,4.2,26.1,5.8
			c8.4,1.6,17,2.1,25.1,5.3c2.6,1,4.8-0.8,4-3.6c-0.7-2.5-0.3-5.3-3-7.4c-1.9-1.5-2.8-4.4-4.1-6.7c-1.8-3.4-3.6-6.9-5.2-10.4
			c-2.3-5-4.8-9.9-6.8-15c-1.4-3.7-0.2-5.5,3.6-7c3.9-1.6,7.8-3.2,11.7-4.6c3.7-1.3,7.5-2.4,11.2-3.5c1-0.5,1.8-1.7,2.7-2.7
			C934,806.7,933.9,805.2,931.7,802.6z M289.2,471.2c3.8,3.7,8,6.9,12.1,10.4c3.2,2.7,5.2,5.6,4.1,10.3c-1.1,4.7-1.1,9.7-1.8,14.6
			c-0.8,6.1-4.3,9.4-10.7,10.2c-1.3,0.2-2.7,0.2-4.5,0.3c-5.1-0.5-10.7-0.6-15.8-3.6c-1.8-1.1-4.2-1.1-6.3-1.9
			c-11.5-4-15.6-13-14.2-24.1c0.8-6.4,0.3-13,3.3-19c1.6-3.2,3.2-6.3,5-9.3c0.3-0.5,1.7-0.8,2.5-0.7
			C272.8,460.4,281.9,463.9,289.2,471.2z M333.7,341.9c-3.9,4.4-7.6,9-11.9,12.9c-2,1.8-5.2,2.4-7.9,3.4c-2.3,0.8-4.7,1.3-6.9,2.2
			c-7.8,3.2-15.9,2.3-24,2c-2.7-0.1-5-5.6-3.2-7.5c3.1-3.4,6.4-6.6,9.8-9.8c0.6-0.6,2.1-0.8,3-0.5c5.7,2.2,11,0.8,14.7-4
			c1.7-2.3,3.1-4.9,4.9-7.1c0.5-0.6,1.9-0.6,2.8-0.7c0.5,0,1,0.5,1.4,0.8c5.2,4.2,10.6,7.8,18,4.9c0.1,0.3,0.2,0.7,0.3,1
			C334.3,340.4,334.2,341.3,333.7,341.9z M350.6,343.7c3.9-3.7,7.2-7.6,11.2-10.5c1.2-0.8,4.2,1,6.7,1.6
			C362.5,342.3,356.4,345.4,350.6,343.7z M373.5,356.5c-1.6,0.4-3.6,2.6-4.6-0.5c-1.3-4,0.1-6.3,3.3-7.4c4.7-1.7,9.1-0.8,13.6,0.5
			c7,2,13.9,3.8,20.9,5.9c1.7,0.5,3.2,1.5,4.8,2.3c-3.7,6.3-30.6,10.5-35.6,5.7c0-0.1,0.1-0.2,0.1-0.3c1.5-0.9,4.5,0,4.2-3
			C380.1,357.9,375.6,356,373.5,356.5z M518.6,246.3c0,0.1-0.1,0.4-0.2,0.5c-6,3.2-6.1,4.5-1.4,9.4c2.4,2.5,4.6,5.3,6.9,8.1
			c-0.5,0.5-0.7,0.8-1,0.9c-5.5,1.7-5.9,2.2-2.8,7.1c2.2,3.5,4.9,6.8,7.9,9.8c2.1,2.1,2.2,3.5,0,5.4c-5.1,4.3-5,4.3-0.4,9.1
			c1.7,1.8,3.4,3.5,5,5.3c1.6,1.8,1.7,3.3-0.3,5c-1.8,1.6-3.3,3.5-4.5,5.5c-0.5,0.7-0.2,2.8,0.4,3.1c3.3,1.8,4.2,5.4,6.3,8.1
			c1.4,1.7,1.2,3.1-0.9,4.3c-7.4,4.4-8.6,9.5-4.1,16.9c1.5,2.5,1.1,3.4-1.7,4c-5.9,1.3-6.3,2-5.5,8.1c0.5,3.5,0.7,7,0.6,10.5
			c0,0.8-1.6,2-2.7,2.4c-2.8,1-5.8,1.5-8.6,2.3c-1.9,0.6-2.3,1.9-1.7,3.9c1.3,4.4,2.2,8.9,3.2,13.4c0.4,2-0.5,3.2-2.7,3
			c-2-0.1-4-0.2-6-0.3c-3.6-0.2-4.6,1-4.8,4.5c-0.2,3.4-0.7,6.8-1.1,10.7c-4.2-1.6-8.1-1.8-11-5.2c-1.3-1.5-4.4-1.6-6.7-1.7
			c-0.8,0-2.1,2.1-2.3,3.4c-0.6,3-0.6,6.1-0.9,9.2c-0.1,1.3-0.2,2.5-0.4,4.9c-4-2.8-7.2-5.1-10.5-7.2c-1.2-0.7-3.1-1.5-4-1.1
			c-1,0.5-1.5,2.4-1.7,3.8c-0.3,2.4-0.3,4.8-0.3,7.3c-0.1,5.6-2.5,7.5-7.7,5.8c-7.7-2.6-11.3,0.7-13.3,7.9c-0.9,3.3-1.7,3.9-4.4,2.1
			c-2.4-1.7-4.5-3.9-6.9-5.7c-1.4-1-3.1-2-4.6-2c-0.8,0-1.8,2.2-2.3,3.6c-1.4,3.5-2.5,7-4.1,11.3c-1.5-1.4-2.7-2.3-3.6-3.3
			c-3.4-3.9-7.5-3.9-11.2-0.3c-2.9,2.8-5.9,5.5-8.9,8.3c-1.8,1.6-3.4,0.7-4.6-0.7c-2.1-2.5-4.2-5.1-6-7.8c-2-3-2.6-3.3-5.8-1.3
			c-2,1.3-4.1,2.5-6.2,3.7c-1.7,1-2.7,0.6-3.4-1.4c-1.2-3.5-2.7-6.8-4-10.2c-0.8-2.2-2.3-2.4-4.3-1.7c-4.4,1.4-8.8,2.8-13.3,4.1
			c-1,0.3-2.1,0.4-3.3,0.6c-1.8-4.8-3.5-9.4-5.1-13.9c-0.7-2.1-2-2.9-4.1-2.1c-1.7,0.6-3.4,1.1-5,1.8c-4.3,2-5,1.9-6.4-2.6
			c-1.3-4-2.4-8.1-3.5-12.1c-0.6-2-1.3-3.3-3.9-3c-5.3,0.5-8.9-2.7-11.9-6.5c-0.5-0.7,0.1-2.7,0.8-3.7c1.3-2.1,3.1-4.1,4.8-6.3
			c3.8,4.3,9.7,4.6,15.2,4.9c5.4,0.2,11-0.8,16.2-2.3c3.5-1.1,6.2-4.4,9.5-6.2c3.3-1.8,7-3,10.8-3.9c-1.9,2.1-3.6,4.3-5.6,6.2
			c-2.2,2-5,3.3-7,5.4c-1.7,1.8-5.7,0.2-6.3,4.3c11.8-0.2,17.7-9.2,25.8-14.9c2.1,1.6,4.3,3.3,6.4,5c4.7,3.7,10.5,3.9,15.9,5.4
			c2.9,0.8,5.8,1.3,8.8,1.7c2,0.3,4-0.1,4.2-2.6c0.3-2.8-2.3-3.2-3.9-2.8c-5.9,1.3-10.7-2.2-16-3.3c-4.9-1-8.1-4.1-11.2-7.6
			c-0.7-0.8-1.7-1.4-2.4-2.2c-0.5-0.6-0.8-1.3-1.2-1.9c0.8-0.2,1.6-0.6,2.3-0.5c5.2,0.7,10.5,1.9,15.7,2c4.7,0,9.6-0.7,14.1-2.1
			c6.3-1.8,12.5-4.3,18.6-6.9c4.9-2.2,9.7-4.8,14.3-7.6c1.7-1,4.2-3.7,3.8-4.6c-1-2.6-3.7-1.4-6-1.3c-4.2,0.2-8.4,0.1-12.5-0.6
			c-12.1-2.1-24.1-4.7-36.2-6.9c-2.2-0.4-4.6-0.1-7.4-0.1c1.9-6.3-4.8-5.4-7.1-8.4c-0.6-0.8-1.5-1.4-2.2-2.6
			c7.6-0.5,14.3-2.7,19.1-8c5.2,1.3,10.1,2.4,14.9,3.9c7.3,2.3,14.5,4.8,21.7,7.3c1,0.3,2.1,0.6,3.2,0.9c4.5,0.9,4.8,0.7,6.3-4.5
			c-14-4.2-27.9-8.5-42-12.7c0.6-3.6,2.3-4.7,8.4-3.4c9.8,2,19.2,4.9,28.3,9.2c2.6,1.2,5.9,0.9,8.8,1.2c0.9,0.1,1.7,0.2,2.6,0.2
			c4.2-0.1,8.3,0.4,12.3-1.8c1.9-1,4.4-0.9,6.7-1.4c0.1,0.3,0.2,0.7,0.4,1c-2.7,1.3-5.3,2.9-8.1,3.8c-4.7,1.5-9.5,2.7-14.3,3.8
			c-2,0.5-2.8,1.6-2.5,3.5c0.3,2.2,1.7,2.2,3.4,2c9.5-1,18.2-4.6,27-7.8c4.9-1.8,10.1-3.5,15,0.6c1.6,1.4,2.8,0.2,2.8-1.6
			c0-3.6-1.8-6.7-4.8-8.2c-8.4-4-17.1-5.1-26.3-1.9c-4.4,1.5-9.3,1.7-13.9,2.7c-1,0.2-1.9,0.8-3.1,1.4c-3.9-3.2-8.9-5.7-14.4-7.6
			c-8.3-2.9-16.7-4.2-25.3-5c-0.3,0-0.7-0.2-1-0.1c-10.6,1.5-21.3,2.6-31.7,4.9c-4,0.9-7.9,3.9-11.1,6.7c-5.3,4.6-10,10-16.5,13.1
			c-3.1,1.5-5.4,1.3-8.1-1.1c-7.5-6.9-16.4-10.2-26.6-9.9c-3.2,0.1-6.4,0.2-9.6,0.2c-2.4,0-3.8,0.4-2.8,3.6c0.4,1.4-0.9,3.7-2.1,5
			c-2.9,3.1-6.3,5.9-9.5,8.8c-0.4,0.4-1.2,0.5-2.6,1c-1.6-6-3.4-11.7-4.6-17.4c-3.2-14.8-2.3-29.7,0-44.6c0.2-1.6-0.5-3.8-1.7-5
			c-4.3-4.5-8.4-9-11.2-14.7c-1.4-2.7-3.6-5-5.2-7.7c-0.7-1.2-1.1-3.1-0.6-4.2c0.3-0.7,2.7-1.1,3.8-0.7c4.8,1.8,9.5,3.9,14.2,6.1
			c3.6,1.7,7,3.8,10.6,5.4c2.1,0.9,3.6-0.3,3.4-2.6c-0.2-2.3-1-4.6-1.1-6.9c-0.1-5.9-0.1-11.8,0.1-17.7c0.1-1.8-0.1-3-2-3.1
			c-1.7-0.1-3.5,0.3-5.2,0.4c-9,0.8-16.7,4.6-23.7,10.2c-0.8,0.7-1.9,1-3,1.6c-1.4-3.1,0.2-4.3,2-5.3c5.1-2.8,10.3-5.6,15.4-8.4
			c3.1-1.7,6-3.5,9.2-4.9c1.2-0.5,3-0.4,4.3-0.1c3.2,0.7,4.5-0.1,3.7-3.2c-0.7-2.6,0.5-3.7,2.1-5.3c3.8-3.7,7.6-7.5,10.8-11.7
			c5-6.7,11.8-10.9,19-14.5c3.9-2,7.8-4.3,11.9-5.6c10.2-3.2,20.7-5.5,31.3-6.7c1.9-0.2,3.9-1.2,5.5-2.3c2.7-1.9,4.8-2,6.5,0.1
			c4.8-1.9,9.2-4.5,14.5-1.6c1.1,0.6,2.8,0,4.2-0.2c3.5-0.7,6.9-3.6,10.2,0.8c0.7,0.9,3.4,0.3,5.2,0.4c7.8,0.5,15.7,0.6,23.4,1.5
			c6.4,0.8,12.9,2.3,19.1,4.2c6.7,2,13.2,4.8,19.8,7.4c1.4,0.6,2.5,1.8,3.8,2.6c2.4,1.3,4.7,2.9,7.3,3.7c5.4,1.6,9.3,5.1,13.1,9
			c4.3,4.5,9.1,8.6,13.6,13c1.9,1.9,3.5,4,5.4,6.1c-2.2,5.4,4.6,6.6,6.1,11c-3.1,2.5-4.9,4.7,0.2,7.9
			C514.2,239.2,516.1,243.1,518.6,246.3z M372.4,322.7c0.5-4.6,3.6-7.1,7.4-6.1C377.9,319.5,375.7,321.5,372.4,322.7z M252.6,240
			c5.3-5.1,11.4-6.2,18-6.9c0,4.3,0.1,8.6-0.1,12.7c0,0.5-1.9,1.6-2.6,1.3c-3.2-1.3-6.3-3-9.5-4.5
			C256.8,241.8,255.1,241.1,252.6,240z M791.1,626.6c6.1,6.4,12.3,12.7,18.3,19.2c6.4,6.9,12.7,14.1,19.1,21
			c6.2,6.7,12.5,13.4,18.7,20.1c5.9,6.4,11.7,12.9,17.6,19.4c9.9,10.9,19.9,21.7,29.8,32.5c8.2,8.9,16.2,18.1,24.8,26.7
			c6.4,6.4,5.2,14,5,21.7c-0.1,2.2-0.4,4.4-0.6,7.6c-2.4-2.2-4.4-3.8-6.1-5.6c-6.1-6.1-12.1-12.3-18-18.5
			c-5.1-5.4-10.1-11.1-15.1-16.6c-3.2-3.5-6.4-7.1-9.6-10.6c-8-8.9-16-17.7-23.9-26.6c-5.3-6-10.3-12.4-15.8-18.3
			c-7.7-8.4-15.8-16.5-23.6-24.9c-3.4-3.6-6.3-7.6-9.5-11.5c-1.5-1.8-3.1-3.7-4.8-5.4c-3.4-3.6-6.9-7.1-10.2-10.7
			c-3.3-3.7-6.3-7.6-9.6-11.3c-3.5-3.9-7.2-7.6-10.7-11.6c-1.7-1.9-2.9-4.3-4.5-6.3c-5.2-6.5-10.5-12.8-15.7-19.3
			c-0.5-0.6-0.9-1.4-1.5-2.4c1-0.1,1.6-0.4,2.2-0.2c4.8,1,9.7,2,14.5,3.2c1.4,0.4,3,1.1,4,2.1C774.4,608.9,782.7,617.8,791.1,626.6z
			 M614.5,677.7c-0.6,0.3-1.5,0-2.2,0c-3,0-6.6-0.9-9,0.4c-4.2,2.2-8,1.1-11.5-0.2c-6.7-2.4-12.6-0.2-18.7,1.7
			c-1.6,0.5-3.2,0.9-4.8,1.4c-5.2,1.5-9.1-1.6-12.8-4.1c-6.4-4.3-13.2-3.3-19.7-1.6c-5.1,1.3-9.8,2.2-14.4-0.7
			c-2.7-1.7-5.1-3.8-7.7-5.6c-1.1-0.8-2.2-1.6-3.4-1.9c-3.9-1.1-7.9-1.8-11.8-3c-3.4-1-6.8-2.3-10.2-3.6c-3.6-1.4-7.2-2.6-10.5-4.5
			c-2-1.1-3.6-3.2-5.2-5c-6.6-7.7-12.6-15.8-20.3-22.7c-4.1-3.6-6-9.6-8.9-14.5c-0.2-0.4-0.1-1.1-0.1-1.6c0.1-2.7,0.3-5.3,0.5-8
			c0-0.5,0.2-1,0.4-2.4c1.6,1.1,2.9,1.8,3.9,2.7c1.7,1.6,3,3.5,4.7,5.2c2.2,2.2,4.3,1.9,5.3-1c1-2.8,1.7-5.8,2.1-8.7
			c0.4-2.7,1.6-2.9,3.6-1.8c1.7,1,3.2,2.3,4.9,3.3c1,0.6,2.7,1.4,3.4,0.9c0.9-0.5,1.4-2.1,1.8-3.3c1.2-4,2.2-8.1,3.3-12.1
			c0.3-1.2,0.8-2.3,1.1-3.5c0.5-2,1.6-2.8,3.6-2.1c3.9,1.3,7.7,2.8,11.7,3.8c1.7,0.4,4,0.3,5.4-0.5c2.1-1.3,0.4-3-0.4-4.5
			c-1.9-3.5-0.2-6.9,0.5-10.3c0.1-0.4,1.1-0.7,1.6-0.7c0.9,0.1,1.7,0.4,2.5,0.8c1.9,0.9,3.7,3.7,5.7,1.6c1.1-1.2,0.8-4,0.8-6.1
			c-0.1-4.3-0.5-8.6-0.5-12.9c0-1.2,0.7-2.5,1.3-4.6c2,1.5,3.4,2.8,5,3.8c1.3,0.8,3.1,2,4.2,1.6c1.1-0.4,1.9-2.5,2.1-3.9
			c0.3-3.8,0.1-7.7,0.4-11.6c0.1-1.5,1.1-3,1.7-4.5c1.5,0.8,3,1.6,4.5,2.3c1.4,0.7,3.1,2,4.2,1.7c1.1-0.3,2.1-2.4,2.4-3.8
			c0.5-2.9,0.4-5.9,0.6-8.9c0.1-2.4,1.3-3.3,3.5-2.4c3.6,1.5,7.4,2.7,9.5,6.7c0.5,0.9,2.9,1.7,3.8,1.3c1-0.5,1.6-2.5,1.6-3.8
			c0-2.2-0.9-4.3-1.1-6.5c-0.2-1.6,0.5-3,2.5-2.5c3.1,0.7,6.3,1.4,9.2,2.5c2.6,0.9,4.5,0.2,4.4-2.6c0-1.8-0.6-3.7-1.1-5.5
			c-1.5-5.4-3.1-10.8-4.8-16.9c5.2,0,9.6-0.1,14.1,0c4.9,0.2,5.6-0.4,5.3-5.2c-0.4-4.7-0.7-9.5-1.1-14.2c-0.2-2.6,1-3.4,3.5-2.7
			c0.7,0.2,1.5,0.2,2.3,0.3c3.5,0.6,5-0.9,4.4-4.5c-0.6-3.7-1.3-7.4-1.9-11.1c-0.2-1.4,0-2.8,0-4.6c2.3,0,4.2-0.2,6.1,0
			c4.1,0.5,5.5-1.2,3.9-5c-1.6-3.8-3.4-7.5-5-11.2c-0.7-1.7-1.1-3.5-1.8-5.6c2.6-0.2,4.7-0.3,6.8-0.6c1.5-0.2,4.1-0.6,4.2-1.2
			c0.3-1.6-0.2-3.6-1-5.2c-1.9-4-4.2-7.7-6.1-11.7c-0.6-1.2-0.6-2.8-1.1-4.9c1.9,0.2,3.3,0.2,4.7,0.4c3.3,0.5,4.8-1,4-4.3
			c-0.9-3.4-2.1-6.8-2.7-10.3c-0.7-3.6-0.1-4,3.6-3.8c2.6,0.2,4.2-2.2,3.3-5c-1.7-5.7-3.2-11.5-5-17.2c-0.9-3,0.4-3.9,3-4
			c2-0.1,4-0.1,6,0.1c3.6,0.3,5.1-1.7,3.5-5.1c-1.7-3.6-3.8-7-5.7-10.5c-2.4-4.4-4.9-8.9-7.4-13.3c-1-1.7-0.3-2.7,1.4-2.7
			c2.5-0.1,5.1,0.3,7.6,0.1c1.4-0.1,3.3-0.6,3.8-1.5c0.6-1,0.1-3-0.6-4.2c-3-5-6.4-9.8-9.5-14.8c-0.7-1.2-1.1-2.6-1.7-3.9
			c0.2-0.3,0.5-0.6,0.7-0.9c5.5,3.1,11.3,5.7,16.4,9.4c8.9,6.4,15.7,15.1,21.1,24.5c4.4,7.8,7.1,16.5,10.3,25
			c1.7,4.6,3.4,9.5,3.8,14.4c0.7,8.1,0.4,16.3,0.3,24.5c-0.1,7.3-0.6,14.6-1,22c-0.1,2.6-0.4,5.3-0.8,7.9c-0.4,2.7,0.5,4,3.3,4.1
			c12.2,0.3,23.5,4.8,34.9,8.5c1.5,0.5,2.8,2.1,4,3.3c5.1,5.1,10,10.4,13.1,17.2c1.6,3.4,3.3,6.8,5.3,10c3.5,5.6,4.2,12,5.8,18.3
			c1.6,6.4,4.8,11.5,10.4,15.6c8.2,6.1,15.6,13.4,23.1,20.3c2.4,2.3,4.9,4.9,6.3,7.8c1,2.3,0.5,5.4,0.3,8.1
			c-0.1,1.3-0.9,2.5-1.4,3.8c0.3,0.3,0.6,0.6,0.9,0.9c1.8-1,3.8-1.8,5.4-3c1.9-1.6,3.2-0.8,4.1,0.7c3,5,6.4,9.9,8.5,15.3
			c2.1,5.4,3.6,11.3,3.9,17c0.4,7.4-4,11.5-11.8,11.1c-8.3-0.4-16.2-2-24-4.8c-1-0.4-2-0.7-3.4-1.2c2.7-3.7,2.6-7.5,1.7-11.4
			c-0.1-0.3-0.2-0.8-0.1-1c3.2-2.6,3.6-6.7,5.4-10.1c0.4-0.7,2.2-0.9,3.3-0.9c3.2-0.3,5-1.8,5.1-4.9c0.1-3.7,0-7.5,0-11.4
			c-5.3,0.1-7.7,5.7-4.8,10.8c-1.2,0.4-2.3,1-3.4,1.1c-5.2,0.8-5.8,1.3-7.1,6.2c-0.4,1.4-1.2,2.7-2.1,3.8c-2.1,2.6-3.1,5.2-2.2,8.6
			c1.4,5.3-2.2,8.9-7.5,7.3c-3.4-1-6.6-2.6-9.9-3.5c-2.7-0.8-5.6-1.4-8.3-1.2c-1.4,0.1-2.6,2-4,2.9c-3.7,2.2-7.7,4-11.2,6.5
			c-7.9,5.9-15.9,11.7-23.2,18.3c-6,5.4-10.5,12.2-12,20.5c-0.8,4.6-2.1,9.2-2.4,13.9c-0.3,4.3,0.4,8.7,0.9,13
			c0.2,1.8,0.5,3.2-2,2.9c-3.9-0.4-6.3,1.9-7.8,4.9c-2.8,5.3-3.3,5.8-9.2,5.4c-4.1-0.3-6.9,2.1-8.8,5.1c-1.9,3.2-4.4,3.5-7.3,2.9
			C622.3,676.3,618.4,676,614.5,677.7z M692.6,735.8c-1.5,2.1-3.4,2.1-5.3,1.2c-5.5-2.5-11-5-16.2-8c-4.3-2.5-8.3-5.4-12.1-8.6
			c-5.9-4.8-11.5-10-17.2-14.9c-4.1-3.6-8.3-7.2-12.5-10.7c-2.9-2.5-5.9-5-8.8-7.6c-1.5-1.3-2.5-2.8-1.5-5c1.1-2.4,3-1.5,4.6-1.1
			c6.3,1.7,11.4,0.8,15-5.3c0.6-1.1,2.9-2,4.2-1.8c6.3,1,8.8-3.5,12.2-7.3c1.4-1.5,3.8-2.1,5.7-3.2c3.1-1.8,3.8,0.7,5.3,2.5
			c2.8,3.4,6.1,6.5,8.9,9.8c3.5,4.2,6.8,8.6,10.2,13c0.1,0.2,0.2,0.4,0.3,0.6c5.8,5.4,7.3,13.1,10.3,20c1.6,3.6,1.6,7.9,2.3,11.9
			C697.8,726.9,695.8,731.5,692.6,735.8z M908.5,856.5c1,1.2,0.7,3.4,1,5.1c-1.2,0.1-2.4,0.5-3.6,0.4c-4.1-0.5-8.1-1-12.1-1.8
			c-5.6-1.1-11.2-2.2-16.8-3.6c-4.7-1.1-9.4-2.8-14.1-3.6c-3.1-0.6-4.7-2.1-5.4-4.9c-0.5-1.9-1.2-3.3-3.5-3.2
			c-0.5,0-1.3-0.5-1.7-0.9c-7.1-7.4-14.2-14.8-21.2-22.3c-8.2-8.9-16.4-17.7-24.4-26.8c-9.5-10.8-18.7-21.8-28.1-32.7
			c-6.9-8-14-16-21.1-23.9c-0.7-0.8-2.1-0.9-3.2-1.4c0.5,1.1,0.7,2.3,1.5,3.2c5.2,6.1,10.4,12.2,15.6,18.3
			c4.6,5.3,9.2,10.7,13.7,16.1c8.4,10,16.6,20.1,25,30.1c4.2,5,8.4,9.8,12.6,14.8c1.4,1.6,2.5,3.3,3.9,4.9
			c4.5,5.3,9.3,10.3,13.3,15.8c4.2,5.8,10.2,10.4,12.4,17.4c1.6,5,2.5,10.1,3.7,15.2c-0.4,0.2-0.9,0.4-1.3,0.5
			c-1.9-1.5-3.9-2.9-5.6-4.6c-7.7-7.9-15.4-15.8-22.9-24c-8.1-8.8-15.8-17.8-23.7-26.7c-8.3-9.3-16.5-18.6-24.8-27.9
			c-5.2-5.8-10.5-11.6-15.8-17.3c-1-1.1-2.3-2-4.3-2.7c0.7,1.7,1.2,3.6,2.3,4.9c7.5,8.6,15.2,17,22.8,25.5
			c11.7,13.2,23.3,26.6,35,39.9c11.6,13.2,23.2,26.4,34.9,39.6c2.5,2.8,5,5.5,7.5,8.2c-0.1,0.4-0.3,0.8-0.4,1.1
			c-1.8,0.1-3.5,0.4-5.3,0.4c-4.5,0.1-9.1,0.2-13.6,0.1c-1.1,0-2.4-0.7-3.2-1.5c-5.6-5.4-11.3-10.8-16.6-16.6
			c-7.2-8-14-16.4-21.1-24.4c-6.9-7.8-14.2-15.3-21.2-23.1c-3.2-3.6-6.1-7.5-9.2-11.2c-1.4-1.7-3.1-3.1-4.6-4.6
			c-4.7-5.1-9.5-10.2-14.1-15.4c-3.1-3.5-5.9-7.3-9-10.9c-3.7-4.4-7.5-8.7-11.2-13c-5.9-7-11.9-13.9-17.7-20.9
			c-3.7-4.4-7.2-8.9-10.7-13.3c-0.4-0.5-0.6-1.2-0.6-1.7c0.4-5.7,0.9-11.5,1.3-17.2c0-0.5,0.2-1.1,0.3-1.6c0-0.1,0.3-0.2,0.2-0.1
			c17.5,18.6,34.9,37.2,52.4,55.7c0.3-0.2,0.6-0.4,1-0.6c-0.8-1.6-1.4-3.4-2.6-4.8c-2.1-2.4-4.7-4.4-6.8-6.9
			c-10.3-12.3-20.5-24.7-30.7-37.1c-3.3-4-6.6-7.9-10-11.9c-0.1-0.2-0.3-0.5-0.4-0.5c-4.8,0.6-5.4-4.2-7.9-6.5
			c-2-1.9-2.5-5.3-4.1-7.7c-4.9-7.2-10-14.3-15.2-21.2c-3.5-4.7-7.9-8.7-11.1-13.6c-3.8-5.6-2.9-12.3-2.5-18.7
			c0.1-1.6,1.3-2.9,2.9-1c3.7,4.1,7.3,8.4,11,12.5c1.4,1.6,2.8,3.1,4.2,4.7c4.2,5.1,8.2,10.3,12.6,15.3c2.6,2.9,5.9,5.2,8.4,8.2
			c8.1,9.6,15.9,19.4,23.9,29c6.2,7.4,12.7,14.5,19,21.7c1.3,1.5,2.6,3.1,4,4.4c0.5,0.4,1.5,0.3,2.2,0.5c-0.1-0.7-0.1-1.6-0.5-2
			c-4.2-5-8.4-9.9-12.6-14.9c-3.9-4.7-7.7-9.6-11.7-14.3c-3.6-4.3-7.4-8.5-11-12.8c-3.4-3.9-6.7-7.9-10-11.9
			c-5.6-6.6-11.2-13.2-16.7-20c-6.1-7.5-12-15.2-18.1-22.7c-1.6-1.9-3.7-3.4-6.2-5.7c0.8-4.5,3.3-9.4,6.5-13.9
			c1.6-2.4,3.5-4.5,5.4-6.7c1.3-1.5,2.4-1.7,4,0.1c5.3,5.7,11.1,11,16.4,16.7c8.4,9.1,16.5,18.4,24.8,27.5
			c5.8,6.4,11.9,12.4,17.6,18.8c8.6,9.6,16.9,19.4,25.6,28.9c5.3,5.8,11,11.1,16.5,16.7c2.3,2.4,4.4,5,6.6,7.5
			c5.4,6.1,10.8,12.3,16.2,18.4c5.2,5.9,10.5,11.9,15.8,17.7c8.5,9.4,17.1,18.7,25.7,28.1c5.6,6.2,11,12.5,16.7,18.6
			c6,6.4,12.3,12.6,18.3,19.1c6,6.5,11.8,13.2,17.8,19.7C903.2,851.3,906.2,853.7,908.5,856.5z M921.8,808.1
			c-6.1,2.4-12.2,4.6-18.2,6.9c-3,1.1-4.8-0.5-6.9-2.6c-7.1-7.4-14.5-14.6-21.7-21.8c-0.4-0.4-0.9-0.7-1.3-1.1
			c-9.8-10.7-19.4-21.4-29.3-32c-6.4-6.9-13.2-13.4-19.6-20.3c-4.8-5.2-9.3-10.7-14-16c-8.5-9.4-17-18.8-25.6-28.2
			c-0.6-0.6-1.2-1.1-1.9-1.7c-0.3,0.2-0.7,0.3-1.1,0.5c0.6,1.4,0.8,3.1,1.8,4.2c4.2,4.8,8.7,9.4,12.9,14.1
			c5.8,6.5,11.4,13.2,17.2,19.7c3.4,3.8,7.2,7.5,10.7,11.3c6.6,7.2,13.3,14.5,19.8,21.8c8.3,9.3,16.3,18.9,24.6,28.2
			c5.2,5.8,10.9,11.3,16.2,17.1c3,3.2,5.6,6.7,8.4,10.1c0.4,0.5,0.6,1.2,0.7,1.8c1.3,5.8,2.7,11.6,4,17.4c-0.1,0.2-0.3,0.3-0.4,0.5
			c-7.3-7.9-14.6-15.8-21.9-23.8c-6-6.5-11.9-13.1-17.8-19.6c-3.4-3.7-6.7-7.6-10.2-11.2c-4.6-4.7-9.4-9-13.9-13.7
			c-3.9-4-7.4-8.2-11.2-12.2c-5-5.4-10.2-10.6-15.3-16c-5.5-5.7-11.1-11.4-16.4-17.3c-7.2-7.8-14.1-15.8-21.2-23.7
			c-5.4-6-10.9-11.9-16.3-18c-3.4-3.8-6.5-7.8-9.8-11.6c-1.7-2-3.6-3.9-5.4-5.8c-6-6.4-12.2-12.7-18.1-19.2
			c-7.9-8.7-15.5-17.7-23.2-26.6c-3.5-4-6.8-8.2-10.3-12.1c-1.5-1.7-1.1-2.7,0.4-4.1c1.9-1.7,3.3-3.8,5.3-5.3
			c0.7-0.5,2.9-0.2,3.6,0.5c4.2,4.7,8,9.7,12.3,14.3c3.4,3.7,7.4,6.8,10.9,10.3c1.1,1.1,1.4,3,2.4,4.2c5.8,6.6,11.7,13.2,17.7,19.7
			c10.6,11.8,21.3,23.6,32,35.2c2.8,3,6,5.6,9.1,8.3c0.2,0.2,0.8,0,2.1-0.1c-6.4-7.4-12.4-14.3-18.3-21.2c-2.8-3.3-5.7-6.5-8.5-9.7
			c-6.7-7.5-13.4-14.8-20-22.4c-4.9-5.6-9.5-11.4-14.3-17c-4.9-5.7-9.8-11.5-14.7-17.1c-1.9-2.2-4.1-4.2-6-6.6
			c-0.5-0.6-0.2-2.6,0.2-2.8c7.9-4.2,16-7.6,25.2-3.8c0.8,0.3,1.7,0.9,2.5,0.9c4.6-0.2,6.7,3.2,9.4,6.1c8.5,9.3,17.2,18.4,25.8,27.7
			c6,6.5,11.9,13.1,17.8,19.7c8.3,9.3,16.7,18.6,25,27.9c7.5,8.4,14.8,16.9,22.2,25.4c6.1,7,12.3,13.9,18.4,20.9
			c4.1,4.7,8.2,9.4,12.5,14c7.9,8.6,16,17,23.8,25.7c6.2,6.9,12.2,14.1,18.3,21.1c2,2.2,4.1,4.3,6.1,6.6c4.5,5,9,10.1,13.5,15.1
			c0.4,0.5,0.9,1,1.3,1.5c0.9,1.1,1.7,2.3,2.5,3.5C924.2,806.6,923.1,807.6,921.8,808.1z"/>
		<path d="M188.5,493.9c0,0,0-0.1,0-0.1C188.5,493.8,188.5,493.8,188.5,493.9L188.5,493.9z"/>
		<path d="M414.8,543.3c1.8,8,8.2,12.2,15.2,15.6c3.9,1.9,7.8,4,11.6,6.2c5.4,3.1,8.9,2.8,13.4-1.3c1.8-1.6,3.7-2.4,5.9-0.5
			c0.8,0.7,1.9,1.2,2.8,1.7c4.8,2.7,11.3,1.2,13.8-3.7c1.2-2.3,1.3-5.4,1.3-8.1c-0.1-5.8,1.7-10.5,5.4-14.9c1.6-1.8,3-4.3,3.3-6.6
			c0.2-1.6-1.5-3.5-2.3-5.3c-1.1,1.2-2.5,2.2-3.1,3.6c-2.4,5.1-5.7,6.7-10.9,4.7c-1.4-0.6-2.7-1.6-4.1-2.2c-2.8-1.2-5.5-2.9-8.4-3.4
			c-4.5-0.8-9.1-0.8-13.9-1.1c0.7-0.8,1.3-1.5,2.5-2.9c-2.6-1.5-4.7-3.2-7.2-4c-5-1.6-10.1-2.9-15.2-4c-2.2-0.5-2.7-1.4-3-3.5
			c-0.6-4.4-1.6-8.8-2.8-13.2c-0.2-0.7-1.8-1.1-2.8-1.6c-0.3,0.9-1,2-0.9,2.8c0.3,2.1,1.7,4.1,1.5,6.1c-0.5,7.7-1.6,15.3-2.2,22.9
			C414.6,534.8,413.9,539.3,414.8,543.3z M421.9,524.2c0.2-0.8,1.5-2,2.1-1.9c3.4,0.6,7.4,0.7,9.9,2.7c6.8,5.2,13.7,9.3,22.6,10.4
			c5.4,0.7,10.5,3.7,15.7,5.7c0.5,0.2,1.1,1,1.1,1.5c-0.3,4.6-0.6,9.3-1.2,13.9c-0.5,3.7-3,4.7-6.2,2.8c-0.5-0.3-0.9-0.6-1.4-0.9
			c-5.5-3.8-8.6-3.3-13.5,1.2c-1.1,1.1-3.7,1.9-4.9,1.4c-7.1-3.5-14-7.4-20.8-11.4c-4.4-2.6-5.5-7-5.6-11.8
			C420.5,533.1,421.1,528.6,421.9,524.2z"/>
		<path d="M183.5,495.6c-4.9,4.9-9.7,10-14.6,14.9c-8,7.9-16.1,15.7-24,23.7c-3,3-5.6,6.5-8.6,9.6c-5,5.1-10.1,10.1-15.2,15.2
			c-4.6,4.6-9,9.5-13.7,14c-5.8,5.7-11.8,11.2-17.6,16.9c-4.1,4-7.8,8.4-12.1,12.1c-4.6,3.9-5.9,6.5-4.3,12.3
			c0.4,1.4,0.7,2.8,1.1,4.1c0.4,1.2,1.2,3.4,1.5,3.3c2.1-0.3,4.6-0.5,5.9-1.9c3.1-3.2,5.3-7.3,8.3-10.5c7.1-7.4,14.5-14.5,21.7-21.7
			c2-2,4.3-3.9,6.2-5.9c6.6-6.9,13.2-13.7,19.6-20.7c3.4-3.7,6.6-7.6,9.7-11.6c0.3-0.4-0.1-1.4-0.3-2.8c-4.5,4.1-8.6,7.4-12.2,11.2
			c-8.9,9.3-18.9,17.5-26.5,28.1c-3.5,4.8-8.7,8.2-13.1,12.4c-3.3,3.1-6.4,6.3-9.6,9.4c-2.2,2.1-4.5,3.9-6.9,6.1
			c-1.6-4.6-0.9-6.1,2.6-8c1.4-0.8,2.8-1.9,3.9-3c9.1-9.6,18-19.4,27.2-29c7.8-8.1,15.8-15.9,23.7-23.9c7.3-7.5,14.5-15,21.7-22.6
			c6.1-6.4,12.4-12.7,18.4-19.2c4.2-4.6,8.2-9.5,12.2-14.2C186.1,492.5,184.8,494.3,183.5,495.6z"/>
		<path d="M188.5,493.9C188.5,493.9,188.5,493.9,188.5,493.9C188.5,493.9,188.4,493.9,188.5,493.9
			C188.5,493.9,188.5,493.9,188.5,493.9z"/>
		<path d="M203.8,489.2c-3.1,3.4-5.9,7.1-8.9,10.6c-0.3,0.3-0.6,0.6-1,0.8c-4.4,2.1-7,6.3-10.5,9.3c-4.7,4-8.1,9.3-12.5,13.6
			c-3.4,3.3-7.4,6.1-11.1,9.1c0.3,0.8,0.7,1.8,1.3,3.5c-1.3-0.8-1.8-1.1-2.2-1.4c-1.4,1.5-2.6,2.9-3.9,4.2c-1.4,1.4-3.1,2.6-4.2,4.1
			c-0.9,1.3-1.1,3-1.7,4.6c0.3,0.1,0.6,0.2,0.9,0.3c1.4-1.5,2.8-3.1,4.3-4.5c4.9-4.7,9.8-9.4,14.7-14.2c2.4-2.4,4.2-5.2,6.8-7.6
			c9.8-9,19-18.8,28.3-28.3c1.7-1.7,2.8-3.9,4.2-5.8c-0.2-0.2-0.5-0.4-0.7-0.6C206.4,487.7,204.7,488.1,203.8,489.2z"/>
		<path d="M136.7,489.3c-6.9,7.1-13.8,14.3-20.6,21.6c-0.7,0.7-0.8,1.9-1.3,3.3c-2-0.4-3.2,1.1-4.2,3.2c-0.4,0.9-1.4,1.4-2.2,2.1
			c-1,0.8-2.1,1.4-3.8,2.5c2.3,0.4,4.3,1.4,5.2,0.8c2.6-1.7,4.8-4.1,7-6.3c3.6-3.5,7.1-7.2,10.7-10.8c2-2,4.3-3.8,6.2-5.9
			c3-3.3,5.7-6.9,8.5-10.3c-0.7-0.8-1.4-1.5-2.3-2.5C138.8,487.8,137.6,488.4,136.7,489.3z"/>
		<path d="M142.2,489.6C142.2,489.6,142.2,489.6,142.2,489.6C142.3,489.6,142.3,489.6,142.2,489.6
			C142.3,489.7,142.3,489.7,142.2,489.6C142.3,489.6,142.3,489.6,142.2,489.6C142.3,489.6,142.3,489.6,142.2,489.6L142.2,489.6z"/>
		<path d="M245.2,448.4c0.1,0,0.2-0.1,0.3-0.1c0.1-0.1,0.1-0.2,0.2-0.3c-0.1,0.1-0.3,0.1-0.4,0.2
			C245.2,448.3,245.2,448.4,245.2,448.4z"/>
		<path d="M243.5,450.8c-4.1,3.3-8.4,6.4-12.4,10c-3.7,3.3-6.8,7.1-10.3,10.6c-1.9,1.8-4.2,3.2-6,5.1c-2.7,3-5.7,5.9-4.8,11.1
			c5.7-5.2,10.8-10.9,16.1-16.5c5.7-6.2,11.7-12.1,17.4-18.4c1-1.1,1.2-2.8,1.7-4.3c-0.4,0.2-0.7,0.3-0.9,0.6
			C243.9,449.6,244,450.5,243.5,450.8z"/>
		<path d="M347.5,367.1c0.8-0.3,1.8-2.3,1.5-2.8c-0.6-0.9-2.2-2.1-3.1-1.9c-3.4,0.7-6.8,1.8-10,3.1c-0.7,0.3-1.7,1.8-1.5,2.4
			c0.3,1,1.5,1.8,2.3,2.7C340.7,369.4,344.2,368.5,347.5,367.1z"/>
		<path d="M332.4,376.2c-2.2,0.6-4.6,0.7-6.7,1.4c-1,0.3-2.2,1.7-2.2,2.5c0,0.9,1.2,2,2.2,2.7c0.5,0.4,1.5,0.1,3.2,0.1
			c1.2-0.1,3.4,0,5.3-0.8c1.4-0.6,3.4-2.7,3.1-3.4C336.6,376.9,334.9,375.5,332.4,376.2z"/>
		<path d="M105.5,524.8c-6.9,2.5-7.2,2.8-5,6.1c2-1.7,4-3.5,5.9-5.2C106.1,525.4,105.8,525.1,105.5,524.8z"/>
		<path d="M440.5,213.6c-9.2-2.8-18.7-4.6-28.4-4c-7.5,0.5-15.3,0.3-22.2,4.4c-4.3,2.6-9,4.5-13.4,7.1c-4.4,2.6-9,5.3-12.7,8.8
			c-7.2,6.9-7.4,17.1-11,25.6c-0.1,0.2-0.2,0.5-0.1,0.7c0.5,0.9,0.9,2.1,1.6,2.5c0.5,0.3,1.9-0.3,2.5-0.9c4.1-4.6,8.3-8.9,13.9-12
			c7.4-4.1,14-9.3,22.8-10.9c7.6-1.4,14.7,1.6,17.5,8.7c1.4,3.5,2.9,6.9,4.5,10.4c0.9,1.9,1.9,3.7,2.9,5.7c0,0,0.6-0.2,1.3-0.5
			c0.3,1.2,0.5,2.2,0.7,3.1c-0.4,0-0.7,0-1.1,0c-0.5,0.7-1.3,1.3-1.4,2c-0.4,4-0.5,8.1-1.1,12.1c-0.3,2.1-0.4,3.6,1.9,4.6
			c2.2,0.9,4.1,0.7,5-1.5c0.8-2,1.5-4.2,1.5-6.3c0-11.6,1.2-22.8,6.5-33.4c3.3-6.5,6.2-13.2,11.1-18.8
			C446.5,216.5,444.4,214.8,440.5,213.6z M420.7,250.6c-0.6-1.7-1-2.8-1.3-4c-0.4-1.6-0.2-3.6-1.1-4.9c-2.4-3.5-4.9-7.3-8.1-10
			c-2.8-2.4-6.6-4.2-10.2-4.8c-3.1-0.5-6.7,0.5-9.7,1.8c-5.5,2.3-10.7,5.2-15.9,8c-3.7,2-7.1,4.4-11.4,7.1
			c-0.2-5.2,2.2-8.4,4.7-10.8c2.9-2.8,6.6-5.1,10.3-6.8c9.8-4.4,19.7-8.2,30.4-10.1c6.1-1.1,11.9-0.7,17.8,0.6c3,0.6,6,1.3,8.9,1.9
			C430.3,229.1,425.7,239.5,420.7,250.6z"/>
		<path d="M353.5,213.2c-3.3,5.3-6.6,10.4-9.7,15.6c-1,1.6-1.7,3.3-2.5,5c-4,8.7-7.9,17.4-10.2,26.8c-0.9,3.6-2.7,6.9-3.7,10.5
			c-1,3.6-1,7.5-2.3,11c-3.7,10.6-0.1,20.8,1.7,31c0.1,0.8,2.3,1.9,3.2,1.6c0.9-0.2,1.7-1.9,1.9-3.1c0.2-0.8-0.5-1.9-0.8-2.8
			c-3.5-8.2-3.9-16.8-1.9-25.3c1.7-7.2,4.3-14.2,6.3-21.3c3.6-13.1,9.2-25.3,16.2-36.9c2.1-3.4,3.8-7.1,5.7-10.8
			C355.8,214,354.9,213.7,353.5,213.2z"/>
		<path d="M312.1,280.1c0.2-3-0.1-6.2,0.4-9.2c0.4-2.4,1.8-4.6,2.5-7c2.8-10.4,5.6-20.9,10.6-30.6c2.4-4.7,4.6-9.5,6.7-14.3
			c0.3-0.8-0.2-2-0.4-3c-1.1,0.3-2.6,0.3-3.1,1c-2.5,4.2-5.1,8.5-7.1,13c-1.6,3.8-2.3,7.9-3.6,11.8c-0.6,1.9-1.6,3.6-2.3,5.5
			c-1.3,3.6-2.8,7.1-3.7,10.8c-1.1,4.4-1.7,8.9-2.5,13.4c-1.3,7.3-4.1,14.6-0.1,22c0.2,0.3,0.3,0.6,0.3,0.9c0,3.3,0,6.7,0,11.5
			c0.4,1.8,1.1,5.2,2.1,8.5c0.3,0.8,1.7,1.6,2.6,1.7c0.6,0.1,1.8-1.1,1.9-1.9c0.2-1.3,0-2.8-0.4-4.1c-1.6-5.5-4.4-10.6-4.3-16.6
			c0-2.1-0.8-4.2-1.1-6.3c-0.1-1,0.1-2.1,0.3-3.2C311.4,282.8,312,281.4,312.1,280.1z"/>
		<path d="M390,361c2.2,0.7,4.6,0.8,7.7,1.3c0.4-0.6,1.8-1.7,1.6-2.4c-0.4-1.3-1.5-3-2.7-3.4c-1.8-0.6-4-0.5-5.9-0.3
			c-1,0.1-2,1.3-2.9,2C388.5,359.2,389.1,360.7,390,361z"/>
		<path d="M387.3,354c0.3-0.8-0.3-2.7-0.9-2.9c-2.2-0.9-4.6-1.5-6.9-1.6c-0.7,0-2,2-2,3.1c0,0.8,1.5,2,2.5,2.4
			c1.4,0.5,3,0.5,5.3,0.8C385.7,355.4,387,354.8,387.3,354z"/>
	</g>
</g>
</svg>
