<?xml version="1.0" encoding="utf-8"?>
<!-- Generator: Adobe Illustrator 18.1.0, SVG Export Plug-In . SVG Version: 6.00 Build 0)  -->
<svg version="1.1" xmlns="http://www.w3.org/2000/svg" xmlns:xlink="http://www.w3.org/1999/xlink" x="0px" y="0px"
	 viewBox="0 0 1000 1000" style="enable-background:new 0 0 1000 1000;" xml:space="preserve">
<style type="text/css">
	.st0{fill:none;stroke:#ED1C24;stroke-miterlimit:10;}
</style>
<g id="Guides">
</g>
<g id="Metrics">
	<line class="st0" x1="0" y1="900" x2="1000" y2="900"/>
	<line class="st0" x1="0" y1="100" x2="1000" y2="100"/>
</g>
<g id="Art">
	<g>
		<path d="M949.3,399.2c-0.2-3.2,0.2-6.6-0.8-9.5c-5-14.3-8.6-29.3-18.3-41.6c-0.9-1.1-1.3-2.6-1.9-4c1.5-0.6,2.6-1.1,3.7-1.5
			c0-0.3,0.1-0.7,0.1-1c-4.5-1.7-9-3.5-13.6-5.1c-3.6-1.2-7.1-2.5-10.8-3.3c-11.7-2.5-23.5-4.5-35.2-7.1c-6.3-1.4-12.4-3.8-18.7-5.2
			c-4.5-1-9.1-1.3-13.7-1.6c-1.2-0.1-2.4,1.1-3.6,1.6c0.3-0.5,0.7-0.9,1-1.4c-1.3-0.1-2.6-0.3-3.8-0.4c-4.2-0.3-8.4-0.3-12.6-0.8
			c-8.2-1-16.7-1.4-24.5-3.7c-9.5-2.7-19.1-2.7-28.6-4.4c-6.5-1.2-13.1-0.7-19.6-2.4c-12.2-3.1-24.7-5-37.2-6.9
			c-10.8-1.7-21.4-3.8-31.9-6.8c-9.9-2.8-19.7-6-29.6-8.9c-1.7-0.5-3.4-1.3-5.1-1.2c-2.2,0.2-2.4-0.7-2.9-2.5
			c-2.2-9.1-3.9-18.3-7-27.1c-3.6-10.3-9.5-19.5-17-27.6c-5.9-6.4-10.5-14.2-16.8-20.1c-9.6-8.9-12.1-20.4-12.8-32.3
			c-0.6-10.1,1.4-20.3,2-30.4c0.4-7.5,0.6-15.1-2.2-22.3c-2.8-7.1-6.7-9.1-13.9-6.6c-8.5,3-15.5,8.3-22,14.3
			c-8.2,7.6-16.8,14.7-27.3,18.8c-6.5,2.5-13.4,4.1-20,6.2c-4.8,1.5-9.5,3.4-14.4,4.6c-7.7,1.9-15.6,1.4-23.4,0.7
			c-9.7-1-19.4-2.9-29.2-3.7c-6-0.5-12.2,0.1-18.2,1c-5.2,0.7-7.2,4.3-6,9.6c0.3,1.3,0.4,2.6,0.9,3.7c2,5.1,4.1,10.1,9.8,12.5
			c5.8,2.5,11.5,5.5,16.9,8.8c7.4,4.6,9.7,10.2,7.8,18.6c-1.1,4.8-3.1,9.4-4.8,14.1c-0.9,2.6-1.9,5.2-3.1,7.8
			c-0.7,1.6-2,2.9-2.6,4.6c-2.2,6.4-0.2,12.6,2.3,18.3c2.5,5.7,6.3,10.8,9.3,16.3c1.6,2.9,1,3.9-2.3,4.1c-0.9,0.1-1.8,0-2.7-0.1
			c-7.1-0.4-14.2-0.7-21.3-1.1c-5.5-0.2-11-0.2-16.5-0.6c-9.2-0.7-18.5-1.8-27.7-2.6c-7-0.6-14-1.3-21-1c-8.6,0.3-17.3-0.2-25.7,3.7
			c-8.4,3.9-11.5,10.2-11.9,18.3c-0.5,10-0.1,20.1,0.2,30.2c0.1,2.8,1.9,5.7,1.7,8.4c-0.5,8.4-1.7,16.8-2.3,25.2c-0.3,4,0,8,0,12
			c-0.1,3.4-0.2,6.8-3.7,7.4c-0.2,1.5-0.3,2.4-0.4,3.2c-0.1,1.7-0.9,3.9-0.2,5.1c1.8,3,1.1,5.9,0.4,8.7c-1.1,4.3-2.7,8.5-3.7,12.9
			c-2.8,11.4-5.6,22.9-8.2,34.4c-1.1,4.8-2.4,9.7-2.6,14.6c-0.2,5.2-3.7,9.6-2.6,15.2c0.4,2,0.3,6.7-5.6,5.3c3,3,3.8,5.6,1.1,8.5
			c-0.5-1.8-0.9-3.2-1.3-4.6c-0.6,1.1-0.3,2.1-0.4,3c-0.5,5.1,0.1,10.8-2.1,15.2c-1.6,3.2-3.3,6.5-4.6,9.9c-2,5.1-3.6,10.4-6,15.3
			c-5.7,11.9-11.9,23.7-17.7,35.6c-1.2,2.5-2.8,5.5-0.7,7.9c-1.2,1-2.5,1.8-3.2,2.9c-4,6.8-8.3,13.4-11.5,20.5
			c-3.2,7.2-5.9,14.5-11.4,20.4c-1.7,1.9-1.3,3.5,0.3,5.4c4.8-6.2,9.4-12.2,14.1-18.3c8.7,5.8,17.2,10.7,28.6,10
			c-1.1,1.8-1.6,3.3-2.6,4.3c-7.1,6.5-16.6,9.9-22.6,17.8c-3.1,4.1-7.6,7.2-10.8,11.3c-7.1,9.1-6.9,21.7,4.5,28.7
			c6.1,3.7,11.6,7.9,18.5,10.4c6.8,2.5,13.1,2.9,19.2-0.2c11.2-5.7,19.7-14.8,27.3-24.6c3.8-5,7.3-10.2,11.2-15.1
			c1-1.3,3.1-2.3,4.8-2.4c6.8-0.4,13.6-0.3,20.4-0.5c2.6-0.1,5.2-0.3,7-0.4c0.9,3.2,1.3,5.8,2.4,8.2c3.6,8.2,7.9,16.1,15.9,21.1
			c4.7,2.9,10.1,4,14.9,6.8c4.1,2.4,9.4,3.5,14.3,3.8c8.1,0.5,16.3-0.1,24.4-0.3c2.1-0.1,4.5-0.2,6.4-1.1c5.2-2.5,10.4-5,15.1-8.2
			c9.3-6.4,19.1-12.3,25.3-22.2c3.2-5,7.8-10,8.6-15.5c1.4-9,2.1-18.7-3.7-27.2c-0.6-0.8-0.6-2.6-0.1-3.4c1.4-2.1,2.9-4.3,4.9-5.9
			c6.5-5.4,13.1-10.6,19.8-15.6c8.9-6.8,18.8-10.5,30.3-9.1c6.4,0.7,13,0.8,19.5,0.6c5.9-0.2,11.4-1.8,16.2-5.9
			c4.9-4.2,10.3-7.6,15.6-11.2c7.6-5.2,16.5-4.9,24.4-2.6c8.4,2.5,14.3-1,20.6-4.5c4.2-2.3,11.4-2.9,14.5-0.3
			c3.2,2.6,6.2,5.9,9.9,7.4c6.7,2.7,13.7,6.1,21.2,1.4c1.4-0.8,3.4-0.5,5.2-0.7c1.5-0.2,3.3,0.3,4.3-0.5c4.2-2.9,8-6.7,12.4-9.3
			c5.1-3,4.8-7.6,5-12.3c0.1-1.5-0.5-3-0.7-4.6c-0.5-3.7,0.5-6.6,4.4-7.9c0.9-0.3,1.9-1,2.3-1.8c1.3-2.8,2.7-5.6,3.3-8.5
			c0.9-4.2,0.5-8.7,1.7-12.8c4.5-15,0.7-29.1-3.6-43.3c-2.2-7.4-4.2-14.9-2.6-22.7c2.8-13.9,0.8-26.8-6.1-39.2
			c-4.3-7.6-7.6-15.9-11.3-23.8c-1.1-2.4-0.6-4.3,2.2-4.3c3.4-0.1,6.9-0.2,10.1,0.8c7.2,2.1,14.1,5.3,21.3,7.3
			c6.8,1.9,13.9,2.7,20.8,4.4c6.2,1.5,12.5,3,18.2,5.7c9.8,4.7,20,7.5,30.6,9.6c2.2,0.4,4.2,1.6,6.3,2.4c-0.1,0.4-0.1,0.8-0.2,1.2
			c-2.9,0.8-5.9,1.4-8.7,2.5c-7.5,3.1-15.1,6.1-22.2,9.9c-3.4,1.8-5.6,5.8-8.9,8.1c-6,4.2-9,10.2-11.5,16.7
			c-1.9,4.8-4.4,9.5-6.1,14.4c-2.9,8.2-1,16.5-0.3,24.8c1.1,12,8.3,20.8,16.2,29.2c7.5,8,16.7,12.9,27.5,14.9
			c7.7,1.4,15.3,3,23.7,4.7c-6.3,7.1-11.7,14.4-18.3,20.2c-10.6,9.2-22.1,17.4-33.2,26.1c-3.2,2.5-6.2,5.3-9.4,7.8
			c-6.5,5.2-13.3,10.1-19.7,15.4c-4.6,3.8-8.6,8.2-13.3,11.8c-6.9,5.3-14.1,10.2-21.2,15.1c-9.9,6.8-19.6,13.8-29.7,20.2
			c-5.1,3.2-10.8,5.4-16.7,8.3c-0.3-1.9-0.4-3-0.6-4.1c-1-5.1-1.7-10.3-3.2-15.2c-1.6-5-3.6-9.9-6.1-14.4c-2.7-4.9-5.7-9.8-9.5-13.7
			c-6.4-6.7-15.8-8.3-23.9-12.1c-7-3.3-14.5-2.3-21.9-2.4c-9-0.1-16.6,4.5-22.7,9.9c-4.8,4.2-7.4,11.1-10.6,17
			c-2.1,3.9-3.9,8-5.5,12.1c-1.6,4.2-3.8,8.4-4,12.7c-0.8,15.5,6.8,28.3,16.4,39.3c6.9,7.9,16.9,12.2,28.2,11.3
			c0.5,0,1.1,0.4,1.9,0.7c-0.8,0.7-1.3,1.3-1.8,1.5c-6,1.8-10.3,7-16.7,7.9c-1.4,0.2-2.7,1.3-4,2.2c-7.3,5.6-15.4,9.6-24.2,12.4
			c-7.5,2.4-14.9,5.5-22.2,8.4c-6,2.4-11.8,5.5-18,7.2c-11.1,3.2-22.5,5.6-33.7,8.2c-3.3,0.8-6.9,0.7-10.1,1.8
			c-9.1,3.2-18.3,6.6-27.2,10.4c-12.3,5.3-24.3,11.3-36.6,16.8c-3.5,1.6-7.2,2.5-10.9,3.8c0.7-3.5,1.7-6.3,1.6-9
			c-0.3-9.6-1.3-18.9-5.3-28c-5.1-11.3-12.3-19.7-24.1-23.6c-2.7-0.9-5.8-1-8.7-1c-4-0.1-8.1,0.4-12.1,0.2c-4.1-0.2-8-0.5-10.9,3.2
			c-0.3,0.4-1.1,0.5-1.7,0.5c-3.7,0.2-4.8,2.9-5.8,6.2c1.9,0,3.7-0.6,5.5-1c4.5-1.1,9.1-2.2,13.6-3.1c2-0.4,4.2,0,6-0.7
			c4.9-1.8,8.4,1.2,12.8,2.9c-2.3,0.8-4,1.4-5.7,1.9c0.1,0.5,0.2,1,0.3,1.4c2.3-0.1,5,0.5,7-0.4c4-1.7,6.9-0.4,9.6,2.2
			c5.5,5.4,8.9,11.7,9.1,19.5c0.5,1.7,0.7,3.4,1,5c0.1,0.6,0.2,1.3,0.4,1.9c2.1,5.8,1.8,11.4,0.8,17.5c-1.2,7.4-4,12.2-11.6,14.5
			c-5.4,1.6-10.4,4.7-15.5,7.3c-2.6,1.3-4.9,3.2-7.5,4.3c-6,2.5-12.1,4.9-18.2,7.1c-1.5,0.5-3.8,0.7-5.1,0
			c-4.7-2.5-9.6-4.9-13.5-8.4c-6-5.3-10.9-12-11.7-20c-0.7-7.5,0.6-15.2,1.1-22.8c0.1-2.4,0.3-4.8,0.5-7.1c0.1-0.8,0.3-1.7,0.7-2.4
			c3.7-6.8,9.7-11.3,15.9-15.5c1.3-0.9,2.3-2,3.4-3.1c-0.3-0.3-0.5-0.5-0.8-0.8c-1.1,0.6-2.4,1.8-3.3,1.6c-4.2-1-6.3,2.1-8.8,4.3
			c-0.5,0.4-0.9,0.9-1.4,1.3c-6.1,4.4-10,10.4-11.1,17.7c-1,6.6-1.5,13.5-1.3,20.2c0.2,6.9,1.8,13.5,5.6,19.6
			c4.5,7.2,9.2,14.1,16.2,19.1c0.5,0.3,0.7,0.9,1,1.3c-5.3,3.4-10.4,6.7-15.6,9.9c-1.4,0.9-3,1.7-4.6,1.9
			c-10.2,1.2-18.8,6.4-27.5,11.3c-1.1,0.6-2,1.6-3,2.4c0.2,0.3-9.5,3.9-9.3,4.2c-3.6,1.3-6.4,2.1-9.1,3.4
			c-11.1,5.2-22,10.7-33.1,15.9c-7.5,3.5-15.2,6.4-22.6,9.8c-5.8,2.7-11.3,5.8-17,8.7c-0.6,0.3-1.4,0.3-2.1,0.4
			c-2.5,0.5-5,0.7-7.4,1.5c-5.6,1.8-11.1,4.1-16.8,5.9c-5.1,1.6-10.3,2.4-15.5,4.3c-11.5,4.2-23.2,9.1-35.9,8.6
			c-6.2-0.3-12.3-1.2-18.5-1.9c-0.7-0.1-1.2-0.8-1.9-1.2c-3.3-2.3-0.3-4.8-0.2-7.2c0.8-10.5,5.4-19.6,10.8-28.4
			c3.8-6.3,7.3-12.9,10.9-19.3c2.7-4.8,5.4-9.6,8.3-14.3c0.8-1.3,2.3-2.1,4-3.6c-0.1-5.1,3.1-11.1,6.5-11.5
			c3.3,8.3,6.4,16.7,10.1,24.8c1.2,2.6,3.6,5.3,6.1,6.7c8.5,5,17.8,7.8,27.7,8.2c14.2,0.6,26.7-3.9,36.8-14.1
			c3.1-3.1,6.6-6,6.2-11.3c-0.1-1.9,1.4-4,2.4-5.8c2.6-4.5,5.6-8.8,6-14.3c0.3-4.4,1.1-8.9,1.8-13.3c1.4-9,0.8-17.5-3.1-26.1
			c-5.2-11.6-12.8-20.6-24.4-25.9c-6.5-3-13-5.8-19.8-8.8c0.1-0.4,0-1.3,0.5-1.8c1.4-1.7,3.8-3,4.5-5c1.8-5.1,5.8-8.3,9-12.3
			c8.3-10,16-20.5,24.1-30.7c8.2-10.2,16.2-20.6,25-30.3c5.2-5.6,7.1-12.9,11.5-18.8c0.5-0.6,0.3-1.7,0.5-3
			c-3.8-1.1-5.3,1.8-6.6,3.7c-4,5.8-7.4,12-11.3,17.9c-1.5,2.3-3.6,4.1-5.4,6.3c-5,6.2-9.9,12.5-15,18.7
			c-10.6,13.2-21.5,26.2-31.9,39.5c-5.3,6.7-10,13.8-14.7,20.9c-2,3-3,6.8-5.1,9.7c-3.7,5-8.3,9.4-11.9,14.5
			c-5,7.2-10.1,14.4-13.8,22.3c-3.4,7.1-10.4,12.3-10.8,20.9c0,0.1-0.2,0.2-0.2,0.3c-3,5.1-5.9,10.1-8.9,15.2
			c-3,5.1-5.8,10.2-9,15.2c-3.2,5-6.8,9.8-10,14.9c-1.7,2.7-3.1,5.6-4.4,8.5C72,852,67.6,859,65.3,866.6c-2.4,8-2.9,16.5-4,24.9
			c-0.2,1.3,0.9,2.8,1.3,4.2c1.5-0.8,3.1-1.5,4.6-2.3c1.2-0.6,2.5-1.9,3.4-1.7c9.4,2.7,19,1.6,28.1,0c10.1-1.8,19.7-6,29.6-9.1
			c6.1-1.9,12.2-3.7,18.3-5.6c3-1,6.1-2,8.9-3.4c4.3-2.1,8.4-4.8,12.7-6.9c6.1-2.8,12.4-5.3,18.5-7.9c12.8-5.5,25.6-11,38.4-16.4
			c4.8-2,9.7-3.8,14.7-5.4c1.6-0.5,3-1.1,4.1-2c0,0,0,0,0,0l21.9-9.9c1.3-0.8,2.5-1.7,3.8-2.5c1.8-1.2,3.4-2.7,5.3-3.5
			c3.6-1.6,7.3-2.9,11-4.3c1.2-0.4,2.4-1.1,3.6-1c5.6,0.4,10.2-1.9,14.8-4.5c4.5-2.5,8.8-5.3,13.5-7.2c3.8-1.6,8.1-1.8,12-3.2
			c2.2-0.8,3.9-2.8,5.8-4.3c1.2-0.9,2.4-2.3,3.7-2.3c7.2-0.3,12.6-4.4,18.2-8c3.1-2,5.9-4.4,9.2-6c4.8-2.4,9.9-3.9,14.8-6.3
			c9.3-4.5,18.4-9.4,27.7-13.9c9-4.3,18-8.6,27.1-12.5c6.9-2.9,13.8-5.8,21-7.8c6.9-1.9,14.2-2.2,21-4c10.7-2.9,21.3-6.4,31.8-9.8
			c5.6-1.8,11.1-3.8,16.5-6c5.7-2.3,11.2-5,16.8-7.4c6.1-2.6,12.3-4.9,18.3-7.7c2.1-1,3.5-3.3,5.1-4.9c1.1-0.3,2.4-0.5,3.6-1
			c10.8-4.5,21.6-9.1,32.3-13.8c2-0.9,3.7-2.5,5.6-3.8c2.3-1.5,4.7-2.8,6.8-4.6c4.2-3.6,7.8-8.1,12.3-11.2
			c9.7-6.4,19.9-12.2,29.9-18.2c1-0.6,1.9-1.6,2.8-2.4c1.5-1.3,2.9-2.7,4.5-3.8c1.9-1.3,4.1-2,5.9-3.3c7.9-5.5,15.6-11.1,23.5-16.6
			c6-4.1,12.4-7.7,18.2-12.2c9.7-7.4,19-15.3,28.5-23c8.8-7.1,17.5-14.3,26.4-21.3c6.6-5.2,13.7-9.9,20.2-15.2
			c5.2-4.1,10.1-8.6,14.8-13.2c4.8-4.7,9.1-10,14.1-14.5c7.6-6.7,16.3-12,22.6-20.2c1.5-2,4.3-3,6.5-4.4c3.1-2.1,6.4-4,9.4-6.2
			c2-1.5,3.6-3.5,5.6-5.1c7.8-6.1,15.9-12,23.6-18.2c7.6-6.1,14.6-12.9,22.4-18.6c10.2-7.5,21.1-13.8,30.4-22.6
			c0.7-0.7,2.3-0.8,3.5-0.7c4.3,0.1,9.7-4.5,9.5-8.1C949.7,410.3,949.6,404.8,949.3,399.2z M116.2,784.7c0.2-2.6,2-5,5.2-5.5
			c0.6-0.1,1.2-1.5,1.3-2.4c1.8-13.1,9.4-23.1,17.6-32.8c3.8-4.5,7.3-9.2,11.1-13.6c1.1-1.2,2.8-2.1,4.4-2.5
			c3.8-0.8,7.7-1.5,11.4,0.5c3.7,2,7.5,3.7,11.1,5.7c0.8,0.4,0.8,2,1.5,2.9c1.4,1.9,3,3.7,4.5,5.5c0.7,0.8,1.6,1.4,2.2,2.3
			c1.9,3,3.6,6.1,5.5,9.1c0.3,0.4,1.2,0.4,1.8,0.5c0.3-0.3,0.6-0.6,0.9-0.8c-3.7-5.6-7.4-11.2-11.6-17.6c7,3.5,11.3,9,14.1,15
			c7.5,15.6,7.5,31.7,2,47.8c-0.8,0-1.6-0.1-2.4-0.1c5.9-11.9,3-23.7-0.2-35.5c-0.1,2.7-0.7,5.5-0.3,8.2c1.4,10.4,2.2,20.6-1.8,30.6
			c1.7,5.7-2.9,8.7-5.4,12.5c-0.6,0.8-1.4,1.7-1.4,2.7c-0.2,4.8-3.8,5.4-7.3,6.4c-2.8,0.8-5.6,1.9-8.3,2.9c0.1,0.3,0.2,0.6,0.3,0.9
			c0.7,0.2,1.4,0.4,2.1,0.6c0.1,0.2,0.1,0.5,0.2,0.7c-1.9,0.7-5.2,2.2-5.5,1.8c-2.4-3.6-4.3-0.8-6,0.3c-3.6,2.2-7.4,2.4-11.2,1.8
			c-4.9-0.8-9.7-1.8-14.6-2.6c-6.6-1.1-10.5-5.8-13.2-11.2c-3-5.9-6.8-11.6-7.6-18.2C116,795.5,115.9,790,116.2,784.7z M634.2,650.3
			c-6.8,5.6-13.2,11.8-20.2,17.3c-3.6,2.9-7.8,5.1-12.9,4.8c-2.2-0.1-4.5,1-6.7,1.3c-9.6,1.1-19.1,2.4-28.1-3.6
			c-5.7-3.8-10.6-7.8-13.3-14.3c-0.7-1.7-2.4-3.1-3-3.9c-0.8-3.3-1-6.1-2-8.6c-3.4-8-1.6-16-0.1-23.8c0.6-3.3,3.3-6.1,4.9-9.2
			c3.9-7.5,7.4-15.4,14.4-20.4c3.5-2.5,8.4-3.6,12.9-4.4c11.4-2.1,22.2,1,32.3,5.7c10.7,5,18.6,13.2,22.9,24.5
			c1.4,3.6,2.8,7.1,4.4,10.6C642.9,633.3,641,644.7,634.2,650.3z M448.3,254.4c-4.5-8.4-5.5-16.9,0.5-26c4.4-6.6,8.1-14.2,7.4-23
			c-0.7-7.7-3.4-14.4-9.9-18.6c-5.2-3.4-10.9-6.2-16.7-8.4c-5.1-1.9-8-5.2-9.5-10.1c-1.2-3.9,1.2-7.5,5.3-7.4
			c7.3,0.1,14.5,0.6,21.3,3.6c3.8,1.6,7.6,3.2,11.6,4c3.3,0.7,6.9,0.7,10.2,0.2c8.7-1.3,17.4-2.7,26-4.6c4.8-1.1,9.4-3.2,14.1-4.7
			c4.6-1.4,9.4-2.5,14-3.9c10.8-3.2,20.3-8.6,28.6-16.3c4.4-4,8.6-8,12.5-12.5c2.5-2.8,8.6-3.2,13.1-3c3.7,0.2,4.8,4.3,5.5,7.9
			c1.9,8.6,0.6,17.1-0.5,25.7c-1.3,9.8-0.4,19.8,2.2,29.6c1.9,7.3,3.3,14.7,8.1,21c0.8,1.1,1,3,0.8,4.4c-1,7.4-1.8,14.9-3.4,22.2
			c-2.9,13-10.3,23.5-19.5,32.7c-2.4,2.4-4.7,5.1-6.5,7.9c-4.9,7.8-10.9,14.4-19.1,18.9c-5.3,3-10.7,5.9-16.1,8.7
			c-1.3,0.7-2.9,1-4.3,1.5c0-0.1,0-0.1-0.1-0.2c-4.4,1.3-8.8,3.2-13.4,3.6c-6.6,0.6-13.7,1.4-19.8-0.5c-5.4-1.7-12.1-3.7-14.7-10.6
			c-0.9-2.3-3.4-4-5.2-6c-1.1-1.2-2.3-2.4-3.2-3.8C461.1,276.1,454.2,265.5,448.3,254.4z M328.6,287c0-1.2,0.6-2.8,1.5-3.4
			c6.1-3.8,12.1-7.6,19.9-7c5.4,0.4,10.9-0.2,16.4,0c5.8,0.3,11.7,1.1,17.5,1.4c12.3,0.8,24.6,1.5,37,2.4c5.4,0.4,10.8,1.2,16.3,1.4
			c1.9,0.1,3.9-1,5.3-1.4c1.7,0.5,3.3,1.3,4.9,1.5c6.4,0.5,7.6,2.5,5.8,8.7c-2.1,7.2-3.3,14.7-5.3,21.9c-1,3.5-2.9,6.7-4.4,10
			l1.1-3.3c-0.6-0.2-56.4-18-115.9-12.7C328.7,300,328.6,293.5,328.6,287z M294.7,503.3c3.6-9.2,6.8-18.6,10.2-27.9
			c3-8.2,2.4-16.8,3.7-25.2c1.7-11.4,4.3-22.7,6.6-34.1c0.8-4.3,1.7-8.5,2.7-13.3c2.4,1.2,4.5,2.1,6.6,3.2c4.8,2.7,9.6,5.1,15.5,4.6
			c3.4-0.3,7.3,1.6,10.4,0.6c7.7-2.4,16.2-3.6,22.2-9.9c0.5-0.5,1.2-1,1.6-1.6c3.4-5.1,6.7-10.2,10-15.4c0.7-1.1,1.6-2.2,1.7-3.4
			c2.3-14.7,3.4-29.5-3.3-43.2c-3.4-6.9-10.2-11.3-18.2-12.5c-3.9-0.6-7.8-1.1-11.8-1.2c-6.6-0.2-13,0.2-18.3,4.9
			c-0.7,0.6-1.9,0.6-2.8,1.2c-1.1,0.8-2,1.8-3.5,3.1c2.8,1.2,3.9,1.1,6.2,0c5.4-2.5,11.3-4.3,17.2-5c6.2-0.8,12.7,1.2,17,5.5
			c4.7,4.8,8.2,11.1,11.4,17.1c3.1,5.6,3.7,11.9,2.1,18.3c-0.6,2.6-0.3,5.4-0.9,8c-2.4,9.9-7.4,18.2-15.8,23.9
			c-13.1,9-26.3,8-39.3-0.4c-3.2-2.1-4.2-4.4-2.9-8.9c2.2-8,2.7-16.4,3.8-24.7c0.7-5.3,1.8-10.6,1.8-15.9c0-8.4-0.8-16.8-1.1-25.2
			c-0.1-2.4,0.1-4.8,0.1-7.2c0-1.5-0.2-3-0.3-4.1c0.6-1.6,1.5-3,1.5-4.5l0.3,3.5c55-4.9,107,10.4,112.8,12.2
			c-2.9,11.3-6.8,22.2-12.3,32.5c-5.8,11.1-12.5,21.7-18,32.9c-2.5,5-6.1,8.9-9.4,13.3c-8.9,12-17.8,24.1-26.2,36.5
			c-3.4,5.1-5.8,10.9-8.4,16.5c-0.6,1.2-0.1,2.8-0.1,4.5c-0.6,0.4-1.9,1-2.7,2c-4.2,5.4-8.1,11-12.5,16.4c-2.3,2.8-5.2,5.1-7.7,7.7
			c-7.2,7.5-13.3,15.9-17.5,25.3c-2.4,5.4-2.9,11.6-4.3,17.8c-1.3-1.3-2.6-2.6-3.8-4c-6-6.7-13.4-11.4-21.4-15.3
			C292.8,509.5,292.7,508.3,294.7,503.3z M276.9,600.6c-1.9,0.3-3.7,0.8-5.6,1.1c-1.3-0.8-2.6-2.2-4.1-2.5c-5.2-1.2-8.3-5-11.2-8.9
			c-0.8-1.1-0.8-3.4-0.2-4.9c0.9-2.4,2.7-4.3,3.7-6.6c5-10.9,9.7-22,14.7-32.9c4.2-9.1,8.7-18.1,12.9-27.2c1.6-3.3,3.4-4.6,7.1-2.7
			c14.3,7.2,24.8,17.2,26.8,34.1c0.7,5.8,1.5,11.4-2.6,16.2c-4.9,5.7-10,11.2-14.9,16.8c-0.8,0.9-1.5,2.1-2,3.3
			c-2.9,6.7-9.4,9.2-15,12.5C283.8,600.3,280.1,600,276.9,600.6z M347.4,629.6c-5,0.3-9.9,0.6-14.9,1.1c-2.9,0.3-3.8-1.1-2.6-3.3
			c3.7-6.7,7.5-13.4,11.7-19.7c3.4-5.1,7.8-9.7,14.1-11c8.2-1.7,16.8-5.2,24.7,0.7c2.5,1.8,4.3,4.6,5.9,6.4
			c0.4,5.3,0.8,9.7,1.1,14.2c0,0.5,0.1,1,0.2,1.5c0.3,1.9,1.4,4.1,0.7,5.6c-0.6,1.4-2.9,2.5-4.6,2.8c-2.8,0.5-5.7,0.3-8.5,0.4
			C366,628.7,356.7,629.1,347.4,629.6z M477.7,625c-1.1,4.9-4.2,9.3-6.6,13.9c-0.7,1.3-1.6,2.5-2.5,3.7c-0.4,0.6-0.9,1.8-1.3,1.8
			c-3.9,0-4.3,3.5-5.8,5.8c-4.8,7.5-13.6,9.3-20.1,14.3c-5.6,4.3-12.4,4.7-19.2,5.4c-4.7,0.5-8.7,1-13.4-1.4
			c-3.5-1.8-8.5-0.6-12.8-1c-1.7-0.1-3.4-0.9-5-1.4c-9.8-3-18.1-8.5-24-16.8c-2.6-3.6-3.6-8.5-5.7-13.4c2.6-0.2,4.3-0.2,6-0.5
			c7.2-1,14.4-1.8,21.5-3.3c3.1-0.7,4.9-0.2,6.9,2.2c4.2,5.2,9.6,8.9,16.6,7.6c4.5-0.8,9-2.9,13.2-4.9c6.6-3.2,13.2-6.7,19.5-10.4
			c3.5-2,6.7-4.6,9.8-7.2c6-5.1,11.9-10.4,17.8-15.7c0.5,0,1,0.1,1.6,0.1c0.7,2.6,1.7,5.2,2.2,7.8
			C477.3,616.2,478.6,620.9,477.7,625z M692.7,385.6c2.4,6,5.4,11.8,8.2,17.6c2.3,4.7,2.2,9.6,1.8,14.6c-0.3,4.5-1.5,8.9-1.3,13.3
			c0.2,5.5,1.3,11,2.3,16.4c1.9,10.2,4.7,20.2,5.7,30.4c0.8,8,0.1,16.3-2.8,24.1c-1.1,2.9-2.8,5.5-4.2,8.3c-0.3-0.1-0.6-0.2-0.9-0.4
			c-1.3-8-2.8-16-3.7-24c-0.6-5.4-2.4-10.3-4.2-15.4c-4-11.1-7.3-22.6-10.4-34c-0.9-3.2-0.2-6.9,0.3-10.3c2-13.2-1.4-25.4-7.2-36.9
			c-3.1-6.1-7.4-11.6-11.2-17.4c-4.8-7.2-9.7-14.4-14.6-21.6c-0.5-0.7-0.9-1.7-1.7-2.1c-1-0.5-2.6-0.9-3.4-0.5
			c-0.7,0.4-1.4,2.4-1.1,3.1c1.3,2.7,3,5.3,4.6,7.8c5.9,8.8,12.4,17.2,17.6,26.4c8.2,14.5,13.4,29.8,10.4,47.2
			c-0.9,5.5,0.6,11.7,2.3,17.2c2.5,8.1,6.7,15.7,9.2,23.9c2.1,7,3.1,14.5,4.2,21.8c1,6.8,1.5,13.7,2.4,20.5c0.5,4,1.7,7.9,1.9,11.9
			c0.2,3.2-0.7,6.5-1,9.1c-7,5.3-14.7,7.1-22.6,8.3c-9.3,1.4-21.4-0.5-26.6-10.8c-2.7-5.3-2.6-10.9-1.9-16.5
			c1.4-10.3,3.4-20.5,4.3-30.8c1.5-17.3-2.6-33.3-10.7-48.7c-2.2-4.3-2.5-9.8-2.8-14.9c-0.3-5.6-0.3-11.4,0.7-17
			c1.2-6.7-0.8-12.3-3.6-18c-0.9-1.9-2.1-3.8-3.5-5.4c-6.3-7.2-10-15.6-12.2-24.8c-0.4-1.8-1.8-3.5-3.3-6.1c-2,4.7-2.2,7.5-1.1,11.5
			c2.3,8.5,7.7,15.1,11.8,22.6c5.6,10.4,8.3,21.3,5.6,33.3c-1.2,5.4-1.3,10.8,2.3,15.7c1.2,1.6,0.5,4.4,1.2,6.5
			c2.1,6.2,4.9,12.1,6.5,18.4c1.6,6.2,2.4,12.8,2.7,19.2c0.6,12.9-2.9,25.3-4.6,37.9c-0.7,5,0.1,10.2,0.5,15.3
			c0.2,1.9,0.1,2.9-2,3.7c-5.7,2.2-11.2,4.9-16.9,6.9c-1.9,0.7-4.3,0.4-6.4,0.2c-6.8-0.5-13.6-1.5-20.4-1.7c-2.8-0.1-5.9,1-8.3,2.5
			c-3.9,2.3-9.7,2.6-10.6,8.8c-0.1,0.6-1.7,0.9-2.6,1.4c-1.6,0.9-3.4,1.6-4.8,2.8c-3.8,3-7.2,5.4-12.9,5.1
			c-11.9-0.6-23.9,0.5-35.9,0.7c-8.8,0.2-14.7,6.3-21.5,10.3c-9.9,5.8-18.3,13.7-25.6,22.7c-7.3,8.9-15.9,16.5-25.9,22.5
			c-5.8,3.6-11.2,7.9-17.3,11c-5.2,2.7-10.9,4.2-16.5,5.9c-1.1,0.4-2.9-0.1-4-0.9c-14.9-10.5-19.2-27.4-5-42.1
			c3.5-3.6,8.5-5.9,12.8-8.8c4.6-3,9.2-6,13.9-9c2.1-1.3,4.3-2.3,6.4-3.4c8-4,13.1-10.7,17.6-18.1c2.1-3.5,4.4-6.9,6.7-10.3
			c0.6-1,1.2-2,2.3-3.6c-5.2,0.4-9.4,0-11.5,5.4c-0.7,1.9-3.6,3.2-5.7,4.4c-1.7,1-3.8,1.6-5.6,2.4c0.1,0.3,0.3,0.7,0.4,1
			c2.1-1,4.2-2.1,6.3-3.1c0.4,0.4,0.7,0.7,1.1,1.1c-1.7,2.4-3,5.1-5.1,7.1c-6.3,5.9-13.2,11.1-21.1,14.8c-6.1,2.9-12.2,6-17.7,9.8
			c-4.1,2.9-7.3,7.1-10.9,10.7c-0.2-2.5-0.3-2.6,7.5-10.5c3.2-3.2,7.1-5.6,10.4-8.7c-9.3,4.3-18.1,9.1-22.1,18.1
			c-7.6-1.9-14.7-3.7-22-5.6c0.8-1,1.8-2.7,3.1-3.9c4.4-4.2,5.1-9.7,6.4-15.2c2.5-10.8,2.8-22.3,10.3-31.6c3-3.8,7.1-5.3,10.9-7.5
			c1.3-0.8,2.1-2.4,3.1-3.7c-1.5-0.4-3.3-1.5-4.6-1.1c-4.3,1.5-9.2,2.6-12.4,5.5c-3.3,3-5.6,7.7-6.9,12.1
			c-2.9,9.5-4.9,19.3-7.5,28.9c-0.6,2.2-1.9,4.6-3.5,6.2c-3.1,3.1-6.8,5.6-10,8.7c-4.3,4.3-8.6,8.7-12.4,13.4
			c-5.1,6.4-9.7,13.1-14.3,19.8c-2.2,3.2-3.5,7.1-5.7,10.3c-7.7,11.1-15.4,22.2-23.5,33c-5.1,6.8-12.2,11.3-20.5,13.4
			c-2.4,0.6-5.2,0.8-7.5,0.1c-9.6-2.7-18.2-7.5-24.6-15.4c-3.1-3.9-3.4-9.9,0-14c4.3-5.3,9.2-10.2,14.2-14.8
			c4.7-4.3,9.8-8.1,14.8-12c7.7-6.1,15.6-11.9,23-18.3c5.9-5,11.4-10.5,16.7-16c2.6-2.7,4.5-6.1,6.7-9.2c7-9.8,14.3-19.2,20.2-29.7
			c2.9-5.2,9.7-8.4,15.1-11.9c3.7-2.4,8-4,12-5.9c0.4-0.2,0.9-0.2,1.4-0.3c8.5-0.3,15.4-5.4,17.6-13.6c2.5-9.4,5-18.7,6.8-28.3
			c1.6-8.7,5.2-16.3,10.3-23.3c4.2-5.8,8.3-11.7,13.5-16.5c3.8-3.6,9.1-5.5,13.7-8.2c4-2.3,8.1-4.5,12.1-7.1
			c4.2-2.7,8.3-5.5,12.2-8.7c2-1.7,5.5-3.3,2.6-7.8c-3,1.7-6,3.3-8.9,5c-8.2,5-15.9,10.9-24.6,14.7c-8.4,3.6-15.2,8.7-20.2,15.8
			c-6,8.5-11.4,17.5-14,27.9c-2.7,10.9-5.1,21.9-9,32.4c-2.4,6.6-7.9,11.5-15.4,13c-8.8,1.8-16.6,5.7-23.8,11.1c-3,2.2-6,4.4-9.6,7
			c-0.7-1.8-1.9-3.9-2.3-6.1c-2.6-12.5,0.6-23.5,8.8-33.2c5.4-6.3,10.9-12.5,16.3-18.8c3-3.4,6.5-6.6,8.8-10.4
			c3-5.1,4.9-10.9,7.6-16.2c3.7-7.2,7.1-14.6,13-20.5c2.4-2.4,4-5.6,6.2-8.3c4.2-5,8.6-9.8,12.7-14.8c1.8-2.2,3.1-4.9,4.7-7.3
			c5.2-7.9,11.6-15.1,15.1-24.2c1.9-5,5.8-9.3,8.2-14.2c4.8-9.8,10.1-19.6,13.7-29.9c4-11.6,9.1-23,10-35.7
			c0.3-4.3,3.2-8.5,5.1-13.4c2.7,3.7,4.8,6.7,7.1,9.7c3.3,4.3,6.2,9.4,10.4,12.6c3.6,2.8,8.8,4.5,13.4,4.8c6.3,0.3,13-0.2,18.8-2.3
			c4.7-1.6,9.6-1.6,14.1-3.7c5.3-2.4,11-4,16-6.8c5.9-3.2,11.5-7.1,16.7-11.3c3.5-2.8,6.4-6.4,9.4-9.8c4.7-5.4,9.5-10.6,13.6-16.4
			c6.1-8.5,11.6-17.2,14.4-27.7c1.6-5.8,0.9-11.5,2.1-17.1c0.3-1.3,1.1-2.5,1.6-3.7c1.1,0.6,2.2,1,3.2,1.7c7.9,6,13.2,14.2,18,22.5
			c4.2,7.3,7.5,15.1,10.6,22.9c1.5,3.7,1.7,8,2.6,12c0.6,3,1.3,6,2.1,8.9c1.4,4.9,2.6,9.9,4.4,14.6c1.2,3.1,3.4,5.8,5.2,8.6
			c6.4,9.7,16.2,16.2,23.9,24.5c3.4,3.6,5.9,8.4,7.8,13C682.5,358.3,687.3,372.1,692.7,385.6z M845.8,488.8
			c-1.9,2.2-5.1,3.2-7.6,4.8c-7.7,5-13.3,13.7-23.3,14.7c-5.8,0.6-11.7,0.2-17.5-0.7c-6.6-1.1-13.1-3.2-19.6-5
			c-8.7-2.4-14.2-9.2-19.2-15.8c-11.5-15.3-12.9-32.3-6.5-50.1c2.8-7.8,5.4-15.8,11.9-21.6c9-8.2,19.2-14.3,31.6-15
			c13.2-0.8,25.3,2.4,35.6,11.6c10.6,9.5,21.8,24.9,25.1,35.9C861.1,463.4,856.3,476.9,845.8,488.8z M894.5,441.7
			c-0.1,0.2-0.3,0.5-0.3,0.7c-2.7,12.5-12.5,18.6-22.2,24.8c-1.4,0.9-2.6,2.1-3.9,3c-1.4,1-2.8,1.9-4.9,3.3c0.4-3.4,0.4-5.9,1-8.2
			c2.9-10.9-1.2-20.4-6.2-29.6c-2.6-4.8-6.1-9.1-9.1-13.8c-1.4-2.1-2-4.8-3.7-6.6c-2.5-2.8-5.3-5.4-8.3-7.7
			c-9.5-7.6-20.3-12.7-32.3-14.9c-0.7-0.1-1.4-0.5-2.1-1.6c2.3-0.2,4.6-0.8,6.8-0.5c5.3,0.8,10.6,1.9,15.9,3
			c2.7,0.6,5.4,1.1,8.1,1.9c7.1,2.1,14.3,4.4,21.4,6.6c1,0.3,1.9,0.9,2.9,0.9c8.9-0.4,16.3,4,24,7.4c3.8,1.7,7.8,3,11.3,5.2
			c1.9,1.2,3.6,3.9,4,6.1C898.3,428.6,898.9,435.5,894.5,441.7z M942.4,402.4c-0.3,0.6-0.2,1.5-0.1,2.2c0.3,5.2-1.6,9.1-6,12.3
			c-4.4,3.2-8,7.5-12.3,10.8c-6.4,4.9-13,9.4-19.4,13.9c-0.6-8.2-1-15.7-1.6-23.1c-0.3-3.8-1.4-6.5-6.1-7.8
			c-5.3-1.5-10.1-4.7-15-7.3c-14.6-7.7-29.8-13.8-46.4-16.3c-7.9-1.2-15.7-3.2-23.6-4.6c-8.2-1.5-16.4-2.4-24.5-4.1
			c-7.8-1.7-15.5-4.2-23.3-6.1c-5.8-1.4-11.7-2.4-17.5-3.9c-7.4-2-15.1-3.5-21.9-6.8c-10.5-5.1-21.5-7.2-32.9-7.6
			c-3.3-0.1-4.8-1.1-5.9-4.5c-1.6-4.8-4.4-9.1-6.6-13.7c-5.8-12.4-17.5-19.4-26.5-28.9c-3.9-4.1-8-8-7.7-15.2
			c3.6,0.8,6.9,1.4,10.2,2.3c7,2,14,4.1,21,6.2c0.6,0.2,1.3,0.3,1.9,0.3c4.6,0,8.9,1.4,13.3,2.7c6.8,1.9,14.1,2,21,3.7
			c13.9,3.3,27.6,7.2,41.5,10.8c2,0.5,3.9,1,5.9,1.4c17,3.3,33.9,4.9,51.3,3.6c8.6-0.7,17.7-1,26.5,1.9c7.7,2.5,15.9,3.2,23.9,4.8
			c0.3,0,0.5,0,0.8,0.2c10.4,5,21.9,5.6,33.1,7.5c1.6,0.3,3.4-0.2,5.7-0.4c0.2,0.2,1.1,1.1,2.1,1.5c3.5,1.3,7,2.4,10.5,3.6
			c5.5,1.8,9.3,5.6,12.2,10.4c2.4,4,5.2,7.7,7.5,11.8c0.9,1.5,0.7,3.5,1.3,5.1c2.4,6.7,5.3,13.3,7.3,20.1
			C943.4,393.3,944.5,397.9,942.4,402.4z"/>
		<path d="M322.3,713.4c2.5-0.5,4.5-1,7.3-1.6C326.2,709.5,325.7,709.7,322.3,713.4z"/>
		<path d="M497.4,261.7c0.3,1.3,1.7,3.2,2.9,3.3c3.9,0.5,5.6,2.9,6.9,6.2c1.5,3.5,1,5-2.6,6.2c-2.2,0.7-4.5,0.8-6.8,1.3
			c-2,0.5-4,0.9-5.8,1.8c-1,0.5-1.6,2-2.4,3c1.2,0.6,2.5,1.7,3.7,1.7c8.2,0.1,15.3-3.4,22.4-7c2.3-1.2,4.9-2,7.4-2.1
			c5.1-0.3,10.2,0.2,15.3-0.1c3.1-0.2,6.3-1.1,9.1-2.4c1.3-0.6,1.7-3,2.6-4.5c-1.8-0.3-3.7-1.4-5.2-0.9c-8.4,2.7-16.6,0.8-24.9-0.1
			c-0.2-0.5-0.4-0.9-0.7-1.4c1.9-1.6,4-3.1,5.8-4.9c1.3-1.3,2.4-2.9,3.5-4.4c-1.6-0.9-3.4-2.8-4.9-2.7c-7.9,1-15.7,2.5-23.5,4
			C499,259,497.2,260.9,497.4,261.7z"/>
		<path d="M523.9,232.5c4.4,0.5,8.8,0.4,13.2,0.6c8.7-2.5,13.5-9.5,19.6-14.7c2.3-1.9,4.4-4.1,6.9-5.8c2.5-1.6,3-3.5,1.4-5.8
			c-1.6-2.4-3.8-3.6-6.9-3c-6.4,1.3-12.8,2.3-19.1,3.8c-6.9,1.6-13.8,3.5-16.5,11.4c-0.7,2.1-1.7,4.1-2.6,6.2
			C518.2,229.3,519.5,232,523.9,232.5z M544.6,212.6c2.6-0.7,5.3-1.1,8-1.6c0.2,0.4,0.5,0.7,0.7,1.1c-1.3,1.6-2.6,3.3-4.1,4.7
			c-0.9,0.9-2.8,2-3.5,1.7c-1.1-0.6-1.9-2.3-2.3-3.6C543.2,214.3,544,212.7,544.6,212.6z M531.1,216.2c1.7,4.1,2.9,7,4.4,10.7
			c-3.6-0.3-6.4-0.4-10.3-0.7C527.3,222.6,528.9,219.9,531.1,216.2z"/>
		<path d="M475.9,240.6c3.7,5.4,12.2,9.2,17.8,7.3c5-1.5,6.9-5.9,5-10.7c-0.7-1.9-1-4.2-0.8-6.3c0.6-6.5-3.6-10.2-10.5-11.6
			c-9.7-2-17.4,1.4-23.9,8.9c-2.6,3-2.1,4.6,0.3,6.5c1.1,0.9,2.7,1.3,4,1.9C470.5,237.9,474.3,238.5,475.9,240.6z M488.9,228.6
			c0.2,0,0.3,0,0.5,0c0.6,3.6,1.2,7.1,1.6,10.7c0,0.4-1.2,0.9-1.8,1.3c-0.5-0.7-1.5-1.5-1.5-2.2C488,235.1,488.5,231.8,488.9,228.6z
			 M478.8,224.8c-0.3,3.2-0.6,5.2-0.9,7.8c-2.7-0.9-4.8-1.6-7-2.3c-0.1-0.4-0.2-0.9-0.3-1.3C473.1,227.7,475.5,226.5,478.8,224.8z"
			/>
		<path d="M924.2,391.6c-2.4-7.3-5.6-14.3-3.4-22.3c0.7-2.6-0.3-4.9-2.8-6.6c-5.5-3.8-11.5-3.9-17.6-2.6c-1.5,0.3-3.2,2.3-3.6,3.9
			c-1.7,6,1.5,11,4.7,15.5c2.4,3.4,5.9,6,8.8,9c4.4,4.5,7,9.6,5.6,16.2c-0.2,0.8,0,1.8,0,2.5c1.2,2.6,2.2,5.1,3.6,7.4
			c1.6,2.6,3.9,4.7,7.3,3.4c3.3-1.3,3.4-4.4,2.7-7.2C927.8,404.3,926.3,397.9,924.2,391.6z"/>
		<path d="M260.3,589.4c1.4,1.1,2.9,2.2,4.3,3.2c0.5-0.7,0.9-1.4,1.4-2.1c-1.5-0.9-3-1.9-4.6-2.7
			C261.3,587.8,260.3,589.3,260.3,589.4z"/>
	</g>
</g>
</svg>
