<?xml version="1.0" encoding="utf-8"?>
<!-- Generator: Adobe Illustrator 18.1.0, SVG Export Plug-In . SVG Version: 6.00 Build 0)  -->
<svg version="1.1" xmlns="http://www.w3.org/2000/svg" xmlns:xlink="http://www.w3.org/1999/xlink" x="0px" y="0px"
	 viewBox="0 0 1000 1000" style="enable-background:new 0 0 1000 1000;" xml:space="preserve">
<style type="text/css">
	.st0{fill:none;stroke:#ED1C24;stroke-miterlimit:10;}
</style>
<g id="Guides">
</g>
<g id="Metrics">
	<line class="st0" x1="0" y1="900" x2="1000" y2="900"/>
	<line class="st0" x1="0" y1="97.4" x2="1000" y2="97.4"/>
</g>
<g id="Art">
	<g>
		<path d="M403.4,132.4c13.4,9.8,26.6,18.8,44.5,13.7c1.4-0.4,3.1,0.7,4.7,0.6c12-0.7,24-1.6,36-2.4c-0.1-1.2-0.2-2.4-0.3-3.6
			c-10.7,0.9-21.3,2-32,2.5c-16.7,0.8-33.2,1.8-47.1-11.4c-6.2-5.9-15.2-9.3-23.4-12.5c-3.6-1.4-8.4,0.7-12.7,1.2
			c0.2,1,0.3,2,0.4,3.1C387.5,120.7,395.7,126.7,403.4,132.4z"/>
		<path d="M755.6,689.4c-21.1-31.5-51-53.8-81-75.8c-24.1-17.6-48.9-34.4-73.9-50.9c-11.4-7.5-23.9-13.3-36.1-19.7
			c-6.5-3.4-9-7.3-4.9-14.4c4.7-8.3,9.7-16.7,12.5-25.7c14.4-45.9,22.3-92.9,21.9-141.1c-0.1-15.2-2.6-30.5-2.7-45.7
			c-0.1-23.9,0.5-47.8-9.1-70.4c-13.4-31.3-17.8-62.1-3.8-95.4c4.7-11.2,0.4-26.9-2.2-40c-1.8-8.9-11.2-12.1-19.2-7.1
			c-9.3,5.7-18.2,12.7-25.9,20.5c-9.3,9.6-17.2,20.6-33.1,16.8c-0.3-0.1-0.8,0.5-1.9,1.2c11.6,1.4,21.9,4.4,30.3-7.6
			c5.9-8.4,14.8-14.9,22.8-21.6c12-10.1,21-8.5,24.8,4.6c3.6,12.4,4.7,25,0,37.6c-6.1,16.2-10.8,32.8-8.4,50.4
			c1.3,9.6,3.5,19.2,5.4,29.3c-22.8-1.5-45.9-3.2-69-4.2c-6.4-0.3-13.7,0.3-19.3,3c-10.4,5.1-13,16.9-6.3,22.3
			c11.2,9.1,30.5,5.4,37.5-7.3c2.1-3.8,3.5-8.1,5.3-12.5c17.2,1.5,34.3,3,53.7,4.8c-4.8,6.1-7.8,9.8-10.7,13.5
			c-20.3,26.1-45.9,46.7-71.1,67.7c-2.4,2-7.4,2.6-10.5,1.6c-10-3.2-19.8-7.5-31.5-12.1c3.2-2.5,6.8-5.3,10.3-8
			c-4.8-6.5-23.3-10.6-28.3-5.8c-1.7,1.6-1.8,6.6-0.7,9.2c1.4,3.1,4.9,5.2,7.5,7.8c-3.2,2.2-6.4,4.5-9.7,6.7
			c-1.3,0.8-2.7,1.4-5.6,2.9c-3.7-7-7-13.7-10.8-20.2c-3.9-6.7-7.3-14-12.5-19.7c-12.9-14-13.5-30.4-11.8-48.9
			c2.7,1.4,5.2,1.9,5.6,3.1c5.5,14.5,17.9,17,31,18.2c2.6,0.2,7.1-0.1,7.6-1.4c1-2.6,0.6-6.3-0.7-8.9c-5.5-11.5-18.4-17.4-31-14.8
			c-2.9,0.6-5.9,0.4-11.2,0.6c10.7-15.5,6.2-30.3,4.7-45.1c-1-9.3-1.7-18.9,7.8-26c2.3-1.7,3.3-9.7,1.4-11.8
			c-5.6-6.5-12.8-11.6-19.4-17.1c-2.7-2.2-5.6-4.3-10.2-7.9c0.3,3.4,0.4,6.9,2.2,8.8c12.6,13.2,13.4,29.1,14.1,46.1
			c0.7,18.8,3.7,37.4-5.4,55.1c-0.7,1.3-0.7,3.1-0.7,4.7c-0.4,15.9-3.7,31-9,46.1c-17.2,49.2-24.3,100.7-34.8,151.5
			c-0.7,3.3-3.6,7.1-6.5,9c-9.9,6.1-20.4,11.2-30.4,17.2c-21.3,12.8-38.7,29.9-52.3,50.8c-11.4,17.4-22.1,35.1-24.5,56.4
			c8.3-17.1,15.5-34.9,25.1-51.3c13.9-23.9,36-40.1,57.9-56.1c8.5-6.2,18.3-10.6,29.9-17.3c1,13.3,1.5,23.2,2.4,33.1
			c2.4,25.3,11.1,48.4,26.5,68.4c12.8,16.6,32.8,17.4,50.9,16.3c28.5-1.6,41,12.5,42.9,44.4c0.4,6.9,1.6,14,3.5,20.6
			c4.9,16.7,21.4,23.2,36.1,13.7c5.4-3.5,8.6-10.3,12.8-15.6c6.2,10.5,17.5,15.6,30.9,13.5c5-0.8,11.5-4.8,13.8-9.2
			c7.9-15.2,6.3-30.7-5.4-43.3c-8-8.6-8.4-17.3-5.3-27.2c1.8-5.7,3.9-11.4,6.1-18c36.7,21.2,74.9,38,105.6,67.9
			c-18.4,3-35.9,4.6-52.6,9c-9.7,2.6-19.3,8.3-27,15c-34,29.5-46,67.5-44.4,112c1.4,38.9,9.6,75.5,26.3,110.4
			c1.5,3.1,4.4,5.4,6.2,8.3c1.6,2.6,2.4,5.6,4.4,10.6c-6-2.9-10.5-4.4-14.3-6.9c-32-21.4-64.9-41.7-95.5-64.9
			c-19.1-14.5-34.4-34-52.1-50.5c-28.1-26.2-56.1-52.6-85.4-77.3c-24.1-20.3-49.6-39-75.3-57.2c-14.2-10-21.9-22.3-23.6-37.8
			c0.1,3.9,0,7.9-0.7,11.7c-1.5,8.2,2.8,12.3,8.2,16.4c17.1,13.2,34.6,26,51.4,39.6c22,17.8,42.1,38.2,65.4,54
			c21.5,14.6,36.7,35.1,55.8,51.8c18.4,16,33.9,35.5,52.6,51.2c19.9,16.7,41.8,31.1,63.3,45.8c20.2,13.9,40.6,27.7,65,33.6
			c24.4,5.8,48.7,13,74.4,8.4c10.2-1.8,20.6-5.9,30.6-5.3c14.8,1,25.2-6,32.8-15.9c19.7-26,35.8-54.2,44.3-86.2
			C778.6,751.3,775.5,719,755.6,689.4z M481.3,253.6c-8.5-3.9-6.6-10.7,5.6-18.5c0.5,1.7,0.7,2.6,1,3.4c1.7,4.5,2.8,12.2,5.4,12.8
			c7.1,1.6,10.4-4.9,11.5-11c1-5.8,3.1-7.1,8.1-4.4C513.8,252.5,498.4,261.4,481.3,253.6z M398.6,235c4.7-0.3,9.5-0.6,14.8-1
			c-1.3,5.9-2.2,10-3.8,17.4c-5.2-5.6-8.7-9.4-12.2-13.3C397.8,237.1,398.2,236,398.6,235z M386.3,138.3c7.3,1.3,12.1,5.8,13.6,12.8
			c0.6,2.9-2,6.5-3.9,11.7C392.1,152.9,389.3,145.9,386.3,138.3z M480.1,329.1c-19,10.8-36.5,9.8-50.1-2.9
			C441.3,314.6,467.9,316.2,480.1,329.1z M543.2,569.7c-1,5.2,1.9,12.8,5.6,17c8.5,9.7,11.6,20.2,9.5,32.6
			c-1.1,6.9-2.8,13.6-10.7,15.3c-8.8,1.9-19.6,3.7-24.2-5.5c-6.8-13.8-11.1-28.8-15.6-43.6c-2.3-7.5-2.5-15.7-4-23.5
			c-0.5-2.5-2-4.9-3-7.3c-0.7,0.2-1.5,0.5-2.2,0.7c3.4,18,7,36,10.1,54c0.7,4,0.3,8.3-0.5,12.3c-2.7,14.3-6.8,18.1-18.7,17.8
			c-14.5-0.3-22.3-5.3-22.2-19c0.2-24-6.7-44.5-19.5-65c-14.9-23.9-26.4-50.1-38.9-75.5c-4.6-9.3-8-19.2-12.6-28.6
			c1.4,13.8,6.9,25.9,13.5,38.1c11.4,20.9,21.6,42.5,32.1,63.9c0.8,1.6,0.6,3.6,1,6.2c-17.8-1.3-35.1-2.2-52.2-4
			c-13.3-1.4-21.2-11-27.1-21.8c-22.7-41.7-24-85.6-13.2-130.8c4.7-19.8,6.8-40.2,11.8-59.9c6-23.4,13.8-46.2,20.8-69.3
			c0.3-1.1,0.9-2.1,2.5-5.3c9,15.7,17.3,29.7,25.1,43.9c17.3,31.3,59.6,38,83.3,12.6c18.2-19.5,39.5-36,58.8-54.6
			c8.4-8.1,15.3-17.7,22.8-26.7c1.2,0,2.5,0,3.7,0c3,16.2,6,32.5,9,48.7c-1.3,0.5-2.7,1.1-4,1.6c-5.1-8.2-10.2-16.4-15.3-24.6
			c-0.9,0.5-1.7,0.9-2.6,1.4c6.2,11.7,12.5,23.4,18.7,35.1c-0.9,0.8-1.8,1.5-2.7,2.3c-6.2-8-12.3-16-18.5-24
			c-1.4,1.3-2.8,2.5-4.2,3.8c2.2,2.6,4.1,5.4,6.6,7.7c15.8,14.2,24,31,22.1,53c-2.5,30.1-2.6,60.4-5.4,90.4
			c-3,32-13.5,61.9-27.8,90.8C549.2,542.2,545.8,556.2,543.2,569.7z M757.2,700.8c6.8,12.3,11.5,24.5,11,36.5
			c-11.3-4.1-21.8-8.9-32.8-11.7c-13.3-3.3-13.7-14-17.7-26.7c8.1,2.9,14.3,4.7,20.1,7.4C749.1,711.5,750.6,711.3,757.2,700.8z
			 M661.4,712.4c1.7,0.8,3.4,1.9,5.2,2.3c8.3,1.9,9.7,6.1,6.3,13.8c-3.6,8.1-2.7,15.4,6.8,19.7c2.3,1,3.6,4.6,4.8,7.2
			c2.1,4.4,3.7,9.1,5.5,13.6c1,0.2,1.9,0.4,2.9,0.6c-3.3,6.4-7.8,4-10.6-0.3c-4.9-7.5-11.2-9.1-19.6-8.4c-3.3,0.3-8-1.9-10.2-4.5
			c-6.2-7.3-11.6-15-22-17.2c-1.8-0.4-4.1-5.5-3.9-8.2C628.3,715.1,646.7,705.3,661.4,712.4z M617.8,696c-1.1-1-2.1-2.5-2.4-3.9
			c-1.9-7.9,12.8-23.5,20.8-21.9c4,0.8,8,2.1,11.8,3.6c14.1,5.7,16.9,15.2,8.1,27.6c-0.8,1.2-2.1,2.3-3.4,2.8
			c-6.4,2.2-12.9,4.2-19.2,6.1C628.3,705.8,623,701,617.8,696z M692.9,761.6c0,0-3.3-2.5-3.1-4.6c1-7.3-1.6-11.4-8.4-13.8
			c-2.1-0.8-3.8-3.2-5.1-5.2c-0.2-0.4,2-2.4,3.4-4c-7.8-5.9,2-11.8,3.2-19.2c5.3,15.7,20.7,18,31.5,26.1c5.9,4.4,13.4,8.1,13.9,19
			c-7.6-4.4-13.4-10.4-19.2-10.4C704.3,749.5,699.4,756.4,692.9,761.6z M679.3,712.1c-5.7-1-11.7-2.3-16.8-4.9
			c-1.6-0.8-1.9-6.8-0.8-9.7c5.9-16.6,2.5-24.3-14-28.3c-5.7-1.4-10.3-2.8-8.1-9.7c2.3-7.2,8.5-8.1,14.7-6.7
			c2.9,0.7,5.8,2.7,8.1,4.8c12.4,11.4,28.4,19,37,34.7c1.2,2.3,4.7,3.2,6.7,5.2c4.4,4.2,8.7,8.6,13.4,13.3c-8,7.3-13.7,7.2-21,3.8
			C692.8,712.1,685.6,713.2,679.3,712.1z M751,695.8c-0.2,9.9-1.4,10.5-10.6,7.2c-9.8-3.5-19.9-6.4-29.8-9.6
			c-4.4-1.4-10.3-2.1-7.9-9.1c1.8-5.3,5.1-6.4,11.2-5c7.2,1.7,15,0.5,22.6,0.9C746.5,680.9,751.2,686.1,751,695.8z M737.8,677.1
			c-12.7-1.6-23.4-3-35.1-4.5C709.3,661.6,730.7,664.4,737.8,677.1z M724.4,663.1c-13.1-6.7-22.3-2.6-29.2,9.5
			c1.7,1.1,4,2.6,6.5,4.2c-0.3,0.8-0.4,2.2-0.9,2.3c-2,0.4-4.9,1.4-6.1,0.4c-11.8-9.5-23-19.8-35.1-28.9c-5.3-4-12.4-5.6-18.6-8.6
			c-5.7-2.8-12.8-5.3-9-13.9c3.4-7.7,10.6-6.6,16.5-4.3c17.6,6.9,34.7,15.2,52.5,21.6C710.6,649,718.6,653.4,724.4,663.1z
			 M609.8,621.1c18.3-2.2,36.8-6,54.8-4.6c10.3,0.8,19.9,10.6,29.8,16.3c-0.8,1.5-1.5,3-2.3,4.6c-13.3-5.4-26.6-10.9-40-16.1
			c-3.4-1.3-7.3-2.9-10.8-2.6c-6.7,0.6-13.8,4-13.4,11c0.3,5.2,5.6,10.3,9.2,15c1.2,1.5,4,1.8,6.1,2.6c-3,5-5.1,10.8-9.2,14.5
			c-2.5,2.3-8.4,2.7-12.1,1.6c-5.2-1.6-10.7-4.6-14.3-8.6c-2.2-2.5-1.2-8-1.6-12.1c-0.4-3.7,0.1-7.9-1.4-11.1
			C602,625.4,604,621.8,609.8,621.1z M587,642.7c-3.4-10.2,4.8-12,10.1-15.7c10.6,8.2,4.7,18.7,4.2,28c-0.1,1.6-8.3,3.1-12.9,3.6
			c-0.7,0.1-2.5-5.6-2.9-8.8C585.2,647.5,587.7,644.7,587,642.7z M607.4,659.9c5,0.4,9.7,5,14.1,7.6c-4.6,11.1-8.3,20.3-12.8,31.3
			c-1.3-1.1-4.9-3-6.8-6c-3.4-5.1-6.4-9.6-13.6-7.6c-7.1,2-12.8-2.7-12.6-7.8c0.2-4.8,5.1-11.4,9.7-13.7
			C591.9,660.6,600.1,659.4,607.4,659.9z M598.3,747.5c1.3,8.5,0.4,16.7,7.8,22.7c-4.3,7.1-4.2,6.9-14.2,1.8
			c-5-2.5-10.4-4.3-15.4-6.2c-3.4-7.1-7.3-14.4-10.5-21.9c-1.7-4-3.5-8.5-3.1-12.6c0.5-5,2.3-10.5,5.5-14.2
			c1.1-1.3,7.9,2.4,12.1,3.8c1.2,0.4,2.3,0.9,7.1,2.9c0.1-8.6,0.1-15.2,0.4-21.8c0.2-4.2-0.6-11.3,1.4-12.2
			c6.6-3.1,8.3,3.8,10.3,8.1c2.8,5.9,4.9,12.2,6.8,18.4c0.4,1.4-0.5,3.7-1.6,5.1C599,729.2,596.6,736.7,598.3,747.5z M603.5,754
			c1.3-2.2,7.7-2.8,11.4-2.1c18.5,3.4,30.3,18.7,28.3,38c-2.7-1.3-4.6-2.1-6.4-3.1c-10.3-5.9-21.4-10.3-28.1-21.7
			C606.6,761.4,600.8,758.7,603.5,754z M579.9,638.2c1.4,0.6,2.7,1.3,4.1,1.9c-2.9,10.8-5.9,21.5-8.9,32.7c-7.4-2.2-12.1-3.6-19.9-6
			C564.2,656.5,572,647.3,579.9,638.2z M552.4,672.9c20.3,1.4,36.2,24.7,30.2,43.2c-7.5-3.2-15.4-7.1-22.5,2.9
			c-5-7.2,1.3-21.9-16.4-16.4C547,691.5,549.8,682.1,552.4,672.9z M541.5,757c1.4-14.1-0.5-28.6,0.2-42.8c0.2-3.5,4.7-6.9,7.2-10.3
			c1.1,0.5,2.1,1,3.2,1.5c2,10.3,3.5,20.6,6.1,30.7c1.3,5.1,4,10,6.9,14.5c10.5,16.2,6.9,28.5-12.1,36.9
			C546.9,777.9,540.2,769.7,541.5,757z M556.1,831.9c-4.9-16.7-9.7-33.4-14.6-50.1c0.8-0.2,1.7-0.4,2.5-0.6
			c11.1,14.8,14.3,32,14.7,49.9C557.9,831.3,557,831.6,556.1,831.9z M556,790.3c5.4,1.6,9.4,2.8,15.5,4.6
			c-3.5,4.8-6.2,8.5-10.3,14.1C559.2,801.8,557.9,797,556,790.3z M674,798.9c3.3,5.7,6.4,11.7,10.4,17c2.9,3.8,7,6.7,10.7,10
			c0.7,0.6,1.8,0.7,2.6,1.1c15.2,6,16.2,10.5,5.3,23c10-12,20.8,0.5,32.7-2.5c-6.1,13.8-13.3,24.6-24.8,30.9
			c-15.7,8.6-21.6-7.8-31.6-14.4c0.8-6,1.9-10.8,10.6-8.4c3.1,0.8,7.3-2.4,11-3.9c-7.5,0.3-14.6,1.6-18.9-7.8c-2.6-5.7-9-6.4-13-0.1
			c-2.7,4.2-4.2,9.2-5.8,14c-2,6-5.5,7.1-11,4.7c-4-1.7-8.2-3.7-12.5-4.3c-7.6-1.2-12.5,3.8-13.6,12.3c-1.1,8.3,3.7,10.4,10.7,11
			c8.5,0.7,16.9,2.5,25.3,2.6c3,0,6.5-3,9.1-5.4c2.9-2.8,5.1-6.4,7.6-9.7c3.9,3.7,7.8,7.5,12.6,12c-31.1,10.8-60.1,11.8-89.1,2.1
			c-18.1-6.1-32.6-17.7-37.2-36.5c-3.3-13.2-6.9-27.9,4.7-40.3c3.5-3.8,5.2-9.3,8-14.5c-4.6-1.2-8.2-2.1-12.7-3.3
			c3.5-5.5,5.9-11.4,10.2-14.9c2.2-1.8,8.5-0.5,11.9,1.3c11.4,6.1,12.6,6.5,21.4,1.3c6.8,3.7,12.6,6.8,18.4,10
			c0.6-0.7,1.3-1.4,1.9-2.1c0.7,3,1.1,6.1,2,9c0.9,2.9,2.1,5.7,4.7,7.9c-1.1-2.7-2.2-5.5-2.9-7.2c5.1-1.2,13.5-1.5,13.9-3.5
			c1.3-6.4,1.5-14.3-1.2-20c-6.8-14.4-18.7-22.5-35.1-24.2c-9.7-1-12.2-5.5-7.8-14c4.7-8.9,13.4-16.7,2.2-28.1c1-0.7,2-1.3,3-2
			c5.7,1.5,12.3,1.7,16.9,4.8c5.4,3.6,3.4,9.6,1,15.4c-2.2,5.4-2.2,11.9-2.5,18c0,1.2,3.5,3.8,5.2,3.6c8.4-0.7,12.7,4.8,17.1,10.4
			c2.4,3,3.9,7,6.8,9.1c2.7,1.8,6.8,1.7,10.2,2.3c4.4,0.7,10.2-0.2,12.9,2.3c14.4,13.4,19.8,12.2,26.6-6.5c1.3-3.6,5.2-6.2,7.9-9.2
			c2.7,3.2,6.7,6.1,8,9.8c4.6,13.2,8.9,26.5,12.1,40.1c3,12.7,4.5,25.8,6.7,38.9c-10.3,4.5-16.5,0.7-22.8-5.8
			c-5-5.3-11.6-9.1-17.3-13.7c-3.1-2.5-6.3-5.1-8.6-8.3c-5.1-7.2-9.7-14.7-14.4-22.1c-0.8,0.4-1.6,0.8-2.4,1.2
			C672.1,794.6,672.8,796.9,674,798.9z M678.3,850.5c-4,9.9-6.2,23.8-13.7,28.1c-7.5,4.3-20.6-0.8-31.1-2.7
			c-1.7-0.3-4.1-5.4-3.6-7.6c1.5-6.4,6.7-8,12.6-6.2c6.3,1.9,12.5,4.1,19,6.3c4.3-9.3,8.1-17.7,12-26c1.1,0.2,2.2,0.3,3.3,0.5
			C677.3,845.4,679.1,848.4,678.3,850.5z M768.2,766c-2,26.1-13.1,49.1-28.1,71c-0.6-8-0.9-16.1-1.9-24c-0.5-3.4-2.7-6.6-4-10
			c-1.4-3.8-4.1-8-3.5-11.5c1.5-8.4,0.2-15-6.8-20.2c-1-0.8-1.2-2.8-1.7-4.1c13.5-10.3,13.5-15.9-0.8-26.3
			c-6.6-4.8-14.3-8.3-21.1-12.9c-3.5-2.3-6.3-5.8-8.5-10c8.9,1.8,16.8,8.9,23.3,1.7c9.8,4.3,18.1,8.5,26.8,11.5
			C764.1,738.7,769.9,743.3,768.2,766z"/>
		<path d="M226.6,580.1c-0.1-3.6-0.3-7.3-0.2-10.9C226.1,573,226.2,576.6,226.6,580.1z"/>
		<path d="M373.1,123.6c0.1,0.1,0.2,0.1,0.3,0.2c0-0.1,0-0.2,0-0.3C373.3,123.6,373.2,123.6,373.1,123.6z"/>
		<path d="M548.6,173.7c2.1,2.1,4.3,3.9,6.5,5.9c2.1-2.5,5.8-4.7,6.1-7.4c1.9-14.1,3.2-28.3,4.2-42.6c0.2-2.9-1.8-6-3.7-11.6
			c-9.4,11.1-17.8,19.7-24.5,29.5c-4.4,6.5-3.6,13.8,4.3,18.9C544.4,168.2,546.2,171.3,548.6,173.7z M544.2,144.6
			c4.6-5.6,9.5-11,14.2-16.5c1,0.4,2,0.7,3.1,1.1c-1.6,14.5-3.3,29-5.1,45.2c-4.2-4.2-6.7-7.3-9.8-9.7
			C537.4,157.5,536.8,153.7,544.2,144.6z"/>
		<path d="M432,401.7c-1.5,4.5-2.8,9.1-4.2,13.6c-0.4-0.2-0.9-0.3-1.3-0.5c0-10.4,0-20.8,0-31.2c-0.6,0-1.3,0-1.9,0
			c-1.5,21.3-2.9,42.7-4.4,64c0.7,0.1,1.3,0.2,2,0.3c5.9-19.5,11.8-38.9,17.7-58.4c-1-0.4-2-0.8-3-1.1
			C435.3,392.9,433.5,397.3,432,401.7z"/>
		<path d="M541.8,324.6c6,10.9,12.3,22.4,18.6,33.8c-1.3,0.9-2.5,1.8-3.8,2.7c-10.1-10.2-20.2-20.4-30.2-30.5
			c-0.6,0.7-1.3,1.4-1.9,2c13,13,26,26,40.4,40.3C566.6,356.1,551.9,328.3,541.8,324.6z"/>
		<path d="M489,415.9c-1.8-15.5-3.4-29.8-5-44c-1.5,0.2-3,0.4-4.4,0.6c2.6,18,5.2,36,7.9,54.1c0.8-0.1,1.6-0.2,2.4-0.2
			c4.7-12.2,9.5-24.4,14.2-36.7c-1-0.4-1.9-0.8-2.9-1.2C497.3,397.2,493.5,405.9,489,415.9z"/>
		<path d="M397.8,317.1c-6.1,7-12.2,14.1-19.9,22.9c2.9-11.7,5.2-20.8,7.5-29.9c-0.9-0.2-1.8-0.4-2.7-0.6
			c-4.1,14.7-8.1,29.4-12.2,44.1c0.9,0.3,1.8,0.6,2.7,0.9c8.8-11.9,17.6-23.7,26.4-35.6C399,318.3,398.4,317.7,397.8,317.1z"/>
		<path d="M406.6,372.9c0-10.4,0-17.8,0-25.3c-0.4,0-0.8,0.1-1.2,0.1c-2.1,12.1-4.2,24.2-6.5,37c10.7-6.1,21.8-20.8,21.7-28.9
			C416.3,361.2,412.4,365.9,406.6,372.9z"/>
		<path d="M490.8,351.6c4.3,12.2,15.6,27.7,21.6,28.6c-6.7-10.4-13.1-20.3-19.5-30.1C492.2,350.5,491.5,351,490.8,351.6z"/>
		<path d="M456.1,389.2c0.9,0.1,1.8,0.1,2.7,0.2c1.4-10.1,2.7-20.3,4.1-30.4c-1.4-0.1-2.8-0.3-4.2-0.4
			C457.9,368.8,457,379,456.1,389.2z"/>
		<path d="M633.8,805.9c-9.6,0.8-16.5-1.4-23.1-7.8c-2.4-2.3-6-3.6-9.3-4.8c-10.4-4-21.1,2.8-21.8,14c-0.3,4.4-0.1,8.9-0.1,16.1
			c-0.1,2-0.6,6.7-0.7,11.5c-0.1,8.2,4.9,11.8,12.1,13.5c6.7,1.5,13.5,2.8,19.9,5.1c12.8,4.5,17.1,3.8,25.3-6.8
			c4.1-5.3,7.7-10.9,11.2-16.6C655.1,817.2,648.6,804.7,633.8,805.9z M642.7,828.2c-4.8,7.7-10.2,15.2-16,22.1
			c-1.6,1.9-6.3,2.6-9.1,1.9c-8.5-2.2-16.7-5.7-25.2-7.8c-6.7-1.7-10.1-5-8.7-11.9c0-7.6-0.2-15.3,0-22.9
			c0.4-11.6,9.9-16.8,20.1-11.2c2.2,1.2,4.5,2.6,6.3,4.3c6.3,6.2,13.6,8.4,22.5,8C647.8,810,650.7,815.4,642.7,828.2z"/>
	</g>
</g>
</svg>
