<?xml version="1.0" encoding="utf-8"?>
<!-- Generator: Adobe Illustrator 18.1.0, SVG Export Plug-In . SVG Version: 6.00 Build 0)  -->
<svg version="1.1" xmlns="http://www.w3.org/2000/svg" xmlns:xlink="http://www.w3.org/1999/xlink" x="0px" y="0px"
	 viewBox="0 0 1000 1000" style="enable-background:new 0 0 1000 1000;" xml:space="preserve">
<style type="text/css">
	.st0{fill:none;stroke:#ED1C24;stroke-miterlimit:10;}
</style>
<g id="Guides">
</g>
<g id="Metrics">
	<line class="st0" x1="0" y1="897.7" x2="1000" y2="897.7"/>
	<line class="st0" x1="0" y1="99.3" x2="1000" y2="99.3"/>
</g>
<g id="Art">
	<g>
		<path d="M873.7,219.8c-0.8-0.2-1.5-1-2.1-1.8c-5.1-6.4-12.5-9.1-19.3-12.7c-4.2-2.2-8.6-4.1-12.8-6.4c-6.6-3.7-13.1-7.6-19.6-11.4
			c-4.5-2.6-9.1-5-13.3-7.9c-13.8-9.6-28.1-18.1-44.2-23.4c-15.2-5-30.3-10.3-45.4-15.5c-6.6-2.2-13.4-3.9-19.8-6.6
			c-15.6-6.7-30.8-13.8-47.4-17.9c-14.9-3.7-29.9-6.5-45-8.4c-7.8-1-15.8-0.5-23.7-1.2c-15-1.4-30-3.4-45-4.5
			c-10.1-0.8-20.3-0.5-30.5-0.9c-6.2-0.2-12.3-0.7-18.5-1.1c-2.5-0.2-4.9-0.6-7.4-0.4c-8.8,0.4-17.6,1.2-26.4,1.5
			c-11.7,0.3-23.4,0.1-35.2,0.4c-7,0.2-13.9,0.6-20.8,1.6c-9.5,1.3-18.8,3.2-28.2,4.8c-3.6,0.6-7.2,1-10.8,1.7
			c-9.7,1.8-19.4,3.9-29.1,5.7c-13.6,2.5-27.3,4.2-40.7,7.5c-8.8,2.2-17.6,3.9-26.4,5.5c-11.1,2-22.3,4.2-33.3,6.7
			c-3.9,0.9-7.6,2.8-11.4,4c-3.4,1.1-7,1.6-10.4,2.7c-13.8,4.1-27,9.9-41.4,12.3c-6.1,1-12,2.8-18,4.3c-2,0.5-3.9,1.3-5.8,1.7
			c-7,1.8-14.3,2.8-20.9,5.3c-6.9,2.7-13.1,7.1-20.4,9.3c-0.5,0.1-1,0.5-1.3,0.8c-3.5,4.7-7.1,9.4-10.3,14.3c-1.9,3-1.5,6.4,0.4,9.5
			c3.2,5.3,6.4,10.6,9.7,15.9c3.5,5.6,7.6,10.9,10.5,16.8c3,6.1,8.7,9.3,13.1,13.9c3,3.1,6.6,5.7,9.7,8.8c2.1,2.2,3.9,4.7,5.8,7.1
			c0.4,0.5,0.9,1.1,1.5,1.5c1.9,1.3,4,2.3,5.7,3.7c2.3,1.9,4.4,4.1,6.4,6.3c3.7,4.4,7.6,8.7,10.7,13.5c4.7,7.2,8.8,14.7,13,22.2
			c5.1,8.9,10.8,17.6,14.8,27c3.3,8,8.4,14.4,13.7,20.9c4,4.8,8,9.6,11.8,14.6c3.8,5.1,7.3,10.3,10.7,15.6
			c3.5,5.4,7.2,10.8,9.9,16.6c3.4,7.4,5.8,15.4,9,22.9c2.7,6.4,5.9,12.6,8.7,19c2.1,4.8,3.8,9.9,6,14.7c3.2,7,6.5,13.9,9.9,20.7
			c0.7,1.5,1.7,2.8,2.7,4.2c2.2,3.3,4.6,6.6,6.7,10c2,3.5,3.3,7.5,5.7,10.6c2.9,3.8,6,7.3,7.3,12c0.4,1.3,0.7,2.8,1.5,3.7
			c4.7,4.4,6.4,10.4,9.4,15.8c3.3,6,5.8,12.4,8.5,18.7c1.8,4.3,3.7,8.6,5.1,13c3,9.4,5.2,19,8.6,28.2c2.9,7.8,4.2,16.2,9.1,23.1
			c0.8,1.2,1.2,2.6,1.9,3.8c3.1,5,6.2,9.9,9.5,14.8c2,3,4.1,5.9,6.2,8.8c1,1.4,1.9,3.1,3.2,4.1c4.8,3.8,6.9,9.5,10.5,14.2
			c0.8,1,1,2.5,1.4,3.8c2.1,6.2,4.3,12.3,6.2,18.5c1,3.4,1.4,7,2.4,10.3c2.8,8.6,5.5,17.2,8.7,25.6c3.2,8.2,6.8,16.3,10.4,24.3
			c2.1,4.7,4.5,9.3,6.8,14c2.5,5.2,4.6,10.7,7.5,15.7c3.7,6.4,9.1,11.3,15.1,15.5c2.7,1.9,5.8,3.6,7.6,6.2c4.7,6.9,9.1,14.1,13,21.5
			c4.3,8.3,7.8,17,11.8,25.4c2.7,5.7,5.8,11.2,8.7,16.8c1.4,2.8,2.7,5.6,4.3,8.4c1.1,1.9,2.4,3.8,4.7,2.7c1.5,1.7,2.4,3.3,3.8,4.1
			c7.7,4.8,13.4,11.7,19.1,18.5c1.1,1.3,3.6,2.9,4.6,2.4c3-1.4,6.3-3.2,8.3-5.7c5.2-6.7,9.9-13.8,14.7-20.9c2.7-4,5.1-8.3,8-12.2
			c4.5-6,9.3-11.8,14.1-17.5c3.2-3.8,6.6-7.4,10-11.1c4.1-4.4,8.6-8.5,12.2-13.3c6.9-9.2,13.2-18.8,19.8-28.3
			c0.7-1.1,2.1-1.8,2.6-2.9c1.2-2.6,2-5.3,3.1-8c0.3-0.8,1.1-1.5,1.6-2.2c1.5-2.1,3.2-4,4.4-6.2c3.1-5.8,5.4-12.2,9.2-17.5
			c5.6-7.8,10.5-16,14.7-24.6c1.6-3.2,3.4-6.3,5-9.5c1.1-2.1,1.9-4.3,3.1-6.4c2.7-5,5.6-9.9,8.4-14.9c2.2-3.9,4.3-7.8,6.7-11.6
			c2.1-3.2,4.6-6.2,6.7-9.4c3.8-6,7.2-12.4,11.3-18.3c3.7-5.4,8.3-10.2,12.1-15.5c7.9-11.2,13.8-23.6,19.5-36.1
			c1.2-2.7,2.8-5.4,4.5-7.8c7.6-10.3,12.6-22,17.7-33.5c3.4-7.6,6.3-15.4,9.8-23c4-8.7,8.4-17.2,12.6-25.7c2.1-4.3,4.5-8.4,8.2-11.6
			c2.6-2.2,5.3-4.9,6.6-8c2.2-5,3.8-10.4,4.8-15.7c2.3-11.3,5.7-22.1,10.3-32.6c4.4-10.1,8.2-20.4,12.1-30.7
			c2.3-6,4.4-12.1,6.5-18.2c3.3-9.6,6.3-19.3,10.1-28.7c5.3-13.2,11.3-26,16.7-39.2c3-7.4,6.4-14.4,12.2-20.1c4.2-4,8.5-8,12.4-12.3
			c4.3-4.7,8.6-9.7,9.6-16.4c0.6-3.9,0.7-7.9,1.5-11.7c1.6-7.8,4-15.1,10.4-20.7c5.5-4.8,10.3-10.4,12.4-17.7
			c0.9-3.2,0.6-6.8,1.7-9.9C878.5,220.6,876.2,220.4,873.7,219.8z M401,734.5c-2.6-3.8-5.3-7.2-7.5-10.9c-2.6-4.4-5.1-9-7-13.8
			c-1.8-4.5-2.8-9.3-4.2-13.9c-0.2-0.7-1.3-1.2-1.2-2c-1.6-5.2-3.2-10.4-5-15.5c-0.9-2.6-2.1-5.2-3.3-7.7c-1.4-3.1-0.7-6,0.2-9
			c3-10,15.6-19.7,25-22.6c-0.5,1-0.9,1.7-1.2,2.5c0.2,0,0.4,0.2,0.5,0.1c6.9-5.5,14.9-7.5,23.5-7.8c3.6-0.1,7.3-0.1,10.9-0.3
			c5-0.2,9.8,1.2,13.5,4.1c6.6,5.3,13.1,10.9,18.7,17.3c7.2,8.1,10.5,18.2,11.8,29c1,8.4,1.1,16.7-1.5,24.9
			c-1.4,4.4-2.8,8.7-4.3,13.6c4-4.3,3.8-10.1,6.9-14.5c0,0.8,0.1,1.7,0,2.5c-1.9,13.9-8.3,24.6-20.7,31.9
			c-9.2,5.5-18.7,7.8-29.4,6.9c-5.7-0.5-11.3-0.4-16.7-2.9c-4.6-2.2-8-5.5-10.7-9.7C398.5,735.4,398.2,734.1,401,734.5z
			 M641.5,689.8c-3.2,5.4-6.7,10.6-10,16.1c-4,6.7-7.8,13.4-11.6,20.2c-4.3,7.8-8.4,15.7-12.7,23.4c-1.8,3.3-3.8,6.4-5.8,9.5
			c-1.7,2.7-3.3,5.5-5.2,8.1c-1.1,1.6-2.3,3.4-3.9,4.3c-4,2.2-8,4.7-12.4,5.7c-2.5,0.6-5.8-0.9-8.4-2.2c-4.1-2-8.1-4.3-11.8-7
			c-2.4-1.8-4.4-4.4-6.2-6.9c-6.5-9.1-9.6-19.2-8.9-30.4c0.1-0.9,0-1.9,0-3.7c-1.4-10.4,0.8-21.2,5.2-31.4c1.6-3.8,4.3-7.1,6.7-10.5
			c2.6-3.7,5-7.5,8-10.8c1.7-1.8,4.3-3,6.7-3.8c8.9-2.9,17.9-4.5,27.3-2.2c2.8,0.7,5.8,0.5,8.7,0.3c9.2-0.8,17.8,1.4,26,5.2
			c4.6,2.1,8,6,9.9,10.8C643.7,685.8,642.4,688.2,641.5,689.8z M832.9,300.3c-5.5,4-8.5,9.9-12.6,14.9c-4.6,5.6-7.2,12.3-9.8,18.9
			c-2.8,7.2-6.1,14.3-9,21.5c-4.1,10.4-8.1,20.9-12.1,31.3c-1.4,3.6-2.9,7.1-4.1,10.7c-1.4,4.1-2.2,8.5-3.8,12.4
			c-4.7,11.5-10,22.7-14.6,34.3c-3.4,8.8-6.4,17.7-8.7,26.8c-2.3,9.3-4.2,18.6-8.6,27.2c-1.2,2.2-3.1,4.3-5.1,5.8
			c-3.7,2.8-5.5,6.5-7.4,10.8c-4.2,9.6-9.5,18.7-13.9,28.2c-3.4,7.1-6,14.6-9.3,21.7c-2.8,6.1-5.9,12.1-8.9,18.1
			c-3.6,7-7.3,14-11,20.9c-5.3,10.2-10.2,20.7-16,30.6c-3.9,6.7-9.2,12.5-13.7,18.9c-3.4,4.7-6.6,9.6-9.8,14.4
			c-2.4,3.6-4.7,7.2-7,10.9c-2.8-2.5-5.2-5.4-8.3-7.2c-9-5.2-18.6-8.4-29.3-8.1c-6,0.2-12-1.1-18-1.4c-10.4-0.4-20.4,0.6-29.5,6.6
			c-4.7,3-8.1,6.5-10.2,11.6c-0.9,2.3-3.1,4.1-4.3,6.4c-1.8,3.3-3.6,6.8-4.8,10.4c-1.9,6.1-3.5,12.4-4.8,18.7
			c-1.1,5.9-1.5,11.8,0.4,17.7c1,3.2,1.6,6.7,2,10.1c1.3,10.3,7.6,17.8,13.5,25.5c5.4,7,13.8,9.5,21.3,13.1c2.1,1,5.1,0.4,7.7,0.6
			c0.9,0.1,1.8,0.2,3.4,0.4c-2.5,4.8-4.4,9.4-7.2,13.5c-6,8.8-12.4,17.4-18.9,25.9c-2,2.6-4.8,4.6-7,7.1c-5,5.9-10,11.9-14.9,18
			c-5.7,7.1-11.5,14.1-16.9,21.5c-3.3,4.5-5.6,9.8-8.8,14.4c-2,2.9-4.7,5.3-7.3,7.6c-2.3,2-5,1.4-7.1-0.6
			c-7.9-7.5-16.1-14.8-23.3-22.9c-5-5.6-9-12.2-12.7-18.8c-4-7-8-14.2-10.6-21.8c-2.5-7.3-6.6-13.6-10.1-20.3
			c-4.6-8.6-11.3-15.2-18.8-21.2c-2.3-1.9-4-4.5-5.9-6.9c-2.3-3-4.7-6-6.9-9.1c-1.1-1.5-1.9-3.2-2.7-4.9c-2.5-5.7-4.8-11.5-7.2-17.1
			c4,1.6,7.9,3.5,12,5c10.7,3.8,21.8,3.4,32.3,0.8c11-2.8,20.4-9.1,27.9-18.3c5.8-7.1,7.6-15,9.1-23.4c2.1-11.7,1-23.3-1.6-34.7
			c-1.4-6.1-3.7-12.2-6.7-17.7c-4-7.2-9-13.9-14.1-20.5c-1.6-2.1-4.6-3-7-4.4c-8-4.8-16.7-6.8-26-6c-4.8,0.4-9.6,0.5-14.3,1.1
			c-3.8,0.5-7.6,1.3-11.2,2.6c-5,1.9-9.8,4.5-14.6,6.8c-6.4,3-10.3,8.6-14.1,14.2c-1.2,1.7-2.3,3.4-3.8,5.5c-1-0.9-1.9-1.5-2.6-2.4
			c-6-7.8-12-15.5-17.9-23.4c-2.7-3.6-5.4-7.4-7.7-11.3c-1.3-2.2-1.8-4.9-2.9-7.2c-7-14.5-12.7-29.6-15.6-45.5
			c-1.8-10-6.9-18.3-11.4-27.1c-1.2-2.4-2-5-3.3-7.4c-4-7.7-8-15.4-12.2-23.1c-3.1-5.8-6.3-11.5-9.6-17.1c-2.1-3.6-4.4-7.1-6.8-10.4
			c-6-8.5-11.4-17.4-15.1-27.1c-3.6-9.3-7.1-18.6-10.9-27.8c-4.2-9.9-8.3-19.8-13.1-29.4c-3.2-6.4-7.4-12.3-11.3-18.2
			c-4.4-6.6-8.9-13-13.6-19.3c-3.9-5.3-8.6-10.2-12.3-15.7c-3.9-5.9-7-12.4-10.6-18.6c-4.7-8.4-9.5-16.8-14.3-25.2
			c-2-3.5-4-6.9-5.9-10.5c-5.1-9.2-11.2-17.4-18.7-24.8c-2.4-2.3-4.5-5-6.8-7.7c4.1-2.9,7.8-4.6,12.7-4.3c4.3,0.2,8.6-1.4,13-1.6
			c7.8-0.4,13.6-4.1,18.5-9.9c3.5-4.1,7.7-7.6,11.8-11.1c1.9-1.6,4.5-2.6,6.8-3.7c7.6-3.7,16-4.7,24.1-6.6c4.9-1.2,9.9-2.1,14.9-2.9
			c11-1.8,21.8-0.3,32.4,2.6c9.9,2.8,19.7,6,29.7,8.3c6.3,1.4,12.7,1,19.1-1c7.4-2.4,14.9-4.6,22.4-6.5c7.1-1.9,14.3-3.7,21.5-4.8
			c4.9-0.8,9.9-0.3,14.9-0.5c16-0.8,32-1.7,47.9-2.4c8.2-0.4,16.4-0.3,24.6-0.8c7.4-0.4,14.8-1.4,22.3-2.1
			c6.8-0.6,13.6-1.2,20.5-1.5c7-0.3,14.1-0.2,21.1-0.2c6.6-0.1,13.3-0.5,19.9-0.2c8.6,0.4,17.2,1.9,25.2,5.2c4.7,1.9,9,4.6,13.4,7.1
			c4.3,2.4,8.5,3.7,13.3,1.5c2-0.9,4.4-1.3,6.7-1.4c8.1-0.3,15.7-2.3,22.9-6c2.3-1.2,4.9-2,7.4-2c8.5-0.1,17-0.1,25.5,0.6
			c2.9,0.2,6.4,1.7,8.2,3.8c4,4.5,9.1,6.3,14.3,7.6c8.2,2.2,13.8,7.2,18.7,14c5.2,7.2,12.1,12.2,21.6,12.9c4.8,0.3,9.6,2,14.4,2.7
			c7.9,1.2,15.9,1.8,23.8,3.2c8,1.5,16,3.7,23.9,5.5c11.6,2.6,22,7.9,32.3,13.6c6.1,3.4,12,7.1,18,10.5c2.1,1.2,4.4,2,7.2,3.2
			C837.9,295.2,835.7,298.2,832.9,300.3z M869.2,232.2c-3.4,7.2-7.7,13.6-13.3,19.4c-3.1,3.2-4.9,7.6-7.2,11.5
			c-4,6.7-5.1,14.2-5.9,21.7c-0.1,0.6-0.2,1.2-0.4,1.8c0,0.2-0.2,0.3-1,1.3c-5.7-3.3-11.2-6.7-16.8-9.9c-5.7-3.1-11.6-6-17.4-8.9
			c-0.7-0.4-1.6-0.4-2.3-0.8c-13.8-8.3-29.6-10.1-44.8-13.4c-9.1-2-18.5-2.4-27.7-3.8c-4.3-0.6-8.5-1.8-12.8-2.9
			c-6.3-1.5-10.7-5.9-14.1-10.7c-4.9-7-11.9-11.2-18.8-15.4c-4.2-2.5-9.7-3.3-13.3-6.4c-6-5.2-13.2-4.7-19.9-6.2
			c-4.4-1-9.1-0.9-13.7-1.2c-6.5-0.5-12.3,2.1-18,4.6c-14,6.1-27.6,6.8-41.8,0.1c-9.5-4.5-19.7-8-30.5-8.4c-9.9-0.3-20,0.6-29.9-0.2
			c-9.6-0.8-18.9,0.5-28.2,2c-5.3,0.9-10.4,1-15.7,0.9c-3.8-0.1-7.6,0.9-11.4,1.2c-6,0.4-12,0.6-18,1c-5.9,0.4-11.7,0.9-17.6,1.2
			c-4,0.2-8.1-0.1-12.1-0.1c-11.9,0-23.9-0.1-35.8,0.1c-3.4,0.1-6.7,1.1-10.1,1.7c-1.9,0.3-3.9,0.6-5.8,1
			c-8.1,1.4-15.8,4.1-23.5,6.8c-8.1,2.8-16.9,4.1-25.5,4.9c-4.7,0.4-9.6-1.4-14.3-2.6c-5.8-1.5-11.5-3.5-17.3-4.9
			c-6.4-1.6-12.9-3.3-19.5-4.1c-14.2-1.9-28.4-2-42.3,2.4c-11,3.5-20.7,9.2-29.4,16.6c-2.7,2.3-4.7,5.5-7.4,7.9
			c-3.6,3.1-6.8,7.2-12.1,7.7c-1.9,0.2-3.8,0.5-5.6,0.3c-8.5-0.8-16.5,1.6-24.7,3.2c-3.5,0.7-5.8-0.2-7.9-2.6
			c-9.4-10.5-19.1-20.8-28.2-31.6c-3.8-4.5-6.3-10-9.4-15c-0.4-0.6-0.6-1.4-1.1-1.9c-3.9-4.1-2.9-8.3-0.3-12.5
			c2.5-4.2,5.6-7.7,10.3-9.6c2.4-1,4.7-2.3,6.8-3.7c7.3-4.8,15.7-6.2,24-8.2c13-3.1,26.1-6.1,39-9.7c9.4-2.6,18.5-6.2,27.7-9.2
			c2.4-0.8,4.9-1.1,7.3-1.8c8.7-2.5,17.2-5.3,25.9-7.6c5.9-1.6,11.9-2.5,17.9-3.8c11.2-2.3,22.3-4.8,33.5-7c12-2.4,24.1-4.7,36.1-7
			c17.2-3.3,34.4-6.7,51.7-9.7c9.2-1.6,18.5-2.4,27.8-3.3c10.5-1,21.1-2,31.7-2.5c7.5-0.4,15,0.1,22.5,0.2
			c8.1,0.1,16.2,0.1,24.3,0.1c0.1,0,0.2,0,0.3,0c6.1-2.1,12.2-0.2,18.3,0c9.8,0.3,19.5,0.8,29.3,1.3c3.4,0.2,6.8,0.4,10.1,0.8
			c1.3,0.1,2.5,0.8,3.7,1.2c0.5,0.2,1,0.5,1.4,0.5c7.1,0.1,14.1,1,21.2,2.2c7.7,1.3,15.6,1.7,23.4,2.2c2.7,0.2,5.5-0.4,8.2-0.4
			c2.5,0,4.9,0,7.4,0.3c2.9,0.4,5.8,1.1,8.8,1.6c9.9,1.7,19.8,3.5,29.7,5c10,1.6,19,5.8,28.3,9.5c4.2,1.7,8,4.3,12,6.4
			c0.6,0.3,1.3,0.5,2,0.8c2.8,1.1,5.5,2.2,8.3,3.2c1.4,0.5,3.1,0.5,4.5,0.9c7.6,2.2,15.2,4.3,22.8,6.8c12.9,4.3,25.8,8.8,38.7,13.2
			c10.7,3.7,20.6,8.8,30.1,14.8c10.8,6.8,21.6,13.5,32.6,19.9c12,7,24.3,13.6,36.4,20.4c1.3,0.7,2.5,1.6,3.4,2.6
			c0.5,0.5,0.2,1.7,0.5,2.5c0.4,1.2,0.7,3,1.5,3.4C871.1,226.3,871.5,227.2,869.2,232.2z"/>
		<path d="M640.1,431.3c-3.7-9.7-8.3-19.2-10.6-29.3c-3.2-14.1-9.3-26.7-16.9-38.6c-4.7-7.3-11.3-13.5-17.3-20
			c-3.4-3.7-7.1-7.4-11.1-10.4c-7-5.4-15-9.2-23.6-11.4c-6.6-1.7-13-4.3-19.6-5.8c-5.8-1.4-11.9-1.9-17.8-2.7
			c-6.5-0.9-12.9-2.1-19.4-2.3c-10.5-0.2-20.9,0.7-31.4,0.5c-9.7-0.2-17.7,3.9-26,8.1c-4.8,2.4-8,6.5-12.4,9.1
			c-7.4,4.3-11.2,11.7-15.8,18.4c-2.8,4.2-4.7,9-7.6,13.1c-3.5,5-7.7,9.5-11.6,14.1c-1.3,1.6-2.5,3.5-4.1,4.5
			c-8.2,5.2-12.4,13.3-14.3,22.2c-1.4,6.6-2.5,13.4-1,20.6c1.5,7.5,2.5,15.1,5.1,22.4c2.3,6.3,1.1,12.6-1.2,18.2
			c-2.7,6.4-5.4,12.5-6,19.4c-0.2,2.1-0.2,4.2-0.7,6.2c-2.1,7.9,0.6,14.7,4.9,21.1c1,1.5,2.3,2.8,3,4.3c3.2,7,8.3,12.6,14,17.6
			c2.7,2.4,5.6,4.6,8.4,7c7.1,6.2,14.2,12.4,21.4,18.5c6.5,5.6,13.2,11,19.7,16.6c2.7,2.3,4.8,5.2,7.6,7.3
			c6.6,4.7,14.3,6.9,22.2,8.6c4,0.9,8.4,1.1,12,2.9c6.2,3.1,13.1,3.2,19.5,6.1c5.6,2.5,12.9,1.4,19.5,1.6c3,0.1,5.6-1.1,7.7-3.4
			c2.6-2.8,5.8-4.2,9.8-3.5c1.4,0.2,2.9,0,4.4,0c9.4,0,18.5-0.4,27.2-5.1c4.4-2.4,8-5.4,11.3-8.9c3.5-3.7,6.8-7.5,9.9-11.5
			c3.1-4,6.3-8,8.7-12.4c3.7-6.8,6.8-14,10.2-21c0.8-1.5,2-2.9,3.3-4.1c5.7-5.3,10-11.3,11.8-18.9c2-8.4,4.6-16.5,8.4-24.3
			c2-4,2.7-8.6,4-13c0.5-1.6,1.1-3.2,1.2-4.8c0.4-4.6,1.1-9.3,0.9-13.8C647.3,446,643,438.8,640.1,431.3z M386.9,397.9
			c1.1-5.2,3.8-9.7,8.5-12.9c4.1-2.8,8.3-5.8,11.5-9.5c3.4-3.9,5.9-8.7,8.6-13.3c2.1-3.6,3.5-7.6,5.7-11c2.5-3.9,5.7-7.3,8.5-10.8
			c6,1.5,10.5,4.6,14.4,8.6c2.2,2.2,4,4.7,6.2,6.9c6,6.2,12.4,12.1,16.7,19.6c6.3,10.9,13.2,21.8,14.4,34.8
			c0.4,4.8-0.2,9.7-0.1,14.6c0.1,7.7-0.2,15.4,0.9,23c1,7,5.2,12.9,10.3,17.8c4.1,3.9,8.5,7.5,13,10.9c0.9,0.7,2.8,0.2,4.2,0.2
			c-0.3-1.3-0.2-3-1-3.7c-3.7-3.5-7.8-6.6-11.4-10.2c-6.1-6.2-10.3-13.3-10-22.4c0.3-7.7,0.4-15.3,0.5-23c0.2-8.9-2.1-17.2-5.1-25.5
			c-2.8-7.9-7.2-14.7-12.1-21.3c-7.5-10-14.9-20-24.5-28.1c-2.5-2.1-5.6-3.4-8.4-5.1c-0.9-0.5-1.7-1.1-2.9-2c2.1-2.2,3.6-4.6,5.7-6
			c5.1-3.4,10.4-6.9,16-9.5c4-1.8,8.7-2.9,13.1-3.2c10.7-0.7,21.4-0.7,32.1-1c0.7,0,1.4,0.2,2.5,0.5c-0.2,2.3-0.1,4.6-0.6,6.8
			c-1.8,9.5-3.3,19.1-1.8,28.8c0.8,5.4-1.8,10.1-2.2,15.2c-0.9,12-2.5,23.9-0.3,35.9c1,5.4,1.7,10.8,2.7,16.2
			c0.4,2.1,1.4,4.1,2.1,6.1c2.3,6,4.8,12,6.8,18.1c2.1,6.3,2.9,12.8,1,19.3c-0.2,0.7-0.7,1.5-0.5,2.1c0.4,1.2,1.1,2.4,1.6,3.6
			c1.2-0.7,3.3-1.2,3.6-2.1c0.9-3.3,1.3-6.7,1.8-10.1c1.5-10.6-3.2-19.7-6.8-29.1c-4.9-12.8-8.8-25.8-8-39.7c0.2-3.3,0.4-6.7,0.6-10
			c0.3,0,0.5-0.1,0.8-0.1c1.7,3.5,3.5,7,5,10.5c2.7,6,5.1,12.2,7.9,18.2c0.9,1.9,0.6,4.5,3.4,5.5c0.7,0.3,0.4,2.9,0.8,4.3
			c0.4,1.4,1.3,2.7,1.8,4.1c0.6,1.4,1,2.9,1.4,4.4c0.2,0.7-0.3,1.6,0.1,2.1c4,6.5,2.2,13.4,1.3,20.1c-0.6,4.4-2.3,8.6-3.5,12.9
			c-0.5,1.8-0.9,3.6,1.3,4.5c2.3,0.9,3.7-0.5,4.3-2.5c2.7-8.7,4.5-17.4,5.1-26.6c0.8-12.8-4.1-23.1-11.1-33.2
			c-3.1-4.4-4.7-9.9-6.9-14.9c-1.8-4.1-3.6-8.2-5-12.4c-0.9-2.8-1.5-5.8-1.5-8.7c-0.1-8.4,0.2-16.9,0.2-25.3c0-2-1-4.1-0.8-6.1
			c0.4-5,1.2-9.9,1.7-14.8c0.2-1.8,1.2-2.2,2.8-2c7.5,0.9,15.1,1.3,22.5,2.7c5.6,1,10.9,3.6,16.4,4.8c8.8,1.9,17.1,5,24.6,9.9
			c3.2,2.1,6.1,4.7,8.8,7.3c0.7,0.7,0.8,2.5,0.6,3.7c-1.7,7.3-6.2,12.4-12.6,16.1c-11.5,6.6-17.8,16.7-19.7,29.8
			c-1.3,8.6-2.9,17.2-4,25.8c-0.4,3.3,0,6.6,0,9.9c0,7.8-2.9,14.5-8.3,20.2c-0.9,1-1.9,2-2.4,3.2c-0.3,0.8-0.2,2.4,0.3,2.9
			c0.7,0.7,2.5,1.3,3.1,0.8c2.1-1.6,4.3-3.3,5.8-5.5c5.9-9.1,9-18.9,9.3-29.9c0.3-10.3,1.9-20.5,3.4-30.7c0.4-3,2.6-5.8,4-8.6
			c2.8-5.4,6.9-9.8,11.8-13.4c1.2-0.9,2.3-1.8,3.6-2.5c5.8-3,9.1-8.4,12.3-14.6c2.8,2.8,5.3,5.2,7.5,7.8c0.3,0.3-0.4,2.1-1.1,2.6
			c-5.3,4.2-10,8.9-13.2,14.9c-0.7,1.3-1.2,2.7-2.1,3.8c-6.8,8.6-6.5,18.7-6.7,28.8c-0.2,8.8,0,17.6-1.2,26.3
			c-1,7.7-4,15.1-8.5,21.6c-1.5,2.2-4.5,3.5-6.9,5.1c-1.2,0.8-2.6,1.3-3.6,2.3c-0.8,0.8-1.1,2.1-1.6,3.2c1.6,0.4,3.4,1.4,4.7,1
			c9.6-3.6,15.4-10.7,18.4-20.5c3.9-12.5,6-25.2,4.6-38.3c-1.2-11.5,2.8-21.4,8.9-30.8c2.7-4.2,5.6-8.2,9.7-11.3
			c1.2-0.9,1.8-2.5,2.9-4.1c0.9,1,1.8,1.6,2.3,2.5c3.1,5.6,6.2,11.3,9.3,16.9c4.7,8.5,7.3,17.8,9.8,27.1c0.8,3.1,2,6.1,3.1,9.1
			c1.9,5.4,3.8,10.7,5.6,16.1c0.2,0.4,0,1,0,1.7c-1.4,0-2.6,0-3.3,0c-0.9,1.2-1.5,2-2.4,3.2c-0.1,0,0.2,0.1,0.5,0.2
			c1.3,0.6,3.6,1.1,3.7,1.8c0.2,2.3,0.1,4.8-0.8,6.8c-3.5,7.5-9.8,12.4-17.1,15.7c-6.7,3-13.8,4.8-20.6,7.6
			c-6.1,2.5-12.2,5.2-18,8.5c-6.7,3.8-10.5,10.1-13.1,17.2c-3.6,10.2-7.3,20.3-11,30.5c-1.6,4.4-3.6,8.6-5,13
			c-0.7,2.2-2.2,1.5-3.5,1.4c-5.5-0.6-10.9-1.5-16.4-2c-4.1-0.3-8.3-0.3-12.4,0.1c-2.9,0.3-4.4-0.6-5-3.2c-1-4.9-1.5-9.9-2.7-14.7
			c-1.6-6.7-3-13.7-5.7-20c-5.1-12-12.3-22.6-23.2-30.3c-2.2-1.5-4.6-2.8-7.1-3.8c-9.6-4.1-19.8-6.3-30-8.1
			c-7.9-1.4-15.8-2.4-23.7-3.2c-4.7-0.5-9.5,0-14.3-0.3c-2.5-0.1-5.1-0.6-7.6-1.4c-0.9-0.3-1.7-1.7-2.1-2.8c-1.4-5-2.6-10-4.1-15
			c-0.9-2.9-2.6-5.7-3.3-8.6C384,417.7,384.8,407.7,386.9,397.9z M617.2,476.6c-0.3,0.4-1,0.6-1.2,1c-2.8,6.1-8.9,8.1-14.1,10.6
			c-6.4,3-13.7,3.1-20.7,1.1c-0.8-0.2-1.6-0.5-2.4-0.7c-2.1-0.8-2.4-1.9-0.5-3.2c2.4-1.7,4.6-2.8,7.9-1.3c8.3,3.8,15.8,1.8,22.9-3.6
			c3.4-2.6,6.8-4.8,7.9-9.4c0.3-1.3,2-2.2,3.1-3.4C621.1,471.6,619,474,617.2,476.6z M548.2,549.3c-1.1,1-1.8,2.2-2.9,2.7
			c-5.1,2.5-8.3,6.5-10.3,11.9c-0.7,2-3.1,3.5-4.3,4.7c-4.6-6.7-8.8-12.8-12.9-18.9c-1.6-2.5-0.8-4.3,2-4.4c9.1-0.4,18.2-0.1,27,3
			C547.2,548.4,547.5,548.7,548.2,549.3z M478.6,480.8c-1.4,3-3.7,5.2-6.4,7.1c-8.4,5.9-17.7,5.7-26.9,3.7
			c-7.6-1.7-12.3-7.7-15.1-14.6c-1.5-3.6-1.9-7.6-2.4-11.5c-0.1-1,1.2-3,2-3c1.7-0.1,4.1-0.3,4.2,2.8c0.4,8.1,4.8,14.5,9.9,20.3
			c3,3.4,7,5.8,12.2,4.5c4-1,8.3-0.9,12.1-2.3c3-1.1,5.4-3.8,8-5.8c0.7-0.5,1.2-1.1,1.8-1.7C478.2,480.4,478.4,480.6,478.6,480.8z
			 M514.1,586.7c-5.6,4.1-11.9,2.7-18,1.7c-5.9-1-11.7-2.4-17.4-4.2c-5.7-1.8-11.6-3.6-16.5-6.9c-6.6-4.4-12.3-10.1-18.4-15.3
			c-2.5-2.1-5-4.1-7.5-6.1c-5.3-4.3-10.8-8.4-16-12.8c-8.5-7.2-17.5-14-25-22.3c-5-5.5-8.1-13-11.3-19.9c-4.2-9.1-2.6-18.6,0-27.8
			c1.3-4.7,4.1-9,6.4-13.4c0.3-0.5,1.6-0.6,2.5-0.5c8.4,0.4,16.7,0.9,25.1,1.2c2.3,0.1,3.1,0.9,3.4,3c0.9,5.1,1.4,10.3,3,15.2
			c2.8,8.3,8.2,15.2,16.6,17.9c8.9,2.9,18.1,3.7,27.4-0.1c6.6-2.8,12.5-6.1,16.8-13.1c2.8,4.1,5.7,7.2,7.3,10.9
			c2.8,6.3,6.9,12.2,8.1,19.3c1,5.9,2,11.9,3.2,17.8c1.6,8.3,4.2,16.2,10.1,22.7c1.9,2.1,3.9,4.2,5.2,6.6c1.5,2.8,2.2,5.9,3.2,8.9
			c0.3,0.8,0,1.7,0.4,2.4c2.3,4.6-0.5,7.4-3.5,10.2C517.3,583.6,515.9,585.4,514.1,586.7z M531.8,591.9c-4.1,2.5-8.3,2.4-12.5,1.1
			c-0.6-0.2-1.3-1.9-1.1-2.1c2.8-2.9,5.7-5.7,8-7.9c2.4,1.9,4.4,3.4,6.2,5.1C533.8,589.5,533.9,590.6,531.8,591.9z M640.5,468.3
			c-0.4,1.1-0.4,2.2-0.6,3.4c-0.6,5.1-1.5,9.9-4.2,14.5c-2.7,4.6-4.3,9.9-6.4,14.8c-1.9,4.4-3.8,8.7-5.6,13.1
			c-0.4,0.8-0.3,1.9-0.6,2.7c-0.9,2.4-1.7,4.9-3.1,6.9c-2.5,3.5-5.9,6.5-8.2,10.2c-2.4,3.9-4,8.3-6,12.5c-1.4,3-2.7,6.1-4.5,8.9
			c-1.9,2.9-4.1,5.7-6.4,8.3c-4.2,4.9-8.2,10-13,14.2c-5.7,5.1-12.3,8.9-20.5,8.8c-5.8-0.1-11.6,0-17.4,0.1c-6.1,0-9.7-3.6-12.4-8.6
			c-0.9-1.6-0.7-3.3,1.3-4.2c4.7-2.2,7.7-5.6,9.6-10.5c0.9-2.2,3.4-4.1,5.6-5.5c5.4-3.5,6.4-8.2,5.4-14.2c-0.5-2.8,0.9-6.1,1.8-9
			c0.6-2.1,2.1-3.8,2.9-5.9c1.8-4.9,3.2-9.8,5-14.7c2.5-6.8,5.1-13.6,7.6-20.4c0.5-1.4,1.2-2.2,3.1-1.3c8.4,3.9,17.3,3.9,26.3,2.7
			c2.6-0.4,5.4-0.5,7.9-1.4c7.8-2.7,12.5-8.9,15.9-15.9c2.3-4.8,3.3-10.2,5.1-15.2c0.5-1.5,1.5-2.9,2.5-4.1c2.2-2.7,4.5-5.4,6.8-8.1
			c0.3,0,0.6,0,0.9,0C639.6,456.4,642.8,462.1,640.5,468.3z"/>
		<path d="M391.9,299.9c-0.4-6.5-0.9-13.1-2.7-19.3c-1.6-5.5-4.6-10.7-7.6-15.7c-2.2-3.8-4.7-7.7-8-10.5
			c-7.2-6.1-16.2-9.1-24.9-12.3c-4.1-1.5-9-1-13.6-0.8c-10.1,0.4-19.5,3.8-29,6.7c-5.7,1.7-11.3,4.9-16.1,8.5
			c-9.2,6.8-16.2,15.7-22.3,25.4c-0.9,1.4-1.7,3-1.9,4.6c-0.9,5.6-1.5,11.3-2.1,16.9c0.2,0,0.4,0.1,0.5,0.1c0.1,3.3,0.1,6.7,0.5,10
			c1.1,9.3,4.2,17.9,10.6,24.8c3.6,3.9,7.7,7.5,12.1,10.5c3.1,2.1,7,3.1,10.5,4.5c1.9,0.8,3.8,1.8,5.7,2.1
			c13.5,1.8,26.9,0.5,40.2-2.3c3.6-0.8,7.4-1.9,10.4-3.8c7.4-4.6,14.8-9.3,21.4-14.9C386.1,325.4,392.7,314.2,391.9,299.9z
			 M377.6,323c0,1.3-0.9,2.8-1.8,3.9c-7.7,9.3-16.7,16.9-28.4,20.3c-10.1,3-20.3,5.3-31.2,4.6c-7.4-0.5-14.7-1.5-21.6-3.9
			c-3.7-1.3-7-4.4-10-7.2c-10.7-10-14.9-22.6-14.2-37.1c0.1-3.2,0.1-6.4,0.4-9.6c0.5-6.6,4.4-11.5,8.1-16.5c2-2.7,4-5.5,6-8.3
			c0.1-0.2,0.1-0.6,0.2-0.6c4-0.1,5.3-3.9,8-5.7c8.4-5.8,18-9.2,27.3-12.8c4-1.5,8.5-2.1,12.8-2.3c3.1-0.2,6.2,1.4,9.3,1.5
			c8.4,0.3,16.2,2.1,23.4,6.9c5.4,3.6,8.9,8.7,11.9,14.1c2.8,5.1,4.9,10.8,6.8,16.4c2,6.1,2.6,12.4,0.7,18.7c-0.6,2.1,0,4.5-0.4,6.7
			c-0.4,2,0.2,5.3-3.7,4.8c-0.2,0-0.8,1.1-0.8,1.7c0,0.6,0.5,1.2,1.4,2.8C378.5,320.2,377.6,320.7,377.6,323z"/>
		<path d="M785.9,328.3c-4-9.4-8.5-18.6-12.9-27.9c-0.3-0.6-1.2-0.9-1.8-1.4c-0.5,0.6-0.9,1.2-1.2,1.7c-2.5-1.1-5.1-1.9-7.4-3.3
			c-6.3-3.9-13.4-4.4-20.3-5.2c-9.8-1.2-19.7,0.1-29.3,2.6c-1.8,0.5-3.8,0.2-5.7,0.4c-1.4,0.1-3.1-0.1-4.2,0.6
			c-5.5,3.8-10.7,7.8-16.1,11.7c-6.6,4.7-12.2,10.6-15.6,17.9c-4.9,10.3-6.5,21.5-4.5,32.8c0.9,5.2,2.2,10.6,4.6,15.3
			c2.5,4.9,5.9,9.7,10,13.2c5.6,4.7,11.7,9.2,18.8,11.9c4.4,1.7,8.8,3.6,13.4,4.9c4.4,1.2,9,1.7,13.5,2.4c0.8,0.1,1.7-0.6,1.8-0.6
			c3.1-0.4,5.6-0.4,7.9-1.2c8.7-2.8,17.3-5.8,25.8-8.8c1.5-0.5,2.9-1.6,4.1-2.7c2.4-2.3,4.6-4.8,7-7.1c8.7-8.5,13.6-18.8,13.9-31
			c0.1-5.4-0.1-10.8-0.4-16.2C787,334.8,787.1,331.3,785.9,328.3z M771.3,380.6c-0.7-0.5-1.3-0.9-2.2-1.6c-1.7,2.7-3.2,5.4-4.9,7.9
			c-0.6,0.9-1.6,1.5-2.5,2.1c-11.1,7.1-23,11.1-36.4,9.5c-4.3-0.5-8.7-0.2-12.9-1c-10.6-2-21.3-4.3-28.2-13.7
			c-2.6-3.5-4.2-7.8-6.1-11.8c-1.2-2.6-2.2-5.4-2.9-8.2c-0.6-2.4-0.9-5-1.3-7.4c-0.3,0-0.7,0-1,0c0,2.5,0,4.9,0,7.4
			c-0.4,0-0.7,0-1.1-0.1c-2.9-9.8-3.9-19.9-0.3-29.6c3.5-9.5,9-18,17.6-23.9c0.4,0.2,0.7,0.3,1.1,0.5c-0.5,1.8-1,3.5-1.7,5.9
			c2.3-2.3,4.3-4.2,6.1-6.3c8.9-10.3,21.1-11.9,33.6-13.5c8.6-1.1,16.7,0.6,24.9,2.2c9.2,1.7,16.1,7.6,21.4,15.4
			c4.8,7,6.1,14.8,6.2,23c0,1.8,0.6,3.6,0.9,5.4c0.1,0.4-0.3,1-0.4,1.4c-0.6,1.6-1.3,3.2-1.7,4.9c-0.3,1.5-0.4,3-0.4,4.5
			c0,1.2,0.3,2.4,0.4,3.5c0.3,0,0.7,0,1,0.1c0.4-3,0.8-6,1.1-9C786,355.4,780.8,370.8,771.3,380.6z"/>
		<path d="M822.9,200.6c3.1,2.1,6.1,4.2,9.2,6.3c0.3-0.3,0.5-0.6,0.8-0.9C830.4,202.7,827.1,201,822.9,200.6z"/>
		<path d="M849.7,213.8c-0.6,3,1.5,3.4,3.3,4c0.3,0.1,0.9-0.2,1-0.4c0.2-0.3,0.1-1-0.1-1.1C852.6,215.4,851.2,214.7,849.7,213.8z"/>
		<path d="M815.3,193.4c-1.3-0.7-2.6-1.4-3.8-2.1C812.6,195.2,813.3,195.4,815.3,193.4z"/>
		<path d="M466.5,728.2c-3.6,3.7-6.7,7-10.3,10.6C461.6,736,465,732.5,466.5,728.2z"/>
		<path d="M428.9,745.5c-2.7-0.3-5.5-0.6-8.2-0.9c-0.1,0.4-0.1,0.8-0.2,1.2c2.7,0.4,5.5,0.9,8.2,1.3
			C428.7,746.6,428.8,746,428.9,745.5z"/>
		<path d="M416.3,743.5c-2-0.7-4.1-1.5-6.1-2.2c-0.1,0.3-0.2,0.5-0.3,0.8c2,0.8,4,1.6,6.1,2.4C416.1,744.2,416.2,743.8,416.3,743.5z
			"/>
		<path d="M448.2,518.8c2.8,0.7,5.6,1.2,8.5,1.3c2.6,0.1,5.2-0.7,7.7-0.6c1.6,0,3.3,0.7,4.9,1.3c3.9,1.7,7.6,3.8,11.4,5.4
			c2.3,1,3.2-0.5,3.3-3.5c-0.4-0.3-1.1-1.1-2-1.6c-1.6-0.9-3.5-1.3-5.1-2.3c-4.8-2.9-9.7-5-15.4-4.7c-3.4,0.1-6.9,0.1-10.2-0.5
			c-6.2-1.1-12.3-2.7-18.5-3.9c-0.9-0.2-2.4,0.5-2.7,1.1c-0.3,0.7,0.3,2.3,1,2.8c1.3,0.9,3,1.3,4.6,1.8
			C439.8,516.5,444,517.8,448.2,518.8z"/>
		<path d="M473.9,537.2c0.3-0.4-0.6-2.6-1.2-2.7c-4.1-0.7-8.2-1.2-12.3-1.4c-0.9,0-1.8,1.6-2.7,2.5c0.9,0.8,1.8,2,2.8,2.2
			c3.1,0.6,6.3,0.8,10.6,1.3C471.7,538.8,473.1,538.3,473.9,537.2z"/>
		<path d="M462.2,552.6c-4-0.5-8-0.8-12-0.9c-0.8,0-1.6,1.3-2.3,2c0.7,0.7,1.3,1.7,2.1,1.9c3.2,0.8,6.5,1.2,10,1.9
			c0.9-0.2,2-0.3,2.8-0.8c0.6-0.4,1.3-1.5,1.2-2.2C463.8,553.8,462.8,552.7,462.2,552.6z"/>
		<path d="M445.2,529c-3.2-0.5-6.4-0.8-9.5-0.9c-1,0-2.1,0.8-3.1,1.2c0.7,1.1,1.2,2.9,2.2,3.3c2.1,0.8,4.4,0.9,6.6,1.3
			c0-0.1,0-0.3,0.1-0.4c1.2,0,2.6,0.3,3.7-0.1c1.1-0.4,1.8-1.6,2.7-2.5C447,530.2,446.2,529.2,445.2,529z"/>
		<path d="M506.2,563.7c-3.3-1.6-6.9-2.8-10.8-4.3c-0.8,0.8-2,1.5-2,2.2c0,1,0.6,2.4,1.4,2.9c2,1.1,4.2,1.8,6.4,2.3
			c1.4,0.3,3.1,0.3,4.5-0.1C507.5,566.2,507.7,564.4,506.2,563.7z"/>
		<path d="M482.7,556.1c-2.6-0.6-5.2-1.4-7.9-1.7c-0.9-0.1-2,0.9-3.1,1.3c0.5,1,0.9,2.5,1.7,2.9c2.7,1.1,5.7,1.9,9,2.9
			c1.1-0.9,2.9-1.5,3.3-2.7C486.3,556.7,484.2,556.5,482.7,556.1z"/>
		<path d="M490.4,537.2c-3.2-0.4-7-2.5-9.4,1.7c2,2.4,7.6,3.4,13.4,2.4C495,537.9,492.4,537.4,490.4,537.2z"/>
		<path d="M576.3,523.2c-4.7-1.2-8.6,0.8-12.5,2.5c-0.8,0.3-1.2,1.7-1.7,2.6c1,0.6,1.9,1.6,3,1.7c1.7,0.1,3.4-0.4,5.1-0.6
			c0,0,0,0.1,0,0.1c4-0.5,8-0.9,12-1.7c1.1-0.2,1.9-1.7,2.8-2.6c-1.1-0.7-2.1-1.9-3.3-2.1C579.9,522.8,578,523.6,576.3,523.2z"/>
		<path d="M603.1,514.3c-3.3,0.8-6.6,1.7-9.8,3c-1.3,0.5-2.2,1.8-3.3,2.7c1.3,0.8,2.5,1.7,3.8,2.5c4.1-1.5,7.8-2.6,11.3-4.2
			c0.8-0.4,1-2.1,1.5-3.1C605.4,514.8,604.1,514.1,603.1,514.3z"/>
		<path d="M573.3,541.2c-3.5,0.9-7,1.7-10.5,2.8c-1.1,0.3-1.8,1.5-2.8,2.3c1,0.7,2.1,2.1,2.9,2c3.3-0.5,6.8-1.2,9.9-2.5
			c2-0.8,3.4-2.9,5.1-4.4c-0.2-0.3-0.4-0.7-0.7-1C576,540.6,574.6,540.9,573.3,541.2z"/>
		<path d="M596.9,538c-3.5,1.6-6.9,3.4-10.5,5.2c3.1,2.7,5.8,2.2,8.7,0.7c2-1.1,4.2-1.8,6.2-2.9c0.9-0.5,1.4-1.5,2.1-2.3
			c-1.1-0.5-2.1-1.2-3.2-1.4C599.2,537.3,597.9,537.5,596.9,538z"/>
		<path d="M770.6,377.3c4.6-2.9,9.4-14,8.3-16.9C776.4,365.5,773.7,371.1,770.6,377.3z"/>
		<path d="M675.6,337c2.9-1.8,5.4-7.7,4.6-9.9C678.7,330.3,677.2,333.5,675.6,337z"/>
		<path d="M673.3,345c0.5,0.1,1,0.3,1.5,0.4c0.6-2.2,1.1-4.5,1.7-6.7c-0.5-0.1-1-0.3-1.5-0.4C674.5,340.5,673.9,342.8,673.3,345z"/>
	</g>
</g>
</svg>
